G75*
%MOIN*%
%OFA0B0*%
%FSLAX25Y25*%
%IPPOS*%
%LPD*%
%AMOC8*
5,1,8,0,0,1.08239X$1,22.5*
%
%ADD10C,0.00400*%
D10*
X0012957Y0087909D02*
X0292485Y0087909D01*
X0292675Y0087911D01*
X0292865Y0087918D01*
X0293055Y0087930D01*
X0293245Y0087946D01*
X0293434Y0087966D01*
X0293623Y0087992D01*
X0293811Y0088021D01*
X0293998Y0088056D01*
X0294184Y0088095D01*
X0294369Y0088138D01*
X0294554Y0088186D01*
X0294737Y0088238D01*
X0294918Y0088294D01*
X0295098Y0088355D01*
X0295277Y0088421D01*
X0295454Y0088490D01*
X0295630Y0088564D01*
X0295803Y0088642D01*
X0295975Y0088725D01*
X0296144Y0088811D01*
X0296312Y0088901D01*
X0296477Y0088996D01*
X0296640Y0089094D01*
X0296800Y0089197D01*
X0296958Y0089303D01*
X0297113Y0089413D01*
X0297266Y0089526D01*
X0297416Y0089644D01*
X0297562Y0089765D01*
X0297706Y0089889D01*
X0297847Y0090017D01*
X0297985Y0090148D01*
X0298120Y0090283D01*
X0298251Y0090421D01*
X0298379Y0090562D01*
X0298503Y0090706D01*
X0298624Y0090852D01*
X0298742Y0091002D01*
X0298855Y0091155D01*
X0298965Y0091310D01*
X0299071Y0091468D01*
X0299174Y0091628D01*
X0299272Y0091791D01*
X0299367Y0091956D01*
X0299457Y0092124D01*
X0299543Y0092293D01*
X0299626Y0092465D01*
X0299704Y0092638D01*
X0299778Y0092814D01*
X0299847Y0092991D01*
X0299913Y0093170D01*
X0299974Y0093350D01*
X0300030Y0093531D01*
X0300082Y0093714D01*
X0300130Y0093899D01*
X0300173Y0094084D01*
X0300212Y0094270D01*
X0300247Y0094457D01*
X0300276Y0094645D01*
X0300302Y0094834D01*
X0300322Y0095023D01*
X0300338Y0095213D01*
X0300350Y0095403D01*
X0300357Y0095593D01*
X0300359Y0095783D01*
X0300359Y0335941D01*
X0300357Y0336131D01*
X0300350Y0336321D01*
X0300338Y0336511D01*
X0300322Y0336701D01*
X0300302Y0336890D01*
X0300276Y0337079D01*
X0300247Y0337267D01*
X0300212Y0337454D01*
X0300173Y0337640D01*
X0300130Y0337825D01*
X0300082Y0338010D01*
X0300030Y0338193D01*
X0299974Y0338374D01*
X0299913Y0338554D01*
X0299847Y0338733D01*
X0299778Y0338910D01*
X0299704Y0339086D01*
X0299626Y0339259D01*
X0299543Y0339431D01*
X0299457Y0339600D01*
X0299367Y0339768D01*
X0299272Y0339933D01*
X0299174Y0340096D01*
X0299071Y0340256D01*
X0298965Y0340414D01*
X0298855Y0340569D01*
X0298742Y0340722D01*
X0298624Y0340872D01*
X0298503Y0341018D01*
X0298379Y0341162D01*
X0298251Y0341303D01*
X0298120Y0341441D01*
X0297985Y0341576D01*
X0297847Y0341707D01*
X0297706Y0341835D01*
X0297562Y0341959D01*
X0297416Y0342080D01*
X0297266Y0342198D01*
X0297113Y0342311D01*
X0296958Y0342421D01*
X0296800Y0342527D01*
X0296640Y0342630D01*
X0296477Y0342728D01*
X0296312Y0342823D01*
X0296144Y0342913D01*
X0295975Y0342999D01*
X0295803Y0343082D01*
X0295630Y0343160D01*
X0295454Y0343234D01*
X0295277Y0343303D01*
X0295098Y0343369D01*
X0294918Y0343430D01*
X0294737Y0343486D01*
X0294554Y0343538D01*
X0294369Y0343586D01*
X0294184Y0343629D01*
X0293998Y0343668D01*
X0293811Y0343703D01*
X0293623Y0343732D01*
X0293434Y0343758D01*
X0293245Y0343778D01*
X0293055Y0343794D01*
X0292865Y0343806D01*
X0292675Y0343813D01*
X0292485Y0343815D01*
X0012957Y0343815D01*
X0012767Y0343813D01*
X0012577Y0343806D01*
X0012387Y0343794D01*
X0012197Y0343778D01*
X0012008Y0343758D01*
X0011819Y0343732D01*
X0011631Y0343703D01*
X0011444Y0343668D01*
X0011258Y0343629D01*
X0011073Y0343586D01*
X0010888Y0343538D01*
X0010705Y0343486D01*
X0010524Y0343430D01*
X0010344Y0343369D01*
X0010165Y0343303D01*
X0009988Y0343234D01*
X0009812Y0343160D01*
X0009639Y0343082D01*
X0009467Y0342999D01*
X0009298Y0342913D01*
X0009130Y0342823D01*
X0008965Y0342728D01*
X0008802Y0342630D01*
X0008642Y0342527D01*
X0008484Y0342421D01*
X0008329Y0342311D01*
X0008176Y0342198D01*
X0008026Y0342080D01*
X0007880Y0341959D01*
X0007736Y0341835D01*
X0007595Y0341707D01*
X0007457Y0341576D01*
X0007322Y0341441D01*
X0007191Y0341303D01*
X0007063Y0341162D01*
X0006939Y0341018D01*
X0006818Y0340872D01*
X0006700Y0340722D01*
X0006587Y0340569D01*
X0006477Y0340414D01*
X0006371Y0340256D01*
X0006268Y0340096D01*
X0006170Y0339933D01*
X0006075Y0339768D01*
X0005985Y0339600D01*
X0005899Y0339431D01*
X0005816Y0339259D01*
X0005738Y0339086D01*
X0005664Y0338910D01*
X0005595Y0338733D01*
X0005529Y0338554D01*
X0005468Y0338374D01*
X0005412Y0338193D01*
X0005360Y0338010D01*
X0005312Y0337825D01*
X0005269Y0337640D01*
X0005230Y0337454D01*
X0005195Y0337267D01*
X0005166Y0337079D01*
X0005140Y0336890D01*
X0005120Y0336701D01*
X0005104Y0336511D01*
X0005092Y0336321D01*
X0005085Y0336131D01*
X0005083Y0335941D01*
X0005083Y0095783D01*
X0005085Y0095593D01*
X0005092Y0095403D01*
X0005104Y0095213D01*
X0005120Y0095023D01*
X0005140Y0094834D01*
X0005166Y0094645D01*
X0005195Y0094457D01*
X0005230Y0094270D01*
X0005269Y0094084D01*
X0005312Y0093899D01*
X0005360Y0093714D01*
X0005412Y0093531D01*
X0005468Y0093350D01*
X0005529Y0093170D01*
X0005595Y0092991D01*
X0005664Y0092814D01*
X0005738Y0092638D01*
X0005816Y0092465D01*
X0005899Y0092293D01*
X0005985Y0092124D01*
X0006075Y0091956D01*
X0006170Y0091791D01*
X0006268Y0091628D01*
X0006371Y0091468D01*
X0006477Y0091310D01*
X0006587Y0091155D01*
X0006700Y0091002D01*
X0006818Y0090852D01*
X0006939Y0090706D01*
X0007063Y0090562D01*
X0007191Y0090421D01*
X0007322Y0090283D01*
X0007457Y0090148D01*
X0007595Y0090017D01*
X0007736Y0089889D01*
X0007880Y0089765D01*
X0008026Y0089644D01*
X0008176Y0089526D01*
X0008329Y0089413D01*
X0008484Y0089303D01*
X0008642Y0089197D01*
X0008802Y0089094D01*
X0008965Y0088996D01*
X0009130Y0088901D01*
X0009298Y0088811D01*
X0009467Y0088725D01*
X0009639Y0088642D01*
X0009812Y0088564D01*
X0009988Y0088490D01*
X0010165Y0088421D01*
X0010344Y0088355D01*
X0010524Y0088294D01*
X0010705Y0088238D01*
X0010888Y0088186D01*
X0011073Y0088138D01*
X0011258Y0088095D01*
X0011444Y0088056D01*
X0011631Y0088021D01*
X0011819Y0087992D01*
X0012008Y0087966D01*
X0012197Y0087946D01*
X0012387Y0087930D01*
X0012577Y0087918D01*
X0012767Y0087911D01*
X0012957Y0087909D01*
M02*
