%
M48
M72
T01C0.0157
T02C0.0236
T03C0.0354
T04C0.0394
T05C0.0512
T06C0.1024
T07C0.1654
%
T01
X20383Y18041
X19133Y18666
X17008Y14791
X13508Y15541
X13258Y16291
X11508Y14416
X9758Y17791
X8133Y17291
X7633Y17291
X6633Y17541
X6258Y17916
X5883Y18291
X5883Y21166
X6258Y21166
X6633Y21166
X7633Y21166
X8133Y21166
X11758Y19166
X14008Y18666
T02
X27133Y16666
X27133Y17166
X25508Y17166
X25008Y18166
X24508Y18166
X24508Y18666
X24508Y19166
X25008Y19166
X25008Y18666
X24008Y18666
X24008Y19166
X24008Y18166
X23508Y18166
X23008Y18166
X21633Y19416
X21133Y19416
X20633Y19791
X20633Y20291
X20133Y20291
X19633Y20291
X19633Y19791
X20133Y19791
X18633Y19416
X18133Y19416
X17258Y17166
X16758Y17166
X16258Y17166
X17258Y16666
X17258Y16166
X17383Y14416
X19008Y15166
X19008Y15666
X19008Y16166
X18133Y12416
X17633Y12416
X17133Y12416
X16633Y12416
X16133Y12416
X15383Y14041
X14383Y12416
X13883Y12416
X13383Y12416
X12883Y12416
X12383Y12416
X11008Y11291
X11008Y10791
X12133Y10541
X12133Y9666
X13633Y10666
X14133Y10666
X14633Y10666
X15883Y10666
X16383Y10666
X16883Y10666
X18383Y10541
X18383Y9666
X19508Y10791
X19508Y11291
X15133Y16916
X14633Y19041
X14633Y19541
X15633Y19541
X15633Y19041
X15133Y20791
X14383Y22541
X14383Y23041
X14383Y23541
X14383Y24041
X14383Y24541
X13883Y24291
X13883Y23791
X13883Y23291
X13883Y22791
X13078Y22740
X13078Y23291
X12527Y23291
X12527Y22740
X11976Y22740
X11976Y23291
X11976Y23842
X12527Y23842
X13078Y23842
X10383Y24041
X10383Y23541
X10383Y23041
X9883Y23291
X9883Y22791
X10383Y22541
X9883Y23791
X9883Y24291
X10383Y24541
X9633Y20541
X9133Y20541
X9133Y20041
X9633Y20041
X9633Y19541
X9133Y19541
X11008Y19541
X11508Y19541
X12633Y19791
X12633Y20291
X13133Y20291
X13133Y19791
X13633Y19791
X13633Y20291
X15976Y22740
X15976Y23291
X16527Y23291
X16527Y22740
X17078Y22740
X17078Y23291
X17078Y23842
X16527Y23842
X15976Y23842
X17883Y23791
X17883Y24291
X18383Y24541
X18383Y24041
X18383Y23541
X18383Y23041
X18383Y22541
X17883Y22791
X17883Y23291
X19976Y23291
X20527Y23291
X20527Y22740
X19976Y22740
X19976Y23842
X20527Y23842
X21078Y23842
X21078Y23291
X21078Y22740
X21883Y22791
X21883Y23291
X22383Y23541
X22383Y24041
X21883Y24291
X21883Y23791
X22383Y24541
X22383Y23041
X22383Y22541
X23976Y22740
X23976Y23291
X24527Y23291
X25078Y23291
X25078Y22740
X24527Y22740
X24527Y23842
X25078Y23842
X23976Y23842
X25508Y20791
X26258Y18916
X26758Y18916
X25883Y27291
X13383Y13916
X11508Y15041
X11508Y15541
X11008Y15541
X11008Y16041
X11508Y16041
T03
X22508Y25682
X22508Y27650
X18508Y27650
X18508Y25682
X14508Y25682
X14508Y27650
X10508Y27650
X10508Y25682
X7493Y26666
X5524Y26666
T04
X23146Y9972
X23146Y9972
X22162Y9972
X22162Y9972
X21178Y9972
X21178Y9972
X21178Y12433
X23146Y12433
X23146Y15681
X21178Y15681
X9367Y15681
X7398Y15681
X7398Y12433
X9367Y12433
X9367Y9972
X9367Y9972
X8382Y9972
X8382Y9972
X7398Y9972
X7398Y9972
X1383Y18666
X1383Y19666
X1383Y20666
X1383Y21666
X1383Y22666
T05
X24508Y32697
X22508Y32697
X20508Y32697
X18508Y32697
X16508Y32697
X14508Y32697
X12508Y32697
X10508Y32697
X8508Y32697
X6508Y32697
T06
X24406Y12925
X19918Y12925
X10626Y12925
X6138Y12925
T07
X28067Y10759
X28067Y32413
X2477Y32413
X2477Y10759
M30
