G75*
%MOIN*%
%OFA0B0*%
%FSLAX25Y25*%
%IPPOS*%
%LPD*%
%AMOC8*
5,1,8,0,0,1.08239X$1,22.5*
%
%ADD10C,0.00400*%
%ADD11R,0.04528X0.02756*%
%ADD12R,0.12205X0.16535*%
%ADD13R,0.05906X0.18504*%
%ADD14R,0.03962X0.03962*%
%ADD15R,0.02362X0.05118*%
%ADD16R,0.09449X0.09449*%
%ADD17R,0.05118X0.04331*%
%ADD18R,0.06693X0.06693*%
%ADD19R,0.14961X0.14961*%
%ADD20R,0.06890X0.02756*%
%ADD21R,0.04331X0.05118*%
%ADD22C,0.07677*%
%ADD23C,0.10000*%
%ADD24OC8,0.10000*%
%ADD25R,0.02756X0.06890*%
%ADD26R,0.02362X0.03150*%
%ADD27R,0.03150X0.02362*%
%ADD28R,0.03937X0.03150*%
%ADD29C,0.05906*%
%ADD30C,0.31496*%
%ADD31C,0.00787*%
%ADD32C,0.03562*%
%ADD33C,0.02400*%
%ADD34C,0.01600*%
%ADD35C,0.01200*%
%ADD36C,0.02775*%
D10*
X0012957Y0087909D02*
X0292485Y0087909D01*
X0292675Y0087911D01*
X0292865Y0087918D01*
X0293055Y0087930D01*
X0293245Y0087946D01*
X0293434Y0087966D01*
X0293623Y0087992D01*
X0293811Y0088021D01*
X0293998Y0088056D01*
X0294184Y0088095D01*
X0294369Y0088138D01*
X0294554Y0088186D01*
X0294737Y0088238D01*
X0294918Y0088294D01*
X0295098Y0088355D01*
X0295277Y0088421D01*
X0295454Y0088490D01*
X0295630Y0088564D01*
X0295803Y0088642D01*
X0295975Y0088725D01*
X0296144Y0088811D01*
X0296312Y0088901D01*
X0296477Y0088996D01*
X0296640Y0089094D01*
X0296800Y0089197D01*
X0296958Y0089303D01*
X0297113Y0089413D01*
X0297266Y0089526D01*
X0297416Y0089644D01*
X0297562Y0089765D01*
X0297706Y0089889D01*
X0297847Y0090017D01*
X0297985Y0090148D01*
X0298120Y0090283D01*
X0298251Y0090421D01*
X0298379Y0090562D01*
X0298503Y0090706D01*
X0298624Y0090852D01*
X0298742Y0091002D01*
X0298855Y0091155D01*
X0298965Y0091310D01*
X0299071Y0091468D01*
X0299174Y0091628D01*
X0299272Y0091791D01*
X0299367Y0091956D01*
X0299457Y0092124D01*
X0299543Y0092293D01*
X0299626Y0092465D01*
X0299704Y0092638D01*
X0299778Y0092814D01*
X0299847Y0092991D01*
X0299913Y0093170D01*
X0299974Y0093350D01*
X0300030Y0093531D01*
X0300082Y0093714D01*
X0300130Y0093899D01*
X0300173Y0094084D01*
X0300212Y0094270D01*
X0300247Y0094457D01*
X0300276Y0094645D01*
X0300302Y0094834D01*
X0300322Y0095023D01*
X0300338Y0095213D01*
X0300350Y0095403D01*
X0300357Y0095593D01*
X0300359Y0095783D01*
X0300359Y0335941D01*
X0300357Y0336131D01*
X0300350Y0336321D01*
X0300338Y0336511D01*
X0300322Y0336701D01*
X0300302Y0336890D01*
X0300276Y0337079D01*
X0300247Y0337267D01*
X0300212Y0337454D01*
X0300173Y0337640D01*
X0300130Y0337825D01*
X0300082Y0338010D01*
X0300030Y0338193D01*
X0299974Y0338374D01*
X0299913Y0338554D01*
X0299847Y0338733D01*
X0299778Y0338910D01*
X0299704Y0339086D01*
X0299626Y0339259D01*
X0299543Y0339431D01*
X0299457Y0339600D01*
X0299367Y0339768D01*
X0299272Y0339933D01*
X0299174Y0340096D01*
X0299071Y0340256D01*
X0298965Y0340414D01*
X0298855Y0340569D01*
X0298742Y0340722D01*
X0298624Y0340872D01*
X0298503Y0341018D01*
X0298379Y0341162D01*
X0298251Y0341303D01*
X0298120Y0341441D01*
X0297985Y0341576D01*
X0297847Y0341707D01*
X0297706Y0341835D01*
X0297562Y0341959D01*
X0297416Y0342080D01*
X0297266Y0342198D01*
X0297113Y0342311D01*
X0296958Y0342421D01*
X0296800Y0342527D01*
X0296640Y0342630D01*
X0296477Y0342728D01*
X0296312Y0342823D01*
X0296144Y0342913D01*
X0295975Y0342999D01*
X0295803Y0343082D01*
X0295630Y0343160D01*
X0295454Y0343234D01*
X0295277Y0343303D01*
X0295098Y0343369D01*
X0294918Y0343430D01*
X0294737Y0343486D01*
X0294554Y0343538D01*
X0294369Y0343586D01*
X0294184Y0343629D01*
X0293998Y0343668D01*
X0293811Y0343703D01*
X0293623Y0343732D01*
X0293434Y0343758D01*
X0293245Y0343778D01*
X0293055Y0343794D01*
X0292865Y0343806D01*
X0292675Y0343813D01*
X0292485Y0343815D01*
X0012957Y0343815D01*
X0012767Y0343813D01*
X0012577Y0343806D01*
X0012387Y0343794D01*
X0012197Y0343778D01*
X0012008Y0343758D01*
X0011819Y0343732D01*
X0011631Y0343703D01*
X0011444Y0343668D01*
X0011258Y0343629D01*
X0011073Y0343586D01*
X0010888Y0343538D01*
X0010705Y0343486D01*
X0010524Y0343430D01*
X0010344Y0343369D01*
X0010165Y0343303D01*
X0009988Y0343234D01*
X0009812Y0343160D01*
X0009639Y0343082D01*
X0009467Y0342999D01*
X0009298Y0342913D01*
X0009130Y0342823D01*
X0008965Y0342728D01*
X0008802Y0342630D01*
X0008642Y0342527D01*
X0008484Y0342421D01*
X0008329Y0342311D01*
X0008176Y0342198D01*
X0008026Y0342080D01*
X0007880Y0341959D01*
X0007736Y0341835D01*
X0007595Y0341707D01*
X0007457Y0341576D01*
X0007322Y0341441D01*
X0007191Y0341303D01*
X0007063Y0341162D01*
X0006939Y0341018D01*
X0006818Y0340872D01*
X0006700Y0340722D01*
X0006587Y0340569D01*
X0006477Y0340414D01*
X0006371Y0340256D01*
X0006268Y0340096D01*
X0006170Y0339933D01*
X0006075Y0339768D01*
X0005985Y0339600D01*
X0005899Y0339431D01*
X0005816Y0339259D01*
X0005738Y0339086D01*
X0005664Y0338910D01*
X0005595Y0338733D01*
X0005529Y0338554D01*
X0005468Y0338374D01*
X0005412Y0338193D01*
X0005360Y0338010D01*
X0005312Y0337825D01*
X0005269Y0337640D01*
X0005230Y0337454D01*
X0005195Y0337267D01*
X0005166Y0337079D01*
X0005140Y0336890D01*
X0005120Y0336701D01*
X0005104Y0336511D01*
X0005092Y0336321D01*
X0005085Y0336131D01*
X0005083Y0335941D01*
X0005083Y0095783D01*
X0005085Y0095593D01*
X0005092Y0095403D01*
X0005104Y0095213D01*
X0005120Y0095023D01*
X0005140Y0094834D01*
X0005166Y0094645D01*
X0005195Y0094457D01*
X0005230Y0094270D01*
X0005269Y0094084D01*
X0005312Y0093899D01*
X0005360Y0093714D01*
X0005412Y0093531D01*
X0005468Y0093350D01*
X0005529Y0093170D01*
X0005595Y0092991D01*
X0005664Y0092814D01*
X0005738Y0092638D01*
X0005816Y0092465D01*
X0005899Y0092293D01*
X0005985Y0092124D01*
X0006075Y0091956D01*
X0006170Y0091791D01*
X0006268Y0091628D01*
X0006371Y0091468D01*
X0006477Y0091310D01*
X0006587Y0091155D01*
X0006700Y0091002D01*
X0006818Y0090852D01*
X0006939Y0090706D01*
X0007063Y0090562D01*
X0007191Y0090421D01*
X0007322Y0090283D01*
X0007457Y0090148D01*
X0007595Y0090017D01*
X0007736Y0089889D01*
X0007880Y0089765D01*
X0008026Y0089644D01*
X0008176Y0089526D01*
X0008329Y0089413D01*
X0008484Y0089303D01*
X0008642Y0089197D01*
X0008802Y0089094D01*
X0008965Y0088996D01*
X0009130Y0088901D01*
X0009298Y0088811D01*
X0009467Y0088725D01*
X0009639Y0088642D01*
X0009812Y0088564D01*
X0009988Y0088490D01*
X0010165Y0088421D01*
X0010344Y0088355D01*
X0010524Y0088294D01*
X0010705Y0088238D01*
X0010888Y0088186D01*
X0011073Y0088138D01*
X0011258Y0088095D01*
X0011444Y0088056D01*
X0011631Y0088021D01*
X0011819Y0087992D01*
X0012008Y0087966D01*
X0012197Y0087946D01*
X0012387Y0087930D01*
X0012577Y0087918D01*
X0012767Y0087911D01*
X0012957Y0087909D01*
X0115083Y0222909D02*
X0115083Y0331659D01*
X0118833Y0335409D01*
X0131333Y0335409D01*
X0135083Y0331659D01*
X0135083Y0222909D01*
X0115083Y0222909D01*
X0115083Y0223005D02*
X0135083Y0223005D01*
X0135083Y0223403D02*
X0115083Y0223403D01*
X0115083Y0223802D02*
X0135083Y0223802D01*
X0135083Y0224200D02*
X0115083Y0224200D01*
X0115083Y0224599D02*
X0135083Y0224599D01*
X0135083Y0224997D02*
X0115083Y0224997D01*
X0115083Y0225396D02*
X0135083Y0225396D01*
X0135083Y0225794D02*
X0115083Y0225794D01*
X0115083Y0226193D02*
X0135083Y0226193D01*
X0135083Y0226591D02*
X0115083Y0226591D01*
X0115083Y0226990D02*
X0135083Y0226990D01*
X0135083Y0227388D02*
X0115083Y0227388D01*
X0115083Y0227787D02*
X0135083Y0227787D01*
X0135083Y0228185D02*
X0115083Y0228185D01*
X0115083Y0228584D02*
X0135083Y0228584D01*
X0135083Y0228982D02*
X0115083Y0228982D01*
X0115083Y0229381D02*
X0135083Y0229381D01*
X0135083Y0229779D02*
X0115083Y0229779D01*
X0115083Y0230178D02*
X0135083Y0230178D01*
X0135083Y0230577D02*
X0115083Y0230577D01*
X0115083Y0230975D02*
X0135083Y0230975D01*
X0135083Y0231374D02*
X0115083Y0231374D01*
X0115083Y0231772D02*
X0135083Y0231772D01*
X0135083Y0232171D02*
X0115083Y0232171D01*
X0115083Y0232569D02*
X0135083Y0232569D01*
X0135083Y0232968D02*
X0115083Y0232968D01*
X0115083Y0233366D02*
X0135083Y0233366D01*
X0135083Y0233765D02*
X0115083Y0233765D01*
X0115083Y0234163D02*
X0135083Y0234163D01*
X0135083Y0234562D02*
X0115083Y0234562D01*
X0115083Y0234960D02*
X0135083Y0234960D01*
X0135083Y0235359D02*
X0115083Y0235359D01*
X0115083Y0235757D02*
X0135083Y0235757D01*
X0135083Y0236156D02*
X0115083Y0236156D01*
X0115083Y0236554D02*
X0135083Y0236554D01*
X0135083Y0236953D02*
X0115083Y0236953D01*
X0115083Y0237351D02*
X0135083Y0237351D01*
X0135083Y0237750D02*
X0115083Y0237750D01*
X0115083Y0238148D02*
X0135083Y0238148D01*
X0135083Y0238547D02*
X0115083Y0238547D01*
X0115083Y0238945D02*
X0135083Y0238945D01*
X0135083Y0239344D02*
X0115083Y0239344D01*
X0115083Y0239742D02*
X0135083Y0239742D01*
X0135083Y0240141D02*
X0115083Y0240141D01*
X0115083Y0240539D02*
X0135083Y0240539D01*
X0135083Y0240938D02*
X0115083Y0240938D01*
X0115083Y0241336D02*
X0135083Y0241336D01*
X0135083Y0241735D02*
X0115083Y0241735D01*
X0115083Y0242133D02*
X0135083Y0242133D01*
X0135083Y0242532D02*
X0115083Y0242532D01*
X0115083Y0242930D02*
X0135083Y0242930D01*
X0135083Y0243329D02*
X0115083Y0243329D01*
X0115083Y0243727D02*
X0135083Y0243727D01*
X0135083Y0244126D02*
X0115083Y0244126D01*
X0115083Y0244524D02*
X0135083Y0244524D01*
X0135083Y0244923D02*
X0115083Y0244923D01*
X0115083Y0245321D02*
X0135083Y0245321D01*
X0135083Y0245720D02*
X0115083Y0245720D01*
X0115083Y0246118D02*
X0135083Y0246118D01*
X0135083Y0246517D02*
X0115083Y0246517D01*
X0115083Y0246915D02*
X0135083Y0246915D01*
X0135083Y0247314D02*
X0115083Y0247314D01*
X0115083Y0247712D02*
X0135083Y0247712D01*
X0135083Y0248111D02*
X0115083Y0248111D01*
X0115083Y0248510D02*
X0135083Y0248510D01*
X0135083Y0248908D02*
X0115083Y0248908D01*
X0115083Y0249307D02*
X0135083Y0249307D01*
X0135083Y0249705D02*
X0115083Y0249705D01*
X0115083Y0250104D02*
X0135083Y0250104D01*
X0135083Y0250502D02*
X0115083Y0250502D01*
X0115083Y0250901D02*
X0135083Y0250901D01*
X0135083Y0251299D02*
X0115083Y0251299D01*
X0115083Y0251698D02*
X0135083Y0251698D01*
X0135083Y0252096D02*
X0115083Y0252096D01*
X0115083Y0252495D02*
X0135083Y0252495D01*
X0135083Y0252893D02*
X0115083Y0252893D01*
X0115083Y0253292D02*
X0135083Y0253292D01*
X0135083Y0253690D02*
X0115083Y0253690D01*
X0115083Y0254089D02*
X0135083Y0254089D01*
X0135083Y0254487D02*
X0115083Y0254487D01*
X0115083Y0254886D02*
X0135083Y0254886D01*
X0135083Y0255284D02*
X0115083Y0255284D01*
X0115083Y0255683D02*
X0135083Y0255683D01*
X0135083Y0256081D02*
X0115083Y0256081D01*
X0115083Y0256480D02*
X0135083Y0256480D01*
X0135083Y0256878D02*
X0115083Y0256878D01*
X0115083Y0257277D02*
X0135083Y0257277D01*
X0135083Y0257675D02*
X0115083Y0257675D01*
X0115083Y0258074D02*
X0135083Y0258074D01*
X0135083Y0258472D02*
X0115083Y0258472D01*
X0115083Y0258871D02*
X0135083Y0258871D01*
X0135083Y0259269D02*
X0115083Y0259269D01*
X0115083Y0259668D02*
X0135083Y0259668D01*
X0135083Y0260066D02*
X0115083Y0260066D01*
X0115083Y0260465D02*
X0135083Y0260465D01*
X0135083Y0260863D02*
X0115083Y0260863D01*
X0115083Y0261262D02*
X0135083Y0261262D01*
X0135083Y0261660D02*
X0115083Y0261660D01*
X0115083Y0262059D02*
X0135083Y0262059D01*
X0135083Y0262457D02*
X0115083Y0262457D01*
X0115083Y0262856D02*
X0135083Y0262856D01*
X0135083Y0263254D02*
X0115083Y0263254D01*
X0115083Y0263653D02*
X0135083Y0263653D01*
X0135083Y0264051D02*
X0115083Y0264051D01*
X0115083Y0264450D02*
X0135083Y0264450D01*
X0135083Y0264848D02*
X0115083Y0264848D01*
X0115083Y0265247D02*
X0135083Y0265247D01*
X0135083Y0265645D02*
X0115083Y0265645D01*
X0115083Y0266044D02*
X0135083Y0266044D01*
X0135083Y0266443D02*
X0115083Y0266443D01*
X0115083Y0266841D02*
X0135083Y0266841D01*
X0135083Y0267240D02*
X0115083Y0267240D01*
X0115083Y0267638D02*
X0135083Y0267638D01*
X0135083Y0268037D02*
X0115083Y0268037D01*
X0115083Y0268435D02*
X0135083Y0268435D01*
X0135083Y0268834D02*
X0115083Y0268834D01*
X0115083Y0269232D02*
X0135083Y0269232D01*
X0135083Y0269631D02*
X0115083Y0269631D01*
X0115083Y0270029D02*
X0135083Y0270029D01*
X0135083Y0270428D02*
X0115083Y0270428D01*
X0115083Y0270826D02*
X0135083Y0270826D01*
X0135083Y0271225D02*
X0115083Y0271225D01*
X0115083Y0271623D02*
X0135083Y0271623D01*
X0135083Y0272022D02*
X0115083Y0272022D01*
X0115083Y0272420D02*
X0135083Y0272420D01*
X0135083Y0272819D02*
X0115083Y0272819D01*
X0115083Y0273217D02*
X0135083Y0273217D01*
X0135083Y0273616D02*
X0115083Y0273616D01*
X0115083Y0274014D02*
X0135083Y0274014D01*
X0135083Y0274413D02*
X0115083Y0274413D01*
X0115083Y0274811D02*
X0135083Y0274811D01*
X0135083Y0275210D02*
X0115083Y0275210D01*
X0115083Y0275608D02*
X0135083Y0275608D01*
X0135083Y0276007D02*
X0115083Y0276007D01*
X0115083Y0276405D02*
X0135083Y0276405D01*
X0135083Y0276804D02*
X0115083Y0276804D01*
X0115083Y0277202D02*
X0135083Y0277202D01*
X0135083Y0277601D02*
X0115083Y0277601D01*
X0115083Y0277999D02*
X0135083Y0277999D01*
X0135083Y0278398D02*
X0115083Y0278398D01*
X0115083Y0278796D02*
X0135083Y0278796D01*
X0135083Y0279195D02*
X0115083Y0279195D01*
X0115083Y0279593D02*
X0135083Y0279593D01*
X0135083Y0279992D02*
X0115083Y0279992D01*
X0115083Y0280390D02*
X0135083Y0280390D01*
X0135083Y0280789D02*
X0115083Y0280789D01*
X0115083Y0281187D02*
X0135083Y0281187D01*
X0135083Y0281586D02*
X0115083Y0281586D01*
X0115083Y0281984D02*
X0135083Y0281984D01*
X0135083Y0282383D02*
X0115083Y0282383D01*
X0115083Y0282781D02*
X0135083Y0282781D01*
X0135083Y0283180D02*
X0115083Y0283180D01*
X0115083Y0283579D02*
X0135083Y0283579D01*
X0135083Y0283977D02*
X0115083Y0283977D01*
X0115083Y0284376D02*
X0135083Y0284376D01*
X0135083Y0284774D02*
X0115083Y0284774D01*
X0115083Y0285173D02*
X0135083Y0285173D01*
X0135083Y0285571D02*
X0115083Y0285571D01*
X0115083Y0285970D02*
X0135083Y0285970D01*
X0135083Y0286368D02*
X0115083Y0286368D01*
X0115083Y0286767D02*
X0135083Y0286767D01*
X0135083Y0287165D02*
X0115083Y0287165D01*
X0115083Y0287564D02*
X0135083Y0287564D01*
X0135083Y0287962D02*
X0115083Y0287962D01*
X0115083Y0288361D02*
X0135083Y0288361D01*
X0135083Y0288759D02*
X0115083Y0288759D01*
X0115083Y0289158D02*
X0135083Y0289158D01*
X0135083Y0289556D02*
X0115083Y0289556D01*
X0115083Y0289955D02*
X0135083Y0289955D01*
X0135083Y0290353D02*
X0115083Y0290353D01*
X0115083Y0290752D02*
X0135083Y0290752D01*
X0135083Y0291150D02*
X0115083Y0291150D01*
X0115083Y0291549D02*
X0135083Y0291549D01*
X0135083Y0291947D02*
X0115083Y0291947D01*
X0115083Y0292346D02*
X0135083Y0292346D01*
X0135083Y0292744D02*
X0115083Y0292744D01*
X0115083Y0293143D02*
X0135083Y0293143D01*
X0135083Y0293541D02*
X0115083Y0293541D01*
X0115083Y0293940D02*
X0135083Y0293940D01*
X0135083Y0294338D02*
X0115083Y0294338D01*
X0115083Y0294737D02*
X0135083Y0294737D01*
X0135083Y0295135D02*
X0115083Y0295135D01*
X0115083Y0295534D02*
X0135083Y0295534D01*
X0135083Y0295932D02*
X0115083Y0295932D01*
X0115083Y0296331D02*
X0135083Y0296331D01*
X0135083Y0296729D02*
X0115083Y0296729D01*
X0115083Y0297128D02*
X0135083Y0297128D01*
X0135083Y0297526D02*
X0115083Y0297526D01*
X0115083Y0297925D02*
X0135083Y0297925D01*
X0135083Y0298323D02*
X0115083Y0298323D01*
X0115083Y0298722D02*
X0135083Y0298722D01*
X0135083Y0299120D02*
X0115083Y0299120D01*
X0115083Y0299519D02*
X0135083Y0299519D01*
X0135083Y0299917D02*
X0115083Y0299917D01*
X0115083Y0300316D02*
X0135083Y0300316D01*
X0135083Y0300714D02*
X0115083Y0300714D01*
X0115083Y0301113D02*
X0135083Y0301113D01*
X0135083Y0301512D02*
X0115083Y0301512D01*
X0115083Y0301910D02*
X0135083Y0301910D01*
X0135083Y0302309D02*
X0115083Y0302309D01*
X0115083Y0302707D02*
X0135083Y0302707D01*
X0135083Y0303106D02*
X0115083Y0303106D01*
X0115083Y0303504D02*
X0135083Y0303504D01*
X0135083Y0303903D02*
X0115083Y0303903D01*
X0115083Y0304301D02*
X0135083Y0304301D01*
X0135083Y0304700D02*
X0115083Y0304700D01*
X0115083Y0305098D02*
X0135083Y0305098D01*
X0135083Y0305497D02*
X0115083Y0305497D01*
X0115083Y0305895D02*
X0135083Y0305895D01*
X0135083Y0306294D02*
X0115083Y0306294D01*
X0115083Y0306692D02*
X0135083Y0306692D01*
X0135083Y0307091D02*
X0115083Y0307091D01*
X0115083Y0307489D02*
X0135083Y0307489D01*
X0135083Y0307888D02*
X0115083Y0307888D01*
X0115083Y0308286D02*
X0135083Y0308286D01*
X0135083Y0308685D02*
X0115083Y0308685D01*
X0115083Y0309083D02*
X0135083Y0309083D01*
X0135083Y0309482D02*
X0115083Y0309482D01*
X0115083Y0309880D02*
X0135083Y0309880D01*
X0135083Y0310279D02*
X0115083Y0310279D01*
X0115083Y0310677D02*
X0135083Y0310677D01*
X0135083Y0311076D02*
X0115083Y0311076D01*
X0115083Y0311474D02*
X0135083Y0311474D01*
X0135083Y0311873D02*
X0115083Y0311873D01*
X0115083Y0312271D02*
X0135083Y0312271D01*
X0135083Y0312670D02*
X0115083Y0312670D01*
X0115083Y0313068D02*
X0135083Y0313068D01*
X0135083Y0313467D02*
X0115083Y0313467D01*
X0115083Y0313865D02*
X0135083Y0313865D01*
X0135083Y0314264D02*
X0115083Y0314264D01*
X0115083Y0314662D02*
X0135083Y0314662D01*
X0135083Y0315061D02*
X0115083Y0315061D01*
X0115083Y0315459D02*
X0135083Y0315459D01*
X0135083Y0315858D02*
X0115083Y0315858D01*
X0115083Y0316256D02*
X0135083Y0316256D01*
X0135083Y0316655D02*
X0115083Y0316655D01*
X0115083Y0317053D02*
X0135083Y0317053D01*
X0135083Y0317452D02*
X0115083Y0317452D01*
X0115083Y0317850D02*
X0135083Y0317850D01*
X0135083Y0318249D02*
X0115083Y0318249D01*
X0115083Y0318648D02*
X0135083Y0318648D01*
X0135083Y0319046D02*
X0115083Y0319046D01*
X0115083Y0319445D02*
X0135083Y0319445D01*
X0135083Y0319843D02*
X0115083Y0319843D01*
X0115083Y0320242D02*
X0135083Y0320242D01*
X0135083Y0320640D02*
X0115083Y0320640D01*
X0115083Y0321039D02*
X0135083Y0321039D01*
X0135083Y0321437D02*
X0115083Y0321437D01*
X0115083Y0321836D02*
X0135083Y0321836D01*
X0135083Y0322234D02*
X0115083Y0322234D01*
X0115083Y0322633D02*
X0135083Y0322633D01*
X0135083Y0323031D02*
X0115083Y0323031D01*
X0115083Y0323430D02*
X0135083Y0323430D01*
X0135083Y0323828D02*
X0115083Y0323828D01*
X0115083Y0324227D02*
X0135083Y0324227D01*
X0135083Y0324625D02*
X0115083Y0324625D01*
X0115083Y0325024D02*
X0135083Y0325024D01*
X0135083Y0325422D02*
X0115083Y0325422D01*
X0115083Y0325821D02*
X0135083Y0325821D01*
X0135083Y0326219D02*
X0115083Y0326219D01*
X0115083Y0326618D02*
X0135083Y0326618D01*
X0135083Y0327016D02*
X0115083Y0327016D01*
X0115083Y0327415D02*
X0135083Y0327415D01*
X0135083Y0327813D02*
X0115083Y0327813D01*
X0115083Y0328212D02*
X0135083Y0328212D01*
X0135083Y0328610D02*
X0115083Y0328610D01*
X0115083Y0329009D02*
X0135083Y0329009D01*
X0135083Y0329407D02*
X0115083Y0329407D01*
X0115083Y0329806D02*
X0135083Y0329806D01*
X0135083Y0330204D02*
X0115083Y0330204D01*
X0115083Y0330603D02*
X0135083Y0330603D01*
X0135083Y0331001D02*
X0115083Y0331001D01*
X0115083Y0331400D02*
X0135083Y0331400D01*
X0134944Y0331798D02*
X0115222Y0331798D01*
X0115621Y0332197D02*
X0134546Y0332197D01*
X0134147Y0332595D02*
X0116019Y0332595D01*
X0116418Y0332994D02*
X0133749Y0332994D01*
X0133350Y0333392D02*
X0116816Y0333392D01*
X0117215Y0333791D02*
X0132952Y0333791D01*
X0132553Y0334189D02*
X0117613Y0334189D01*
X0118012Y0334588D02*
X0132155Y0334588D01*
X0131756Y0334986D02*
X0118410Y0334986D01*
X0118809Y0335385D02*
X0131358Y0335385D01*
X0155083Y0331659D02*
X0158833Y0335409D01*
X0171333Y0335409D01*
X0175083Y0331659D01*
X0175083Y0222909D01*
X0155083Y0222909D01*
X0155083Y0331659D01*
X0155222Y0331798D02*
X0174944Y0331798D01*
X0175083Y0331400D02*
X0155083Y0331400D01*
X0155083Y0331001D02*
X0175083Y0331001D01*
X0175083Y0330603D02*
X0155083Y0330603D01*
X0155083Y0330204D02*
X0175083Y0330204D01*
X0175083Y0329806D02*
X0155083Y0329806D01*
X0155083Y0329407D02*
X0175083Y0329407D01*
X0175083Y0329009D02*
X0155083Y0329009D01*
X0155083Y0328610D02*
X0175083Y0328610D01*
X0175083Y0328212D02*
X0155083Y0328212D01*
X0155083Y0327813D02*
X0175083Y0327813D01*
X0175083Y0327415D02*
X0155083Y0327415D01*
X0155083Y0327016D02*
X0175083Y0327016D01*
X0175083Y0326618D02*
X0155083Y0326618D01*
X0155083Y0326219D02*
X0175083Y0326219D01*
X0175083Y0325821D02*
X0155083Y0325821D01*
X0155083Y0325422D02*
X0175083Y0325422D01*
X0175083Y0325024D02*
X0155083Y0325024D01*
X0155083Y0324625D02*
X0175083Y0324625D01*
X0175083Y0324227D02*
X0155083Y0324227D01*
X0155083Y0323828D02*
X0175083Y0323828D01*
X0175083Y0323430D02*
X0155083Y0323430D01*
X0155083Y0323031D02*
X0175083Y0323031D01*
X0175083Y0322633D02*
X0155083Y0322633D01*
X0155083Y0322234D02*
X0175083Y0322234D01*
X0175083Y0321836D02*
X0155083Y0321836D01*
X0155083Y0321437D02*
X0175083Y0321437D01*
X0175083Y0321039D02*
X0155083Y0321039D01*
X0155083Y0320640D02*
X0175083Y0320640D01*
X0175083Y0320242D02*
X0155083Y0320242D01*
X0155083Y0319843D02*
X0175083Y0319843D01*
X0175083Y0319445D02*
X0155083Y0319445D01*
X0155083Y0319046D02*
X0175083Y0319046D01*
X0175083Y0318648D02*
X0155083Y0318648D01*
X0155083Y0318249D02*
X0175083Y0318249D01*
X0175083Y0317850D02*
X0155083Y0317850D01*
X0155083Y0317452D02*
X0175083Y0317452D01*
X0175083Y0317053D02*
X0155083Y0317053D01*
X0155083Y0316655D02*
X0175083Y0316655D01*
X0175083Y0316256D02*
X0155083Y0316256D01*
X0155083Y0315858D02*
X0175083Y0315858D01*
X0175083Y0315459D02*
X0155083Y0315459D01*
X0155083Y0315061D02*
X0175083Y0315061D01*
X0175083Y0314662D02*
X0155083Y0314662D01*
X0155083Y0314264D02*
X0175083Y0314264D01*
X0175083Y0313865D02*
X0155083Y0313865D01*
X0155083Y0313467D02*
X0175083Y0313467D01*
X0175083Y0313068D02*
X0155083Y0313068D01*
X0155083Y0312670D02*
X0175083Y0312670D01*
X0175083Y0312271D02*
X0155083Y0312271D01*
X0155083Y0311873D02*
X0175083Y0311873D01*
X0175083Y0311474D02*
X0155083Y0311474D01*
X0155083Y0311076D02*
X0175083Y0311076D01*
X0175083Y0310677D02*
X0155083Y0310677D01*
X0155083Y0310279D02*
X0175083Y0310279D01*
X0175083Y0309880D02*
X0155083Y0309880D01*
X0155083Y0309482D02*
X0175083Y0309482D01*
X0175083Y0309083D02*
X0155083Y0309083D01*
X0155083Y0308685D02*
X0175083Y0308685D01*
X0175083Y0308286D02*
X0155083Y0308286D01*
X0155083Y0307888D02*
X0175083Y0307888D01*
X0175083Y0307489D02*
X0155083Y0307489D01*
X0155083Y0307091D02*
X0175083Y0307091D01*
X0175083Y0306692D02*
X0155083Y0306692D01*
X0155083Y0306294D02*
X0175083Y0306294D01*
X0175083Y0305895D02*
X0155083Y0305895D01*
X0155083Y0305497D02*
X0175083Y0305497D01*
X0175083Y0305098D02*
X0155083Y0305098D01*
X0155083Y0304700D02*
X0175083Y0304700D01*
X0175083Y0304301D02*
X0155083Y0304301D01*
X0155083Y0303903D02*
X0175083Y0303903D01*
X0175083Y0303504D02*
X0155083Y0303504D01*
X0155083Y0303106D02*
X0175083Y0303106D01*
X0175083Y0302707D02*
X0155083Y0302707D01*
X0155083Y0302309D02*
X0175083Y0302309D01*
X0175083Y0301910D02*
X0155083Y0301910D01*
X0155083Y0301512D02*
X0175083Y0301512D01*
X0175083Y0301113D02*
X0155083Y0301113D01*
X0155083Y0300714D02*
X0175083Y0300714D01*
X0175083Y0300316D02*
X0155083Y0300316D01*
X0155083Y0299917D02*
X0175083Y0299917D01*
X0175083Y0299519D02*
X0155083Y0299519D01*
X0155083Y0299120D02*
X0175083Y0299120D01*
X0175083Y0298722D02*
X0155083Y0298722D01*
X0155083Y0298323D02*
X0175083Y0298323D01*
X0175083Y0297925D02*
X0155083Y0297925D01*
X0155083Y0297526D02*
X0175083Y0297526D01*
X0175083Y0297128D02*
X0155083Y0297128D01*
X0155083Y0296729D02*
X0175083Y0296729D01*
X0175083Y0296331D02*
X0155083Y0296331D01*
X0155083Y0295932D02*
X0175083Y0295932D01*
X0175083Y0295534D02*
X0155083Y0295534D01*
X0155083Y0295135D02*
X0175083Y0295135D01*
X0175083Y0294737D02*
X0155083Y0294737D01*
X0155083Y0294338D02*
X0175083Y0294338D01*
X0175083Y0293940D02*
X0155083Y0293940D01*
X0155083Y0293541D02*
X0175083Y0293541D01*
X0175083Y0293143D02*
X0155083Y0293143D01*
X0155083Y0292744D02*
X0175083Y0292744D01*
X0175083Y0292346D02*
X0155083Y0292346D01*
X0155083Y0291947D02*
X0175083Y0291947D01*
X0175083Y0291549D02*
X0155083Y0291549D01*
X0155083Y0291150D02*
X0175083Y0291150D01*
X0175083Y0290752D02*
X0155083Y0290752D01*
X0155083Y0290353D02*
X0175083Y0290353D01*
X0175083Y0289955D02*
X0155083Y0289955D01*
X0155083Y0289556D02*
X0175083Y0289556D01*
X0175083Y0289158D02*
X0155083Y0289158D01*
X0155083Y0288759D02*
X0175083Y0288759D01*
X0175083Y0288361D02*
X0155083Y0288361D01*
X0155083Y0287962D02*
X0175083Y0287962D01*
X0175083Y0287564D02*
X0155083Y0287564D01*
X0155083Y0287165D02*
X0175083Y0287165D01*
X0175083Y0286767D02*
X0155083Y0286767D01*
X0155083Y0286368D02*
X0175083Y0286368D01*
X0175083Y0285970D02*
X0155083Y0285970D01*
X0155083Y0285571D02*
X0175083Y0285571D01*
X0175083Y0285173D02*
X0155083Y0285173D01*
X0155083Y0284774D02*
X0175083Y0284774D01*
X0175083Y0284376D02*
X0155083Y0284376D01*
X0155083Y0283977D02*
X0175083Y0283977D01*
X0175083Y0283579D02*
X0155083Y0283579D01*
X0155083Y0283180D02*
X0175083Y0283180D01*
X0175083Y0282781D02*
X0155083Y0282781D01*
X0155083Y0282383D02*
X0175083Y0282383D01*
X0175083Y0281984D02*
X0155083Y0281984D01*
X0155083Y0281586D02*
X0175083Y0281586D01*
X0175083Y0281187D02*
X0155083Y0281187D01*
X0155083Y0280789D02*
X0175083Y0280789D01*
X0175083Y0280390D02*
X0155083Y0280390D01*
X0155083Y0279992D02*
X0175083Y0279992D01*
X0175083Y0279593D02*
X0155083Y0279593D01*
X0155083Y0279195D02*
X0175083Y0279195D01*
X0175083Y0278796D02*
X0155083Y0278796D01*
X0155083Y0278398D02*
X0175083Y0278398D01*
X0175083Y0277999D02*
X0155083Y0277999D01*
X0155083Y0277601D02*
X0175083Y0277601D01*
X0175083Y0277202D02*
X0155083Y0277202D01*
X0155083Y0276804D02*
X0175083Y0276804D01*
X0175083Y0276405D02*
X0155083Y0276405D01*
X0155083Y0276007D02*
X0175083Y0276007D01*
X0175083Y0275608D02*
X0155083Y0275608D01*
X0155083Y0275210D02*
X0175083Y0275210D01*
X0175083Y0274811D02*
X0155083Y0274811D01*
X0155083Y0274413D02*
X0175083Y0274413D01*
X0175083Y0274014D02*
X0155083Y0274014D01*
X0155083Y0273616D02*
X0175083Y0273616D01*
X0175083Y0273217D02*
X0155083Y0273217D01*
X0155083Y0272819D02*
X0175083Y0272819D01*
X0175083Y0272420D02*
X0155083Y0272420D01*
X0155083Y0272022D02*
X0175083Y0272022D01*
X0175083Y0271623D02*
X0155083Y0271623D01*
X0155083Y0271225D02*
X0175083Y0271225D01*
X0175083Y0270826D02*
X0155083Y0270826D01*
X0155083Y0270428D02*
X0175083Y0270428D01*
X0175083Y0270029D02*
X0155083Y0270029D01*
X0155083Y0269631D02*
X0175083Y0269631D01*
X0175083Y0269232D02*
X0155083Y0269232D01*
X0155083Y0268834D02*
X0175083Y0268834D01*
X0175083Y0268435D02*
X0155083Y0268435D01*
X0155083Y0268037D02*
X0175083Y0268037D01*
X0175083Y0267638D02*
X0155083Y0267638D01*
X0155083Y0267240D02*
X0175083Y0267240D01*
X0175083Y0266841D02*
X0155083Y0266841D01*
X0155083Y0266443D02*
X0175083Y0266443D01*
X0175083Y0266044D02*
X0155083Y0266044D01*
X0155083Y0265645D02*
X0175083Y0265645D01*
X0175083Y0265247D02*
X0155083Y0265247D01*
X0155083Y0264848D02*
X0175083Y0264848D01*
X0175083Y0264450D02*
X0155083Y0264450D01*
X0155083Y0264051D02*
X0175083Y0264051D01*
X0175083Y0263653D02*
X0155083Y0263653D01*
X0155083Y0263254D02*
X0175083Y0263254D01*
X0175083Y0262856D02*
X0155083Y0262856D01*
X0155083Y0262457D02*
X0175083Y0262457D01*
X0175083Y0262059D02*
X0155083Y0262059D01*
X0155083Y0261660D02*
X0175083Y0261660D01*
X0175083Y0261262D02*
X0155083Y0261262D01*
X0155083Y0260863D02*
X0175083Y0260863D01*
X0175083Y0260465D02*
X0155083Y0260465D01*
X0155083Y0260066D02*
X0175083Y0260066D01*
X0175083Y0259668D02*
X0155083Y0259668D01*
X0155083Y0259269D02*
X0175083Y0259269D01*
X0175083Y0258871D02*
X0155083Y0258871D01*
X0155083Y0258472D02*
X0175083Y0258472D01*
X0175083Y0258074D02*
X0155083Y0258074D01*
X0155083Y0257675D02*
X0175083Y0257675D01*
X0175083Y0257277D02*
X0155083Y0257277D01*
X0155083Y0256878D02*
X0175083Y0256878D01*
X0175083Y0256480D02*
X0155083Y0256480D01*
X0155083Y0256081D02*
X0175083Y0256081D01*
X0175083Y0255683D02*
X0155083Y0255683D01*
X0155083Y0255284D02*
X0175083Y0255284D01*
X0175083Y0254886D02*
X0155083Y0254886D01*
X0155083Y0254487D02*
X0175083Y0254487D01*
X0175083Y0254089D02*
X0155083Y0254089D01*
X0155083Y0253690D02*
X0175083Y0253690D01*
X0175083Y0253292D02*
X0155083Y0253292D01*
X0155083Y0252893D02*
X0175083Y0252893D01*
X0175083Y0252495D02*
X0155083Y0252495D01*
X0155083Y0252096D02*
X0175083Y0252096D01*
X0175083Y0251698D02*
X0155083Y0251698D01*
X0155083Y0251299D02*
X0175083Y0251299D01*
X0175083Y0250901D02*
X0155083Y0250901D01*
X0155083Y0250502D02*
X0175083Y0250502D01*
X0175083Y0250104D02*
X0155083Y0250104D01*
X0155083Y0249705D02*
X0175083Y0249705D01*
X0175083Y0249307D02*
X0155083Y0249307D01*
X0155083Y0248908D02*
X0175083Y0248908D01*
X0175083Y0248510D02*
X0155083Y0248510D01*
X0155083Y0248111D02*
X0175083Y0248111D01*
X0175083Y0247712D02*
X0155083Y0247712D01*
X0155083Y0247314D02*
X0175083Y0247314D01*
X0175083Y0246915D02*
X0155083Y0246915D01*
X0155083Y0246517D02*
X0175083Y0246517D01*
X0175083Y0246118D02*
X0155083Y0246118D01*
X0155083Y0245720D02*
X0175083Y0245720D01*
X0175083Y0245321D02*
X0155083Y0245321D01*
X0155083Y0244923D02*
X0175083Y0244923D01*
X0175083Y0244524D02*
X0155083Y0244524D01*
X0155083Y0244126D02*
X0175083Y0244126D01*
X0175083Y0243727D02*
X0155083Y0243727D01*
X0155083Y0243329D02*
X0175083Y0243329D01*
X0175083Y0242930D02*
X0155083Y0242930D01*
X0155083Y0242532D02*
X0175083Y0242532D01*
X0175083Y0242133D02*
X0155083Y0242133D01*
X0155083Y0241735D02*
X0175083Y0241735D01*
X0175083Y0241336D02*
X0155083Y0241336D01*
X0155083Y0240938D02*
X0175083Y0240938D01*
X0175083Y0240539D02*
X0155083Y0240539D01*
X0155083Y0240141D02*
X0175083Y0240141D01*
X0175083Y0239742D02*
X0155083Y0239742D01*
X0155083Y0239344D02*
X0175083Y0239344D01*
X0175083Y0238945D02*
X0155083Y0238945D01*
X0155083Y0238547D02*
X0175083Y0238547D01*
X0175083Y0238148D02*
X0155083Y0238148D01*
X0155083Y0237750D02*
X0175083Y0237750D01*
X0175083Y0237351D02*
X0155083Y0237351D01*
X0155083Y0236953D02*
X0175083Y0236953D01*
X0175083Y0236554D02*
X0155083Y0236554D01*
X0155083Y0236156D02*
X0175083Y0236156D01*
X0175083Y0235757D02*
X0155083Y0235757D01*
X0155083Y0235359D02*
X0175083Y0235359D01*
X0175083Y0234960D02*
X0155083Y0234960D01*
X0155083Y0234562D02*
X0175083Y0234562D01*
X0175083Y0234163D02*
X0155083Y0234163D01*
X0155083Y0233765D02*
X0175083Y0233765D01*
X0175083Y0233366D02*
X0155083Y0233366D01*
X0155083Y0232968D02*
X0175083Y0232968D01*
X0175083Y0232569D02*
X0155083Y0232569D01*
X0155083Y0232171D02*
X0175083Y0232171D01*
X0175083Y0231772D02*
X0155083Y0231772D01*
X0155083Y0231374D02*
X0175083Y0231374D01*
X0175083Y0230975D02*
X0155083Y0230975D01*
X0155083Y0230577D02*
X0175083Y0230577D01*
X0175083Y0230178D02*
X0155083Y0230178D01*
X0155083Y0229779D02*
X0175083Y0229779D01*
X0175083Y0229381D02*
X0155083Y0229381D01*
X0155083Y0228982D02*
X0175083Y0228982D01*
X0175083Y0228584D02*
X0155083Y0228584D01*
X0155083Y0228185D02*
X0175083Y0228185D01*
X0175083Y0227787D02*
X0155083Y0227787D01*
X0155083Y0227388D02*
X0175083Y0227388D01*
X0175083Y0226990D02*
X0155083Y0226990D01*
X0155083Y0226591D02*
X0175083Y0226591D01*
X0175083Y0226193D02*
X0155083Y0226193D01*
X0155083Y0225794D02*
X0175083Y0225794D01*
X0175083Y0225396D02*
X0155083Y0225396D01*
X0155083Y0224997D02*
X0175083Y0224997D01*
X0175083Y0224599D02*
X0155083Y0224599D01*
X0155083Y0224200D02*
X0175083Y0224200D01*
X0175083Y0223802D02*
X0155083Y0223802D01*
X0155083Y0223403D02*
X0175083Y0223403D01*
X0175083Y0223005D02*
X0155083Y0223005D01*
X0195083Y0223005D02*
X0215083Y0223005D01*
X0215083Y0222909D02*
X0195083Y0222909D01*
X0195083Y0331659D01*
X0198833Y0335409D01*
X0211333Y0335409D01*
X0215083Y0331659D01*
X0215083Y0222909D01*
X0215083Y0223403D02*
X0195083Y0223403D01*
X0195083Y0223802D02*
X0215083Y0223802D01*
X0215083Y0224200D02*
X0195083Y0224200D01*
X0195083Y0224599D02*
X0215083Y0224599D01*
X0215083Y0224997D02*
X0195083Y0224997D01*
X0195083Y0225396D02*
X0215083Y0225396D01*
X0215083Y0225794D02*
X0195083Y0225794D01*
X0195083Y0226193D02*
X0215083Y0226193D01*
X0215083Y0226591D02*
X0195083Y0226591D01*
X0195083Y0226990D02*
X0215083Y0226990D01*
X0215083Y0227388D02*
X0195083Y0227388D01*
X0195083Y0227787D02*
X0215083Y0227787D01*
X0215083Y0228185D02*
X0195083Y0228185D01*
X0195083Y0228584D02*
X0215083Y0228584D01*
X0215083Y0228982D02*
X0195083Y0228982D01*
X0195083Y0229381D02*
X0215083Y0229381D01*
X0215083Y0229779D02*
X0195083Y0229779D01*
X0195083Y0230178D02*
X0215083Y0230178D01*
X0215083Y0230577D02*
X0195083Y0230577D01*
X0195083Y0230975D02*
X0215083Y0230975D01*
X0215083Y0231374D02*
X0195083Y0231374D01*
X0195083Y0231772D02*
X0215083Y0231772D01*
X0215083Y0232171D02*
X0195083Y0232171D01*
X0195083Y0232569D02*
X0215083Y0232569D01*
X0215083Y0232968D02*
X0195083Y0232968D01*
X0195083Y0233366D02*
X0215083Y0233366D01*
X0215083Y0233765D02*
X0195083Y0233765D01*
X0195083Y0234163D02*
X0215083Y0234163D01*
X0215083Y0234562D02*
X0195083Y0234562D01*
X0195083Y0234960D02*
X0215083Y0234960D01*
X0215083Y0235359D02*
X0195083Y0235359D01*
X0195083Y0235757D02*
X0215083Y0235757D01*
X0215083Y0236156D02*
X0195083Y0236156D01*
X0195083Y0236554D02*
X0215083Y0236554D01*
X0215083Y0236953D02*
X0195083Y0236953D01*
X0195083Y0237351D02*
X0215083Y0237351D01*
X0215083Y0237750D02*
X0195083Y0237750D01*
X0195083Y0238148D02*
X0215083Y0238148D01*
X0215083Y0238547D02*
X0195083Y0238547D01*
X0195083Y0238945D02*
X0215083Y0238945D01*
X0215083Y0239344D02*
X0195083Y0239344D01*
X0195083Y0239742D02*
X0215083Y0239742D01*
X0215083Y0240141D02*
X0195083Y0240141D01*
X0195083Y0240539D02*
X0215083Y0240539D01*
X0215083Y0240938D02*
X0195083Y0240938D01*
X0195083Y0241336D02*
X0215083Y0241336D01*
X0215083Y0241735D02*
X0195083Y0241735D01*
X0195083Y0242133D02*
X0215083Y0242133D01*
X0215083Y0242532D02*
X0195083Y0242532D01*
X0195083Y0242930D02*
X0215083Y0242930D01*
X0215083Y0243329D02*
X0195083Y0243329D01*
X0195083Y0243727D02*
X0215083Y0243727D01*
X0215083Y0244126D02*
X0195083Y0244126D01*
X0195083Y0244524D02*
X0215083Y0244524D01*
X0215083Y0244923D02*
X0195083Y0244923D01*
X0195083Y0245321D02*
X0215083Y0245321D01*
X0215083Y0245720D02*
X0195083Y0245720D01*
X0195083Y0246118D02*
X0215083Y0246118D01*
X0215083Y0246517D02*
X0195083Y0246517D01*
X0195083Y0246915D02*
X0215083Y0246915D01*
X0215083Y0247314D02*
X0195083Y0247314D01*
X0195083Y0247712D02*
X0215083Y0247712D01*
X0215083Y0248111D02*
X0195083Y0248111D01*
X0195083Y0248510D02*
X0215083Y0248510D01*
X0215083Y0248908D02*
X0195083Y0248908D01*
X0195083Y0249307D02*
X0215083Y0249307D01*
X0215083Y0249705D02*
X0195083Y0249705D01*
X0195083Y0250104D02*
X0215083Y0250104D01*
X0215083Y0250502D02*
X0195083Y0250502D01*
X0195083Y0250901D02*
X0215083Y0250901D01*
X0215083Y0251299D02*
X0195083Y0251299D01*
X0195083Y0251698D02*
X0215083Y0251698D01*
X0215083Y0252096D02*
X0195083Y0252096D01*
X0195083Y0252495D02*
X0215083Y0252495D01*
X0215083Y0252893D02*
X0195083Y0252893D01*
X0195083Y0253292D02*
X0215083Y0253292D01*
X0215083Y0253690D02*
X0195083Y0253690D01*
X0195083Y0254089D02*
X0215083Y0254089D01*
X0215083Y0254487D02*
X0195083Y0254487D01*
X0195083Y0254886D02*
X0215083Y0254886D01*
X0215083Y0255284D02*
X0195083Y0255284D01*
X0195083Y0255683D02*
X0215083Y0255683D01*
X0215083Y0256081D02*
X0195083Y0256081D01*
X0195083Y0256480D02*
X0215083Y0256480D01*
X0215083Y0256878D02*
X0195083Y0256878D01*
X0195083Y0257277D02*
X0215083Y0257277D01*
X0215083Y0257675D02*
X0195083Y0257675D01*
X0195083Y0258074D02*
X0215083Y0258074D01*
X0215083Y0258472D02*
X0195083Y0258472D01*
X0195083Y0258871D02*
X0215083Y0258871D01*
X0215083Y0259269D02*
X0195083Y0259269D01*
X0195083Y0259668D02*
X0215083Y0259668D01*
X0215083Y0260066D02*
X0195083Y0260066D01*
X0195083Y0260465D02*
X0215083Y0260465D01*
X0215083Y0260863D02*
X0195083Y0260863D01*
X0195083Y0261262D02*
X0215083Y0261262D01*
X0215083Y0261660D02*
X0195083Y0261660D01*
X0195083Y0262059D02*
X0215083Y0262059D01*
X0215083Y0262457D02*
X0195083Y0262457D01*
X0195083Y0262856D02*
X0215083Y0262856D01*
X0215083Y0263254D02*
X0195083Y0263254D01*
X0195083Y0263653D02*
X0215083Y0263653D01*
X0215083Y0264051D02*
X0195083Y0264051D01*
X0195083Y0264450D02*
X0215083Y0264450D01*
X0215083Y0264848D02*
X0195083Y0264848D01*
X0195083Y0265247D02*
X0215083Y0265247D01*
X0215083Y0265645D02*
X0195083Y0265645D01*
X0195083Y0266044D02*
X0215083Y0266044D01*
X0215083Y0266443D02*
X0195083Y0266443D01*
X0195083Y0266841D02*
X0215083Y0266841D01*
X0215083Y0267240D02*
X0195083Y0267240D01*
X0195083Y0267638D02*
X0215083Y0267638D01*
X0215083Y0268037D02*
X0195083Y0268037D01*
X0195083Y0268435D02*
X0215083Y0268435D01*
X0215083Y0268834D02*
X0195083Y0268834D01*
X0195083Y0269232D02*
X0215083Y0269232D01*
X0215083Y0269631D02*
X0195083Y0269631D01*
X0195083Y0270029D02*
X0215083Y0270029D01*
X0215083Y0270428D02*
X0195083Y0270428D01*
X0195083Y0270826D02*
X0215083Y0270826D01*
X0215083Y0271225D02*
X0195083Y0271225D01*
X0195083Y0271623D02*
X0215083Y0271623D01*
X0215083Y0272022D02*
X0195083Y0272022D01*
X0195083Y0272420D02*
X0215083Y0272420D01*
X0215083Y0272819D02*
X0195083Y0272819D01*
X0195083Y0273217D02*
X0215083Y0273217D01*
X0215083Y0273616D02*
X0195083Y0273616D01*
X0195083Y0274014D02*
X0215083Y0274014D01*
X0215083Y0274413D02*
X0195083Y0274413D01*
X0195083Y0274811D02*
X0215083Y0274811D01*
X0215083Y0275210D02*
X0195083Y0275210D01*
X0195083Y0275608D02*
X0215083Y0275608D01*
X0215083Y0276007D02*
X0195083Y0276007D01*
X0195083Y0276405D02*
X0215083Y0276405D01*
X0215083Y0276804D02*
X0195083Y0276804D01*
X0195083Y0277202D02*
X0215083Y0277202D01*
X0215083Y0277601D02*
X0195083Y0277601D01*
X0195083Y0277999D02*
X0215083Y0277999D01*
X0215083Y0278398D02*
X0195083Y0278398D01*
X0195083Y0278796D02*
X0215083Y0278796D01*
X0215083Y0279195D02*
X0195083Y0279195D01*
X0195083Y0279593D02*
X0215083Y0279593D01*
X0215083Y0279992D02*
X0195083Y0279992D01*
X0195083Y0280390D02*
X0215083Y0280390D01*
X0215083Y0280789D02*
X0195083Y0280789D01*
X0195083Y0281187D02*
X0215083Y0281187D01*
X0215083Y0281586D02*
X0195083Y0281586D01*
X0195083Y0281984D02*
X0215083Y0281984D01*
X0215083Y0282383D02*
X0195083Y0282383D01*
X0195083Y0282781D02*
X0215083Y0282781D01*
X0215083Y0283180D02*
X0195083Y0283180D01*
X0195083Y0283579D02*
X0215083Y0283579D01*
X0215083Y0283977D02*
X0195083Y0283977D01*
X0195083Y0284376D02*
X0215083Y0284376D01*
X0215083Y0284774D02*
X0195083Y0284774D01*
X0195083Y0285173D02*
X0215083Y0285173D01*
X0215083Y0285571D02*
X0195083Y0285571D01*
X0195083Y0285970D02*
X0215083Y0285970D01*
X0215083Y0286368D02*
X0195083Y0286368D01*
X0195083Y0286767D02*
X0215083Y0286767D01*
X0215083Y0287165D02*
X0195083Y0287165D01*
X0195083Y0287564D02*
X0215083Y0287564D01*
X0215083Y0287962D02*
X0195083Y0287962D01*
X0195083Y0288361D02*
X0215083Y0288361D01*
X0215083Y0288759D02*
X0195083Y0288759D01*
X0195083Y0289158D02*
X0215083Y0289158D01*
X0215083Y0289556D02*
X0195083Y0289556D01*
X0195083Y0289955D02*
X0215083Y0289955D01*
X0215083Y0290353D02*
X0195083Y0290353D01*
X0195083Y0290752D02*
X0215083Y0290752D01*
X0215083Y0291150D02*
X0195083Y0291150D01*
X0195083Y0291549D02*
X0215083Y0291549D01*
X0215083Y0291947D02*
X0195083Y0291947D01*
X0195083Y0292346D02*
X0215083Y0292346D01*
X0215083Y0292744D02*
X0195083Y0292744D01*
X0195083Y0293143D02*
X0215083Y0293143D01*
X0215083Y0293541D02*
X0195083Y0293541D01*
X0195083Y0293940D02*
X0215083Y0293940D01*
X0215083Y0294338D02*
X0195083Y0294338D01*
X0195083Y0294737D02*
X0215083Y0294737D01*
X0215083Y0295135D02*
X0195083Y0295135D01*
X0195083Y0295534D02*
X0215083Y0295534D01*
X0215083Y0295932D02*
X0195083Y0295932D01*
X0195083Y0296331D02*
X0215083Y0296331D01*
X0215083Y0296729D02*
X0195083Y0296729D01*
X0195083Y0297128D02*
X0215083Y0297128D01*
X0215083Y0297526D02*
X0195083Y0297526D01*
X0195083Y0297925D02*
X0215083Y0297925D01*
X0215083Y0298323D02*
X0195083Y0298323D01*
X0195083Y0298722D02*
X0215083Y0298722D01*
X0215083Y0299120D02*
X0195083Y0299120D01*
X0195083Y0299519D02*
X0215083Y0299519D01*
X0215083Y0299917D02*
X0195083Y0299917D01*
X0195083Y0300316D02*
X0215083Y0300316D01*
X0215083Y0300714D02*
X0195083Y0300714D01*
X0195083Y0301113D02*
X0215083Y0301113D01*
X0215083Y0301512D02*
X0195083Y0301512D01*
X0195083Y0301910D02*
X0215083Y0301910D01*
X0215083Y0302309D02*
X0195083Y0302309D01*
X0195083Y0302707D02*
X0215083Y0302707D01*
X0215083Y0303106D02*
X0195083Y0303106D01*
X0195083Y0303504D02*
X0215083Y0303504D01*
X0215083Y0303903D02*
X0195083Y0303903D01*
X0195083Y0304301D02*
X0215083Y0304301D01*
X0215083Y0304700D02*
X0195083Y0304700D01*
X0195083Y0305098D02*
X0215083Y0305098D01*
X0215083Y0305497D02*
X0195083Y0305497D01*
X0195083Y0305895D02*
X0215083Y0305895D01*
X0215083Y0306294D02*
X0195083Y0306294D01*
X0195083Y0306692D02*
X0215083Y0306692D01*
X0215083Y0307091D02*
X0195083Y0307091D01*
X0195083Y0307489D02*
X0215083Y0307489D01*
X0215083Y0307888D02*
X0195083Y0307888D01*
X0195083Y0308286D02*
X0215083Y0308286D01*
X0215083Y0308685D02*
X0195083Y0308685D01*
X0195083Y0309083D02*
X0215083Y0309083D01*
X0215083Y0309482D02*
X0195083Y0309482D01*
X0195083Y0309880D02*
X0215083Y0309880D01*
X0215083Y0310279D02*
X0195083Y0310279D01*
X0195083Y0310677D02*
X0215083Y0310677D01*
X0215083Y0311076D02*
X0195083Y0311076D01*
X0195083Y0311474D02*
X0215083Y0311474D01*
X0215083Y0311873D02*
X0195083Y0311873D01*
X0195083Y0312271D02*
X0215083Y0312271D01*
X0215083Y0312670D02*
X0195083Y0312670D01*
X0195083Y0313068D02*
X0215083Y0313068D01*
X0215083Y0313467D02*
X0195083Y0313467D01*
X0195083Y0313865D02*
X0215083Y0313865D01*
X0215083Y0314264D02*
X0195083Y0314264D01*
X0195083Y0314662D02*
X0215083Y0314662D01*
X0215083Y0315061D02*
X0195083Y0315061D01*
X0195083Y0315459D02*
X0215083Y0315459D01*
X0215083Y0315858D02*
X0195083Y0315858D01*
X0195083Y0316256D02*
X0215083Y0316256D01*
X0215083Y0316655D02*
X0195083Y0316655D01*
X0195083Y0317053D02*
X0215083Y0317053D01*
X0215083Y0317452D02*
X0195083Y0317452D01*
X0195083Y0317850D02*
X0215083Y0317850D01*
X0215083Y0318249D02*
X0195083Y0318249D01*
X0195083Y0318648D02*
X0215083Y0318648D01*
X0215083Y0319046D02*
X0195083Y0319046D01*
X0195083Y0319445D02*
X0215083Y0319445D01*
X0215083Y0319843D02*
X0195083Y0319843D01*
X0195083Y0320242D02*
X0215083Y0320242D01*
X0215083Y0320640D02*
X0195083Y0320640D01*
X0195083Y0321039D02*
X0215083Y0321039D01*
X0215083Y0321437D02*
X0195083Y0321437D01*
X0195083Y0321836D02*
X0215083Y0321836D01*
X0215083Y0322234D02*
X0195083Y0322234D01*
X0195083Y0322633D02*
X0215083Y0322633D01*
X0215083Y0323031D02*
X0195083Y0323031D01*
X0195083Y0323430D02*
X0215083Y0323430D01*
X0215083Y0323828D02*
X0195083Y0323828D01*
X0195083Y0324227D02*
X0215083Y0324227D01*
X0215083Y0324625D02*
X0195083Y0324625D01*
X0195083Y0325024D02*
X0215083Y0325024D01*
X0215083Y0325422D02*
X0195083Y0325422D01*
X0195083Y0325821D02*
X0215083Y0325821D01*
X0215083Y0326219D02*
X0195083Y0326219D01*
X0195083Y0326618D02*
X0215083Y0326618D01*
X0215083Y0327016D02*
X0195083Y0327016D01*
X0195083Y0327415D02*
X0215083Y0327415D01*
X0215083Y0327813D02*
X0195083Y0327813D01*
X0195083Y0328212D02*
X0215083Y0328212D01*
X0215083Y0328610D02*
X0195083Y0328610D01*
X0195083Y0329009D02*
X0215083Y0329009D01*
X0215083Y0329407D02*
X0195083Y0329407D01*
X0195083Y0329806D02*
X0215083Y0329806D01*
X0215083Y0330204D02*
X0195083Y0330204D01*
X0195083Y0330603D02*
X0215083Y0330603D01*
X0215083Y0331001D02*
X0195083Y0331001D01*
X0195083Y0331400D02*
X0215083Y0331400D01*
X0214944Y0331798D02*
X0195222Y0331798D01*
X0195621Y0332197D02*
X0214546Y0332197D01*
X0214147Y0332595D02*
X0196019Y0332595D01*
X0196418Y0332994D02*
X0213749Y0332994D01*
X0213350Y0333392D02*
X0196816Y0333392D01*
X0197215Y0333791D02*
X0212952Y0333791D01*
X0212553Y0334189D02*
X0197613Y0334189D01*
X0198012Y0334588D02*
X0212155Y0334588D01*
X0211756Y0334986D02*
X0198410Y0334986D01*
X0198809Y0335385D02*
X0211358Y0335385D01*
X0235083Y0331659D02*
X0238833Y0335409D01*
X0251333Y0335409D01*
X0255083Y0331659D01*
X0255083Y0222909D01*
X0235083Y0222909D01*
X0235083Y0331659D01*
X0235222Y0331798D02*
X0254944Y0331798D01*
X0255083Y0331400D02*
X0235083Y0331400D01*
X0235083Y0331001D02*
X0255083Y0331001D01*
X0255083Y0330603D02*
X0235083Y0330603D01*
X0235083Y0330204D02*
X0255083Y0330204D01*
X0255083Y0329806D02*
X0235083Y0329806D01*
X0235083Y0329407D02*
X0255083Y0329407D01*
X0255083Y0329009D02*
X0235083Y0329009D01*
X0235083Y0328610D02*
X0255083Y0328610D01*
X0255083Y0328212D02*
X0235083Y0328212D01*
X0235083Y0327813D02*
X0255083Y0327813D01*
X0255083Y0327415D02*
X0235083Y0327415D01*
X0235083Y0327016D02*
X0255083Y0327016D01*
X0255083Y0326618D02*
X0235083Y0326618D01*
X0235083Y0326219D02*
X0255083Y0326219D01*
X0255083Y0325821D02*
X0235083Y0325821D01*
X0235083Y0325422D02*
X0255083Y0325422D01*
X0255083Y0325024D02*
X0235083Y0325024D01*
X0235083Y0324625D02*
X0255083Y0324625D01*
X0255083Y0324227D02*
X0235083Y0324227D01*
X0235083Y0323828D02*
X0255083Y0323828D01*
X0255083Y0323430D02*
X0235083Y0323430D01*
X0235083Y0323031D02*
X0255083Y0323031D01*
X0255083Y0322633D02*
X0235083Y0322633D01*
X0235083Y0322234D02*
X0255083Y0322234D01*
X0255083Y0321836D02*
X0235083Y0321836D01*
X0235083Y0321437D02*
X0255083Y0321437D01*
X0255083Y0321039D02*
X0235083Y0321039D01*
X0235083Y0320640D02*
X0255083Y0320640D01*
X0255083Y0320242D02*
X0235083Y0320242D01*
X0235083Y0319843D02*
X0255083Y0319843D01*
X0255083Y0319445D02*
X0235083Y0319445D01*
X0235083Y0319046D02*
X0255083Y0319046D01*
X0255083Y0318648D02*
X0235083Y0318648D01*
X0235083Y0318249D02*
X0255083Y0318249D01*
X0255083Y0317850D02*
X0235083Y0317850D01*
X0235083Y0317452D02*
X0255083Y0317452D01*
X0255083Y0317053D02*
X0235083Y0317053D01*
X0235083Y0316655D02*
X0255083Y0316655D01*
X0255083Y0316256D02*
X0235083Y0316256D01*
X0235083Y0315858D02*
X0255083Y0315858D01*
X0255083Y0315459D02*
X0235083Y0315459D01*
X0235083Y0315061D02*
X0255083Y0315061D01*
X0255083Y0314662D02*
X0235083Y0314662D01*
X0235083Y0314264D02*
X0255083Y0314264D01*
X0255083Y0313865D02*
X0235083Y0313865D01*
X0235083Y0313467D02*
X0255083Y0313467D01*
X0255083Y0313068D02*
X0235083Y0313068D01*
X0235083Y0312670D02*
X0255083Y0312670D01*
X0255083Y0312271D02*
X0235083Y0312271D01*
X0235083Y0311873D02*
X0255083Y0311873D01*
X0255083Y0311474D02*
X0235083Y0311474D01*
X0235083Y0311076D02*
X0255083Y0311076D01*
X0255083Y0310677D02*
X0235083Y0310677D01*
X0235083Y0310279D02*
X0255083Y0310279D01*
X0255083Y0309880D02*
X0235083Y0309880D01*
X0235083Y0309482D02*
X0255083Y0309482D01*
X0255083Y0309083D02*
X0235083Y0309083D01*
X0235083Y0308685D02*
X0255083Y0308685D01*
X0255083Y0308286D02*
X0235083Y0308286D01*
X0235083Y0307888D02*
X0255083Y0307888D01*
X0255083Y0307489D02*
X0235083Y0307489D01*
X0235083Y0307091D02*
X0255083Y0307091D01*
X0255083Y0306692D02*
X0235083Y0306692D01*
X0235083Y0306294D02*
X0255083Y0306294D01*
X0255083Y0305895D02*
X0235083Y0305895D01*
X0235083Y0305497D02*
X0255083Y0305497D01*
X0255083Y0305098D02*
X0235083Y0305098D01*
X0235083Y0304700D02*
X0255083Y0304700D01*
X0255083Y0304301D02*
X0235083Y0304301D01*
X0235083Y0303903D02*
X0255083Y0303903D01*
X0255083Y0303504D02*
X0235083Y0303504D01*
X0235083Y0303106D02*
X0255083Y0303106D01*
X0255083Y0302707D02*
X0235083Y0302707D01*
X0235083Y0302309D02*
X0255083Y0302309D01*
X0255083Y0301910D02*
X0235083Y0301910D01*
X0235083Y0301512D02*
X0255083Y0301512D01*
X0255083Y0301113D02*
X0235083Y0301113D01*
X0235083Y0300714D02*
X0255083Y0300714D01*
X0255083Y0300316D02*
X0235083Y0300316D01*
X0235083Y0299917D02*
X0255083Y0299917D01*
X0255083Y0299519D02*
X0235083Y0299519D01*
X0235083Y0299120D02*
X0255083Y0299120D01*
X0255083Y0298722D02*
X0235083Y0298722D01*
X0235083Y0298323D02*
X0255083Y0298323D01*
X0255083Y0297925D02*
X0235083Y0297925D01*
X0235083Y0297526D02*
X0255083Y0297526D01*
X0255083Y0297128D02*
X0235083Y0297128D01*
X0235083Y0296729D02*
X0255083Y0296729D01*
X0255083Y0296331D02*
X0235083Y0296331D01*
X0235083Y0295932D02*
X0255083Y0295932D01*
X0255083Y0295534D02*
X0235083Y0295534D01*
X0235083Y0295135D02*
X0255083Y0295135D01*
X0255083Y0294737D02*
X0235083Y0294737D01*
X0235083Y0294338D02*
X0255083Y0294338D01*
X0255083Y0293940D02*
X0235083Y0293940D01*
X0235083Y0293541D02*
X0255083Y0293541D01*
X0255083Y0293143D02*
X0235083Y0293143D01*
X0235083Y0292744D02*
X0255083Y0292744D01*
X0255083Y0292346D02*
X0235083Y0292346D01*
X0235083Y0291947D02*
X0255083Y0291947D01*
X0255083Y0291549D02*
X0235083Y0291549D01*
X0235083Y0291150D02*
X0255083Y0291150D01*
X0255083Y0290752D02*
X0235083Y0290752D01*
X0235083Y0290353D02*
X0255083Y0290353D01*
X0255083Y0289955D02*
X0235083Y0289955D01*
X0235083Y0289556D02*
X0255083Y0289556D01*
X0255083Y0289158D02*
X0235083Y0289158D01*
X0235083Y0288759D02*
X0255083Y0288759D01*
X0255083Y0288361D02*
X0235083Y0288361D01*
X0235083Y0287962D02*
X0255083Y0287962D01*
X0255083Y0287564D02*
X0235083Y0287564D01*
X0235083Y0287165D02*
X0255083Y0287165D01*
X0255083Y0286767D02*
X0235083Y0286767D01*
X0235083Y0286368D02*
X0255083Y0286368D01*
X0255083Y0285970D02*
X0235083Y0285970D01*
X0235083Y0285571D02*
X0255083Y0285571D01*
X0255083Y0285173D02*
X0235083Y0285173D01*
X0235083Y0284774D02*
X0255083Y0284774D01*
X0255083Y0284376D02*
X0235083Y0284376D01*
X0235083Y0283977D02*
X0255083Y0283977D01*
X0255083Y0283579D02*
X0235083Y0283579D01*
X0235083Y0283180D02*
X0255083Y0283180D01*
X0255083Y0282781D02*
X0235083Y0282781D01*
X0235083Y0282383D02*
X0255083Y0282383D01*
X0255083Y0281984D02*
X0235083Y0281984D01*
X0235083Y0281586D02*
X0255083Y0281586D01*
X0255083Y0281187D02*
X0235083Y0281187D01*
X0235083Y0280789D02*
X0255083Y0280789D01*
X0255083Y0280390D02*
X0235083Y0280390D01*
X0235083Y0279992D02*
X0255083Y0279992D01*
X0255083Y0279593D02*
X0235083Y0279593D01*
X0235083Y0279195D02*
X0255083Y0279195D01*
X0255083Y0278796D02*
X0235083Y0278796D01*
X0235083Y0278398D02*
X0255083Y0278398D01*
X0255083Y0277999D02*
X0235083Y0277999D01*
X0235083Y0277601D02*
X0255083Y0277601D01*
X0255083Y0277202D02*
X0235083Y0277202D01*
X0235083Y0276804D02*
X0255083Y0276804D01*
X0255083Y0276405D02*
X0235083Y0276405D01*
X0235083Y0276007D02*
X0255083Y0276007D01*
X0255083Y0275608D02*
X0235083Y0275608D01*
X0235083Y0275210D02*
X0255083Y0275210D01*
X0255083Y0274811D02*
X0235083Y0274811D01*
X0235083Y0274413D02*
X0255083Y0274413D01*
X0255083Y0274014D02*
X0235083Y0274014D01*
X0235083Y0273616D02*
X0255083Y0273616D01*
X0255083Y0273217D02*
X0235083Y0273217D01*
X0235083Y0272819D02*
X0255083Y0272819D01*
X0255083Y0272420D02*
X0235083Y0272420D01*
X0235083Y0272022D02*
X0255083Y0272022D01*
X0255083Y0271623D02*
X0235083Y0271623D01*
X0235083Y0271225D02*
X0255083Y0271225D01*
X0255083Y0270826D02*
X0235083Y0270826D01*
X0235083Y0270428D02*
X0255083Y0270428D01*
X0255083Y0270029D02*
X0235083Y0270029D01*
X0235083Y0269631D02*
X0255083Y0269631D01*
X0255083Y0269232D02*
X0235083Y0269232D01*
X0235083Y0268834D02*
X0255083Y0268834D01*
X0255083Y0268435D02*
X0235083Y0268435D01*
X0235083Y0268037D02*
X0255083Y0268037D01*
X0255083Y0267638D02*
X0235083Y0267638D01*
X0235083Y0267240D02*
X0255083Y0267240D01*
X0255083Y0266841D02*
X0235083Y0266841D01*
X0235083Y0266443D02*
X0255083Y0266443D01*
X0255083Y0266044D02*
X0235083Y0266044D01*
X0235083Y0265645D02*
X0255083Y0265645D01*
X0255083Y0265247D02*
X0235083Y0265247D01*
X0235083Y0264848D02*
X0255083Y0264848D01*
X0255083Y0264450D02*
X0235083Y0264450D01*
X0235083Y0264051D02*
X0255083Y0264051D01*
X0255083Y0263653D02*
X0235083Y0263653D01*
X0235083Y0263254D02*
X0255083Y0263254D01*
X0255083Y0262856D02*
X0235083Y0262856D01*
X0235083Y0262457D02*
X0255083Y0262457D01*
X0255083Y0262059D02*
X0235083Y0262059D01*
X0235083Y0261660D02*
X0255083Y0261660D01*
X0255083Y0261262D02*
X0235083Y0261262D01*
X0235083Y0260863D02*
X0255083Y0260863D01*
X0255083Y0260465D02*
X0235083Y0260465D01*
X0235083Y0260066D02*
X0255083Y0260066D01*
X0255083Y0259668D02*
X0235083Y0259668D01*
X0235083Y0259269D02*
X0255083Y0259269D01*
X0255083Y0258871D02*
X0235083Y0258871D01*
X0235083Y0258472D02*
X0255083Y0258472D01*
X0255083Y0258074D02*
X0235083Y0258074D01*
X0235083Y0257675D02*
X0255083Y0257675D01*
X0255083Y0257277D02*
X0235083Y0257277D01*
X0235083Y0256878D02*
X0255083Y0256878D01*
X0255083Y0256480D02*
X0235083Y0256480D01*
X0235083Y0256081D02*
X0255083Y0256081D01*
X0255083Y0255683D02*
X0235083Y0255683D01*
X0235083Y0255284D02*
X0255083Y0255284D01*
X0255083Y0254886D02*
X0235083Y0254886D01*
X0235083Y0254487D02*
X0255083Y0254487D01*
X0255083Y0254089D02*
X0235083Y0254089D01*
X0235083Y0253690D02*
X0255083Y0253690D01*
X0255083Y0253292D02*
X0235083Y0253292D01*
X0235083Y0252893D02*
X0255083Y0252893D01*
X0255083Y0252495D02*
X0235083Y0252495D01*
X0235083Y0252096D02*
X0255083Y0252096D01*
X0255083Y0251698D02*
X0235083Y0251698D01*
X0235083Y0251299D02*
X0255083Y0251299D01*
X0255083Y0250901D02*
X0235083Y0250901D01*
X0235083Y0250502D02*
X0255083Y0250502D01*
X0255083Y0250104D02*
X0235083Y0250104D01*
X0235083Y0249705D02*
X0255083Y0249705D01*
X0255083Y0249307D02*
X0235083Y0249307D01*
X0235083Y0248908D02*
X0255083Y0248908D01*
X0255083Y0248510D02*
X0235083Y0248510D01*
X0235083Y0248111D02*
X0255083Y0248111D01*
X0255083Y0247712D02*
X0235083Y0247712D01*
X0235083Y0247314D02*
X0255083Y0247314D01*
X0255083Y0246915D02*
X0235083Y0246915D01*
X0235083Y0246517D02*
X0255083Y0246517D01*
X0255083Y0246118D02*
X0235083Y0246118D01*
X0235083Y0245720D02*
X0255083Y0245720D01*
X0255083Y0245321D02*
X0235083Y0245321D01*
X0235083Y0244923D02*
X0255083Y0244923D01*
X0255083Y0244524D02*
X0235083Y0244524D01*
X0235083Y0244126D02*
X0255083Y0244126D01*
X0255083Y0243727D02*
X0235083Y0243727D01*
X0235083Y0243329D02*
X0255083Y0243329D01*
X0255083Y0242930D02*
X0235083Y0242930D01*
X0235083Y0242532D02*
X0255083Y0242532D01*
X0255083Y0242133D02*
X0235083Y0242133D01*
X0235083Y0241735D02*
X0255083Y0241735D01*
X0255083Y0241336D02*
X0235083Y0241336D01*
X0235083Y0240938D02*
X0255083Y0240938D01*
X0255083Y0240539D02*
X0235083Y0240539D01*
X0235083Y0240141D02*
X0255083Y0240141D01*
X0255083Y0239742D02*
X0235083Y0239742D01*
X0235083Y0239344D02*
X0255083Y0239344D01*
X0255083Y0238945D02*
X0235083Y0238945D01*
X0235083Y0238547D02*
X0255083Y0238547D01*
X0255083Y0238148D02*
X0235083Y0238148D01*
X0235083Y0237750D02*
X0255083Y0237750D01*
X0255083Y0237351D02*
X0235083Y0237351D01*
X0235083Y0236953D02*
X0255083Y0236953D01*
X0255083Y0236554D02*
X0235083Y0236554D01*
X0235083Y0236156D02*
X0255083Y0236156D01*
X0255083Y0235757D02*
X0235083Y0235757D01*
X0235083Y0235359D02*
X0255083Y0235359D01*
X0255083Y0234960D02*
X0235083Y0234960D01*
X0235083Y0234562D02*
X0255083Y0234562D01*
X0255083Y0234163D02*
X0235083Y0234163D01*
X0235083Y0233765D02*
X0255083Y0233765D01*
X0255083Y0233366D02*
X0235083Y0233366D01*
X0235083Y0232968D02*
X0255083Y0232968D01*
X0255083Y0232569D02*
X0235083Y0232569D01*
X0235083Y0232171D02*
X0255083Y0232171D01*
X0255083Y0231772D02*
X0235083Y0231772D01*
X0235083Y0231374D02*
X0255083Y0231374D01*
X0255083Y0230975D02*
X0235083Y0230975D01*
X0235083Y0230577D02*
X0255083Y0230577D01*
X0255083Y0230178D02*
X0235083Y0230178D01*
X0235083Y0229779D02*
X0255083Y0229779D01*
X0255083Y0229381D02*
X0235083Y0229381D01*
X0235083Y0228982D02*
X0255083Y0228982D01*
X0255083Y0228584D02*
X0235083Y0228584D01*
X0235083Y0228185D02*
X0255083Y0228185D01*
X0255083Y0227787D02*
X0235083Y0227787D01*
X0235083Y0227388D02*
X0255083Y0227388D01*
X0255083Y0226990D02*
X0235083Y0226990D01*
X0235083Y0226591D02*
X0255083Y0226591D01*
X0255083Y0226193D02*
X0235083Y0226193D01*
X0235083Y0225794D02*
X0255083Y0225794D01*
X0255083Y0225396D02*
X0235083Y0225396D01*
X0235083Y0224997D02*
X0255083Y0224997D01*
X0255083Y0224599D02*
X0235083Y0224599D01*
X0235083Y0224200D02*
X0255083Y0224200D01*
X0255083Y0223802D02*
X0235083Y0223802D01*
X0235083Y0223403D02*
X0255083Y0223403D01*
X0255083Y0223005D02*
X0235083Y0223005D01*
X0235621Y0332197D02*
X0254546Y0332197D01*
X0254147Y0332595D02*
X0236019Y0332595D01*
X0236418Y0332994D02*
X0253749Y0332994D01*
X0253350Y0333392D02*
X0236816Y0333392D01*
X0237215Y0333791D02*
X0252952Y0333791D01*
X0252553Y0334189D02*
X0237613Y0334189D01*
X0238012Y0334588D02*
X0252155Y0334588D01*
X0251756Y0334986D02*
X0238410Y0334986D01*
X0238809Y0335385D02*
X0251358Y0335385D01*
X0174546Y0332197D02*
X0155621Y0332197D01*
X0156019Y0332595D02*
X0174147Y0332595D01*
X0173749Y0332994D02*
X0156418Y0332994D01*
X0156816Y0333392D02*
X0173350Y0333392D01*
X0172952Y0333791D02*
X0157215Y0333791D01*
X0157613Y0334189D02*
X0172553Y0334189D01*
X0172155Y0334588D02*
X0158012Y0334588D01*
X0158410Y0334986D02*
X0171756Y0334986D01*
X0171358Y0335385D02*
X0158809Y0335385D01*
D11*
X0150605Y0240409D03*
X0150605Y0235409D03*
X0150605Y0230409D03*
X0150605Y0225409D03*
X0190605Y0225409D03*
X0190605Y0230409D03*
X0190605Y0235409D03*
X0190605Y0240409D03*
X0230605Y0240409D03*
X0230605Y0235409D03*
X0230605Y0230409D03*
X0230605Y0225409D03*
X0110605Y0225409D03*
X0110605Y0230409D03*
X0110605Y0235409D03*
X0110605Y0240409D03*
D12*
X0123105Y0232909D03*
X0163105Y0232909D03*
X0203105Y0232909D03*
X0243105Y0232909D03*
D13*
X0252160Y0232909D03*
X0212160Y0232909D03*
X0172160Y0232909D03*
X0132160Y0232909D03*
D14*
X0130782Y0232909D03*
X0130782Y0227398D03*
X0125270Y0227398D03*
X0125270Y0232909D03*
X0119759Y0232909D03*
X0119759Y0227398D03*
X0119759Y0238421D03*
X0125270Y0238421D03*
X0130782Y0238421D03*
X0159759Y0238421D03*
X0165270Y0238421D03*
X0165270Y0232909D03*
X0165270Y0227398D03*
X0159759Y0227398D03*
X0159759Y0232909D03*
X0170782Y0232909D03*
X0170782Y0227398D03*
X0170782Y0238421D03*
X0199759Y0238421D03*
X0205270Y0238421D03*
X0205270Y0232909D03*
X0205270Y0227398D03*
X0199759Y0227398D03*
X0199759Y0232909D03*
X0210782Y0232909D03*
X0210782Y0227398D03*
X0210782Y0238421D03*
X0239759Y0238421D03*
X0245270Y0238421D03*
X0250782Y0238421D03*
X0250782Y0232909D03*
X0250782Y0227398D03*
X0245270Y0227398D03*
X0245270Y0232909D03*
X0239759Y0232909D03*
X0239759Y0227398D03*
D15*
X0240083Y0197093D03*
X0245083Y0197093D03*
X0250083Y0197093D03*
X0255083Y0197093D03*
X0255083Y0176226D03*
X0250083Y0176226D03*
X0245083Y0176226D03*
X0240083Y0176226D03*
X0206333Y0192476D03*
X0201333Y0192476D03*
X0196333Y0192476D03*
X0191333Y0192476D03*
X0191333Y0213343D03*
X0196333Y0213343D03*
X0201333Y0213343D03*
X0206333Y0213343D03*
X0136333Y0213343D03*
X0131333Y0213343D03*
X0126333Y0213343D03*
X0121333Y0213343D03*
X0121333Y0192476D03*
X0126333Y0192476D03*
X0131333Y0192476D03*
X0136333Y0192476D03*
D16*
X0265083Y0199002D03*
X0265083Y0179317D03*
D17*
X0233833Y0187260D03*
X0233833Y0193559D03*
X0233833Y0201010D03*
X0233833Y0207309D03*
X0212583Y0207309D03*
X0212583Y0201010D03*
X0185083Y0201010D03*
X0185083Y0207309D03*
X0142583Y0207309D03*
X0142583Y0201010D03*
X0115083Y0201010D03*
X0115083Y0207309D03*
X0093833Y0211010D03*
X0093833Y0217309D03*
X0038833Y0218510D03*
X0038833Y0224809D03*
X0127583Y0136059D03*
X0127583Y0129760D03*
X0127583Y0118559D03*
X0127583Y0112260D03*
X0135083Y0112260D03*
X0135083Y0118559D03*
X0142583Y0118559D03*
X0142583Y0112260D03*
X0142583Y0101059D03*
X0142583Y0094760D03*
X0135083Y0094760D03*
X0135083Y0101059D03*
X0127583Y0101059D03*
X0127583Y0094760D03*
X0116333Y0104760D03*
X0116333Y0111059D03*
X0162583Y0112260D03*
X0162583Y0118559D03*
X0170083Y0118559D03*
X0170083Y0112260D03*
X0177583Y0112260D03*
X0177583Y0118559D03*
X0188833Y0111059D03*
X0188833Y0104760D03*
X0177583Y0101059D03*
X0177583Y0094760D03*
X0170083Y0094760D03*
X0170083Y0101059D03*
X0162583Y0101059D03*
X0162583Y0094760D03*
X0177583Y0129760D03*
X0177583Y0136059D03*
D18*
X0211776Y0124327D03*
X0231461Y0124327D03*
X0231461Y0099720D03*
X0231461Y0099720D03*
X0221619Y0099720D03*
X0221619Y0099720D03*
X0211776Y0099720D03*
X0211776Y0099720D03*
X0211776Y0156807D03*
X0231461Y0156807D03*
X0093666Y0156807D03*
X0073981Y0156807D03*
X0073981Y0124327D03*
X0093666Y0124327D03*
X0093666Y0099720D03*
X0093666Y0099720D03*
X0083823Y0099720D03*
X0083823Y0099720D03*
X0073981Y0099720D03*
X0073981Y0099720D03*
D19*
X0061383Y0129248D03*
X0106264Y0129248D03*
X0199178Y0129248D03*
X0244060Y0129248D03*
D20*
X0163705Y0136659D03*
X0163705Y0141659D03*
X0163705Y0146659D03*
X0163705Y0151659D03*
X0163705Y0156659D03*
X0163705Y0161659D03*
X0163705Y0166659D03*
X0141461Y0166659D03*
X0141461Y0161659D03*
X0141461Y0156659D03*
X0141461Y0151659D03*
X0141461Y0146659D03*
X0141461Y0141659D03*
X0141461Y0136659D03*
D21*
X0141983Y0130409D03*
X0135684Y0130409D03*
X0126983Y0144159D03*
X0120684Y0144159D03*
X0120684Y0151659D03*
X0126983Y0151659D03*
X0126983Y0159159D03*
X0120684Y0159159D03*
X0178184Y0159159D03*
X0184483Y0159159D03*
X0184483Y0151659D03*
X0178184Y0151659D03*
X0178184Y0144159D03*
X0184483Y0144159D03*
X0244434Y0169159D03*
X0250733Y0169159D03*
X0259434Y0169159D03*
X0265733Y0169159D03*
X0083233Y0231659D03*
X0076934Y0231659D03*
X0068233Y0231659D03*
X0061934Y0231659D03*
D22*
X0065083Y0323136D02*
X0065083Y0330813D01*
X0085083Y0330813D02*
X0085083Y0323136D01*
X0105083Y0323136D02*
X0105083Y0330813D01*
X0125083Y0330813D02*
X0125083Y0323136D01*
X0145083Y0323136D02*
X0145083Y0330813D01*
X0165083Y0330813D02*
X0165083Y0323136D01*
X0185083Y0323136D02*
X0185083Y0330813D01*
X0205083Y0330813D02*
X0205083Y0323136D01*
X0225083Y0323136D02*
X0225083Y0330813D01*
X0245083Y0330813D02*
X0245083Y0323136D01*
D23*
X0225083Y0276502D03*
X0185083Y0276502D03*
X0145083Y0276502D03*
X0105083Y0276502D03*
X0074926Y0266659D03*
D24*
X0055241Y0266659D03*
X0105083Y0256817D03*
X0145083Y0256817D03*
X0185083Y0256817D03*
X0225083Y0256817D03*
D25*
X0086333Y0217781D03*
X0081333Y0217781D03*
X0076333Y0217781D03*
X0071333Y0217781D03*
X0066333Y0217781D03*
X0061333Y0217781D03*
X0056333Y0217781D03*
X0056333Y0195537D03*
X0061333Y0195537D03*
X0066333Y0195537D03*
X0071333Y0195537D03*
X0076333Y0195537D03*
X0081333Y0195537D03*
X0086333Y0195537D03*
D26*
X0120083Y0136581D03*
X0120083Y0126738D03*
X0185083Y0126738D03*
X0185083Y0136581D03*
D27*
X0223912Y0165409D03*
X0223912Y0171659D03*
X0233755Y0171659D03*
X0233755Y0165409D03*
D28*
X0216520Y0176659D03*
X0208646Y0172919D03*
X0208646Y0180400D03*
D29*
X0016786Y0186659D02*
X0010881Y0186659D01*
X0010881Y0196659D02*
X0016786Y0196659D01*
X0016786Y0206659D02*
X0010881Y0206659D01*
X0010881Y0216659D02*
X0016786Y0216659D01*
X0016786Y0226659D02*
X0010881Y0226659D01*
D30*
X0024768Y0324130D03*
X0024768Y0107594D03*
X0280674Y0107594D03*
X0280674Y0324130D03*
D31*
X0298765Y0324469D02*
X0256677Y0324469D01*
X0256677Y0323683D02*
X0298765Y0323683D01*
X0298765Y0322897D02*
X0256677Y0322897D01*
X0256677Y0322111D02*
X0298765Y0322111D01*
X0298765Y0321326D02*
X0256677Y0321326D01*
X0256677Y0320540D02*
X0298765Y0320540D01*
X0298765Y0319754D02*
X0256677Y0319754D01*
X0256677Y0318968D02*
X0298765Y0318968D01*
X0298765Y0318182D02*
X0256677Y0318182D01*
X0256677Y0317396D02*
X0298765Y0317396D01*
X0298765Y0316610D02*
X0256677Y0316610D01*
X0256677Y0315824D02*
X0298765Y0315824D01*
X0298765Y0315038D02*
X0256677Y0315038D01*
X0256677Y0314252D02*
X0298765Y0314252D01*
X0298765Y0313466D02*
X0256677Y0313466D01*
X0256677Y0312681D02*
X0298765Y0312681D01*
X0298765Y0311895D02*
X0256677Y0311895D01*
X0256677Y0311109D02*
X0298765Y0311109D01*
X0298765Y0310323D02*
X0256677Y0310323D01*
X0256677Y0309537D02*
X0298765Y0309537D01*
X0298765Y0308751D02*
X0256677Y0308751D01*
X0256677Y0307965D02*
X0298765Y0307965D01*
X0298765Y0307179D02*
X0256677Y0307179D01*
X0256677Y0306393D02*
X0298765Y0306393D01*
X0298765Y0305607D02*
X0256677Y0305607D01*
X0256677Y0304821D02*
X0298765Y0304821D01*
X0298765Y0304035D02*
X0256677Y0304035D01*
X0256677Y0303250D02*
X0298765Y0303250D01*
X0298765Y0302464D02*
X0256677Y0302464D01*
X0256677Y0301678D02*
X0298765Y0301678D01*
X0298765Y0300892D02*
X0256677Y0300892D01*
X0256677Y0300106D02*
X0298765Y0300106D01*
X0298765Y0299320D02*
X0256677Y0299320D01*
X0256677Y0298534D02*
X0298765Y0298534D01*
X0298765Y0297748D02*
X0256677Y0297748D01*
X0256677Y0296962D02*
X0298765Y0296962D01*
X0298765Y0296176D02*
X0256677Y0296176D01*
X0256677Y0295390D02*
X0298765Y0295390D01*
X0298765Y0294605D02*
X0256677Y0294605D01*
X0256677Y0293819D02*
X0298765Y0293819D01*
X0298765Y0293033D02*
X0256677Y0293033D01*
X0256677Y0292247D02*
X0298765Y0292247D01*
X0298765Y0291461D02*
X0256677Y0291461D01*
X0256677Y0290675D02*
X0298765Y0290675D01*
X0298765Y0289889D02*
X0256677Y0289889D01*
X0256677Y0289103D02*
X0298765Y0289103D01*
X0298765Y0288317D02*
X0256677Y0288317D01*
X0256677Y0287531D02*
X0298765Y0287531D01*
X0298765Y0286745D02*
X0256677Y0286745D01*
X0256677Y0285959D02*
X0298765Y0285959D01*
X0298765Y0285174D02*
X0256677Y0285174D01*
X0256677Y0284388D02*
X0298765Y0284388D01*
X0298765Y0283602D02*
X0256677Y0283602D01*
X0256677Y0282816D02*
X0298765Y0282816D01*
X0298765Y0282030D02*
X0256677Y0282030D01*
X0256677Y0281244D02*
X0298765Y0281244D01*
X0298765Y0280458D02*
X0256677Y0280458D01*
X0256677Y0279672D02*
X0298765Y0279672D01*
X0298765Y0278886D02*
X0256677Y0278886D01*
X0256677Y0278100D02*
X0298765Y0278100D01*
X0298765Y0277314D02*
X0256677Y0277314D01*
X0256677Y0276529D02*
X0298765Y0276529D01*
X0298765Y0275743D02*
X0260290Y0275743D01*
X0260632Y0275601D02*
X0259465Y0276084D01*
X0258202Y0276084D01*
X0257035Y0275601D01*
X0256677Y0275243D01*
X0256677Y0332320D01*
X0255743Y0333253D01*
X0251993Y0337003D01*
X0238173Y0337003D01*
X0233490Y0332320D01*
X0233490Y0228137D01*
X0233446Y0228181D01*
X0227764Y0228181D01*
X0226948Y0227365D01*
X0226948Y0223454D01*
X0227764Y0222638D01*
X0227959Y0222638D01*
X0227925Y0222603D01*
X0216677Y0222603D01*
X0216677Y0332320D01*
X0215743Y0333253D01*
X0211993Y0337003D01*
X0198173Y0337003D01*
X0193490Y0332320D01*
X0193490Y0228137D01*
X0193446Y0228181D01*
X0187764Y0228181D01*
X0186948Y0227365D01*
X0186948Y0223454D01*
X0187764Y0222638D01*
X0188411Y0222638D01*
X0188411Y0221479D01*
X0191675Y0218216D01*
X0194140Y0218216D01*
X0194140Y0216860D01*
X0193833Y0216554D01*
X0193092Y0217295D01*
X0189575Y0217295D01*
X0188759Y0216479D01*
X0188759Y0210503D01*
X0188585Y0210503D01*
X0188220Y0210868D01*
X0181947Y0210868D01*
X0181582Y0210503D01*
X0153229Y0210503D01*
X0153132Y0210601D01*
X0151965Y0211084D01*
X0150702Y0211084D01*
X0149535Y0210601D01*
X0149437Y0210503D01*
X0146085Y0210503D01*
X0145720Y0210868D01*
X0139447Y0210868D01*
X0139082Y0210503D01*
X0138908Y0210503D01*
X0138908Y0216479D01*
X0138527Y0216860D01*
X0138527Y0218216D01*
X0149742Y0218216D01*
X0151514Y0219987D01*
X0152799Y0221272D01*
X0152799Y0222638D01*
X0153446Y0222638D01*
X0153490Y0222681D01*
X0153490Y0222249D01*
X0154423Y0221316D01*
X0175743Y0221316D01*
X0176677Y0222249D01*
X0176677Y0332320D01*
X0175743Y0333253D01*
X0171993Y0337003D01*
X0158173Y0337003D01*
X0153490Y0332320D01*
X0153490Y0228137D01*
X0153446Y0228181D01*
X0147764Y0228181D01*
X0146948Y0227365D01*
X0146948Y0223454D01*
X0147764Y0222638D01*
X0147959Y0222638D01*
X0147925Y0222603D01*
X0136677Y0222603D01*
X0136677Y0332320D01*
X0135743Y0333253D01*
X0131993Y0337003D01*
X0118173Y0337003D01*
X0117240Y0336070D01*
X0113490Y0332320D01*
X0113490Y0228137D01*
X0113446Y0228181D01*
X0107764Y0228181D01*
X0106948Y0227365D01*
X0106948Y0223454D01*
X0107764Y0222638D01*
X0108411Y0222638D01*
X0108411Y0221479D01*
X0109696Y0220194D01*
X0111675Y0218216D01*
X0124140Y0218216D01*
X0124140Y0216860D01*
X0123833Y0216554D01*
X0123092Y0217295D01*
X0119575Y0217295D01*
X0118759Y0216479D01*
X0118759Y0210503D01*
X0118585Y0210503D01*
X0118220Y0210868D01*
X0111947Y0210868D01*
X0111582Y0210503D01*
X0111158Y0210503D01*
X0102282Y0219379D01*
X0101553Y0220108D01*
X0100599Y0220503D01*
X0097335Y0220503D01*
X0096970Y0220868D01*
X0090697Y0220868D01*
X0089881Y0220052D01*
X0089881Y0219975D01*
X0089105Y0219975D01*
X0089105Y0221804D01*
X0088527Y0222382D01*
X0088527Y0225068D01*
X0087242Y0226353D01*
X0085888Y0227707D01*
X0085976Y0227707D01*
X0086792Y0228523D01*
X0086792Y0234796D01*
X0085976Y0235612D01*
X0080490Y0235612D01*
X0080083Y0235205D01*
X0079676Y0235612D01*
X0074191Y0235612D01*
X0073375Y0234796D01*
X0073375Y0233653D01*
X0071792Y0233653D01*
X0071792Y0234796D01*
X0070976Y0235612D01*
X0065490Y0235612D01*
X0064674Y0234796D01*
X0064674Y0228523D01*
X0065490Y0227707D01*
X0070976Y0227707D01*
X0071792Y0228523D01*
X0071792Y0229666D01*
X0073375Y0229666D01*
X0073375Y0228523D01*
X0074191Y0227707D01*
X0079676Y0227707D01*
X0080083Y0228114D01*
X0080490Y0227707D01*
X0081039Y0227707D01*
X0081039Y0226351D01*
X0084140Y0223251D01*
X0084140Y0222382D01*
X0083833Y0222075D01*
X0083289Y0222620D01*
X0079378Y0222620D01*
X0078833Y0222075D01*
X0078289Y0222620D01*
X0074378Y0222620D01*
X0073833Y0222075D01*
X0073327Y0222582D01*
X0073327Y0223735D01*
X0072159Y0224903D01*
X0070260Y0226803D01*
X0042786Y0226803D01*
X0042786Y0227552D01*
X0041970Y0228368D01*
X0035697Y0228368D01*
X0034881Y0227552D01*
X0034881Y0227182D01*
X0033409Y0228653D01*
X0020665Y0228653D01*
X0020471Y0229122D01*
X0019248Y0230344D01*
X0017651Y0231006D01*
X0010016Y0231006D01*
X0008419Y0230344D01*
X0007196Y0229122D01*
X0006677Y0227869D01*
X0006677Y0335941D01*
X0006754Y0336923D01*
X0007362Y0338792D01*
X0008516Y0340382D01*
X0010106Y0341537D01*
X0011975Y0342144D01*
X0012957Y0342221D01*
X0292485Y0342221D01*
X0293467Y0342144D01*
X0295336Y0341537D01*
X0296926Y0340382D01*
X0298081Y0338792D01*
X0298688Y0336923D01*
X0298765Y0335941D01*
X0298765Y0095783D01*
X0298688Y0094801D01*
X0298081Y0092932D01*
X0296926Y0091343D01*
X0295336Y0090188D01*
X0293467Y0089580D01*
X0292485Y0089503D01*
X0178529Y0089503D01*
X0179777Y0090751D01*
X0179777Y0091201D01*
X0180720Y0091201D01*
X0181536Y0092017D01*
X0181536Y0092566D01*
X0182842Y0092566D01*
X0183761Y0093485D01*
X0184465Y0093485D01*
X0185632Y0093968D01*
X0186525Y0094861D01*
X0187008Y0096028D01*
X0187008Y0097291D01*
X0186525Y0098458D01*
X0185917Y0099065D01*
X0207036Y0099065D01*
X0207036Y0095797D01*
X0207852Y0094980D01*
X0215700Y0094980D01*
X0216516Y0095797D01*
X0216516Y0103644D01*
X0215700Y0104461D01*
X0207852Y0104461D01*
X0207036Y0103644D01*
X0207036Y0103053D01*
X0192786Y0103053D01*
X0192786Y0107502D01*
X0191970Y0108319D01*
X0186027Y0108319D01*
X0186027Y0111318D01*
X0184742Y0112603D01*
X0182892Y0114454D01*
X0181536Y0114454D01*
X0181536Y0115002D01*
X0181129Y0115409D01*
X0181536Y0115816D01*
X0181536Y0116565D01*
X0184858Y0116565D01*
X0185590Y0115834D01*
X0186758Y0114666D01*
X0216758Y0114666D01*
X0227250Y0104173D01*
X0226721Y0103644D01*
X0226721Y0095797D01*
X0227538Y0094980D01*
X0235385Y0094980D01*
X0236201Y0095797D01*
X0236201Y0103644D01*
X0235385Y0104461D01*
X0232602Y0104461D01*
X0219897Y0117166D01*
X0230909Y0117166D01*
X0232159Y0118416D01*
X0233327Y0119584D01*
X0233327Y0119587D01*
X0235385Y0119587D01*
X0236201Y0120403D01*
X0236201Y0128251D01*
X0235385Y0129067D01*
X0233455Y0129067D01*
X0233455Y0152067D01*
X0235385Y0152067D01*
X0236201Y0152883D01*
X0236201Y0160731D01*
X0235385Y0161547D01*
X0227538Y0161547D01*
X0226721Y0160731D01*
X0226721Y0159091D01*
X0225906Y0159907D01*
X0225906Y0162835D01*
X0226064Y0162835D01*
X0226881Y0163651D01*
X0226881Y0167168D01*
X0226064Y0167984D01*
X0221760Y0167984D01*
X0220944Y0167168D01*
X0220944Y0163651D01*
X0221760Y0162835D01*
X0221918Y0162835D01*
X0221918Y0158255D01*
X0224340Y0155834D01*
X0225508Y0154666D01*
X0226721Y0154666D01*
X0226721Y0152883D01*
X0227538Y0152067D01*
X0229468Y0152067D01*
X0229468Y0129067D01*
X0227538Y0129067D01*
X0226721Y0128251D01*
X0226721Y0121153D01*
X0189659Y0121153D01*
X0187077Y0123735D01*
X0187077Y0124005D01*
X0187658Y0124586D01*
X0187658Y0128890D01*
X0186842Y0129707D01*
X0183325Y0129707D01*
X0182509Y0128890D01*
X0182509Y0124586D01*
X0183090Y0124005D01*
X0183090Y0122084D01*
X0184621Y0120553D01*
X0181536Y0120553D01*
X0181536Y0121302D01*
X0180720Y0122118D01*
X0174447Y0122118D01*
X0173833Y0121504D01*
X0173220Y0122118D01*
X0166947Y0122118D01*
X0166131Y0121302D01*
X0166131Y0115816D01*
X0166538Y0115409D01*
X0166333Y0115205D01*
X0165720Y0115819D01*
X0159577Y0115819D01*
X0159577Y0133994D01*
X0159683Y0133888D01*
X0167728Y0133888D01*
X0168544Y0134704D01*
X0168544Y0138615D01*
X0167999Y0139159D01*
X0168505Y0139666D01*
X0169659Y0139666D01*
X0170909Y0140916D01*
X0171748Y0141755D01*
X0172035Y0141468D01*
X0173202Y0140985D01*
X0174465Y0140985D01*
X0174625Y0141051D01*
X0174625Y0141023D01*
X0175441Y0140207D01*
X0175990Y0140207D01*
X0175990Y0139618D01*
X0174447Y0139618D01*
X0173631Y0138802D01*
X0173631Y0133316D01*
X0174447Y0132500D01*
X0180720Y0132500D01*
X0181536Y0133316D01*
X0181536Y0138802D01*
X0180720Y0139618D01*
X0180377Y0139618D01*
X0180377Y0140207D01*
X0180926Y0140207D01*
X0181333Y0140614D01*
X0181740Y0140207D01*
X0183090Y0140207D01*
X0183090Y0139314D01*
X0182509Y0138733D01*
X0182509Y0134429D01*
X0183325Y0133612D01*
X0186842Y0133612D01*
X0187658Y0134429D01*
X0187658Y0138733D01*
X0187077Y0139314D01*
X0187077Y0140207D01*
X0187226Y0140207D01*
X0188042Y0141023D01*
X0188042Y0147296D01*
X0187428Y0147909D01*
X0188042Y0148523D01*
X0188042Y0154796D01*
X0187226Y0155612D01*
X0181740Y0155612D01*
X0181333Y0155205D01*
X0181129Y0155409D01*
X0181743Y0156023D01*
X0181743Y0162296D01*
X0180926Y0163112D01*
X0175441Y0163112D01*
X0174625Y0162296D01*
X0174625Y0161153D01*
X0174258Y0161153D01*
X0171758Y0158653D01*
X0168505Y0158653D01*
X0167999Y0159159D01*
X0168544Y0159704D01*
X0168544Y0163615D01*
X0167728Y0164431D01*
X0159683Y0164431D01*
X0159577Y0164325D01*
X0159577Y0172485D01*
X0156147Y0175916D01*
X0200508Y0175916D01*
X0201758Y0174666D01*
X0210508Y0174666D01*
X0210590Y0174584D01*
X0210590Y0173334D01*
X0211758Y0172166D01*
X0214258Y0169666D01*
X0221179Y0169666D01*
X0221760Y0169085D01*
X0226064Y0169085D01*
X0226881Y0169901D01*
X0226881Y0173418D01*
X0226064Y0174234D01*
X0221760Y0174234D01*
X0221179Y0173653D01*
X0215909Y0173653D01*
X0215871Y0173691D01*
X0219066Y0173691D01*
X0219883Y0174507D01*
X0219883Y0174666D01*
X0230508Y0174666D01*
X0231271Y0173903D01*
X0230786Y0173418D01*
X0230786Y0169901D01*
X0231602Y0169085D01*
X0231761Y0169085D01*
X0231761Y0167984D01*
X0231602Y0167984D01*
X0230786Y0167168D01*
X0230786Y0163651D01*
X0231602Y0162835D01*
X0235907Y0162835D01*
X0236723Y0163651D01*
X0236723Y0167168D01*
X0235907Y0167984D01*
X0235748Y0167984D01*
X0235748Y0169085D01*
X0235907Y0169085D01*
X0236567Y0169744D01*
X0238090Y0169744D01*
X0238090Y0169584D01*
X0239258Y0168416D01*
X0240508Y0167166D01*
X0240875Y0167166D01*
X0240875Y0166023D01*
X0241691Y0165207D01*
X0247176Y0165207D01*
X0247583Y0165614D01*
X0247990Y0165207D01*
X0253476Y0165207D01*
X0254292Y0166023D01*
X0254292Y0166566D01*
X0255875Y0166566D01*
X0255875Y0166023D01*
X0256691Y0165207D01*
X0262176Y0165207D01*
X0262993Y0166023D01*
X0262993Y0172296D01*
X0262176Y0173112D01*
X0257918Y0173112D01*
X0257775Y0173458D01*
X0257677Y0173556D01*
X0257677Y0176742D01*
X0257658Y0176788D01*
X0257658Y0179363D01*
X0256842Y0180179D01*
X0253325Y0180179D01*
X0252509Y0179363D01*
X0252509Y0176788D01*
X0252490Y0176742D01*
X0252490Y0173556D01*
X0252392Y0173458D01*
X0252249Y0173112D01*
X0247990Y0173112D01*
X0247583Y0172705D01*
X0247176Y0173112D01*
X0242658Y0173112D01*
X0242658Y0179363D01*
X0241842Y0180179D01*
X0238325Y0180179D01*
X0237509Y0179363D01*
X0237509Y0173732D01*
X0236409Y0173732D01*
X0235907Y0174234D01*
X0235827Y0174234D01*
X0235827Y0174985D01*
X0234659Y0176153D01*
X0232159Y0178653D01*
X0219883Y0178653D01*
X0219883Y0178812D01*
X0219066Y0179628D01*
X0213975Y0179628D01*
X0213158Y0178812D01*
X0213158Y0177654D01*
X0212159Y0178653D01*
X0212009Y0178653D01*
X0212009Y0182552D01*
X0211192Y0183368D01*
X0206101Y0183368D01*
X0205454Y0182722D01*
X0205409Y0182767D01*
X0204387Y0183191D01*
X0203280Y0183191D01*
X0203116Y0183123D01*
X0208327Y0188334D01*
X0208327Y0188759D01*
X0208908Y0189340D01*
X0208908Y0195613D01*
X0208092Y0196429D01*
X0204575Y0196429D01*
X0203759Y0195613D01*
X0203759Y0189404D01*
X0196758Y0182403D01*
X0194897Y0182403D01*
X0198327Y0185834D01*
X0198327Y0188759D01*
X0198908Y0189340D01*
X0198908Y0195613D01*
X0198092Y0196429D01*
X0194575Y0196429D01*
X0193833Y0195688D01*
X0193092Y0196429D01*
X0189575Y0196429D01*
X0188759Y0195613D01*
X0188759Y0189340D01*
X0189420Y0188679D01*
X0188976Y0188235D01*
X0188631Y0187403D01*
X0142786Y0187403D01*
X0142441Y0188235D01*
X0141659Y0189017D01*
X0140637Y0189441D01*
X0139530Y0189441D01*
X0138640Y0189072D01*
X0138908Y0189340D01*
X0138908Y0195613D01*
X0138092Y0196429D01*
X0134575Y0196429D01*
X0133759Y0195613D01*
X0133759Y0189404D01*
X0131758Y0187403D01*
X0127397Y0187403D01*
X0128327Y0188334D01*
X0128327Y0188759D01*
X0128908Y0189340D01*
X0128908Y0195613D01*
X0128092Y0196429D01*
X0124575Y0196429D01*
X0123833Y0195688D01*
X0123092Y0196429D01*
X0119575Y0196429D01*
X0118759Y0195613D01*
X0118759Y0194183D01*
X0118137Y0194441D01*
X0117030Y0194441D01*
X0116008Y0194017D01*
X0115644Y0193653D01*
X0090508Y0193653D01*
X0089340Y0192485D01*
X0088008Y0191153D01*
X0083743Y0191153D01*
X0084105Y0191515D01*
X0084105Y0199560D01*
X0083327Y0200338D01*
X0083327Y0203735D01*
X0082077Y0204985D01*
X0081347Y0205716D01*
X0084742Y0205716D01*
X0086027Y0207001D01*
X0088527Y0209501D01*
X0088527Y0213181D01*
X0089105Y0213759D01*
X0089105Y0215588D01*
X0089881Y0215588D01*
X0089881Y0214566D01*
X0090697Y0213750D01*
X0096970Y0213750D01*
X0097786Y0214566D01*
X0097786Y0215316D01*
X0099009Y0215316D01*
X0108614Y0205711D01*
X0109567Y0205316D01*
X0111131Y0205316D01*
X0111131Y0204566D01*
X0111947Y0203750D01*
X0118220Y0203750D01*
X0119036Y0204566D01*
X0119036Y0205316D01*
X0138631Y0205316D01*
X0138631Y0204566D01*
X0139447Y0203750D01*
X0145720Y0203750D01*
X0146536Y0204566D01*
X0146536Y0205316D01*
X0149437Y0205316D01*
X0149535Y0205218D01*
X0150702Y0204735D01*
X0151965Y0204735D01*
X0153132Y0205218D01*
X0153229Y0205316D01*
X0181131Y0205316D01*
X0181131Y0204566D01*
X0181947Y0203750D01*
X0188220Y0203750D01*
X0189036Y0204566D01*
X0189036Y0205316D01*
X0208631Y0205316D01*
X0208631Y0204566D01*
X0209447Y0203750D01*
X0215720Y0203750D01*
X0216536Y0204566D01*
X0216536Y0205316D01*
X0229881Y0205316D01*
X0229881Y0204566D01*
X0230288Y0204159D01*
X0229881Y0203752D01*
X0229881Y0198267D01*
X0230697Y0197451D01*
X0231840Y0197451D01*
X0231840Y0197118D01*
X0230697Y0197118D01*
X0229881Y0196302D01*
X0229881Y0190816D01*
X0230697Y0190000D01*
X0236970Y0190000D01*
X0237786Y0190816D01*
X0237786Y0193679D01*
X0238325Y0193140D01*
X0241842Y0193140D01*
X0242658Y0193956D01*
X0242658Y0200229D01*
X0241842Y0201045D01*
X0238325Y0201045D01*
X0237786Y0200506D01*
X0237786Y0203752D01*
X0237379Y0204159D01*
X0237786Y0204566D01*
X0237786Y0205316D01*
X0247602Y0205316D01*
X0252490Y0200428D01*
X0252490Y0196577D01*
X0252509Y0196531D01*
X0252509Y0193956D01*
X0253325Y0193140D01*
X0256842Y0193140D01*
X0257658Y0193956D01*
X0257658Y0196408D01*
X0258965Y0196408D01*
X0258965Y0193700D01*
X0259782Y0192884D01*
X0270385Y0192884D01*
X0271201Y0193700D01*
X0271201Y0204304D01*
X0270385Y0205120D01*
X0259782Y0205120D01*
X0258965Y0204304D01*
X0258965Y0201596D01*
X0257677Y0201596D01*
X0257677Y0202018D01*
X0257282Y0202971D01*
X0255519Y0204735D01*
X0255715Y0204735D01*
X0256882Y0205218D01*
X0257775Y0206111D01*
X0258258Y0207278D01*
X0258258Y0207416D01*
X0261032Y0210190D01*
X0261427Y0211144D01*
X0261427Y0271013D01*
X0261525Y0271111D01*
X0262008Y0272278D01*
X0262008Y0273541D01*
X0261525Y0274708D01*
X0260632Y0275601D01*
X0261276Y0274957D02*
X0298765Y0274957D01*
X0298765Y0274171D02*
X0261747Y0274171D01*
X0262008Y0273385D02*
X0298765Y0273385D01*
X0298765Y0272599D02*
X0262008Y0272599D01*
X0261816Y0271813D02*
X0298765Y0271813D01*
X0298765Y0271027D02*
X0261441Y0271027D01*
X0261427Y0270241D02*
X0298765Y0270241D01*
X0298765Y0269455D02*
X0261427Y0269455D01*
X0261427Y0268669D02*
X0298765Y0268669D01*
X0298765Y0267884D02*
X0261427Y0267884D01*
X0261427Y0267098D02*
X0298765Y0267098D01*
X0298765Y0266312D02*
X0261427Y0266312D01*
X0261427Y0265526D02*
X0298765Y0265526D01*
X0298765Y0264740D02*
X0261427Y0264740D01*
X0261427Y0263954D02*
X0298765Y0263954D01*
X0298765Y0263168D02*
X0261427Y0263168D01*
X0261427Y0262382D02*
X0298765Y0262382D01*
X0298765Y0261596D02*
X0261427Y0261596D01*
X0261427Y0260810D02*
X0298765Y0260810D01*
X0298765Y0260024D02*
X0261427Y0260024D01*
X0261427Y0259238D02*
X0298765Y0259238D01*
X0298765Y0258453D02*
X0261427Y0258453D01*
X0261427Y0257667D02*
X0298765Y0257667D01*
X0298765Y0256881D02*
X0261427Y0256881D01*
X0261427Y0256095D02*
X0298765Y0256095D01*
X0298765Y0255309D02*
X0261427Y0255309D01*
X0261427Y0254523D02*
X0298765Y0254523D01*
X0298765Y0253737D02*
X0261427Y0253737D01*
X0261427Y0252951D02*
X0298765Y0252951D01*
X0298765Y0252165D02*
X0261427Y0252165D01*
X0261427Y0251379D02*
X0298765Y0251379D01*
X0298765Y0250593D02*
X0261427Y0250593D01*
X0261427Y0249808D02*
X0298765Y0249808D01*
X0298765Y0249022D02*
X0261427Y0249022D01*
X0261427Y0248236D02*
X0298765Y0248236D01*
X0298765Y0247450D02*
X0261427Y0247450D01*
X0261427Y0246664D02*
X0298765Y0246664D01*
X0298765Y0245878D02*
X0261427Y0245878D01*
X0261427Y0245092D02*
X0298765Y0245092D01*
X0298765Y0244306D02*
X0261427Y0244306D01*
X0261427Y0243520D02*
X0298765Y0243520D01*
X0298765Y0242734D02*
X0261427Y0242734D01*
X0261427Y0241948D02*
X0298765Y0241948D01*
X0298765Y0241162D02*
X0261427Y0241162D01*
X0261427Y0240377D02*
X0298765Y0240377D01*
X0298765Y0239591D02*
X0261427Y0239591D01*
X0261427Y0238805D02*
X0298765Y0238805D01*
X0298765Y0238019D02*
X0261427Y0238019D01*
X0261427Y0237233D02*
X0298765Y0237233D01*
X0298765Y0236447D02*
X0261427Y0236447D01*
X0261427Y0235661D02*
X0298765Y0235661D01*
X0298765Y0234875D02*
X0261427Y0234875D01*
X0261427Y0234089D02*
X0298765Y0234089D01*
X0298765Y0233303D02*
X0261427Y0233303D01*
X0261427Y0232517D02*
X0298765Y0232517D01*
X0298765Y0231732D02*
X0261427Y0231732D01*
X0261427Y0230946D02*
X0298765Y0230946D01*
X0298765Y0230160D02*
X0261427Y0230160D01*
X0261427Y0229374D02*
X0298765Y0229374D01*
X0298765Y0228588D02*
X0261427Y0228588D01*
X0261427Y0227802D02*
X0298765Y0227802D01*
X0298765Y0227016D02*
X0261427Y0227016D01*
X0261427Y0226230D02*
X0298765Y0226230D01*
X0298765Y0225444D02*
X0261427Y0225444D01*
X0261427Y0224658D02*
X0298765Y0224658D01*
X0298765Y0223872D02*
X0261427Y0223872D01*
X0261427Y0223086D02*
X0298765Y0223086D01*
X0298765Y0222301D02*
X0261427Y0222301D01*
X0261427Y0221515D02*
X0298765Y0221515D01*
X0298765Y0220729D02*
X0261427Y0220729D01*
X0261427Y0219943D02*
X0298765Y0219943D01*
X0298765Y0219157D02*
X0261427Y0219157D01*
X0261427Y0218371D02*
X0298765Y0218371D01*
X0298765Y0217585D02*
X0261427Y0217585D01*
X0261427Y0216799D02*
X0298765Y0216799D01*
X0298765Y0216013D02*
X0261427Y0216013D01*
X0261427Y0215227D02*
X0298765Y0215227D01*
X0298765Y0214441D02*
X0261427Y0214441D01*
X0261427Y0213656D02*
X0298765Y0213656D01*
X0298765Y0212870D02*
X0261427Y0212870D01*
X0261427Y0212084D02*
X0298765Y0212084D01*
X0298765Y0211298D02*
X0261427Y0211298D01*
X0261165Y0210512D02*
X0298765Y0210512D01*
X0298765Y0209726D02*
X0260568Y0209726D01*
X0259782Y0208940D02*
X0298765Y0208940D01*
X0298765Y0208154D02*
X0258996Y0208154D01*
X0258258Y0207368D02*
X0298765Y0207368D01*
X0298765Y0206582D02*
X0257970Y0206582D01*
X0257460Y0205796D02*
X0298765Y0205796D01*
X0298765Y0205010D02*
X0270495Y0205010D01*
X0271201Y0204225D02*
X0298765Y0204225D01*
X0298765Y0203439D02*
X0271201Y0203439D01*
X0271201Y0202653D02*
X0298765Y0202653D01*
X0298765Y0201867D02*
X0271201Y0201867D01*
X0271201Y0201081D02*
X0298765Y0201081D01*
X0298765Y0200295D02*
X0271201Y0200295D01*
X0271201Y0199509D02*
X0298765Y0199509D01*
X0298765Y0198723D02*
X0271201Y0198723D01*
X0271201Y0197937D02*
X0298765Y0197937D01*
X0298765Y0197151D02*
X0271201Y0197151D01*
X0271201Y0196365D02*
X0298765Y0196365D01*
X0298765Y0195580D02*
X0271201Y0195580D01*
X0271201Y0194794D02*
X0298765Y0194794D01*
X0298765Y0194008D02*
X0271201Y0194008D01*
X0270723Y0193222D02*
X0298765Y0193222D01*
X0298765Y0192436D02*
X0237786Y0192436D01*
X0237786Y0193222D02*
X0238243Y0193222D01*
X0237786Y0191650D02*
X0298765Y0191650D01*
X0298765Y0190864D02*
X0237786Y0190864D01*
X0237048Y0190078D02*
X0298765Y0190078D01*
X0298765Y0189292D02*
X0208860Y0189292D01*
X0208908Y0190078D02*
X0230619Y0190078D01*
X0229881Y0190864D02*
X0208908Y0190864D01*
X0208908Y0191650D02*
X0229881Y0191650D01*
X0229881Y0192436D02*
X0208908Y0192436D01*
X0208908Y0193222D02*
X0229881Y0193222D01*
X0229881Y0194008D02*
X0208908Y0194008D01*
X0208908Y0194794D02*
X0229881Y0194794D01*
X0229881Y0195580D02*
X0208908Y0195580D01*
X0208155Y0196365D02*
X0229944Y0196365D01*
X0230211Y0197937D02*
X0084105Y0197937D01*
X0084105Y0197151D02*
X0231840Y0197151D01*
X0229881Y0198723D02*
X0084105Y0198723D01*
X0084105Y0199509D02*
X0229881Y0199509D01*
X0229881Y0200295D02*
X0083370Y0200295D01*
X0083327Y0201081D02*
X0229881Y0201081D01*
X0229881Y0201867D02*
X0083327Y0201867D01*
X0083327Y0202653D02*
X0229881Y0202653D01*
X0229881Y0203439D02*
X0083327Y0203439D01*
X0082838Y0204225D02*
X0111472Y0204225D01*
X0111131Y0205010D02*
X0082052Y0205010D01*
X0084823Y0205796D02*
X0108528Y0205796D01*
X0107742Y0206582D02*
X0085609Y0206582D01*
X0086394Y0207368D02*
X0106957Y0207368D01*
X0106171Y0208154D02*
X0087180Y0208154D01*
X0087966Y0208940D02*
X0105385Y0208940D01*
X0104599Y0209726D02*
X0088527Y0209726D01*
X0088527Y0210512D02*
X0103813Y0210512D01*
X0103027Y0211298D02*
X0088527Y0211298D01*
X0088527Y0212084D02*
X0102241Y0212084D01*
X0101455Y0212870D02*
X0088527Y0212870D01*
X0089001Y0213656D02*
X0100669Y0213656D01*
X0099883Y0214441D02*
X0097661Y0214441D01*
X0097786Y0215227D02*
X0099097Y0215227D01*
X0102504Y0219157D02*
X0110734Y0219157D01*
X0111519Y0218371D02*
X0103290Y0218371D01*
X0104076Y0217585D02*
X0124140Y0217585D01*
X0124079Y0216799D02*
X0123588Y0216799D01*
X0119079Y0216799D02*
X0104862Y0216799D01*
X0105648Y0216013D02*
X0118759Y0216013D01*
X0118759Y0215227D02*
X0106433Y0215227D01*
X0107219Y0214441D02*
X0118759Y0214441D01*
X0118759Y0213656D02*
X0108005Y0213656D01*
X0108791Y0212870D02*
X0118759Y0212870D01*
X0118759Y0212084D02*
X0109577Y0212084D01*
X0110363Y0211298D02*
X0118759Y0211298D01*
X0118759Y0210512D02*
X0118576Y0210512D01*
X0119036Y0205010D02*
X0138631Y0205010D01*
X0138972Y0204225D02*
X0118694Y0204225D01*
X0111591Y0210512D02*
X0111149Y0210512D01*
X0109948Y0219943D02*
X0101718Y0219943D01*
X0107315Y0223086D02*
X0088527Y0223086D01*
X0088527Y0223872D02*
X0106948Y0223872D01*
X0106948Y0224658D02*
X0088527Y0224658D01*
X0088151Y0225444D02*
X0106948Y0225444D01*
X0106948Y0226230D02*
X0087365Y0226230D01*
X0086579Y0227016D02*
X0106948Y0227016D01*
X0107385Y0227802D02*
X0086071Y0227802D01*
X0086792Y0228588D02*
X0113490Y0228588D01*
X0113490Y0229374D02*
X0086792Y0229374D01*
X0086792Y0230160D02*
X0113490Y0230160D01*
X0113490Y0230946D02*
X0086792Y0230946D01*
X0086792Y0231732D02*
X0113490Y0231732D01*
X0113490Y0232517D02*
X0086792Y0232517D01*
X0086792Y0233303D02*
X0113490Y0233303D01*
X0113490Y0234089D02*
X0086792Y0234089D01*
X0086713Y0234875D02*
X0113490Y0234875D01*
X0113490Y0235661D02*
X0006677Y0235661D01*
X0006677Y0234875D02*
X0064753Y0234875D01*
X0064674Y0234089D02*
X0006677Y0234089D01*
X0006677Y0233303D02*
X0064674Y0233303D01*
X0064674Y0232517D02*
X0006677Y0232517D01*
X0006677Y0231732D02*
X0064674Y0231732D01*
X0064674Y0230946D02*
X0017796Y0230946D01*
X0019433Y0230160D02*
X0064674Y0230160D01*
X0064674Y0229374D02*
X0020219Y0229374D01*
X0009870Y0230946D02*
X0006677Y0230946D01*
X0006677Y0230160D02*
X0008234Y0230160D01*
X0007448Y0229374D02*
X0006677Y0229374D01*
X0006677Y0228588D02*
X0006975Y0228588D01*
X0006677Y0236447D02*
X0113490Y0236447D01*
X0113490Y0237233D02*
X0006677Y0237233D01*
X0006677Y0238019D02*
X0113490Y0238019D01*
X0113490Y0238805D02*
X0006677Y0238805D01*
X0006677Y0239591D02*
X0113490Y0239591D01*
X0113490Y0240377D02*
X0006677Y0240377D01*
X0006677Y0241162D02*
X0113490Y0241162D01*
X0113490Y0241948D02*
X0006677Y0241948D01*
X0006677Y0242734D02*
X0113490Y0242734D01*
X0113490Y0243520D02*
X0006677Y0243520D01*
X0006677Y0244306D02*
X0113490Y0244306D01*
X0113490Y0245092D02*
X0006677Y0245092D01*
X0006677Y0245878D02*
X0113490Y0245878D01*
X0113490Y0246664D02*
X0006677Y0246664D01*
X0006677Y0247450D02*
X0113490Y0247450D01*
X0113490Y0248236D02*
X0006677Y0248236D01*
X0006677Y0249022D02*
X0113490Y0249022D01*
X0113490Y0249808D02*
X0006677Y0249808D01*
X0006677Y0250593D02*
X0113490Y0250593D01*
X0113490Y0251379D02*
X0006677Y0251379D01*
X0006677Y0252165D02*
X0113490Y0252165D01*
X0113490Y0252951D02*
X0006677Y0252951D01*
X0006677Y0253737D02*
X0113490Y0253737D01*
X0113490Y0254523D02*
X0006677Y0254523D01*
X0006677Y0255309D02*
X0113490Y0255309D01*
X0113490Y0256095D02*
X0006677Y0256095D01*
X0006677Y0256881D02*
X0113490Y0256881D01*
X0113490Y0257667D02*
X0006677Y0257667D01*
X0006677Y0258453D02*
X0113490Y0258453D01*
X0113490Y0259238D02*
X0006677Y0259238D01*
X0006677Y0260024D02*
X0113490Y0260024D01*
X0113490Y0260810D02*
X0077512Y0260810D01*
X0078548Y0261239D02*
X0076198Y0260266D01*
X0073654Y0260266D01*
X0071304Y0261239D01*
X0069506Y0263038D01*
X0068532Y0265388D01*
X0068532Y0267931D01*
X0069506Y0270281D01*
X0071304Y0272080D01*
X0073654Y0273053D01*
X0076198Y0273053D01*
X0078548Y0272080D01*
X0080346Y0270281D01*
X0081320Y0267931D01*
X0081320Y0265388D01*
X0080346Y0263038D01*
X0078548Y0261239D01*
X0078905Y0261596D02*
X0113490Y0261596D01*
X0113490Y0262382D02*
X0079691Y0262382D01*
X0080400Y0263168D02*
X0113490Y0263168D01*
X0113490Y0263954D02*
X0080726Y0263954D01*
X0081051Y0264740D02*
X0113490Y0264740D01*
X0113490Y0265526D02*
X0081320Y0265526D01*
X0081320Y0266312D02*
X0113490Y0266312D01*
X0113490Y0267098D02*
X0081320Y0267098D01*
X0081320Y0267884D02*
X0113490Y0267884D01*
X0113490Y0268669D02*
X0081014Y0268669D01*
X0080688Y0269455D02*
X0113490Y0269455D01*
X0113490Y0270241D02*
X0106676Y0270241D01*
X0106355Y0270108D02*
X0108705Y0271082D01*
X0110504Y0272880D01*
X0111477Y0275230D01*
X0111477Y0277774D01*
X0110504Y0280124D01*
X0108705Y0281922D01*
X0106355Y0282896D01*
X0103812Y0282896D01*
X0101462Y0281922D01*
X0099663Y0280124D01*
X0098690Y0277774D01*
X0098690Y0275230D01*
X0099663Y0272880D01*
X0101462Y0271082D01*
X0103812Y0270108D01*
X0106355Y0270108D01*
X0108574Y0271027D02*
X0113490Y0271027D01*
X0113490Y0271813D02*
X0109436Y0271813D01*
X0110222Y0272599D02*
X0113490Y0272599D01*
X0113490Y0273385D02*
X0110713Y0273385D01*
X0111038Y0274171D02*
X0113490Y0274171D01*
X0113490Y0274957D02*
X0111364Y0274957D01*
X0111477Y0275743D02*
X0113490Y0275743D01*
X0113490Y0276529D02*
X0111477Y0276529D01*
X0111477Y0277314D02*
X0113490Y0277314D01*
X0113490Y0278100D02*
X0111342Y0278100D01*
X0111016Y0278886D02*
X0113490Y0278886D01*
X0113490Y0279672D02*
X0110691Y0279672D01*
X0110169Y0280458D02*
X0113490Y0280458D01*
X0113490Y0281244D02*
X0109383Y0281244D01*
X0108445Y0282030D02*
X0113490Y0282030D01*
X0113490Y0282816D02*
X0106548Y0282816D01*
X0103619Y0282816D02*
X0006677Y0282816D01*
X0006677Y0283602D02*
X0113490Y0283602D01*
X0113490Y0284388D02*
X0006677Y0284388D01*
X0006677Y0285174D02*
X0113490Y0285174D01*
X0113490Y0285959D02*
X0006677Y0285959D01*
X0006677Y0286745D02*
X0113490Y0286745D01*
X0113490Y0287531D02*
X0006677Y0287531D01*
X0006677Y0288317D02*
X0113490Y0288317D01*
X0113490Y0289103D02*
X0006677Y0289103D01*
X0006677Y0289889D02*
X0113490Y0289889D01*
X0113490Y0290675D02*
X0006677Y0290675D01*
X0006677Y0291461D02*
X0113490Y0291461D01*
X0113490Y0292247D02*
X0006677Y0292247D01*
X0006677Y0293033D02*
X0113490Y0293033D01*
X0113490Y0293819D02*
X0006677Y0293819D01*
X0006677Y0294605D02*
X0113490Y0294605D01*
X0113490Y0295390D02*
X0006677Y0295390D01*
X0006677Y0296176D02*
X0113490Y0296176D01*
X0113490Y0296962D02*
X0006677Y0296962D01*
X0006677Y0297748D02*
X0113490Y0297748D01*
X0113490Y0298534D02*
X0006677Y0298534D01*
X0006677Y0299320D02*
X0113490Y0299320D01*
X0113490Y0300106D02*
X0006677Y0300106D01*
X0006677Y0300892D02*
X0113490Y0300892D01*
X0113490Y0301678D02*
X0006677Y0301678D01*
X0006677Y0302464D02*
X0113490Y0302464D01*
X0113490Y0303250D02*
X0006677Y0303250D01*
X0006677Y0304035D02*
X0113490Y0304035D01*
X0113490Y0304821D02*
X0006677Y0304821D01*
X0006677Y0305607D02*
X0113490Y0305607D01*
X0113490Y0306393D02*
X0006677Y0306393D01*
X0006677Y0307179D02*
X0113490Y0307179D01*
X0113490Y0307965D02*
X0006677Y0307965D01*
X0006677Y0308751D02*
X0113490Y0308751D01*
X0113490Y0309537D02*
X0006677Y0309537D01*
X0006677Y0310323D02*
X0113490Y0310323D01*
X0113490Y0311109D02*
X0006677Y0311109D01*
X0006677Y0311895D02*
X0113490Y0311895D01*
X0113490Y0312681D02*
X0006677Y0312681D01*
X0006677Y0313466D02*
X0113490Y0313466D01*
X0113490Y0314252D02*
X0006677Y0314252D01*
X0006677Y0315038D02*
X0113490Y0315038D01*
X0113490Y0315824D02*
X0006677Y0315824D01*
X0006677Y0316610D02*
X0113490Y0316610D01*
X0113490Y0317396D02*
X0006677Y0317396D01*
X0006677Y0318182D02*
X0083370Y0318182D01*
X0084043Y0317904D02*
X0086124Y0317904D01*
X0088047Y0318700D01*
X0089519Y0320172D01*
X0090316Y0322095D01*
X0090316Y0331854D01*
X0089519Y0333777D01*
X0088047Y0335249D01*
X0086124Y0336045D01*
X0084043Y0336045D01*
X0082119Y0335249D01*
X0080648Y0333777D01*
X0079851Y0331854D01*
X0079851Y0322095D01*
X0080648Y0320172D01*
X0082119Y0318700D01*
X0084043Y0317904D01*
X0081852Y0318968D02*
X0006677Y0318968D01*
X0006677Y0319754D02*
X0081066Y0319754D01*
X0080495Y0320540D02*
X0006677Y0320540D01*
X0006677Y0321326D02*
X0080170Y0321326D01*
X0079851Y0322111D02*
X0006677Y0322111D01*
X0006677Y0322897D02*
X0079851Y0322897D01*
X0079851Y0323683D02*
X0006677Y0323683D01*
X0006677Y0324469D02*
X0079851Y0324469D01*
X0079851Y0325255D02*
X0006677Y0325255D01*
X0006677Y0326041D02*
X0079851Y0326041D01*
X0079851Y0326827D02*
X0006677Y0326827D01*
X0006677Y0327613D02*
X0079851Y0327613D01*
X0079851Y0328399D02*
X0006677Y0328399D01*
X0006677Y0329185D02*
X0079851Y0329185D01*
X0079851Y0329971D02*
X0006677Y0329971D01*
X0006677Y0330757D02*
X0079851Y0330757D01*
X0079851Y0331542D02*
X0006677Y0331542D01*
X0006677Y0332328D02*
X0080048Y0332328D01*
X0080373Y0333114D02*
X0006677Y0333114D01*
X0006677Y0333900D02*
X0080771Y0333900D01*
X0081557Y0334686D02*
X0006677Y0334686D01*
X0006677Y0335472D02*
X0082659Y0335472D01*
X0087508Y0335472D02*
X0102659Y0335472D01*
X0102119Y0335249D02*
X0100648Y0333777D01*
X0099851Y0331854D01*
X0099851Y0322095D01*
X0100648Y0320172D01*
X0102119Y0318700D01*
X0104043Y0317904D01*
X0106124Y0317904D01*
X0108047Y0318700D01*
X0109519Y0320172D01*
X0110316Y0322095D01*
X0110316Y0331854D01*
X0109519Y0333777D01*
X0108047Y0335249D01*
X0106124Y0336045D01*
X0104043Y0336045D01*
X0102119Y0335249D01*
X0101557Y0334686D02*
X0088610Y0334686D01*
X0089396Y0333900D02*
X0100771Y0333900D01*
X0100373Y0333114D02*
X0089793Y0333114D01*
X0090119Y0332328D02*
X0100048Y0332328D01*
X0099851Y0331542D02*
X0090316Y0331542D01*
X0090316Y0330757D02*
X0099851Y0330757D01*
X0099851Y0329971D02*
X0090316Y0329971D01*
X0090316Y0329185D02*
X0099851Y0329185D01*
X0099851Y0328399D02*
X0090316Y0328399D01*
X0090316Y0327613D02*
X0099851Y0327613D01*
X0099851Y0326827D02*
X0090316Y0326827D01*
X0090316Y0326041D02*
X0099851Y0326041D01*
X0099851Y0325255D02*
X0090316Y0325255D01*
X0090316Y0324469D02*
X0099851Y0324469D01*
X0099851Y0323683D02*
X0090316Y0323683D01*
X0090316Y0322897D02*
X0099851Y0322897D01*
X0099851Y0322111D02*
X0090316Y0322111D01*
X0089997Y0321326D02*
X0100170Y0321326D01*
X0100495Y0320540D02*
X0089671Y0320540D01*
X0089101Y0319754D02*
X0101066Y0319754D01*
X0101852Y0318968D02*
X0088315Y0318968D01*
X0086796Y0318182D02*
X0103370Y0318182D01*
X0106796Y0318182D02*
X0113490Y0318182D01*
X0113490Y0318968D02*
X0108315Y0318968D01*
X0109101Y0319754D02*
X0113490Y0319754D01*
X0113490Y0320540D02*
X0109671Y0320540D01*
X0109997Y0321326D02*
X0113490Y0321326D01*
X0113490Y0322111D02*
X0110316Y0322111D01*
X0110316Y0322897D02*
X0113490Y0322897D01*
X0113490Y0323683D02*
X0110316Y0323683D01*
X0110316Y0324469D02*
X0113490Y0324469D01*
X0113490Y0325255D02*
X0110316Y0325255D01*
X0110316Y0326041D02*
X0113490Y0326041D01*
X0113490Y0326827D02*
X0110316Y0326827D01*
X0110316Y0327613D02*
X0113490Y0327613D01*
X0113490Y0328399D02*
X0110316Y0328399D01*
X0110316Y0329185D02*
X0113490Y0329185D01*
X0113490Y0329971D02*
X0110316Y0329971D01*
X0110316Y0330757D02*
X0113490Y0330757D01*
X0113490Y0331542D02*
X0110316Y0331542D01*
X0110119Y0332328D02*
X0113498Y0332328D01*
X0114284Y0333114D02*
X0109793Y0333114D01*
X0109396Y0333900D02*
X0115070Y0333900D01*
X0115856Y0334686D02*
X0108610Y0334686D01*
X0107508Y0335472D02*
X0116642Y0335472D01*
X0117428Y0336258D02*
X0006702Y0336258D01*
X0006793Y0337044D02*
X0298649Y0337044D01*
X0298740Y0336258D02*
X0252739Y0336258D01*
X0253525Y0335472D02*
X0298765Y0335472D01*
X0298765Y0334686D02*
X0254310Y0334686D01*
X0255096Y0333900D02*
X0298765Y0333900D01*
X0298765Y0333114D02*
X0255882Y0333114D01*
X0256668Y0332328D02*
X0298765Y0332328D01*
X0298765Y0331542D02*
X0256677Y0331542D01*
X0256677Y0330757D02*
X0298765Y0330757D01*
X0298765Y0329971D02*
X0256677Y0329971D01*
X0256677Y0329185D02*
X0298765Y0329185D01*
X0298765Y0328399D02*
X0256677Y0328399D01*
X0256677Y0327613D02*
X0298765Y0327613D01*
X0298765Y0326827D02*
X0256677Y0326827D01*
X0256677Y0326041D02*
X0298765Y0326041D01*
X0298765Y0325255D02*
X0256677Y0325255D01*
X0237428Y0336258D02*
X0212739Y0336258D01*
X0213525Y0335472D02*
X0222659Y0335472D01*
X0222119Y0335249D02*
X0220648Y0333777D01*
X0219851Y0331854D01*
X0219851Y0322095D01*
X0220648Y0320172D01*
X0222119Y0318700D01*
X0224043Y0317904D01*
X0226124Y0317904D01*
X0228047Y0318700D01*
X0229519Y0320172D01*
X0230316Y0322095D01*
X0230316Y0331854D01*
X0229519Y0333777D01*
X0228047Y0335249D01*
X0226124Y0336045D01*
X0224043Y0336045D01*
X0222119Y0335249D01*
X0221557Y0334686D02*
X0214310Y0334686D01*
X0215096Y0333900D02*
X0220771Y0333900D01*
X0220373Y0333114D02*
X0215882Y0333114D01*
X0216668Y0332328D02*
X0220048Y0332328D01*
X0219851Y0331542D02*
X0216677Y0331542D01*
X0216677Y0330757D02*
X0219851Y0330757D01*
X0219851Y0329971D02*
X0216677Y0329971D01*
X0216677Y0329185D02*
X0219851Y0329185D01*
X0219851Y0328399D02*
X0216677Y0328399D01*
X0216677Y0327613D02*
X0219851Y0327613D01*
X0219851Y0326827D02*
X0216677Y0326827D01*
X0216677Y0326041D02*
X0219851Y0326041D01*
X0219851Y0325255D02*
X0216677Y0325255D01*
X0216677Y0324469D02*
X0219851Y0324469D01*
X0219851Y0323683D02*
X0216677Y0323683D01*
X0216677Y0322897D02*
X0219851Y0322897D01*
X0219851Y0322111D02*
X0216677Y0322111D01*
X0216677Y0321326D02*
X0220170Y0321326D01*
X0220495Y0320540D02*
X0216677Y0320540D01*
X0216677Y0319754D02*
X0221066Y0319754D01*
X0221852Y0318968D02*
X0216677Y0318968D01*
X0216677Y0318182D02*
X0223370Y0318182D01*
X0226796Y0318182D02*
X0233490Y0318182D01*
X0233490Y0318968D02*
X0228315Y0318968D01*
X0229101Y0319754D02*
X0233490Y0319754D01*
X0233490Y0320540D02*
X0229671Y0320540D01*
X0229997Y0321326D02*
X0233490Y0321326D01*
X0233490Y0322111D02*
X0230316Y0322111D01*
X0230316Y0322897D02*
X0233490Y0322897D01*
X0233490Y0323683D02*
X0230316Y0323683D01*
X0230316Y0324469D02*
X0233490Y0324469D01*
X0233490Y0325255D02*
X0230316Y0325255D01*
X0230316Y0326041D02*
X0233490Y0326041D01*
X0233490Y0326827D02*
X0230316Y0326827D01*
X0230316Y0327613D02*
X0233490Y0327613D01*
X0233490Y0328399D02*
X0230316Y0328399D01*
X0230316Y0329185D02*
X0233490Y0329185D01*
X0233490Y0329971D02*
X0230316Y0329971D01*
X0230316Y0330757D02*
X0233490Y0330757D01*
X0233490Y0331542D02*
X0230316Y0331542D01*
X0230119Y0332328D02*
X0233498Y0332328D01*
X0234284Y0333114D02*
X0229793Y0333114D01*
X0229396Y0333900D02*
X0235070Y0333900D01*
X0235856Y0334686D02*
X0228610Y0334686D01*
X0227508Y0335472D02*
X0236642Y0335472D01*
X0233490Y0317396D02*
X0216677Y0317396D01*
X0216677Y0316610D02*
X0233490Y0316610D01*
X0233490Y0315824D02*
X0216677Y0315824D01*
X0216677Y0315038D02*
X0233490Y0315038D01*
X0233490Y0314252D02*
X0216677Y0314252D01*
X0216677Y0313466D02*
X0233490Y0313466D01*
X0233490Y0312681D02*
X0216677Y0312681D01*
X0216677Y0311895D02*
X0233490Y0311895D01*
X0233490Y0311109D02*
X0216677Y0311109D01*
X0216677Y0310323D02*
X0233490Y0310323D01*
X0233490Y0309537D02*
X0216677Y0309537D01*
X0216677Y0308751D02*
X0233490Y0308751D01*
X0233490Y0307965D02*
X0216677Y0307965D01*
X0216677Y0307179D02*
X0233490Y0307179D01*
X0233490Y0306393D02*
X0216677Y0306393D01*
X0216677Y0305607D02*
X0233490Y0305607D01*
X0233490Y0304821D02*
X0216677Y0304821D01*
X0216677Y0304035D02*
X0233490Y0304035D01*
X0233490Y0303250D02*
X0216677Y0303250D01*
X0216677Y0302464D02*
X0233490Y0302464D01*
X0233490Y0301678D02*
X0216677Y0301678D01*
X0216677Y0300892D02*
X0233490Y0300892D01*
X0233490Y0300106D02*
X0216677Y0300106D01*
X0216677Y0299320D02*
X0233490Y0299320D01*
X0233490Y0298534D02*
X0216677Y0298534D01*
X0216677Y0297748D02*
X0233490Y0297748D01*
X0233490Y0296962D02*
X0216677Y0296962D01*
X0216677Y0296176D02*
X0233490Y0296176D01*
X0233490Y0295390D02*
X0216677Y0295390D01*
X0216677Y0294605D02*
X0233490Y0294605D01*
X0233490Y0293819D02*
X0216677Y0293819D01*
X0216677Y0293033D02*
X0233490Y0293033D01*
X0233490Y0292247D02*
X0216677Y0292247D01*
X0216677Y0291461D02*
X0233490Y0291461D01*
X0233490Y0290675D02*
X0216677Y0290675D01*
X0216677Y0289889D02*
X0233490Y0289889D01*
X0233490Y0289103D02*
X0216677Y0289103D01*
X0216677Y0288317D02*
X0233490Y0288317D01*
X0233490Y0287531D02*
X0216677Y0287531D01*
X0216677Y0286745D02*
X0233490Y0286745D01*
X0233490Y0285959D02*
X0216677Y0285959D01*
X0216677Y0285174D02*
X0233490Y0285174D01*
X0233490Y0284388D02*
X0216677Y0284388D01*
X0216677Y0283602D02*
X0233490Y0283602D01*
X0233490Y0282816D02*
X0226548Y0282816D01*
X0226355Y0282896D02*
X0223812Y0282896D01*
X0221462Y0281922D01*
X0219663Y0280124D01*
X0218690Y0277774D01*
X0218690Y0275230D01*
X0219663Y0272880D01*
X0221462Y0271082D01*
X0223812Y0270108D01*
X0226355Y0270108D01*
X0228705Y0271082D01*
X0230504Y0272880D01*
X0231477Y0275230D01*
X0231477Y0277774D01*
X0230504Y0280124D01*
X0228705Y0281922D01*
X0226355Y0282896D01*
X0228445Y0282030D02*
X0233490Y0282030D01*
X0233490Y0281244D02*
X0229383Y0281244D01*
X0230169Y0280458D02*
X0233490Y0280458D01*
X0233490Y0279672D02*
X0230691Y0279672D01*
X0231016Y0278886D02*
X0233490Y0278886D01*
X0233490Y0278100D02*
X0231342Y0278100D01*
X0231477Y0277314D02*
X0233490Y0277314D01*
X0233490Y0276529D02*
X0231477Y0276529D01*
X0231477Y0275743D02*
X0233490Y0275743D01*
X0233490Y0274957D02*
X0231364Y0274957D01*
X0231038Y0274171D02*
X0233490Y0274171D01*
X0233490Y0273385D02*
X0230713Y0273385D01*
X0230222Y0272599D02*
X0233490Y0272599D01*
X0233490Y0271813D02*
X0229436Y0271813D01*
X0228574Y0271027D02*
X0233490Y0271027D01*
X0233490Y0270241D02*
X0226676Y0270241D01*
X0223491Y0270241D02*
X0216677Y0270241D01*
X0216677Y0269455D02*
X0233490Y0269455D01*
X0233490Y0268669D02*
X0216677Y0268669D01*
X0216677Y0267884D02*
X0233490Y0267884D01*
X0233490Y0267098D02*
X0216677Y0267098D01*
X0216677Y0266312D02*
X0233490Y0266312D01*
X0233490Y0265526D02*
X0216677Y0265526D01*
X0216677Y0264740D02*
X0233490Y0264740D01*
X0233490Y0263954D02*
X0216677Y0263954D01*
X0216677Y0263168D02*
X0233490Y0263168D01*
X0233490Y0262382D02*
X0216677Y0262382D01*
X0216677Y0261596D02*
X0233490Y0261596D01*
X0233490Y0260810D02*
X0216677Y0260810D01*
X0216677Y0260024D02*
X0233490Y0260024D01*
X0233490Y0259238D02*
X0216677Y0259238D01*
X0216677Y0258453D02*
X0233490Y0258453D01*
X0233490Y0257667D02*
X0216677Y0257667D01*
X0216677Y0256881D02*
X0233490Y0256881D01*
X0233490Y0256095D02*
X0216677Y0256095D01*
X0216677Y0255309D02*
X0233490Y0255309D01*
X0233490Y0254523D02*
X0216677Y0254523D01*
X0216677Y0253737D02*
X0233490Y0253737D01*
X0233490Y0252951D02*
X0216677Y0252951D01*
X0216677Y0252165D02*
X0233490Y0252165D01*
X0233490Y0251379D02*
X0216677Y0251379D01*
X0216677Y0250593D02*
X0233490Y0250593D01*
X0233490Y0249808D02*
X0216677Y0249808D01*
X0216677Y0249022D02*
X0233490Y0249022D01*
X0233490Y0248236D02*
X0216677Y0248236D01*
X0216677Y0247450D02*
X0233490Y0247450D01*
X0233490Y0246664D02*
X0216677Y0246664D01*
X0216677Y0245878D02*
X0233490Y0245878D01*
X0233490Y0245092D02*
X0216677Y0245092D01*
X0216677Y0244306D02*
X0233490Y0244306D01*
X0233490Y0243520D02*
X0216677Y0243520D01*
X0216677Y0242734D02*
X0233490Y0242734D01*
X0233490Y0241948D02*
X0216677Y0241948D01*
X0216677Y0241162D02*
X0233490Y0241162D01*
X0233490Y0240377D02*
X0216677Y0240377D01*
X0216677Y0239591D02*
X0233490Y0239591D01*
X0233490Y0238805D02*
X0216677Y0238805D01*
X0216677Y0238019D02*
X0233490Y0238019D01*
X0233490Y0237233D02*
X0216677Y0237233D01*
X0216677Y0236447D02*
X0233490Y0236447D01*
X0233490Y0235661D02*
X0216677Y0235661D01*
X0216677Y0234875D02*
X0233490Y0234875D01*
X0233490Y0234089D02*
X0216677Y0234089D01*
X0216677Y0233303D02*
X0233490Y0233303D01*
X0233490Y0232517D02*
X0216677Y0232517D01*
X0216677Y0231732D02*
X0233490Y0231732D01*
X0233490Y0230946D02*
X0216677Y0230946D01*
X0216677Y0230160D02*
X0233490Y0230160D01*
X0233490Y0229374D02*
X0216677Y0229374D01*
X0216677Y0228588D02*
X0233490Y0228588D01*
X0227385Y0227802D02*
X0216677Y0227802D01*
X0216677Y0227016D02*
X0226948Y0227016D01*
X0226948Y0226230D02*
X0216677Y0226230D01*
X0216677Y0225444D02*
X0226948Y0225444D01*
X0226948Y0224658D02*
X0216677Y0224658D01*
X0216677Y0223872D02*
X0226948Y0223872D01*
X0227315Y0223086D02*
X0216677Y0223086D01*
X0216536Y0205010D02*
X0229881Y0205010D01*
X0230222Y0204225D02*
X0216194Y0204225D01*
X0208972Y0204225D02*
X0188694Y0204225D01*
X0189036Y0205010D02*
X0208631Y0205010D01*
X0204511Y0196365D02*
X0198155Y0196365D01*
X0198908Y0195580D02*
X0203759Y0195580D01*
X0203759Y0194794D02*
X0198908Y0194794D01*
X0198908Y0194008D02*
X0203759Y0194008D01*
X0203759Y0193222D02*
X0198908Y0193222D01*
X0198908Y0192436D02*
X0203759Y0192436D01*
X0203759Y0191650D02*
X0198908Y0191650D01*
X0198908Y0190864D02*
X0203759Y0190864D01*
X0203759Y0190078D02*
X0198908Y0190078D01*
X0198860Y0189292D02*
X0203647Y0189292D01*
X0202861Y0188506D02*
X0198327Y0188506D01*
X0198327Y0187720D02*
X0202075Y0187720D01*
X0201289Y0186934D02*
X0198327Y0186934D01*
X0198327Y0186149D02*
X0200503Y0186149D01*
X0199717Y0185363D02*
X0197856Y0185363D01*
X0197070Y0184577D02*
X0198931Y0184577D01*
X0198145Y0183791D02*
X0196284Y0183791D01*
X0195498Y0183005D02*
X0197359Y0183005D01*
X0203784Y0183791D02*
X0298765Y0183791D01*
X0298765Y0184577D02*
X0204570Y0184577D01*
X0205356Y0185363D02*
X0298765Y0185363D01*
X0298765Y0186149D02*
X0206142Y0186149D01*
X0206928Y0186934D02*
X0298765Y0186934D01*
X0298765Y0187720D02*
X0207714Y0187720D01*
X0208327Y0188506D02*
X0298765Y0188506D01*
X0298765Y0183005D02*
X0211555Y0183005D01*
X0212009Y0182219D02*
X0298765Y0182219D01*
X0298765Y0181433D02*
X0212009Y0181433D01*
X0212009Y0180647D02*
X0298765Y0180647D01*
X0298765Y0179861D02*
X0257160Y0179861D01*
X0257658Y0179075D02*
X0298765Y0179075D01*
X0298765Y0178289D02*
X0257658Y0178289D01*
X0257658Y0177504D02*
X0298765Y0177504D01*
X0298765Y0176718D02*
X0257677Y0176718D01*
X0257677Y0175932D02*
X0298765Y0175932D01*
X0298765Y0175146D02*
X0257677Y0175146D01*
X0257677Y0174360D02*
X0298765Y0174360D01*
X0298765Y0173574D02*
X0257677Y0173574D01*
X0262501Y0172788D02*
X0298765Y0172788D01*
X0298765Y0172002D02*
X0262993Y0172002D01*
X0262993Y0171216D02*
X0298765Y0171216D01*
X0298765Y0170430D02*
X0262993Y0170430D01*
X0262993Y0169644D02*
X0298765Y0169644D01*
X0298765Y0168858D02*
X0262993Y0168858D01*
X0262993Y0168073D02*
X0298765Y0168073D01*
X0298765Y0167287D02*
X0262993Y0167287D01*
X0262993Y0166501D02*
X0298765Y0166501D01*
X0298765Y0165715D02*
X0262684Y0165715D01*
X0256183Y0165715D02*
X0253984Y0165715D01*
X0254292Y0166501D02*
X0255875Y0166501D01*
X0252490Y0173574D02*
X0242658Y0173574D01*
X0242658Y0174360D02*
X0252490Y0174360D01*
X0252490Y0175146D02*
X0242658Y0175146D01*
X0242658Y0175932D02*
X0252490Y0175932D01*
X0252490Y0176718D02*
X0242658Y0176718D01*
X0242658Y0177504D02*
X0252509Y0177504D01*
X0252509Y0178289D02*
X0242658Y0178289D01*
X0242658Y0179075D02*
X0252509Y0179075D01*
X0253007Y0179861D02*
X0242160Y0179861D01*
X0238007Y0179861D02*
X0212009Y0179861D01*
X0212009Y0179075D02*
X0213422Y0179075D01*
X0213158Y0178289D02*
X0212523Y0178289D01*
X0210590Y0174360D02*
X0157702Y0174360D01*
X0156916Y0175146D02*
X0201277Y0175146D01*
X0204835Y0183005D02*
X0205737Y0183005D01*
X0210590Y0173574D02*
X0158488Y0173574D01*
X0159274Y0172788D02*
X0211135Y0172788D01*
X0211921Y0172002D02*
X0159577Y0172002D01*
X0159577Y0171216D02*
X0212707Y0171216D01*
X0213493Y0170430D02*
X0159577Y0170430D01*
X0159577Y0169644D02*
X0221200Y0169644D01*
X0221062Y0167287D02*
X0159577Y0167287D01*
X0159577Y0168073D02*
X0231761Y0168073D01*
X0231761Y0168858D02*
X0159577Y0168858D01*
X0159577Y0166501D02*
X0220944Y0166501D01*
X0220944Y0165715D02*
X0159577Y0165715D01*
X0159577Y0164929D02*
X0220944Y0164929D01*
X0220944Y0164143D02*
X0168016Y0164143D01*
X0168544Y0163357D02*
X0221238Y0163357D01*
X0221918Y0162571D02*
X0181467Y0162571D01*
X0181743Y0161785D02*
X0221918Y0161785D01*
X0221918Y0160999D02*
X0181743Y0160999D01*
X0181743Y0160213D02*
X0221918Y0160213D01*
X0221918Y0159428D02*
X0181743Y0159428D01*
X0181743Y0158642D02*
X0221918Y0158642D01*
X0222318Y0157856D02*
X0181743Y0157856D01*
X0181743Y0157070D02*
X0223103Y0157070D01*
X0223889Y0156284D02*
X0181743Y0156284D01*
X0181626Y0155498D02*
X0181218Y0155498D01*
X0187340Y0155498D02*
X0224675Y0155498D01*
X0225461Y0154712D02*
X0188042Y0154712D01*
X0188042Y0153926D02*
X0226721Y0153926D01*
X0226721Y0153140D02*
X0188042Y0153140D01*
X0188042Y0152354D02*
X0227250Y0152354D01*
X0229468Y0151568D02*
X0188042Y0151568D01*
X0188042Y0150782D02*
X0229468Y0150782D01*
X0229468Y0149997D02*
X0188042Y0149997D01*
X0188042Y0149211D02*
X0229468Y0149211D01*
X0229468Y0148425D02*
X0187944Y0148425D01*
X0187699Y0147639D02*
X0229468Y0147639D01*
X0229468Y0146853D02*
X0188042Y0146853D01*
X0188042Y0146067D02*
X0229468Y0146067D01*
X0229468Y0145281D02*
X0188042Y0145281D01*
X0188042Y0144495D02*
X0229468Y0144495D01*
X0229468Y0143709D02*
X0188042Y0143709D01*
X0188042Y0142923D02*
X0229468Y0142923D01*
X0229468Y0142137D02*
X0188042Y0142137D01*
X0188042Y0141352D02*
X0229468Y0141352D01*
X0229468Y0140566D02*
X0187584Y0140566D01*
X0187077Y0139780D02*
X0229468Y0139780D01*
X0229468Y0138994D02*
X0187397Y0138994D01*
X0187658Y0138208D02*
X0229468Y0138208D01*
X0229468Y0137422D02*
X0187658Y0137422D01*
X0187658Y0136636D02*
X0229468Y0136636D01*
X0229468Y0135850D02*
X0187658Y0135850D01*
X0187658Y0135064D02*
X0229468Y0135064D01*
X0229468Y0134278D02*
X0187508Y0134278D01*
X0182659Y0134278D02*
X0181536Y0134278D01*
X0181536Y0133492D02*
X0229468Y0133492D01*
X0229468Y0132706D02*
X0180926Y0132706D01*
X0181536Y0135064D02*
X0182509Y0135064D01*
X0182509Y0135850D02*
X0181536Y0135850D01*
X0181536Y0136636D02*
X0182509Y0136636D01*
X0182509Y0137422D02*
X0181536Y0137422D01*
X0181536Y0138208D02*
X0182509Y0138208D01*
X0182770Y0138994D02*
X0181344Y0138994D01*
X0180377Y0139780D02*
X0183090Y0139780D01*
X0181381Y0140566D02*
X0181285Y0140566D01*
X0175990Y0139780D02*
X0169773Y0139780D01*
X0170559Y0140566D02*
X0175082Y0140566D01*
X0173823Y0138994D02*
X0168165Y0138994D01*
X0168544Y0138208D02*
X0173631Y0138208D01*
X0173631Y0137422D02*
X0168544Y0137422D01*
X0168544Y0136636D02*
X0173631Y0136636D01*
X0173631Y0135850D02*
X0168544Y0135850D01*
X0168544Y0135064D02*
X0173631Y0135064D01*
X0173631Y0134278D02*
X0168118Y0134278D01*
X0173631Y0133492D02*
X0159577Y0133492D01*
X0159577Y0132706D02*
X0174240Y0132706D01*
X0172316Y0141352D02*
X0171345Y0141352D01*
X0159577Y0131921D02*
X0229468Y0131921D01*
X0229468Y0131135D02*
X0159577Y0131135D01*
X0159577Y0130349D02*
X0229468Y0130349D01*
X0229468Y0129563D02*
X0186986Y0129563D01*
X0187658Y0128777D02*
X0227248Y0128777D01*
X0226721Y0127991D02*
X0187658Y0127991D01*
X0187658Y0127205D02*
X0226721Y0127205D01*
X0226721Y0126419D02*
X0187658Y0126419D01*
X0187658Y0125633D02*
X0226721Y0125633D01*
X0226721Y0124847D02*
X0187658Y0124847D01*
X0187133Y0124061D02*
X0226721Y0124061D01*
X0226721Y0123276D02*
X0187537Y0123276D01*
X0188323Y0122490D02*
X0226721Y0122490D01*
X0226721Y0121704D02*
X0189109Y0121704D01*
X0186007Y0115416D02*
X0181136Y0115416D01*
X0181536Y0114630D02*
X0216793Y0114630D01*
X0217579Y0113845D02*
X0183501Y0113845D01*
X0184286Y0113059D02*
X0218365Y0113059D01*
X0219151Y0112273D02*
X0185072Y0112273D01*
X0185858Y0111487D02*
X0219936Y0111487D01*
X0220722Y0110701D02*
X0186027Y0110701D01*
X0186027Y0109915D02*
X0221508Y0109915D01*
X0222294Y0109129D02*
X0186027Y0109129D01*
X0186027Y0108343D02*
X0223080Y0108343D01*
X0223866Y0107557D02*
X0192731Y0107557D01*
X0192786Y0106771D02*
X0224652Y0106771D01*
X0225438Y0105985D02*
X0192786Y0105985D01*
X0192786Y0105200D02*
X0226224Y0105200D01*
X0227010Y0104414D02*
X0215747Y0104414D01*
X0216516Y0103628D02*
X0226721Y0103628D01*
X0226721Y0102842D02*
X0216516Y0102842D01*
X0216516Y0102056D02*
X0226721Y0102056D01*
X0226721Y0101270D02*
X0216516Y0101270D01*
X0216516Y0100484D02*
X0226721Y0100484D01*
X0226721Y0099698D02*
X0216516Y0099698D01*
X0216516Y0098912D02*
X0226721Y0098912D01*
X0226721Y0098126D02*
X0216516Y0098126D01*
X0216516Y0097340D02*
X0226721Y0097340D01*
X0226721Y0096554D02*
X0216516Y0096554D01*
X0216488Y0095769D02*
X0226749Y0095769D01*
X0227535Y0094983D02*
X0215702Y0094983D01*
X0207850Y0094983D02*
X0186575Y0094983D01*
X0186901Y0095769D02*
X0207064Y0095769D01*
X0207036Y0096554D02*
X0187008Y0096554D01*
X0186988Y0097340D02*
X0207036Y0097340D01*
X0207036Y0098126D02*
X0186662Y0098126D01*
X0186070Y0098912D02*
X0207036Y0098912D01*
X0207036Y0103628D02*
X0192786Y0103628D01*
X0192786Y0104414D02*
X0207805Y0104414D01*
X0220074Y0116988D02*
X0298765Y0116988D01*
X0298765Y0116202D02*
X0220860Y0116202D01*
X0221646Y0115416D02*
X0298765Y0115416D01*
X0298765Y0114630D02*
X0222432Y0114630D01*
X0223218Y0113845D02*
X0298765Y0113845D01*
X0298765Y0113059D02*
X0224004Y0113059D01*
X0224790Y0112273D02*
X0298765Y0112273D01*
X0298765Y0111487D02*
X0225575Y0111487D01*
X0226361Y0110701D02*
X0298765Y0110701D01*
X0298765Y0109915D02*
X0227147Y0109915D01*
X0227933Y0109129D02*
X0298765Y0109129D01*
X0298765Y0108343D02*
X0228719Y0108343D01*
X0229505Y0107557D02*
X0298765Y0107557D01*
X0298765Y0106771D02*
X0230291Y0106771D01*
X0231077Y0105985D02*
X0298765Y0105985D01*
X0298765Y0105200D02*
X0231863Y0105200D01*
X0235432Y0104414D02*
X0298765Y0104414D01*
X0298765Y0103628D02*
X0236201Y0103628D01*
X0236201Y0102842D02*
X0298765Y0102842D01*
X0298765Y0102056D02*
X0236201Y0102056D01*
X0236201Y0101270D02*
X0298765Y0101270D01*
X0298765Y0100484D02*
X0236201Y0100484D01*
X0236201Y0099698D02*
X0298765Y0099698D01*
X0298765Y0098912D02*
X0236201Y0098912D01*
X0236201Y0098126D02*
X0298765Y0098126D01*
X0298765Y0097340D02*
X0236201Y0097340D01*
X0236201Y0096554D02*
X0298765Y0096554D01*
X0298764Y0095769D02*
X0236173Y0095769D01*
X0235387Y0094983D02*
X0298702Y0094983D01*
X0298492Y0094197D02*
X0185860Y0094197D01*
X0183687Y0093411D02*
X0298236Y0093411D01*
X0297857Y0092625D02*
X0182901Y0092625D01*
X0181358Y0091839D02*
X0297286Y0091839D01*
X0296527Y0091053D02*
X0179777Y0091053D01*
X0179293Y0090267D02*
X0295446Y0090267D01*
X0298765Y0117774D02*
X0231518Y0117774D01*
X0232303Y0118560D02*
X0298765Y0118560D01*
X0298765Y0119346D02*
X0233089Y0119346D01*
X0235930Y0120132D02*
X0298765Y0120132D01*
X0298765Y0120918D02*
X0236201Y0120918D01*
X0236201Y0121704D02*
X0298765Y0121704D01*
X0298765Y0122490D02*
X0236201Y0122490D01*
X0236201Y0123276D02*
X0298765Y0123276D01*
X0298765Y0124061D02*
X0236201Y0124061D01*
X0236201Y0124847D02*
X0298765Y0124847D01*
X0298765Y0125633D02*
X0236201Y0125633D01*
X0236201Y0126419D02*
X0298765Y0126419D01*
X0298765Y0127205D02*
X0236201Y0127205D01*
X0236201Y0127991D02*
X0298765Y0127991D01*
X0298765Y0128777D02*
X0235675Y0128777D01*
X0233455Y0129563D02*
X0298765Y0129563D01*
X0298765Y0130349D02*
X0233455Y0130349D01*
X0233455Y0131135D02*
X0298765Y0131135D01*
X0298765Y0131921D02*
X0233455Y0131921D01*
X0233455Y0132706D02*
X0298765Y0132706D01*
X0298765Y0133492D02*
X0233455Y0133492D01*
X0233455Y0134278D02*
X0298765Y0134278D01*
X0298765Y0135064D02*
X0233455Y0135064D01*
X0233455Y0135850D02*
X0298765Y0135850D01*
X0298765Y0136636D02*
X0233455Y0136636D01*
X0233455Y0137422D02*
X0298765Y0137422D01*
X0298765Y0138208D02*
X0233455Y0138208D01*
X0233455Y0138994D02*
X0298765Y0138994D01*
X0298765Y0139780D02*
X0233455Y0139780D01*
X0233455Y0140566D02*
X0298765Y0140566D01*
X0298765Y0141352D02*
X0233455Y0141352D01*
X0233455Y0142137D02*
X0298765Y0142137D01*
X0298765Y0142923D02*
X0233455Y0142923D01*
X0233455Y0143709D02*
X0298765Y0143709D01*
X0298765Y0144495D02*
X0233455Y0144495D01*
X0233455Y0145281D02*
X0298765Y0145281D01*
X0298765Y0146067D02*
X0233455Y0146067D01*
X0233455Y0146853D02*
X0298765Y0146853D01*
X0298765Y0147639D02*
X0233455Y0147639D01*
X0233455Y0148425D02*
X0298765Y0148425D01*
X0298765Y0149211D02*
X0233455Y0149211D01*
X0233455Y0149997D02*
X0298765Y0149997D01*
X0298765Y0150782D02*
X0233455Y0150782D01*
X0233455Y0151568D02*
X0298765Y0151568D01*
X0298765Y0152354D02*
X0235672Y0152354D01*
X0236201Y0153140D02*
X0298765Y0153140D01*
X0298765Y0153926D02*
X0236201Y0153926D01*
X0236201Y0154712D02*
X0298765Y0154712D01*
X0298765Y0155498D02*
X0236201Y0155498D01*
X0236201Y0156284D02*
X0298765Y0156284D01*
X0298765Y0157070D02*
X0236201Y0157070D01*
X0236201Y0157856D02*
X0298765Y0157856D01*
X0298765Y0158642D02*
X0236201Y0158642D01*
X0236201Y0159428D02*
X0298765Y0159428D01*
X0298765Y0160213D02*
X0236201Y0160213D01*
X0235933Y0160999D02*
X0298765Y0160999D01*
X0298765Y0161785D02*
X0225906Y0161785D01*
X0225906Y0160999D02*
X0226990Y0160999D01*
X0226721Y0160213D02*
X0225906Y0160213D01*
X0226385Y0159428D02*
X0226721Y0159428D01*
X0225906Y0162571D02*
X0298765Y0162571D01*
X0298765Y0163357D02*
X0236429Y0163357D01*
X0236723Y0164143D02*
X0298765Y0164143D01*
X0298765Y0164929D02*
X0236723Y0164929D01*
X0236723Y0165715D02*
X0241183Y0165715D01*
X0240875Y0166501D02*
X0236723Y0166501D01*
X0236604Y0167287D02*
X0240387Y0167287D01*
X0239601Y0168073D02*
X0235748Y0168073D01*
X0235748Y0168858D02*
X0238815Y0168858D01*
X0238090Y0169644D02*
X0236466Y0169644D01*
X0235827Y0174360D02*
X0237509Y0174360D01*
X0237509Y0175146D02*
X0235666Y0175146D01*
X0234881Y0175932D02*
X0237509Y0175932D01*
X0237509Y0176718D02*
X0234095Y0176718D01*
X0234659Y0176153D02*
X0234659Y0176153D01*
X0233309Y0177504D02*
X0237509Y0177504D01*
X0237509Y0178289D02*
X0232523Y0178289D01*
X0230813Y0174360D02*
X0219735Y0174360D01*
X0219619Y0179075D02*
X0237509Y0179075D01*
X0230942Y0173574D02*
X0226724Y0173574D01*
X0226881Y0172788D02*
X0230786Y0172788D01*
X0230786Y0172002D02*
X0226881Y0172002D01*
X0226881Y0171216D02*
X0230786Y0171216D01*
X0230786Y0170430D02*
X0226881Y0170430D01*
X0226624Y0169644D02*
X0231043Y0169644D01*
X0230905Y0167287D02*
X0226762Y0167287D01*
X0226881Y0166501D02*
X0230786Y0166501D01*
X0230786Y0165715D02*
X0226881Y0165715D01*
X0226881Y0164929D02*
X0230786Y0164929D01*
X0230786Y0164143D02*
X0226881Y0164143D01*
X0226587Y0163357D02*
X0231080Y0163357D01*
X0247501Y0172788D02*
X0247666Y0172788D01*
X0253243Y0193222D02*
X0241924Y0193222D01*
X0242658Y0194008D02*
X0252509Y0194008D01*
X0252509Y0194794D02*
X0242658Y0194794D01*
X0242658Y0195580D02*
X0252509Y0195580D01*
X0252509Y0196365D02*
X0242658Y0196365D01*
X0242658Y0197151D02*
X0252490Y0197151D01*
X0252490Y0197937D02*
X0242658Y0197937D01*
X0242658Y0198723D02*
X0252490Y0198723D01*
X0252490Y0199509D02*
X0242658Y0199509D01*
X0242592Y0200295D02*
X0252490Y0200295D01*
X0251836Y0201081D02*
X0237786Y0201081D01*
X0237786Y0201867D02*
X0251050Y0201867D01*
X0250265Y0202653D02*
X0237786Y0202653D01*
X0237786Y0203439D02*
X0249479Y0203439D01*
X0248693Y0204225D02*
X0237444Y0204225D01*
X0237786Y0205010D02*
X0247907Y0205010D01*
X0256029Y0204225D02*
X0258965Y0204225D01*
X0258965Y0203439D02*
X0256815Y0203439D01*
X0257414Y0202653D02*
X0258965Y0202653D01*
X0258965Y0201867D02*
X0257677Y0201867D01*
X0256381Y0205010D02*
X0259672Y0205010D01*
X0258965Y0196365D02*
X0257658Y0196365D01*
X0257658Y0195580D02*
X0258965Y0195580D01*
X0258965Y0194794D02*
X0257658Y0194794D01*
X0257658Y0194008D02*
X0258965Y0194008D01*
X0259444Y0193222D02*
X0256924Y0193222D01*
X0194511Y0196365D02*
X0193155Y0196365D01*
X0189511Y0196365D02*
X0138155Y0196365D01*
X0138908Y0195580D02*
X0188759Y0195580D01*
X0188759Y0194794D02*
X0138908Y0194794D01*
X0138908Y0194008D02*
X0188759Y0194008D01*
X0188759Y0193222D02*
X0138908Y0193222D01*
X0138908Y0192436D02*
X0188759Y0192436D01*
X0188759Y0191650D02*
X0138908Y0191650D01*
X0138908Y0190864D02*
X0188759Y0190864D01*
X0188759Y0190078D02*
X0138908Y0190078D01*
X0138860Y0189292D02*
X0139172Y0189292D01*
X0140995Y0189292D02*
X0188806Y0189292D01*
X0189247Y0188506D02*
X0142170Y0188506D01*
X0142654Y0187720D02*
X0188763Y0187720D01*
X0181472Y0204225D02*
X0146194Y0204225D01*
X0146536Y0205010D02*
X0150036Y0205010D01*
X0152631Y0205010D02*
X0181131Y0205010D01*
X0181591Y0210512D02*
X0153221Y0210512D01*
X0149446Y0210512D02*
X0146076Y0210512D01*
X0139091Y0210512D02*
X0138908Y0210512D01*
X0138908Y0211298D02*
X0188759Y0211298D01*
X0188759Y0212084D02*
X0138908Y0212084D01*
X0138908Y0212870D02*
X0188759Y0212870D01*
X0188759Y0213656D02*
X0138908Y0213656D01*
X0138908Y0214441D02*
X0188759Y0214441D01*
X0188759Y0215227D02*
X0138908Y0215227D01*
X0138908Y0216013D02*
X0188759Y0216013D01*
X0189079Y0216799D02*
X0138588Y0216799D01*
X0138527Y0217585D02*
X0194140Y0217585D01*
X0194079Y0216799D02*
X0193588Y0216799D01*
X0191519Y0218371D02*
X0149897Y0218371D01*
X0150683Y0219157D02*
X0190734Y0219157D01*
X0189948Y0219943D02*
X0151469Y0219943D01*
X0152255Y0220729D02*
X0189162Y0220729D01*
X0188411Y0221515D02*
X0175942Y0221515D01*
X0176677Y0222301D02*
X0188411Y0222301D01*
X0187315Y0223086D02*
X0176677Y0223086D01*
X0176677Y0223872D02*
X0186948Y0223872D01*
X0186948Y0224658D02*
X0176677Y0224658D01*
X0176677Y0225444D02*
X0186948Y0225444D01*
X0186948Y0226230D02*
X0176677Y0226230D01*
X0176677Y0227016D02*
X0186948Y0227016D01*
X0187385Y0227802D02*
X0176677Y0227802D01*
X0176677Y0228588D02*
X0193490Y0228588D01*
X0193490Y0229374D02*
X0176677Y0229374D01*
X0176677Y0230160D02*
X0193490Y0230160D01*
X0193490Y0230946D02*
X0176677Y0230946D01*
X0176677Y0231732D02*
X0193490Y0231732D01*
X0193490Y0232517D02*
X0176677Y0232517D01*
X0176677Y0233303D02*
X0193490Y0233303D01*
X0193490Y0234089D02*
X0176677Y0234089D01*
X0176677Y0234875D02*
X0193490Y0234875D01*
X0193490Y0235661D02*
X0176677Y0235661D01*
X0176677Y0236447D02*
X0193490Y0236447D01*
X0193490Y0237233D02*
X0176677Y0237233D01*
X0176677Y0238019D02*
X0193490Y0238019D01*
X0193490Y0238805D02*
X0176677Y0238805D01*
X0176677Y0239591D02*
X0193490Y0239591D01*
X0193490Y0240377D02*
X0176677Y0240377D01*
X0176677Y0241162D02*
X0193490Y0241162D01*
X0193490Y0241948D02*
X0176677Y0241948D01*
X0176677Y0242734D02*
X0193490Y0242734D01*
X0193490Y0243520D02*
X0176677Y0243520D01*
X0176677Y0244306D02*
X0193490Y0244306D01*
X0193490Y0245092D02*
X0176677Y0245092D01*
X0176677Y0245878D02*
X0193490Y0245878D01*
X0193490Y0246664D02*
X0176677Y0246664D01*
X0176677Y0247450D02*
X0193490Y0247450D01*
X0193490Y0248236D02*
X0176677Y0248236D01*
X0176677Y0249022D02*
X0193490Y0249022D01*
X0193490Y0249808D02*
X0176677Y0249808D01*
X0176677Y0250593D02*
X0193490Y0250593D01*
X0193490Y0251379D02*
X0176677Y0251379D01*
X0176677Y0252165D02*
X0193490Y0252165D01*
X0193490Y0252951D02*
X0176677Y0252951D01*
X0176677Y0253737D02*
X0193490Y0253737D01*
X0193490Y0254523D02*
X0176677Y0254523D01*
X0176677Y0255309D02*
X0193490Y0255309D01*
X0193490Y0256095D02*
X0176677Y0256095D01*
X0176677Y0256881D02*
X0193490Y0256881D01*
X0193490Y0257667D02*
X0176677Y0257667D01*
X0176677Y0258453D02*
X0193490Y0258453D01*
X0193490Y0259238D02*
X0176677Y0259238D01*
X0176677Y0260024D02*
X0193490Y0260024D01*
X0193490Y0260810D02*
X0176677Y0260810D01*
X0176677Y0261596D02*
X0193490Y0261596D01*
X0193490Y0262382D02*
X0176677Y0262382D01*
X0176677Y0263168D02*
X0193490Y0263168D01*
X0193490Y0263954D02*
X0176677Y0263954D01*
X0176677Y0264740D02*
X0193490Y0264740D01*
X0193490Y0265526D02*
X0176677Y0265526D01*
X0176677Y0266312D02*
X0193490Y0266312D01*
X0193490Y0267098D02*
X0176677Y0267098D01*
X0176677Y0267884D02*
X0193490Y0267884D01*
X0193490Y0268669D02*
X0176677Y0268669D01*
X0176677Y0269455D02*
X0193490Y0269455D01*
X0193490Y0270241D02*
X0186676Y0270241D01*
X0186355Y0270108D02*
X0188705Y0271082D01*
X0190504Y0272880D01*
X0191477Y0275230D01*
X0191477Y0277774D01*
X0190504Y0280124D01*
X0188705Y0281922D01*
X0186355Y0282896D01*
X0183812Y0282896D01*
X0181462Y0281922D01*
X0179663Y0280124D01*
X0178690Y0277774D01*
X0178690Y0275230D01*
X0179663Y0272880D01*
X0181462Y0271082D01*
X0183812Y0270108D01*
X0186355Y0270108D01*
X0188574Y0271027D02*
X0193490Y0271027D01*
X0193490Y0271813D02*
X0189436Y0271813D01*
X0190222Y0272599D02*
X0193490Y0272599D01*
X0193490Y0273385D02*
X0190713Y0273385D01*
X0191038Y0274171D02*
X0193490Y0274171D01*
X0193490Y0274957D02*
X0191364Y0274957D01*
X0191477Y0275743D02*
X0193490Y0275743D01*
X0193490Y0276529D02*
X0191477Y0276529D01*
X0191477Y0277314D02*
X0193490Y0277314D01*
X0193490Y0278100D02*
X0191342Y0278100D01*
X0191016Y0278886D02*
X0193490Y0278886D01*
X0193490Y0279672D02*
X0190691Y0279672D01*
X0190169Y0280458D02*
X0193490Y0280458D01*
X0193490Y0281244D02*
X0189383Y0281244D01*
X0188445Y0282030D02*
X0193490Y0282030D01*
X0193490Y0282816D02*
X0186548Y0282816D01*
X0183619Y0282816D02*
X0176677Y0282816D01*
X0176677Y0283602D02*
X0193490Y0283602D01*
X0193490Y0284388D02*
X0176677Y0284388D01*
X0176677Y0285174D02*
X0193490Y0285174D01*
X0193490Y0285959D02*
X0176677Y0285959D01*
X0176677Y0286745D02*
X0193490Y0286745D01*
X0193490Y0287531D02*
X0176677Y0287531D01*
X0176677Y0288317D02*
X0193490Y0288317D01*
X0193490Y0289103D02*
X0176677Y0289103D01*
X0176677Y0289889D02*
X0193490Y0289889D01*
X0193490Y0290675D02*
X0176677Y0290675D01*
X0176677Y0291461D02*
X0193490Y0291461D01*
X0193490Y0292247D02*
X0176677Y0292247D01*
X0176677Y0293033D02*
X0193490Y0293033D01*
X0193490Y0293819D02*
X0176677Y0293819D01*
X0176677Y0294605D02*
X0193490Y0294605D01*
X0193490Y0295390D02*
X0176677Y0295390D01*
X0176677Y0296176D02*
X0193490Y0296176D01*
X0193490Y0296962D02*
X0176677Y0296962D01*
X0176677Y0297748D02*
X0193490Y0297748D01*
X0193490Y0298534D02*
X0176677Y0298534D01*
X0176677Y0299320D02*
X0193490Y0299320D01*
X0193490Y0300106D02*
X0176677Y0300106D01*
X0176677Y0300892D02*
X0193490Y0300892D01*
X0193490Y0301678D02*
X0176677Y0301678D01*
X0176677Y0302464D02*
X0193490Y0302464D01*
X0193490Y0303250D02*
X0176677Y0303250D01*
X0176677Y0304035D02*
X0193490Y0304035D01*
X0193490Y0304821D02*
X0176677Y0304821D01*
X0176677Y0305607D02*
X0193490Y0305607D01*
X0193490Y0306393D02*
X0176677Y0306393D01*
X0176677Y0307179D02*
X0193490Y0307179D01*
X0193490Y0307965D02*
X0176677Y0307965D01*
X0176677Y0308751D02*
X0193490Y0308751D01*
X0193490Y0309537D02*
X0176677Y0309537D01*
X0176677Y0310323D02*
X0193490Y0310323D01*
X0193490Y0311109D02*
X0176677Y0311109D01*
X0176677Y0311895D02*
X0193490Y0311895D01*
X0193490Y0312681D02*
X0176677Y0312681D01*
X0176677Y0313466D02*
X0193490Y0313466D01*
X0193490Y0314252D02*
X0176677Y0314252D01*
X0176677Y0315038D02*
X0193490Y0315038D01*
X0193490Y0315824D02*
X0176677Y0315824D01*
X0176677Y0316610D02*
X0193490Y0316610D01*
X0193490Y0317396D02*
X0176677Y0317396D01*
X0176677Y0318182D02*
X0183370Y0318182D01*
X0184043Y0317904D02*
X0186124Y0317904D01*
X0188047Y0318700D01*
X0189519Y0320172D01*
X0190316Y0322095D01*
X0190316Y0331854D01*
X0189519Y0333777D01*
X0188047Y0335249D01*
X0186124Y0336045D01*
X0184043Y0336045D01*
X0182119Y0335249D01*
X0180648Y0333777D01*
X0179851Y0331854D01*
X0179851Y0322095D01*
X0180648Y0320172D01*
X0182119Y0318700D01*
X0184043Y0317904D01*
X0181852Y0318968D02*
X0176677Y0318968D01*
X0176677Y0319754D02*
X0181066Y0319754D01*
X0180495Y0320540D02*
X0176677Y0320540D01*
X0176677Y0321326D02*
X0180170Y0321326D01*
X0179851Y0322111D02*
X0176677Y0322111D01*
X0176677Y0322897D02*
X0179851Y0322897D01*
X0179851Y0323683D02*
X0176677Y0323683D01*
X0176677Y0324469D02*
X0179851Y0324469D01*
X0179851Y0325255D02*
X0176677Y0325255D01*
X0176677Y0326041D02*
X0179851Y0326041D01*
X0179851Y0326827D02*
X0176677Y0326827D01*
X0176677Y0327613D02*
X0179851Y0327613D01*
X0179851Y0328399D02*
X0176677Y0328399D01*
X0176677Y0329185D02*
X0179851Y0329185D01*
X0179851Y0329971D02*
X0176677Y0329971D01*
X0176677Y0330757D02*
X0179851Y0330757D01*
X0179851Y0331542D02*
X0176677Y0331542D01*
X0176668Y0332328D02*
X0180048Y0332328D01*
X0180373Y0333114D02*
X0175882Y0333114D01*
X0175096Y0333900D02*
X0180771Y0333900D01*
X0181557Y0334686D02*
X0174310Y0334686D01*
X0173525Y0335472D02*
X0182659Y0335472D01*
X0187508Y0335472D02*
X0196642Y0335472D01*
X0195856Y0334686D02*
X0188610Y0334686D01*
X0189396Y0333900D02*
X0195070Y0333900D01*
X0194284Y0333114D02*
X0189793Y0333114D01*
X0190119Y0332328D02*
X0193498Y0332328D01*
X0193490Y0331542D02*
X0190316Y0331542D01*
X0190316Y0330757D02*
X0193490Y0330757D01*
X0193490Y0329971D02*
X0190316Y0329971D01*
X0190316Y0329185D02*
X0193490Y0329185D01*
X0193490Y0328399D02*
X0190316Y0328399D01*
X0190316Y0327613D02*
X0193490Y0327613D01*
X0193490Y0326827D02*
X0190316Y0326827D01*
X0190316Y0326041D02*
X0193490Y0326041D01*
X0193490Y0325255D02*
X0190316Y0325255D01*
X0190316Y0324469D02*
X0193490Y0324469D01*
X0193490Y0323683D02*
X0190316Y0323683D01*
X0190316Y0322897D02*
X0193490Y0322897D01*
X0193490Y0322111D02*
X0190316Y0322111D01*
X0189997Y0321326D02*
X0193490Y0321326D01*
X0193490Y0320540D02*
X0189671Y0320540D01*
X0189101Y0319754D02*
X0193490Y0319754D01*
X0193490Y0318968D02*
X0188315Y0318968D01*
X0186796Y0318182D02*
X0193490Y0318182D01*
X0197428Y0336258D02*
X0172739Y0336258D01*
X0157428Y0336258D02*
X0132739Y0336258D01*
X0133525Y0335472D02*
X0142659Y0335472D01*
X0142119Y0335249D02*
X0140648Y0333777D01*
X0139851Y0331854D01*
X0139851Y0322095D01*
X0140648Y0320172D01*
X0142119Y0318700D01*
X0144043Y0317904D01*
X0146124Y0317904D01*
X0148047Y0318700D01*
X0149519Y0320172D01*
X0150316Y0322095D01*
X0150316Y0331854D01*
X0149519Y0333777D01*
X0148047Y0335249D01*
X0146124Y0336045D01*
X0144043Y0336045D01*
X0142119Y0335249D01*
X0141557Y0334686D02*
X0134310Y0334686D01*
X0135096Y0333900D02*
X0140771Y0333900D01*
X0140373Y0333114D02*
X0135882Y0333114D01*
X0136668Y0332328D02*
X0140048Y0332328D01*
X0139851Y0331542D02*
X0136677Y0331542D01*
X0136677Y0330757D02*
X0139851Y0330757D01*
X0139851Y0329971D02*
X0136677Y0329971D01*
X0136677Y0329185D02*
X0139851Y0329185D01*
X0139851Y0328399D02*
X0136677Y0328399D01*
X0136677Y0327613D02*
X0139851Y0327613D01*
X0139851Y0326827D02*
X0136677Y0326827D01*
X0136677Y0326041D02*
X0139851Y0326041D01*
X0139851Y0325255D02*
X0136677Y0325255D01*
X0136677Y0324469D02*
X0139851Y0324469D01*
X0139851Y0323683D02*
X0136677Y0323683D01*
X0136677Y0322897D02*
X0139851Y0322897D01*
X0139851Y0322111D02*
X0136677Y0322111D01*
X0136677Y0321326D02*
X0140170Y0321326D01*
X0140495Y0320540D02*
X0136677Y0320540D01*
X0136677Y0319754D02*
X0141066Y0319754D01*
X0141852Y0318968D02*
X0136677Y0318968D01*
X0136677Y0318182D02*
X0143370Y0318182D01*
X0146796Y0318182D02*
X0153490Y0318182D01*
X0153490Y0318968D02*
X0148315Y0318968D01*
X0149101Y0319754D02*
X0153490Y0319754D01*
X0153490Y0320540D02*
X0149671Y0320540D01*
X0149997Y0321326D02*
X0153490Y0321326D01*
X0153490Y0322111D02*
X0150316Y0322111D01*
X0150316Y0322897D02*
X0153490Y0322897D01*
X0153490Y0323683D02*
X0150316Y0323683D01*
X0150316Y0324469D02*
X0153490Y0324469D01*
X0153490Y0325255D02*
X0150316Y0325255D01*
X0150316Y0326041D02*
X0153490Y0326041D01*
X0153490Y0326827D02*
X0150316Y0326827D01*
X0150316Y0327613D02*
X0153490Y0327613D01*
X0153490Y0328399D02*
X0150316Y0328399D01*
X0150316Y0329185D02*
X0153490Y0329185D01*
X0153490Y0329971D02*
X0150316Y0329971D01*
X0150316Y0330757D02*
X0153490Y0330757D01*
X0153490Y0331542D02*
X0150316Y0331542D01*
X0150119Y0332328D02*
X0153498Y0332328D01*
X0154284Y0333114D02*
X0149793Y0333114D01*
X0149396Y0333900D02*
X0155070Y0333900D01*
X0155856Y0334686D02*
X0148610Y0334686D01*
X0147508Y0335472D02*
X0156642Y0335472D01*
X0153490Y0317396D02*
X0136677Y0317396D01*
X0136677Y0316610D02*
X0153490Y0316610D01*
X0153490Y0315824D02*
X0136677Y0315824D01*
X0136677Y0315038D02*
X0153490Y0315038D01*
X0153490Y0314252D02*
X0136677Y0314252D01*
X0136677Y0313466D02*
X0153490Y0313466D01*
X0153490Y0312681D02*
X0136677Y0312681D01*
X0136677Y0311895D02*
X0153490Y0311895D01*
X0153490Y0311109D02*
X0136677Y0311109D01*
X0136677Y0310323D02*
X0153490Y0310323D01*
X0153490Y0309537D02*
X0136677Y0309537D01*
X0136677Y0308751D02*
X0153490Y0308751D01*
X0153490Y0307965D02*
X0136677Y0307965D01*
X0136677Y0307179D02*
X0153490Y0307179D01*
X0153490Y0306393D02*
X0136677Y0306393D01*
X0136677Y0305607D02*
X0153490Y0305607D01*
X0153490Y0304821D02*
X0136677Y0304821D01*
X0136677Y0304035D02*
X0153490Y0304035D01*
X0153490Y0303250D02*
X0136677Y0303250D01*
X0136677Y0302464D02*
X0153490Y0302464D01*
X0153490Y0301678D02*
X0136677Y0301678D01*
X0136677Y0300892D02*
X0153490Y0300892D01*
X0153490Y0300106D02*
X0136677Y0300106D01*
X0136677Y0299320D02*
X0153490Y0299320D01*
X0153490Y0298534D02*
X0136677Y0298534D01*
X0136677Y0297748D02*
X0153490Y0297748D01*
X0153490Y0296962D02*
X0136677Y0296962D01*
X0136677Y0296176D02*
X0153490Y0296176D01*
X0153490Y0295390D02*
X0136677Y0295390D01*
X0136677Y0294605D02*
X0153490Y0294605D01*
X0153490Y0293819D02*
X0136677Y0293819D01*
X0136677Y0293033D02*
X0153490Y0293033D01*
X0153490Y0292247D02*
X0136677Y0292247D01*
X0136677Y0291461D02*
X0153490Y0291461D01*
X0153490Y0290675D02*
X0136677Y0290675D01*
X0136677Y0289889D02*
X0153490Y0289889D01*
X0153490Y0289103D02*
X0136677Y0289103D01*
X0136677Y0288317D02*
X0153490Y0288317D01*
X0153490Y0287531D02*
X0136677Y0287531D01*
X0136677Y0286745D02*
X0153490Y0286745D01*
X0153490Y0285959D02*
X0136677Y0285959D01*
X0136677Y0285174D02*
X0153490Y0285174D01*
X0153490Y0284388D02*
X0136677Y0284388D01*
X0136677Y0283602D02*
X0153490Y0283602D01*
X0153490Y0282816D02*
X0146548Y0282816D01*
X0146355Y0282896D02*
X0143812Y0282896D01*
X0141462Y0281922D01*
X0139663Y0280124D01*
X0138690Y0277774D01*
X0138690Y0275230D01*
X0139663Y0272880D01*
X0141462Y0271082D01*
X0143812Y0270108D01*
X0146355Y0270108D01*
X0148705Y0271082D01*
X0150504Y0272880D01*
X0151477Y0275230D01*
X0151477Y0277774D01*
X0150504Y0280124D01*
X0148705Y0281922D01*
X0146355Y0282896D01*
X0148445Y0282030D02*
X0153490Y0282030D01*
X0153490Y0281244D02*
X0149383Y0281244D01*
X0150169Y0280458D02*
X0153490Y0280458D01*
X0153490Y0279672D02*
X0150691Y0279672D01*
X0151016Y0278886D02*
X0153490Y0278886D01*
X0153490Y0278100D02*
X0151342Y0278100D01*
X0151477Y0277314D02*
X0153490Y0277314D01*
X0153490Y0276529D02*
X0151477Y0276529D01*
X0151477Y0275743D02*
X0153490Y0275743D01*
X0153490Y0274957D02*
X0151364Y0274957D01*
X0151038Y0274171D02*
X0153490Y0274171D01*
X0153490Y0273385D02*
X0150713Y0273385D01*
X0150222Y0272599D02*
X0153490Y0272599D01*
X0153490Y0271813D02*
X0149436Y0271813D01*
X0148574Y0271027D02*
X0153490Y0271027D01*
X0153490Y0270241D02*
X0146676Y0270241D01*
X0143491Y0270241D02*
X0136677Y0270241D01*
X0136677Y0269455D02*
X0153490Y0269455D01*
X0153490Y0268669D02*
X0136677Y0268669D01*
X0136677Y0267884D02*
X0153490Y0267884D01*
X0153490Y0267098D02*
X0136677Y0267098D01*
X0136677Y0266312D02*
X0153490Y0266312D01*
X0153490Y0265526D02*
X0136677Y0265526D01*
X0136677Y0264740D02*
X0153490Y0264740D01*
X0153490Y0263954D02*
X0136677Y0263954D01*
X0136677Y0263168D02*
X0153490Y0263168D01*
X0153490Y0262382D02*
X0136677Y0262382D01*
X0136677Y0261596D02*
X0153490Y0261596D01*
X0153490Y0260810D02*
X0136677Y0260810D01*
X0136677Y0260024D02*
X0153490Y0260024D01*
X0153490Y0259238D02*
X0136677Y0259238D01*
X0136677Y0258453D02*
X0153490Y0258453D01*
X0153490Y0257667D02*
X0136677Y0257667D01*
X0136677Y0256881D02*
X0153490Y0256881D01*
X0153490Y0256095D02*
X0136677Y0256095D01*
X0136677Y0255309D02*
X0153490Y0255309D01*
X0153490Y0254523D02*
X0136677Y0254523D01*
X0136677Y0253737D02*
X0153490Y0253737D01*
X0153490Y0252951D02*
X0136677Y0252951D01*
X0136677Y0252165D02*
X0153490Y0252165D01*
X0153490Y0251379D02*
X0136677Y0251379D01*
X0136677Y0250593D02*
X0153490Y0250593D01*
X0153490Y0249808D02*
X0136677Y0249808D01*
X0136677Y0249022D02*
X0153490Y0249022D01*
X0153490Y0248236D02*
X0136677Y0248236D01*
X0136677Y0247450D02*
X0153490Y0247450D01*
X0153490Y0246664D02*
X0136677Y0246664D01*
X0136677Y0245878D02*
X0153490Y0245878D01*
X0153490Y0245092D02*
X0136677Y0245092D01*
X0136677Y0244306D02*
X0153490Y0244306D01*
X0153490Y0243520D02*
X0136677Y0243520D01*
X0136677Y0242734D02*
X0153490Y0242734D01*
X0153490Y0241948D02*
X0136677Y0241948D01*
X0136677Y0241162D02*
X0153490Y0241162D01*
X0153490Y0240377D02*
X0136677Y0240377D01*
X0136677Y0239591D02*
X0153490Y0239591D01*
X0153490Y0238805D02*
X0136677Y0238805D01*
X0136677Y0238019D02*
X0153490Y0238019D01*
X0153490Y0237233D02*
X0136677Y0237233D01*
X0136677Y0236447D02*
X0153490Y0236447D01*
X0153490Y0235661D02*
X0136677Y0235661D01*
X0136677Y0234875D02*
X0153490Y0234875D01*
X0153490Y0234089D02*
X0136677Y0234089D01*
X0136677Y0233303D02*
X0153490Y0233303D01*
X0153490Y0232517D02*
X0136677Y0232517D01*
X0136677Y0231732D02*
X0153490Y0231732D01*
X0153490Y0230946D02*
X0136677Y0230946D01*
X0136677Y0230160D02*
X0153490Y0230160D01*
X0153490Y0229374D02*
X0136677Y0229374D01*
X0136677Y0228588D02*
X0153490Y0228588D01*
X0147385Y0227802D02*
X0136677Y0227802D01*
X0136677Y0227016D02*
X0146948Y0227016D01*
X0146948Y0226230D02*
X0136677Y0226230D01*
X0136677Y0225444D02*
X0146948Y0225444D01*
X0146948Y0224658D02*
X0136677Y0224658D01*
X0136677Y0223872D02*
X0146948Y0223872D01*
X0147315Y0223086D02*
X0136677Y0223086D01*
X0152799Y0222301D02*
X0153490Y0222301D01*
X0152799Y0221515D02*
X0154224Y0221515D01*
X0134511Y0196365D02*
X0128155Y0196365D01*
X0128908Y0195580D02*
X0133759Y0195580D01*
X0133759Y0194794D02*
X0128908Y0194794D01*
X0128908Y0194008D02*
X0133759Y0194008D01*
X0133759Y0193222D02*
X0128908Y0193222D01*
X0128908Y0192436D02*
X0133759Y0192436D01*
X0133759Y0191650D02*
X0128908Y0191650D01*
X0128908Y0190864D02*
X0133759Y0190864D01*
X0133759Y0190078D02*
X0128908Y0190078D01*
X0128860Y0189292D02*
X0133647Y0189292D01*
X0132861Y0188506D02*
X0128327Y0188506D01*
X0127714Y0187720D02*
X0132075Y0187720D01*
X0124511Y0196365D02*
X0123155Y0196365D01*
X0119511Y0196365D02*
X0084105Y0196365D01*
X0084105Y0195580D02*
X0118759Y0195580D01*
X0118759Y0194794D02*
X0084105Y0194794D01*
X0084105Y0194008D02*
X0115999Y0194008D01*
X0109162Y0220729D02*
X0097109Y0220729D01*
X0090558Y0220729D02*
X0089105Y0220729D01*
X0089105Y0221515D02*
X0108411Y0221515D01*
X0108411Y0222301D02*
X0088608Y0222301D01*
X0089105Y0215227D02*
X0089881Y0215227D01*
X0090006Y0214441D02*
X0089105Y0214441D01*
X0084059Y0222301D02*
X0083608Y0222301D01*
X0084140Y0223086D02*
X0073327Y0223086D01*
X0073190Y0223872D02*
X0083518Y0223872D01*
X0082732Y0224658D02*
X0072404Y0224658D01*
X0071618Y0225444D02*
X0081946Y0225444D01*
X0081160Y0226230D02*
X0070832Y0226230D01*
X0071071Y0227802D02*
X0074096Y0227802D01*
X0073375Y0228588D02*
X0071792Y0228588D01*
X0071792Y0229374D02*
X0073375Y0229374D01*
X0073375Y0234089D02*
X0071792Y0234089D01*
X0071713Y0234875D02*
X0073454Y0234875D01*
X0079772Y0227802D02*
X0080395Y0227802D01*
X0081039Y0227016D02*
X0042786Y0227016D01*
X0042536Y0227802D02*
X0065395Y0227802D01*
X0064674Y0228588D02*
X0033474Y0228588D01*
X0034260Y0227802D02*
X0035131Y0227802D01*
X0034881Y0215854D02*
X0034881Y0215767D01*
X0035697Y0214951D01*
X0041970Y0214951D01*
X0042786Y0215767D01*
X0042786Y0215854D01*
X0051640Y0207001D01*
X0052487Y0206153D01*
X0051758Y0206153D01*
X0044258Y0198653D01*
X0020665Y0198653D01*
X0020471Y0199122D01*
X0019248Y0200344D01*
X0017651Y0201006D01*
X0010016Y0201006D01*
X0008419Y0200344D01*
X0007196Y0199122D01*
X0006677Y0197869D01*
X0006677Y0215450D01*
X0007196Y0214197D01*
X0008419Y0212975D01*
X0010016Y0212313D01*
X0017651Y0212313D01*
X0019248Y0212975D01*
X0020471Y0214197D01*
X0020582Y0214466D01*
X0033492Y0214466D01*
X0034881Y0215854D01*
X0035420Y0215227D02*
X0034254Y0215227D01*
X0042246Y0215227D02*
X0043413Y0215227D01*
X0044199Y0214441D02*
X0020572Y0214441D01*
X0019929Y0213656D02*
X0044985Y0213656D01*
X0045771Y0212870D02*
X0018994Y0212870D01*
X0008672Y0212870D02*
X0006677Y0212870D01*
X0006677Y0213656D02*
X0007738Y0213656D01*
X0007095Y0214441D02*
X0006677Y0214441D01*
X0006677Y0215227D02*
X0006769Y0215227D01*
X0006677Y0212084D02*
X0046557Y0212084D01*
X0047343Y0211298D02*
X0006677Y0211298D01*
X0006677Y0210512D02*
X0048129Y0210512D01*
X0048914Y0209726D02*
X0006677Y0209726D01*
X0006677Y0208940D02*
X0049700Y0208940D01*
X0050486Y0208154D02*
X0006677Y0208154D01*
X0006677Y0207368D02*
X0051272Y0207368D01*
X0052058Y0206582D02*
X0006677Y0206582D01*
X0006677Y0205796D02*
X0051401Y0205796D01*
X0050615Y0205010D02*
X0006677Y0205010D01*
X0006677Y0204225D02*
X0049829Y0204225D01*
X0049043Y0203439D02*
X0006677Y0203439D01*
X0006677Y0202653D02*
X0048257Y0202653D01*
X0047471Y0201867D02*
X0006677Y0201867D01*
X0006677Y0201081D02*
X0046685Y0201081D01*
X0045899Y0200295D02*
X0019297Y0200295D01*
X0020083Y0199509D02*
X0045113Y0199509D01*
X0044328Y0198723D02*
X0020636Y0198723D01*
X0008369Y0200295D02*
X0006677Y0200295D01*
X0006677Y0199509D02*
X0007583Y0199509D01*
X0007031Y0198723D02*
X0006677Y0198723D01*
X0006677Y0197937D02*
X0006705Y0197937D01*
X0006677Y0185450D02*
X0007196Y0184197D01*
X0008419Y0182975D01*
X0010016Y0182313D01*
X0017651Y0182313D01*
X0019248Y0182975D01*
X0020471Y0184197D01*
X0020665Y0184666D01*
X0039659Y0184666D01*
X0040827Y0185834D01*
X0053562Y0198568D01*
X0053562Y0191515D01*
X0054340Y0190737D01*
X0054340Y0189584D01*
X0058247Y0185677D01*
X0057258Y0185267D01*
X0056476Y0184485D01*
X0056052Y0183463D01*
X0056052Y0182356D01*
X0056476Y0181334D01*
X0056840Y0180970D01*
X0056840Y0173334D01*
X0069340Y0160834D01*
X0070508Y0159666D01*
X0088926Y0159666D01*
X0088926Y0152883D01*
X0089742Y0152067D01*
X0091672Y0152067D01*
X0091672Y0129067D01*
X0089742Y0129067D01*
X0088926Y0128251D01*
X0088926Y0120403D01*
X0089742Y0119587D01*
X0091837Y0119587D01*
X0092770Y0118653D01*
X0088409Y0118653D01*
X0086758Y0118653D01*
X0072565Y0104461D01*
X0070057Y0104461D01*
X0069241Y0103644D01*
X0069241Y0095797D01*
X0070057Y0094980D01*
X0077905Y0094980D01*
X0078721Y0095797D01*
X0078721Y0103644D01*
X0078054Y0104311D01*
X0088409Y0114666D01*
X0118409Y0114666D01*
X0119577Y0115834D01*
X0120309Y0116565D01*
X0123631Y0116565D01*
X0123631Y0115816D01*
X0124038Y0115409D01*
X0123631Y0115002D01*
X0123631Y0114454D01*
X0122275Y0114454D01*
X0120425Y0112603D01*
X0119140Y0111318D01*
X0119140Y0108319D01*
X0113197Y0108319D01*
X0112381Y0107502D01*
X0112381Y0103053D01*
X0098406Y0103053D01*
X0098406Y0103644D01*
X0097590Y0104461D01*
X0089742Y0104461D01*
X0088926Y0103644D01*
X0088926Y0095797D01*
X0089742Y0094980D01*
X0097590Y0094980D01*
X0098406Y0095797D01*
X0098406Y0099065D01*
X0119249Y0099065D01*
X0118642Y0098458D01*
X0118159Y0097291D01*
X0118159Y0096028D01*
X0118642Y0094861D01*
X0119535Y0093968D01*
X0120702Y0093485D01*
X0121406Y0093485D01*
X0122324Y0092566D01*
X0123631Y0092566D01*
X0123631Y0092017D01*
X0124447Y0091201D01*
X0125390Y0091201D01*
X0125390Y0090751D01*
X0126637Y0089503D01*
X0012957Y0089503D01*
X0011975Y0089580D01*
X0010106Y0090188D01*
X0008516Y0091343D01*
X0007362Y0092932D01*
X0006754Y0094801D01*
X0006677Y0095783D01*
X0006677Y0185450D01*
X0006677Y0185363D02*
X0006713Y0185363D01*
X0006677Y0184577D02*
X0007039Y0184577D01*
X0006677Y0183791D02*
X0007602Y0183791D01*
X0008388Y0183005D02*
X0006677Y0183005D01*
X0006677Y0182219D02*
X0056109Y0182219D01*
X0056052Y0183005D02*
X0019278Y0183005D01*
X0020064Y0183791D02*
X0056188Y0183791D01*
X0056568Y0184577D02*
X0020628Y0184577D01*
X0006677Y0181433D02*
X0056435Y0181433D01*
X0056840Y0180647D02*
X0006677Y0180647D01*
X0006677Y0179861D02*
X0056840Y0179861D01*
X0056840Y0179075D02*
X0006677Y0179075D01*
X0006677Y0178289D02*
X0056840Y0178289D01*
X0056840Y0177504D02*
X0006677Y0177504D01*
X0006677Y0176718D02*
X0056840Y0176718D01*
X0056840Y0175932D02*
X0006677Y0175932D01*
X0006677Y0175146D02*
X0056840Y0175146D01*
X0056840Y0174360D02*
X0006677Y0174360D01*
X0006677Y0173574D02*
X0056840Y0173574D01*
X0057385Y0172788D02*
X0006677Y0172788D01*
X0006677Y0172002D02*
X0058171Y0172002D01*
X0058957Y0171216D02*
X0006677Y0171216D01*
X0006677Y0170430D02*
X0059743Y0170430D01*
X0060529Y0169644D02*
X0006677Y0169644D01*
X0006677Y0168858D02*
X0061315Y0168858D01*
X0062101Y0168073D02*
X0006677Y0168073D01*
X0006677Y0167287D02*
X0062887Y0167287D01*
X0063673Y0166501D02*
X0006677Y0166501D01*
X0006677Y0165715D02*
X0064458Y0165715D01*
X0065244Y0164929D02*
X0006677Y0164929D01*
X0006677Y0164143D02*
X0066030Y0164143D01*
X0066816Y0163357D02*
X0006677Y0163357D01*
X0006677Y0162571D02*
X0067602Y0162571D01*
X0068388Y0161785D02*
X0006677Y0161785D01*
X0006677Y0160999D02*
X0069174Y0160999D01*
X0069960Y0160213D02*
X0006677Y0160213D01*
X0006677Y0159428D02*
X0088926Y0159428D01*
X0088926Y0158642D02*
X0006677Y0158642D01*
X0006677Y0157856D02*
X0088926Y0157856D01*
X0088926Y0157070D02*
X0006677Y0157070D01*
X0006677Y0156284D02*
X0088926Y0156284D01*
X0088926Y0155498D02*
X0006677Y0155498D01*
X0006677Y0154712D02*
X0088926Y0154712D01*
X0088926Y0153926D02*
X0006677Y0153926D01*
X0006677Y0153140D02*
X0088926Y0153140D01*
X0089455Y0152354D02*
X0006677Y0152354D01*
X0006677Y0151568D02*
X0091672Y0151568D01*
X0091672Y0150782D02*
X0006677Y0150782D01*
X0006677Y0149997D02*
X0091672Y0149997D01*
X0091672Y0149211D02*
X0006677Y0149211D01*
X0006677Y0148425D02*
X0091672Y0148425D01*
X0091672Y0147639D02*
X0006677Y0147639D01*
X0006677Y0146853D02*
X0091672Y0146853D01*
X0091672Y0146067D02*
X0006677Y0146067D01*
X0006677Y0145281D02*
X0091672Y0145281D01*
X0091672Y0144495D02*
X0006677Y0144495D01*
X0006677Y0143709D02*
X0091672Y0143709D01*
X0091672Y0142923D02*
X0006677Y0142923D01*
X0006677Y0142137D02*
X0091672Y0142137D01*
X0091672Y0141352D02*
X0006677Y0141352D01*
X0006677Y0140566D02*
X0091672Y0140566D01*
X0091672Y0139780D02*
X0006677Y0139780D01*
X0006677Y0138994D02*
X0091672Y0138994D01*
X0091672Y0138208D02*
X0006677Y0138208D01*
X0006677Y0137422D02*
X0091672Y0137422D01*
X0091672Y0136636D02*
X0006677Y0136636D01*
X0006677Y0135850D02*
X0091672Y0135850D01*
X0091672Y0135064D02*
X0006677Y0135064D01*
X0006677Y0134278D02*
X0091672Y0134278D01*
X0091672Y0133492D02*
X0006677Y0133492D01*
X0006677Y0132706D02*
X0091672Y0132706D01*
X0091672Y0131921D02*
X0006677Y0131921D01*
X0006677Y0131135D02*
X0091672Y0131135D01*
X0091672Y0130349D02*
X0006677Y0130349D01*
X0006677Y0129563D02*
X0091672Y0129563D01*
X0089452Y0128777D02*
X0006677Y0128777D01*
X0006677Y0127991D02*
X0088926Y0127991D01*
X0088926Y0127205D02*
X0006677Y0127205D01*
X0006677Y0126419D02*
X0088926Y0126419D01*
X0088926Y0125633D02*
X0006677Y0125633D01*
X0006677Y0124847D02*
X0088926Y0124847D01*
X0088926Y0124061D02*
X0006677Y0124061D01*
X0006677Y0123276D02*
X0088926Y0123276D01*
X0088926Y0122490D02*
X0006677Y0122490D01*
X0006677Y0121704D02*
X0088926Y0121704D01*
X0088926Y0120918D02*
X0006677Y0120918D01*
X0006677Y0120132D02*
X0089197Y0120132D01*
X0086664Y0118560D02*
X0006677Y0118560D01*
X0006677Y0117774D02*
X0085879Y0117774D01*
X0085093Y0116988D02*
X0006677Y0116988D01*
X0006677Y0116202D02*
X0084307Y0116202D01*
X0083521Y0115416D02*
X0006677Y0115416D01*
X0006677Y0114630D02*
X0082735Y0114630D01*
X0081949Y0113845D02*
X0006677Y0113845D01*
X0006677Y0113059D02*
X0081163Y0113059D01*
X0080377Y0112273D02*
X0006677Y0112273D01*
X0006677Y0111487D02*
X0079591Y0111487D01*
X0078805Y0110701D02*
X0006677Y0110701D01*
X0006677Y0109915D02*
X0078019Y0109915D01*
X0077233Y0109129D02*
X0006677Y0109129D01*
X0006677Y0108343D02*
X0076448Y0108343D01*
X0075662Y0107557D02*
X0006677Y0107557D01*
X0006677Y0106771D02*
X0074876Y0106771D01*
X0074090Y0105985D02*
X0006677Y0105985D01*
X0006677Y0105200D02*
X0073304Y0105200D01*
X0070010Y0104414D02*
X0006677Y0104414D01*
X0006677Y0103628D02*
X0069241Y0103628D01*
X0069241Y0102842D02*
X0006677Y0102842D01*
X0006677Y0102056D02*
X0069241Y0102056D01*
X0069241Y0101270D02*
X0006677Y0101270D01*
X0006677Y0100484D02*
X0069241Y0100484D01*
X0069241Y0099698D02*
X0006677Y0099698D01*
X0006677Y0098912D02*
X0069241Y0098912D01*
X0069241Y0098126D02*
X0006677Y0098126D01*
X0006677Y0097340D02*
X0069241Y0097340D01*
X0069241Y0096554D02*
X0006677Y0096554D01*
X0006678Y0095769D02*
X0069269Y0095769D01*
X0070055Y0094983D02*
X0006740Y0094983D01*
X0006951Y0094197D02*
X0119306Y0094197D01*
X0118591Y0094983D02*
X0097592Y0094983D01*
X0098378Y0095769D02*
X0118266Y0095769D01*
X0118159Y0096554D02*
X0098406Y0096554D01*
X0098406Y0097340D02*
X0118179Y0097340D01*
X0118505Y0098126D02*
X0098406Y0098126D01*
X0098406Y0098912D02*
X0119096Y0098912D01*
X0121480Y0093411D02*
X0007206Y0093411D01*
X0007585Y0092625D02*
X0122265Y0092625D01*
X0123809Y0091839D02*
X0008156Y0091839D01*
X0008915Y0091053D02*
X0125390Y0091053D01*
X0125873Y0090267D02*
X0009997Y0090267D01*
X0006677Y0119346D02*
X0092077Y0119346D01*
X0088374Y0114630D02*
X0123631Y0114630D01*
X0124031Y0115416D02*
X0119160Y0115416D01*
X0119946Y0116202D02*
X0123631Y0116202D01*
X0121666Y0113845D02*
X0087588Y0113845D01*
X0086802Y0113059D02*
X0120880Y0113059D01*
X0120094Y0112273D02*
X0086016Y0112273D01*
X0085230Y0111487D02*
X0119308Y0111487D01*
X0119140Y0110701D02*
X0084444Y0110701D01*
X0083658Y0109915D02*
X0119140Y0109915D01*
X0119140Y0109129D02*
X0082872Y0109129D01*
X0082087Y0108343D02*
X0119140Y0108343D01*
X0123527Y0108343D02*
X0148090Y0108343D01*
X0148090Y0107557D02*
X0123675Y0107557D01*
X0123527Y0107706D02*
X0123527Y0109501D01*
X0123631Y0109604D01*
X0123631Y0109517D01*
X0124447Y0108701D01*
X0130720Y0108701D01*
X0131333Y0109314D01*
X0131947Y0108701D01*
X0138220Y0108701D01*
X0138833Y0109314D01*
X0139447Y0108701D01*
X0145720Y0108701D01*
X0146536Y0109517D01*
X0146536Y0110293D01*
X0148090Y0111846D01*
X0148090Y0098735D01*
X0146536Y0097182D01*
X0146536Y0097502D01*
X0145720Y0098319D01*
X0139447Y0098319D01*
X0138833Y0097705D01*
X0138629Y0097909D01*
X0139036Y0098316D01*
X0139036Y0103802D01*
X0138220Y0104618D01*
X0131947Y0104618D01*
X0131333Y0104004D01*
X0130720Y0104618D01*
X0124447Y0104618D01*
X0124438Y0104609D01*
X0124508Y0104778D01*
X0124508Y0106041D01*
X0124025Y0107208D01*
X0123527Y0107706D01*
X0124206Y0106771D02*
X0148090Y0106771D01*
X0148090Y0105985D02*
X0124508Y0105985D01*
X0124508Y0105200D02*
X0148090Y0105200D01*
X0148090Y0104414D02*
X0138424Y0104414D01*
X0139036Y0103628D02*
X0148090Y0103628D01*
X0148090Y0102842D02*
X0139036Y0102842D01*
X0139036Y0102056D02*
X0148090Y0102056D01*
X0148090Y0101270D02*
X0139036Y0101270D01*
X0139036Y0100484D02*
X0148090Y0100484D01*
X0148090Y0099698D02*
X0139036Y0099698D01*
X0139036Y0098912D02*
X0148090Y0098912D01*
X0147481Y0098126D02*
X0145912Y0098126D01*
X0146536Y0097340D02*
X0146695Y0097340D01*
X0139254Y0098126D02*
X0138846Y0098126D01*
X0131742Y0104414D02*
X0130924Y0104414D01*
X0131148Y0109129D02*
X0131519Y0109129D01*
X0138648Y0109129D02*
X0139019Y0109129D01*
X0138833Y0115205D02*
X0138629Y0115409D01*
X0139036Y0115816D01*
X0139036Y0121302D01*
X0138220Y0122118D01*
X0131947Y0122118D01*
X0131333Y0121504D01*
X0130720Y0122118D01*
X0124447Y0122118D01*
X0123631Y0121302D01*
X0123631Y0120553D01*
X0120546Y0120553D01*
X0122077Y0122084D01*
X0122077Y0124005D01*
X0122658Y0124586D01*
X0122658Y0128890D01*
X0121842Y0129707D01*
X0118325Y0129707D01*
X0117509Y0128890D01*
X0117509Y0124586D01*
X0118090Y0124005D01*
X0118090Y0123735D01*
X0115508Y0121153D01*
X0098406Y0121153D01*
X0098406Y0128251D01*
X0097590Y0129067D01*
X0095660Y0129067D01*
X0095660Y0152067D01*
X0097590Y0152067D01*
X0098406Y0152883D01*
X0098406Y0158017D01*
X0112302Y0144121D01*
X0112302Y0143606D01*
X0112726Y0142584D01*
X0113508Y0141802D01*
X0114530Y0141378D01*
X0115637Y0141378D01*
X0116659Y0141802D01*
X0117125Y0142268D01*
X0117125Y0141023D01*
X0117941Y0140207D01*
X0118090Y0140207D01*
X0118090Y0139314D01*
X0117509Y0138733D01*
X0117509Y0134429D01*
X0118325Y0133612D01*
X0121842Y0133612D01*
X0122658Y0134429D01*
X0122658Y0138733D01*
X0122077Y0139314D01*
X0122077Y0140207D01*
X0123426Y0140207D01*
X0123833Y0140614D01*
X0124240Y0140207D01*
X0124789Y0140207D01*
X0124789Y0139618D01*
X0124447Y0139618D01*
X0123631Y0138802D01*
X0123631Y0133316D01*
X0124447Y0132500D01*
X0130720Y0132500D01*
X0131536Y0133316D01*
X0131536Y0136967D01*
X0132035Y0136468D01*
X0133202Y0135985D01*
X0133906Y0135985D01*
X0134140Y0135751D01*
X0135425Y0134466D01*
X0136861Y0134466D01*
X0137439Y0133888D01*
X0138766Y0133888D01*
X0138424Y0133546D01*
X0138424Y0127273D01*
X0139240Y0126457D01*
X0144726Y0126457D01*
X0145542Y0127273D01*
X0145542Y0133546D01*
X0145200Y0133888D01*
X0145483Y0133888D01*
X0145590Y0133994D01*
X0145590Y0115819D01*
X0139447Y0115819D01*
X0138833Y0115205D01*
X0138636Y0115416D02*
X0139044Y0115416D01*
X0139036Y0116202D02*
X0145590Y0116202D01*
X0145590Y0116988D02*
X0139036Y0116988D01*
X0139036Y0117774D02*
X0145590Y0117774D01*
X0145590Y0118560D02*
X0139036Y0118560D01*
X0139036Y0119346D02*
X0145590Y0119346D01*
X0145590Y0120132D02*
X0139036Y0120132D01*
X0139036Y0120918D02*
X0145590Y0120918D01*
X0145590Y0121704D02*
X0138634Y0121704D01*
X0138492Y0127205D02*
X0122658Y0127205D01*
X0122658Y0126419D02*
X0145590Y0126419D01*
X0145590Y0125633D02*
X0122658Y0125633D01*
X0122658Y0124847D02*
X0145590Y0124847D01*
X0145590Y0124061D02*
X0122133Y0124061D01*
X0122077Y0123276D02*
X0145590Y0123276D01*
X0145590Y0122490D02*
X0122077Y0122490D01*
X0121697Y0121704D02*
X0124033Y0121704D01*
X0123631Y0120918D02*
X0120911Y0120918D01*
X0117630Y0123276D02*
X0098406Y0123276D01*
X0098406Y0124061D02*
X0118033Y0124061D01*
X0117509Y0124847D02*
X0098406Y0124847D01*
X0098406Y0125633D02*
X0117509Y0125633D01*
X0117509Y0126419D02*
X0098406Y0126419D01*
X0098406Y0127205D02*
X0117509Y0127205D01*
X0117509Y0127991D02*
X0098406Y0127991D01*
X0097880Y0128777D02*
X0117509Y0128777D01*
X0118181Y0129563D02*
X0095660Y0129563D01*
X0095660Y0130349D02*
X0138424Y0130349D01*
X0138424Y0131135D02*
X0095660Y0131135D01*
X0095660Y0131921D02*
X0138424Y0131921D01*
X0138424Y0132706D02*
X0130926Y0132706D01*
X0131536Y0133492D02*
X0138424Y0133492D01*
X0137049Y0134278D02*
X0131536Y0134278D01*
X0131536Y0135064D02*
X0134826Y0135064D01*
X0134140Y0135751D02*
X0134140Y0135751D01*
X0134040Y0135850D02*
X0131536Y0135850D01*
X0131536Y0136636D02*
X0131867Y0136636D01*
X0124789Y0139780D02*
X0122077Y0139780D01*
X0122397Y0138994D02*
X0123823Y0138994D01*
X0123631Y0138208D02*
X0122658Y0138208D01*
X0122658Y0137422D02*
X0123631Y0137422D01*
X0123631Y0136636D02*
X0122658Y0136636D01*
X0122658Y0135850D02*
X0123631Y0135850D01*
X0123631Y0135064D02*
X0122658Y0135064D01*
X0122508Y0134278D02*
X0123631Y0134278D01*
X0123631Y0133492D02*
X0095660Y0133492D01*
X0095660Y0132706D02*
X0124240Y0132706D01*
X0121986Y0129563D02*
X0138424Y0129563D01*
X0138424Y0128777D02*
X0122658Y0128777D01*
X0122658Y0127991D02*
X0138424Y0127991D01*
X0145474Y0127205D02*
X0145590Y0127205D01*
X0145590Y0127991D02*
X0145542Y0127991D01*
X0145542Y0128777D02*
X0145590Y0128777D01*
X0145590Y0129563D02*
X0145542Y0129563D01*
X0145542Y0130349D02*
X0145590Y0130349D01*
X0145590Y0131135D02*
X0145542Y0131135D01*
X0145542Y0131921D02*
X0145590Y0131921D01*
X0145590Y0132706D02*
X0145542Y0132706D01*
X0145542Y0133492D02*
X0145590Y0133492D01*
X0159577Y0129563D02*
X0183181Y0129563D01*
X0182509Y0128777D02*
X0159577Y0128777D01*
X0159577Y0127991D02*
X0182509Y0127991D01*
X0182509Y0127205D02*
X0159577Y0127205D01*
X0159577Y0126419D02*
X0182509Y0126419D01*
X0182509Y0125633D02*
X0159577Y0125633D01*
X0159577Y0124847D02*
X0182509Y0124847D01*
X0183033Y0124061D02*
X0159577Y0124061D01*
X0159577Y0123276D02*
X0183090Y0123276D01*
X0183090Y0122490D02*
X0159577Y0122490D01*
X0159577Y0121704D02*
X0166533Y0121704D01*
X0166131Y0120918D02*
X0159577Y0120918D01*
X0159577Y0120132D02*
X0166131Y0120132D01*
X0166131Y0119346D02*
X0159577Y0119346D01*
X0159577Y0118560D02*
X0166131Y0118560D01*
X0166131Y0117774D02*
X0159577Y0117774D01*
X0159577Y0116988D02*
X0166131Y0116988D01*
X0166131Y0116202D02*
X0159577Y0116202D01*
X0157077Y0111846D02*
X0158631Y0110293D01*
X0158631Y0109517D01*
X0159447Y0108701D01*
X0165720Y0108701D01*
X0166333Y0109314D01*
X0166947Y0108701D01*
X0173220Y0108701D01*
X0173833Y0109314D01*
X0174447Y0108701D01*
X0180720Y0108701D01*
X0181536Y0109517D01*
X0181536Y0109604D01*
X0181640Y0109501D01*
X0181640Y0107706D01*
X0181142Y0107208D01*
X0180659Y0106041D01*
X0180659Y0104778D01*
X0180728Y0104609D01*
X0180720Y0104618D01*
X0174447Y0104618D01*
X0173833Y0104004D01*
X0173220Y0104618D01*
X0166947Y0104618D01*
X0166131Y0103802D01*
X0166131Y0098316D01*
X0166538Y0097909D01*
X0166333Y0097705D01*
X0165720Y0098319D01*
X0159447Y0098319D01*
X0158631Y0097502D01*
X0158631Y0097182D01*
X0157077Y0098735D01*
X0157077Y0111846D01*
X0157077Y0111487D02*
X0157436Y0111487D01*
X0157077Y0110701D02*
X0158222Y0110701D01*
X0158631Y0109915D02*
X0157077Y0109915D01*
X0157077Y0109129D02*
X0159019Y0109129D01*
X0157077Y0108343D02*
X0181640Y0108343D01*
X0181640Y0109129D02*
X0181148Y0109129D01*
X0181491Y0107557D02*
X0157077Y0107557D01*
X0157077Y0106771D02*
X0180961Y0106771D01*
X0180659Y0105985D02*
X0157077Y0105985D01*
X0157077Y0105200D02*
X0180659Y0105200D01*
X0174243Y0104414D02*
X0173424Y0104414D01*
X0173648Y0109129D02*
X0174019Y0109129D01*
X0166519Y0109129D02*
X0166148Y0109129D01*
X0166742Y0104414D02*
X0157077Y0104414D01*
X0157077Y0103628D02*
X0166131Y0103628D01*
X0166131Y0102842D02*
X0157077Y0102842D01*
X0157077Y0102056D02*
X0166131Y0102056D01*
X0166131Y0101270D02*
X0157077Y0101270D01*
X0157077Y0100484D02*
X0166131Y0100484D01*
X0166131Y0099698D02*
X0157077Y0099698D01*
X0157077Y0098912D02*
X0166131Y0098912D01*
X0166321Y0098126D02*
X0165912Y0098126D01*
X0159254Y0098126D02*
X0157686Y0098126D01*
X0158472Y0097340D02*
X0158631Y0097340D01*
X0148090Y0109129D02*
X0146148Y0109129D01*
X0146536Y0109915D02*
X0148090Y0109915D01*
X0148090Y0110701D02*
X0146944Y0110701D01*
X0147730Y0111487D02*
X0148090Y0111487D01*
X0166122Y0115416D02*
X0166531Y0115416D01*
X0173634Y0121704D02*
X0174033Y0121704D01*
X0181134Y0121704D02*
X0183470Y0121704D01*
X0184255Y0120918D02*
X0181536Y0120918D01*
X0181536Y0116202D02*
X0185221Y0116202D01*
X0172532Y0159428D02*
X0168267Y0159428D01*
X0168544Y0160213D02*
X0173318Y0160213D01*
X0174104Y0160999D02*
X0168544Y0160999D01*
X0168544Y0161785D02*
X0174625Y0161785D01*
X0174900Y0162571D02*
X0168544Y0162571D01*
X0131533Y0121704D02*
X0131134Y0121704D01*
X0124019Y0109129D02*
X0123527Y0109129D01*
X0112435Y0107557D02*
X0081301Y0107557D01*
X0080515Y0106771D02*
X0112381Y0106771D01*
X0112381Y0105985D02*
X0079729Y0105985D01*
X0078943Y0105200D02*
X0112381Y0105200D01*
X0112381Y0104414D02*
X0097637Y0104414D01*
X0098406Y0103628D02*
X0112381Y0103628D01*
X0116058Y0121704D02*
X0098406Y0121704D01*
X0098406Y0122490D02*
X0116844Y0122490D01*
X0117659Y0134278D02*
X0095660Y0134278D01*
X0095660Y0135064D02*
X0117509Y0135064D01*
X0117509Y0135850D02*
X0095660Y0135850D01*
X0095660Y0136636D02*
X0117509Y0136636D01*
X0117509Y0137422D02*
X0095660Y0137422D01*
X0095660Y0138208D02*
X0117509Y0138208D01*
X0117770Y0138994D02*
X0095660Y0138994D01*
X0095660Y0139780D02*
X0118090Y0139780D01*
X0117582Y0140566D02*
X0095660Y0140566D01*
X0095660Y0141352D02*
X0117125Y0141352D01*
X0117125Y0142137D02*
X0116994Y0142137D01*
X0113172Y0142137D02*
X0095660Y0142137D01*
X0095660Y0142923D02*
X0112585Y0142923D01*
X0112302Y0143709D02*
X0095660Y0143709D01*
X0095660Y0144495D02*
X0111928Y0144495D01*
X0111142Y0145281D02*
X0095660Y0145281D01*
X0095660Y0146067D02*
X0110356Y0146067D01*
X0109570Y0146853D02*
X0095660Y0146853D01*
X0095660Y0147639D02*
X0108784Y0147639D01*
X0107999Y0148425D02*
X0095660Y0148425D01*
X0095660Y0149211D02*
X0107213Y0149211D01*
X0106427Y0149997D02*
X0095660Y0149997D01*
X0095660Y0150782D02*
X0105641Y0150782D01*
X0104855Y0151568D02*
X0095660Y0151568D01*
X0097877Y0152354D02*
X0104069Y0152354D01*
X0103283Y0153140D02*
X0098406Y0153140D01*
X0098406Y0153926D02*
X0102497Y0153926D01*
X0101711Y0154712D02*
X0098406Y0154712D01*
X0098406Y0155498D02*
X0100925Y0155498D01*
X0100139Y0156284D02*
X0098406Y0156284D01*
X0098406Y0157070D02*
X0099353Y0157070D01*
X0098568Y0157856D02*
X0098406Y0157856D01*
X0101063Y0160999D02*
X0123424Y0160999D01*
X0123424Y0160213D02*
X0101849Y0160213D01*
X0102635Y0159428D02*
X0123424Y0159428D01*
X0123424Y0158642D02*
X0103421Y0158642D01*
X0104207Y0157856D02*
X0123424Y0157856D01*
X0123424Y0157070D02*
X0104992Y0157070D01*
X0105778Y0156284D02*
X0123424Y0156284D01*
X0123424Y0156023D02*
X0123424Y0162166D01*
X0099897Y0162166D01*
X0115122Y0146941D01*
X0115637Y0146941D01*
X0116659Y0146517D01*
X0117125Y0146051D01*
X0117125Y0147296D01*
X0117738Y0147909D01*
X0117125Y0148523D01*
X0117125Y0154796D01*
X0117941Y0155612D01*
X0123426Y0155612D01*
X0123833Y0155205D01*
X0124038Y0155409D01*
X0123424Y0156023D01*
X0123541Y0155498D02*
X0123949Y0155498D01*
X0117827Y0155498D02*
X0106564Y0155498D01*
X0107350Y0154712D02*
X0117125Y0154712D01*
X0117125Y0153926D02*
X0108136Y0153926D01*
X0108922Y0153140D02*
X0117125Y0153140D01*
X0117125Y0152354D02*
X0109708Y0152354D01*
X0110494Y0151568D02*
X0117125Y0151568D01*
X0117125Y0150782D02*
X0111280Y0150782D01*
X0112066Y0149997D02*
X0117125Y0149997D01*
X0117125Y0149211D02*
X0112852Y0149211D01*
X0113638Y0148425D02*
X0117223Y0148425D01*
X0117468Y0147639D02*
X0114423Y0147639D01*
X0115848Y0146853D02*
X0117125Y0146853D01*
X0117109Y0146067D02*
X0117125Y0146067D01*
X0123785Y0140566D02*
X0123881Y0140566D01*
X0123424Y0161785D02*
X0100277Y0161785D01*
X0088504Y0191650D02*
X0084105Y0191650D01*
X0084105Y0192436D02*
X0089290Y0192436D01*
X0090076Y0193222D02*
X0084105Y0193222D01*
X0079059Y0222301D02*
X0078608Y0222301D01*
X0074059Y0222301D02*
X0073608Y0222301D01*
X0053562Y0197937D02*
X0052931Y0197937D01*
X0053562Y0197151D02*
X0052145Y0197151D01*
X0051359Y0196365D02*
X0053562Y0196365D01*
X0053562Y0195580D02*
X0050573Y0195580D01*
X0049787Y0194794D02*
X0053562Y0194794D01*
X0053562Y0194008D02*
X0049001Y0194008D01*
X0048215Y0193222D02*
X0053562Y0193222D01*
X0053562Y0192436D02*
X0047429Y0192436D01*
X0046643Y0191650D02*
X0053562Y0191650D01*
X0054213Y0190864D02*
X0045857Y0190864D01*
X0045072Y0190078D02*
X0054340Y0190078D01*
X0054631Y0189292D02*
X0044286Y0189292D01*
X0043500Y0188506D02*
X0055417Y0188506D01*
X0056203Y0187720D02*
X0042714Y0187720D01*
X0041928Y0186934D02*
X0056989Y0186934D01*
X0057775Y0186149D02*
X0041142Y0186149D01*
X0040356Y0185363D02*
X0057489Y0185363D01*
X0072339Y0260810D02*
X0006677Y0260810D01*
X0006677Y0261596D02*
X0070947Y0261596D01*
X0070161Y0262382D02*
X0006677Y0262382D01*
X0006677Y0263168D02*
X0069452Y0263168D01*
X0069126Y0263954D02*
X0006677Y0263954D01*
X0006677Y0264740D02*
X0068800Y0264740D01*
X0068532Y0265526D02*
X0006677Y0265526D01*
X0006677Y0266312D02*
X0068532Y0266312D01*
X0068532Y0267098D02*
X0006677Y0267098D01*
X0006677Y0267884D02*
X0068532Y0267884D01*
X0068838Y0268669D02*
X0006677Y0268669D01*
X0006677Y0269455D02*
X0069163Y0269455D01*
X0069489Y0270241D02*
X0006677Y0270241D01*
X0006677Y0271027D02*
X0070251Y0271027D01*
X0071037Y0271813D02*
X0006677Y0271813D01*
X0006677Y0272599D02*
X0072558Y0272599D01*
X0077294Y0272599D02*
X0099944Y0272599D01*
X0099454Y0273385D02*
X0006677Y0273385D01*
X0006677Y0274171D02*
X0099128Y0274171D01*
X0098803Y0274957D02*
X0006677Y0274957D01*
X0006677Y0275743D02*
X0098690Y0275743D01*
X0098690Y0276529D02*
X0006677Y0276529D01*
X0006677Y0277314D02*
X0098690Y0277314D01*
X0098825Y0278100D02*
X0006677Y0278100D01*
X0006677Y0278886D02*
X0099150Y0278886D01*
X0099476Y0279672D02*
X0006677Y0279672D01*
X0006677Y0280458D02*
X0099997Y0280458D01*
X0100783Y0281244D02*
X0006677Y0281244D01*
X0006677Y0282030D02*
X0101721Y0282030D01*
X0100730Y0271813D02*
X0078814Y0271813D01*
X0079600Y0271027D02*
X0101593Y0271027D01*
X0103491Y0270241D02*
X0080363Y0270241D01*
X0136677Y0271027D02*
X0141593Y0271027D01*
X0140730Y0271813D02*
X0136677Y0271813D01*
X0136677Y0272599D02*
X0139944Y0272599D01*
X0139454Y0273385D02*
X0136677Y0273385D01*
X0136677Y0274171D02*
X0139128Y0274171D01*
X0138803Y0274957D02*
X0136677Y0274957D01*
X0136677Y0275743D02*
X0138690Y0275743D01*
X0138690Y0276529D02*
X0136677Y0276529D01*
X0136677Y0277314D02*
X0138690Y0277314D01*
X0138825Y0278100D02*
X0136677Y0278100D01*
X0136677Y0278886D02*
X0139150Y0278886D01*
X0139476Y0279672D02*
X0136677Y0279672D01*
X0136677Y0280458D02*
X0139997Y0280458D01*
X0140783Y0281244D02*
X0136677Y0281244D01*
X0136677Y0282030D02*
X0141721Y0282030D01*
X0143619Y0282816D02*
X0136677Y0282816D01*
X0176677Y0282030D02*
X0181721Y0282030D01*
X0180783Y0281244D02*
X0176677Y0281244D01*
X0176677Y0280458D02*
X0179997Y0280458D01*
X0179476Y0279672D02*
X0176677Y0279672D01*
X0176677Y0278886D02*
X0179150Y0278886D01*
X0178825Y0278100D02*
X0176677Y0278100D01*
X0176677Y0277314D02*
X0178690Y0277314D01*
X0178690Y0276529D02*
X0176677Y0276529D01*
X0176677Y0275743D02*
X0178690Y0275743D01*
X0178803Y0274957D02*
X0176677Y0274957D01*
X0176677Y0274171D02*
X0179128Y0274171D01*
X0179454Y0273385D02*
X0176677Y0273385D01*
X0176677Y0272599D02*
X0179944Y0272599D01*
X0180730Y0271813D02*
X0176677Y0271813D01*
X0176677Y0271027D02*
X0181593Y0271027D01*
X0183491Y0270241D02*
X0176677Y0270241D01*
X0216677Y0271027D02*
X0221593Y0271027D01*
X0220730Y0271813D02*
X0216677Y0271813D01*
X0216677Y0272599D02*
X0219944Y0272599D01*
X0219454Y0273385D02*
X0216677Y0273385D01*
X0216677Y0274171D02*
X0219128Y0274171D01*
X0218803Y0274957D02*
X0216677Y0274957D01*
X0216677Y0275743D02*
X0218690Y0275743D01*
X0218690Y0276529D02*
X0216677Y0276529D01*
X0216677Y0277314D02*
X0218690Y0277314D01*
X0218825Y0278100D02*
X0216677Y0278100D01*
X0216677Y0278886D02*
X0219150Y0278886D01*
X0219476Y0279672D02*
X0216677Y0279672D01*
X0216677Y0280458D02*
X0219997Y0280458D01*
X0220783Y0281244D02*
X0216677Y0281244D01*
X0216677Y0282030D02*
X0221721Y0282030D01*
X0223619Y0282816D02*
X0216677Y0282816D01*
X0256677Y0275743D02*
X0257377Y0275743D01*
X0298393Y0337830D02*
X0007049Y0337830D01*
X0007304Y0338616D02*
X0298138Y0338616D01*
X0297638Y0339402D02*
X0007804Y0339402D01*
X0008375Y0340187D02*
X0297067Y0340187D01*
X0296111Y0340973D02*
X0009331Y0340973D01*
X0010791Y0341759D02*
X0294651Y0341759D01*
X0188759Y0210512D02*
X0188576Y0210512D01*
X0089695Y0104414D02*
X0078157Y0104414D01*
X0078721Y0103628D02*
X0088926Y0103628D01*
X0088926Y0102842D02*
X0078721Y0102842D01*
X0078721Y0102056D02*
X0088926Y0102056D01*
X0088926Y0101270D02*
X0078721Y0101270D01*
X0078721Y0100484D02*
X0088926Y0100484D01*
X0088926Y0099698D02*
X0078721Y0099698D01*
X0078721Y0098912D02*
X0088926Y0098912D01*
X0088926Y0098126D02*
X0078721Y0098126D01*
X0078721Y0097340D02*
X0088926Y0097340D01*
X0088926Y0096554D02*
X0078721Y0096554D01*
X0078693Y0095769D02*
X0088954Y0095769D01*
X0089740Y0094983D02*
X0077907Y0094983D01*
D32*
X0110083Y0107909D03*
X0110083Y0112909D03*
X0121333Y0105409D03*
X0121333Y0096659D03*
X0136333Y0106659D03*
X0141333Y0106659D03*
X0146333Y0106659D03*
X0158833Y0106659D03*
X0163833Y0106659D03*
X0168833Y0106659D03*
X0183833Y0105409D03*
X0183833Y0096659D03*
X0195083Y0107909D03*
X0195083Y0112909D03*
X0181333Y0124159D03*
X0176333Y0124159D03*
X0171333Y0124159D03*
X0166333Y0124159D03*
X0161333Y0124159D03*
X0153833Y0140409D03*
X0143833Y0124159D03*
X0138833Y0124159D03*
X0133833Y0124159D03*
X0128833Y0124159D03*
X0123833Y0124159D03*
X0133833Y0139159D03*
X0115083Y0150409D03*
X0115083Y0155409D03*
X0110083Y0155409D03*
X0110083Y0160409D03*
X0115083Y0160409D03*
X0115083Y0195409D03*
X0110083Y0195409D03*
X0096333Y0195409D03*
X0091333Y0195409D03*
X0091333Y0200409D03*
X0096333Y0200409D03*
X0096333Y0205409D03*
X0091333Y0205409D03*
X0103833Y0225409D03*
X0098833Y0227909D03*
X0098833Y0232909D03*
X0103833Y0230409D03*
X0103833Y0235409D03*
X0103833Y0240409D03*
X0098833Y0237909D03*
X0098833Y0242909D03*
X0103833Y0245409D03*
X0138833Y0242909D03*
X0138833Y0237909D03*
X0138833Y0232909D03*
X0138833Y0227909D03*
X0143833Y0225409D03*
X0143833Y0230409D03*
X0143833Y0235409D03*
X0143833Y0240409D03*
X0143833Y0245409D03*
X0178833Y0242909D03*
X0178833Y0237909D03*
X0178833Y0232909D03*
X0178833Y0227909D03*
X0183833Y0225409D03*
X0183833Y0230409D03*
X0183833Y0235409D03*
X0183833Y0240409D03*
X0183833Y0245409D03*
X0151333Y0207909D03*
X0146333Y0195409D03*
X0146333Y0190409D03*
X0156333Y0190409D03*
X0156333Y0195409D03*
X0136333Y0197909D03*
X0131333Y0197909D03*
X0131333Y0202909D03*
X0136333Y0202909D03*
X0126333Y0202909D03*
X0126333Y0197909D03*
X0151333Y0169159D03*
X0162583Y0171659D03*
X0167583Y0171659D03*
X0172583Y0171659D03*
X0172583Y0166659D03*
X0172583Y0161659D03*
X0173833Y0144159D03*
X0190083Y0151659D03*
X0190083Y0156659D03*
X0190083Y0161659D03*
X0186333Y0194159D03*
X0181333Y0194159D03*
X0196333Y0197909D03*
X0201333Y0197909D03*
X0201333Y0202909D03*
X0196333Y0202909D03*
X0206333Y0202909D03*
X0206333Y0197909D03*
X0211333Y0194159D03*
X0216333Y0194159D03*
X0230083Y0181659D03*
X0235083Y0181659D03*
X0240083Y0181659D03*
X0240083Y0186659D03*
X0240083Y0191659D03*
X0245083Y0191659D03*
X0245083Y0186659D03*
X0245083Y0181659D03*
X0250083Y0181659D03*
X0250083Y0186659D03*
X0250083Y0191659D03*
X0262583Y0189159D03*
X0267583Y0189159D03*
X0271333Y0171659D03*
X0271333Y0166659D03*
X0255083Y0171659D03*
X0255083Y0207909D03*
X0223833Y0225409D03*
X0218833Y0227909D03*
X0218833Y0232909D03*
X0223833Y0230409D03*
X0223833Y0235409D03*
X0223833Y0240409D03*
X0218833Y0237909D03*
X0218833Y0242909D03*
X0223833Y0245409D03*
X0258833Y0272909D03*
D33*
X0258833Y0211659D01*
X0255083Y0207909D01*
X0248676Y0207909D02*
X0255083Y0201502D01*
X0255083Y0199159D01*
X0255241Y0199002D01*
X0265083Y0199002D01*
X0265083Y0199159D01*
X0255083Y0199159D02*
X0255083Y0197093D01*
X0248676Y0207909D02*
X0233833Y0207909D01*
X0233833Y0207309D01*
X0233833Y0207909D02*
X0213184Y0207909D01*
X0212583Y0207309D01*
X0213184Y0207909D02*
X0201333Y0207909D01*
X0201333Y0213343D01*
X0201333Y0207909D02*
X0185083Y0207909D01*
X0151333Y0207909D01*
X0142583Y0207909D01*
X0142583Y0207309D01*
X0142583Y0207909D02*
X0131333Y0207909D01*
X0131333Y0213343D01*
X0131333Y0207909D02*
X0115083Y0207909D01*
X0110083Y0207909D01*
X0100083Y0217909D01*
X0094434Y0217909D01*
X0093833Y0217309D01*
X0250733Y0169159D02*
X0255083Y0169159D01*
X0259434Y0169159D01*
X0255083Y0169159D02*
X0255083Y0171659D01*
X0255083Y0176226D01*
D34*
X0228833Y0220409D02*
X0208833Y0220409D01*
X0206333Y0217909D01*
X0206333Y0213343D01*
X0196333Y0213343D02*
X0196333Y0219159D01*
X0195083Y0220409D01*
X0192583Y0220409D01*
X0190605Y0222388D01*
X0190605Y0225409D01*
X0185083Y0207909D02*
X0185083Y0207309D01*
X0150605Y0222181D02*
X0150605Y0225409D01*
X0150605Y0222181D02*
X0148833Y0220409D01*
X0137583Y0220409D01*
X0136333Y0219159D01*
X0136333Y0213343D01*
X0126333Y0213343D02*
X0126333Y0219159D01*
X0125083Y0220409D01*
X0112583Y0220409D01*
X0110605Y0222388D01*
X0110605Y0225409D01*
X0115083Y0207909D02*
X0115083Y0207309D01*
X0093833Y0217309D02*
X0093361Y0217781D01*
X0086333Y0217781D01*
X0086333Y0224159D01*
X0083233Y0227260D01*
X0083233Y0231659D01*
X0086333Y0217781D02*
X0086333Y0210409D01*
X0083833Y0207909D01*
X0053833Y0207909D01*
X0043233Y0218510D01*
X0038833Y0218510D01*
X0034434Y0218510D01*
X0032583Y0216659D01*
X0013833Y0216659D01*
X0116983Y0105409D02*
X0116333Y0104760D01*
X0116983Y0105409D02*
X0121333Y0105409D01*
X0121333Y0110409D01*
X0123184Y0112260D01*
X0127583Y0112260D01*
X0121333Y0096659D02*
X0123233Y0094760D01*
X0127583Y0094760D01*
X0127583Y0091659D01*
X0128833Y0090409D01*
X0146333Y0090409D01*
X0152583Y0096659D01*
X0152583Y0139159D01*
X0153833Y0140409D01*
X0153833Y0150409D01*
X0151333Y0152909D01*
X0151333Y0169159D01*
X0131333Y0144159D02*
X0126983Y0144159D01*
X0126983Y0136659D01*
X0127583Y0136059D01*
X0133833Y0139159D02*
X0133833Y0141659D01*
X0131333Y0144159D01*
X0133833Y0139159D02*
X0136333Y0136659D01*
X0141461Y0136659D01*
X0141461Y0130931D01*
X0141983Y0130409D01*
X0152583Y0096659D02*
X0158833Y0090409D01*
X0176333Y0090409D01*
X0177583Y0091659D01*
X0177583Y0094760D01*
X0181934Y0094760D01*
X0183833Y0096659D01*
X0183833Y0105409D02*
X0188184Y0105409D01*
X0188833Y0104760D01*
X0183833Y0105409D02*
X0183833Y0110409D01*
X0181983Y0112260D01*
X0177583Y0112260D01*
X0177583Y0136059D02*
X0178184Y0136659D01*
X0178184Y0144159D01*
X0173833Y0144159D01*
X0228833Y0220409D02*
X0230605Y0222181D01*
X0230605Y0225409D01*
D35*
X0233833Y0201010D02*
X0233833Y0196659D01*
X0234266Y0197093D01*
X0240083Y0197093D01*
X0233833Y0196659D02*
X0233833Y0193559D01*
X0231333Y0176659D02*
X0216520Y0176659D01*
X0212583Y0175409D02*
X0211333Y0176659D01*
X0202583Y0176659D01*
X0201333Y0177909D01*
X0097583Y0177909D01*
X0100083Y0175409D02*
X0153833Y0175409D01*
X0157583Y0171659D01*
X0157583Y0162909D01*
X0158833Y0161659D01*
X0163705Y0161659D01*
X0163705Y0156659D02*
X0172583Y0156659D01*
X0175083Y0159159D01*
X0178184Y0159159D01*
X0178184Y0151659D01*
X0184483Y0151659D02*
X0184483Y0144159D01*
X0185083Y0143559D01*
X0185083Y0136581D01*
X0185083Y0126738D02*
X0185083Y0122909D01*
X0188833Y0119159D01*
X0230083Y0119159D01*
X0231333Y0120409D01*
X0231333Y0124199D01*
X0231461Y0124327D01*
X0231461Y0156807D01*
X0231314Y0156659D01*
X0226333Y0156659D01*
X0223912Y0159081D01*
X0223912Y0165409D01*
X0223912Y0171659D02*
X0215083Y0171659D01*
X0212583Y0174159D01*
X0212583Y0175409D01*
X0208843Y0180400D02*
X0208646Y0180400D01*
X0203843Y0180400D01*
X0203833Y0180409D01*
X0197583Y0180409D02*
X0100083Y0180409D01*
X0098833Y0181659D01*
X0096333Y0181659D01*
X0093833Y0179159D01*
X0072583Y0179159D01*
X0061333Y0190409D01*
X0061333Y0195537D01*
X0056333Y0195537D02*
X0056333Y0190409D01*
X0070083Y0176659D01*
X0093833Y0176659D01*
X0096333Y0174159D01*
X0098833Y0174159D01*
X0100083Y0175409D01*
X0101333Y0172909D02*
X0100083Y0171659D01*
X0093833Y0171659D01*
X0092583Y0172909D01*
X0081333Y0172909D01*
X0080083Y0169159D02*
X0076333Y0172909D01*
X0080083Y0169159D02*
X0101333Y0169159D01*
X0102583Y0170409D01*
X0146333Y0170409D01*
X0147583Y0169159D01*
X0147583Y0157909D01*
X0146333Y0156659D01*
X0141461Y0156659D01*
X0141461Y0161659D02*
X0137583Y0161659D01*
X0135083Y0159159D01*
X0126983Y0159159D01*
X0126983Y0151659D01*
X0120684Y0151659D02*
X0120684Y0144159D01*
X0120083Y0143559D01*
X0120083Y0136581D01*
X0115083Y0144159D02*
X0097583Y0161659D01*
X0071333Y0161659D01*
X0058833Y0174159D01*
X0058833Y0182909D01*
X0062583Y0179159D02*
X0062583Y0174159D01*
X0072583Y0164159D01*
X0131333Y0164159D01*
X0132583Y0162909D01*
X0135083Y0155409D02*
X0135083Y0149159D01*
X0137583Y0146659D01*
X0141461Y0146659D01*
X0141461Y0141659D02*
X0146333Y0141659D01*
X0147583Y0140409D01*
X0147583Y0114159D01*
X0145684Y0112260D01*
X0142583Y0112260D01*
X0135083Y0112260D01*
X0135083Y0118559D02*
X0127583Y0118559D01*
X0119483Y0118559D01*
X0117583Y0116659D01*
X0087583Y0116659D01*
X0073981Y0103057D01*
X0073981Y0099720D01*
X0093666Y0099720D02*
X0095005Y0101059D01*
X0127583Y0101059D01*
X0127583Y0100970D01*
X0127583Y0101059D02*
X0135083Y0101059D01*
X0135083Y0094760D02*
X0142583Y0094760D01*
X0146934Y0094760D01*
X0150083Y0097909D01*
X0150083Y0149159D01*
X0147583Y0151659D01*
X0141461Y0151659D01*
X0155083Y0155409D02*
X0155083Y0170409D01*
X0152583Y0172909D01*
X0101333Y0172909D01*
X0101333Y0182909D02*
X0100083Y0184159D01*
X0095083Y0184159D01*
X0092583Y0181659D01*
X0075083Y0181659D01*
X0066333Y0190409D01*
X0066333Y0195537D01*
X0071333Y0195537D02*
X0071333Y0190409D01*
X0077583Y0184159D01*
X0091333Y0184159D01*
X0093833Y0186659D01*
X0101333Y0186659D01*
X0102583Y0185409D01*
X0132583Y0185409D01*
X0136333Y0189159D01*
X0136333Y0192476D01*
X0140083Y0186659D02*
X0141333Y0185409D01*
X0190083Y0185409D01*
X0191333Y0186659D01*
X0192583Y0182909D02*
X0101333Y0182909D01*
X0103833Y0187909D02*
X0102583Y0189159D01*
X0092583Y0189159D01*
X0090083Y0186659D01*
X0080083Y0186659D01*
X0076333Y0190409D01*
X0076333Y0195537D01*
X0076333Y0200409D01*
X0075083Y0201659D01*
X0053833Y0201659D01*
X0038833Y0186659D01*
X0013833Y0186659D01*
X0013833Y0196659D02*
X0045083Y0196659D01*
X0052583Y0204159D01*
X0080083Y0204159D01*
X0081333Y0202909D01*
X0081333Y0195537D01*
X0081333Y0190409D01*
X0082583Y0189159D01*
X0088833Y0189159D01*
X0091333Y0191659D01*
X0117583Y0191659D01*
X0125083Y0187909D02*
X0103833Y0187909D01*
X0125083Y0187909D02*
X0126333Y0189159D01*
X0126333Y0192476D01*
X0141461Y0166659D02*
X0075083Y0166659D01*
X0066333Y0175409D01*
X0093666Y0156807D02*
X0093666Y0124327D01*
X0093666Y0120577D01*
X0095083Y0119159D01*
X0116333Y0119159D01*
X0120083Y0122909D01*
X0120083Y0126738D01*
X0141127Y0136659D02*
X0141461Y0136659D01*
X0155083Y0136659D02*
X0157583Y0139159D01*
X0157583Y0145409D01*
X0158833Y0146659D01*
X0163705Y0146659D01*
X0163705Y0141659D02*
X0168833Y0141659D01*
X0170083Y0142909D01*
X0170083Y0147909D01*
X0163705Y0151659D02*
X0158833Y0151659D01*
X0155083Y0155409D01*
X0155083Y0136659D02*
X0155083Y0097909D01*
X0158233Y0094760D01*
X0162583Y0094760D01*
X0170083Y0094760D01*
X0170083Y0101059D02*
X0177583Y0101059D01*
X0210438Y0101059D01*
X0211776Y0099720D01*
X0217583Y0116659D02*
X0231461Y0102781D01*
X0231461Y0099720D01*
X0217583Y0116659D02*
X0187583Y0116659D01*
X0185684Y0118559D01*
X0177583Y0118559D01*
X0170083Y0118559D01*
X0170083Y0112260D02*
X0162583Y0112260D01*
X0159483Y0112260D01*
X0157583Y0114159D01*
X0157583Y0135409D01*
X0158833Y0136659D01*
X0163705Y0136659D01*
X0177583Y0101059D02*
X0177583Y0100970D01*
X0233755Y0165409D02*
X0233755Y0171659D01*
X0233833Y0171738D01*
X0240005Y0171738D01*
X0240083Y0171659D01*
X0240083Y0176226D01*
X0240083Y0171659D02*
X0240083Y0170409D01*
X0241333Y0169159D01*
X0244434Y0169159D01*
X0233833Y0171738D02*
X0233833Y0174159D01*
X0231333Y0176659D01*
X0206333Y0189159D02*
X0197583Y0180409D01*
X0192583Y0182909D02*
X0196333Y0186659D01*
X0196333Y0192476D01*
X0206333Y0192476D02*
X0206333Y0189159D01*
X0081333Y0211659D02*
X0081333Y0217781D01*
X0076333Y0217781D02*
X0076333Y0211659D01*
X0071333Y0217781D02*
X0071333Y0222909D01*
X0069434Y0224809D01*
X0038833Y0224809D01*
X0034434Y0224809D01*
X0032583Y0226659D01*
X0013833Y0226659D01*
X0056333Y0217781D02*
X0056333Y0214159D01*
X0058833Y0211659D01*
X0061333Y0214159D02*
X0062583Y0212909D01*
X0062583Y0211659D01*
X0061333Y0214159D02*
X0061333Y0217781D01*
X0066333Y0217781D02*
X0066333Y0211659D01*
X0068233Y0231659D02*
X0076934Y0231659D01*
D36*
X0076333Y0211659D03*
X0081333Y0211659D03*
X0066333Y0211659D03*
X0062583Y0211659D03*
X0058833Y0211659D03*
X0058833Y0182909D03*
X0062583Y0179159D03*
X0066333Y0175409D03*
X0076333Y0172909D03*
X0081333Y0172909D03*
X0097583Y0177909D03*
X0117583Y0191659D03*
X0140083Y0186659D03*
X0132583Y0162909D03*
X0135083Y0155409D03*
X0115083Y0144159D03*
X0170083Y0147909D03*
X0203833Y0180409D03*
X0191333Y0186659D03*
M02*
