G75*
%MOIN*%
%OFA0B0*%
%FSLAX25Y25*%
%IPPOS*%
%LPD*%
%AMOC8*
5,1,8,0,0,1.08239X$1,22.5*
%
%ADD10C,0.00591*%
%ADD11C,0.01000*%
%ADD12C,0.00700*%
%ADD13C,0.00600*%
D10*
X0070044Y0052476D02*
X0070044Y0080035D01*
X0097603Y0080035D01*
X0097603Y0052476D01*
X0095635Y0052476D01*
X0095635Y0003264D01*
X0093666Y0001295D01*
X0073981Y0001295D01*
X0072012Y0003264D01*
X0072012Y0052476D01*
X0070044Y0052476D01*
X0072012Y0052476D02*
X0095635Y0052476D01*
X0097603Y0080035D02*
X0103509Y0080035D01*
X0103509Y0131217D01*
X0064138Y0131217D01*
X0064138Y0080035D01*
X0070044Y0080035D01*
X0112987Y0101807D02*
X0119680Y0101807D01*
X0119680Y0114012D01*
X0112987Y0114012D01*
X0112987Y0101807D01*
X0124237Y0104012D02*
X0124237Y0091807D01*
X0130930Y0091807D01*
X0130930Y0104012D01*
X0124237Y0104012D01*
X0124237Y0109307D02*
X0130930Y0109307D01*
X0130930Y0121512D01*
X0124237Y0121512D01*
X0124237Y0109307D01*
X0131737Y0109307D02*
X0138430Y0109307D01*
X0138430Y0121512D01*
X0131737Y0121512D01*
X0131737Y0109307D01*
X0131737Y0104012D02*
X0138430Y0104012D01*
X0138430Y0091807D01*
X0131737Y0091807D01*
X0131737Y0104012D01*
X0139237Y0104012D02*
X0145930Y0104012D01*
X0145930Y0091807D01*
X0139237Y0091807D01*
X0139237Y0104012D01*
X0139237Y0109307D02*
X0145930Y0109307D01*
X0145930Y0121512D01*
X0139237Y0121512D01*
X0139237Y0109307D01*
X0144936Y0127063D02*
X0132731Y0127063D01*
X0132731Y0133756D01*
X0144936Y0133756D01*
X0144936Y0127063D01*
X0146087Y0134435D02*
X0146087Y0168884D01*
X0159079Y0168884D01*
X0159079Y0134435D01*
X0146087Y0134435D01*
X0154930Y0137284D02*
X0154932Y0137367D01*
X0154938Y0137451D01*
X0154948Y0137534D01*
X0154961Y0137616D01*
X0154979Y0137698D01*
X0155001Y0137778D01*
X0155026Y0137858D01*
X0155055Y0137936D01*
X0155087Y0138013D01*
X0155124Y0138089D01*
X0155163Y0138162D01*
X0155207Y0138233D01*
X0155253Y0138303D01*
X0155303Y0138370D01*
X0155356Y0138435D01*
X0155411Y0138497D01*
X0155470Y0138556D01*
X0155532Y0138613D01*
X0155596Y0138666D01*
X0155662Y0138717D01*
X0155731Y0138764D01*
X0155802Y0138808D01*
X0155875Y0138849D01*
X0155950Y0138886D01*
X0156026Y0138919D01*
X0156104Y0138949D01*
X0156184Y0138975D01*
X0156264Y0138998D01*
X0156345Y0139016D01*
X0156428Y0139031D01*
X0156510Y0139042D01*
X0156594Y0139049D01*
X0156677Y0139052D01*
X0156761Y0139051D01*
X0156844Y0139046D01*
X0156927Y0139037D01*
X0157010Y0139024D01*
X0157091Y0139008D01*
X0157172Y0138987D01*
X0157252Y0138963D01*
X0157331Y0138935D01*
X0157408Y0138903D01*
X0157484Y0138868D01*
X0157558Y0138829D01*
X0157630Y0138787D01*
X0157700Y0138741D01*
X0157767Y0138692D01*
X0157833Y0138640D01*
X0157895Y0138585D01*
X0157956Y0138527D01*
X0158013Y0138466D01*
X0158067Y0138403D01*
X0158118Y0138337D01*
X0158167Y0138268D01*
X0158211Y0138198D01*
X0158253Y0138125D01*
X0158291Y0138051D01*
X0158325Y0137975D01*
X0158356Y0137897D01*
X0158383Y0137818D01*
X0158407Y0137738D01*
X0158426Y0137657D01*
X0158442Y0137575D01*
X0158454Y0137492D01*
X0158462Y0137409D01*
X0158466Y0137326D01*
X0158466Y0137242D01*
X0158462Y0137159D01*
X0158454Y0137076D01*
X0158442Y0136993D01*
X0158426Y0136911D01*
X0158407Y0136830D01*
X0158383Y0136750D01*
X0158356Y0136671D01*
X0158325Y0136593D01*
X0158291Y0136517D01*
X0158253Y0136443D01*
X0158211Y0136370D01*
X0158167Y0136300D01*
X0158118Y0136231D01*
X0158067Y0136165D01*
X0158013Y0136102D01*
X0157956Y0136041D01*
X0157895Y0135983D01*
X0157833Y0135928D01*
X0157767Y0135876D01*
X0157700Y0135827D01*
X0157630Y0135781D01*
X0157558Y0135739D01*
X0157484Y0135700D01*
X0157408Y0135665D01*
X0157331Y0135633D01*
X0157252Y0135605D01*
X0157172Y0135581D01*
X0157091Y0135560D01*
X0157010Y0135544D01*
X0156927Y0135531D01*
X0156844Y0135522D01*
X0156761Y0135517D01*
X0156677Y0135516D01*
X0156594Y0135519D01*
X0156510Y0135526D01*
X0156428Y0135537D01*
X0156345Y0135552D01*
X0156264Y0135570D01*
X0156184Y0135593D01*
X0156104Y0135619D01*
X0156026Y0135649D01*
X0155950Y0135682D01*
X0155875Y0135719D01*
X0155802Y0135760D01*
X0155731Y0135804D01*
X0155662Y0135851D01*
X0155596Y0135902D01*
X0155532Y0135955D01*
X0155470Y0136012D01*
X0155411Y0136071D01*
X0155356Y0136133D01*
X0155303Y0136198D01*
X0155253Y0136265D01*
X0155207Y0136335D01*
X0155163Y0136406D01*
X0155124Y0136479D01*
X0155087Y0136555D01*
X0155055Y0136632D01*
X0155026Y0136710D01*
X0155001Y0136790D01*
X0154979Y0136870D01*
X0154961Y0136952D01*
X0154948Y0137034D01*
X0154938Y0137117D01*
X0154932Y0137201D01*
X0154930Y0137284D01*
X0159237Y0121512D02*
X0165930Y0121512D01*
X0165930Y0109307D01*
X0159237Y0109307D01*
X0159237Y0121512D01*
X0166737Y0121512D02*
X0166737Y0109307D01*
X0173430Y0109307D01*
X0173430Y0121512D01*
X0166737Y0121512D01*
X0174237Y0121512D02*
X0174237Y0109307D01*
X0180930Y0109307D01*
X0180930Y0121512D01*
X0174237Y0121512D01*
X0174237Y0126807D02*
X0180930Y0126807D01*
X0180930Y0139012D01*
X0174237Y0139012D01*
X0174237Y0126807D01*
X0182721Y0129297D02*
X0182721Y0124179D01*
X0187446Y0124179D01*
X0187446Y0129297D01*
X0182721Y0129297D01*
X0182721Y0132447D01*
X0187446Y0132447D01*
X0185083Y0129297D01*
X0182721Y0132447D01*
X0182721Y0139140D01*
X0187446Y0139140D01*
X0187446Y0132447D01*
X0187446Y0129297D01*
X0187436Y0140813D02*
X0175231Y0140813D01*
X0175231Y0147506D01*
X0187436Y0147506D01*
X0187436Y0140813D01*
X0187436Y0148313D02*
X0187436Y0155006D01*
X0175231Y0155006D01*
X0175231Y0148313D01*
X0187436Y0148313D01*
X0187436Y0155813D02*
X0187436Y0162506D01*
X0175231Y0162506D01*
X0175231Y0155813D01*
X0187436Y0155813D01*
X0205890Y0170754D02*
X0205890Y0175085D01*
X0210221Y0175085D01*
X0210221Y0178234D01*
X0205890Y0178234D01*
X0205890Y0182565D01*
X0214946Y0182565D01*
X0214946Y0179022D01*
X0219276Y0179022D01*
X0219276Y0174297D01*
X0214946Y0174297D01*
X0214946Y0170754D01*
X0205890Y0170754D01*
X0221353Y0169297D02*
X0221353Y0174022D01*
X0226471Y0174022D01*
X0226471Y0169297D01*
X0221353Y0169297D01*
X0221353Y0167772D02*
X0221353Y0163047D01*
X0226471Y0163047D01*
X0226471Y0167772D01*
X0229621Y0167772D01*
X0229621Y0163047D01*
X0226471Y0165409D01*
X0229621Y0167772D01*
X0236314Y0167772D01*
X0236314Y0163047D01*
X0229621Y0163047D01*
X0226471Y0163047D01*
X0226471Y0167772D02*
X0221353Y0167772D01*
X0226471Y0169297D02*
X0229621Y0169297D01*
X0226471Y0171659D01*
X0229621Y0174022D01*
X0229621Y0169297D01*
X0236314Y0169297D01*
X0236314Y0174022D01*
X0229621Y0174022D01*
X0226471Y0174022D01*
X0230487Y0184307D02*
X0237180Y0184307D01*
X0237180Y0196512D01*
X0230487Y0196512D01*
X0230487Y0184307D01*
X0238135Y0179573D02*
X0238135Y0193746D01*
X0257032Y0193746D01*
X0257032Y0179573D01*
X0238135Y0179573D01*
X0241481Y0172506D02*
X0241481Y0165813D01*
X0253686Y0165813D01*
X0253686Y0172506D01*
X0241481Y0172506D01*
X0256481Y0172506D02*
X0256481Y0165813D01*
X0268686Y0165813D01*
X0268686Y0172506D01*
X0256481Y0172506D01*
X0258784Y0173805D02*
X0258784Y0204514D01*
X0271383Y0204514D01*
X0271383Y0173805D01*
X0258784Y0173805D01*
X0252909Y0191384D02*
X0252911Y0191468D01*
X0252917Y0191551D01*
X0252927Y0191635D01*
X0252941Y0191717D01*
X0252959Y0191799D01*
X0252980Y0191880D01*
X0253006Y0191960D01*
X0253035Y0192038D01*
X0253068Y0192116D01*
X0253105Y0192191D01*
X0253145Y0192264D01*
X0253189Y0192336D01*
X0253236Y0192405D01*
X0253286Y0192473D01*
X0253339Y0192537D01*
X0253396Y0192599D01*
X0253455Y0192658D01*
X0253517Y0192715D01*
X0253581Y0192768D01*
X0253649Y0192818D01*
X0253718Y0192865D01*
X0253789Y0192909D01*
X0253863Y0192949D01*
X0253938Y0192986D01*
X0254016Y0193019D01*
X0254094Y0193048D01*
X0254174Y0193074D01*
X0254255Y0193095D01*
X0254337Y0193113D01*
X0254419Y0193127D01*
X0254503Y0193137D01*
X0254586Y0193143D01*
X0254670Y0193145D01*
X0254754Y0193143D01*
X0254837Y0193137D01*
X0254921Y0193127D01*
X0255003Y0193113D01*
X0255085Y0193095D01*
X0255166Y0193074D01*
X0255246Y0193048D01*
X0255324Y0193019D01*
X0255402Y0192986D01*
X0255477Y0192949D01*
X0255550Y0192909D01*
X0255622Y0192865D01*
X0255691Y0192818D01*
X0255759Y0192768D01*
X0255823Y0192715D01*
X0255885Y0192658D01*
X0255944Y0192599D01*
X0256001Y0192537D01*
X0256054Y0192473D01*
X0256104Y0192405D01*
X0256151Y0192336D01*
X0256195Y0192265D01*
X0256235Y0192191D01*
X0256272Y0192116D01*
X0256305Y0192038D01*
X0256334Y0191960D01*
X0256360Y0191880D01*
X0256381Y0191799D01*
X0256399Y0191717D01*
X0256413Y0191635D01*
X0256423Y0191551D01*
X0256429Y0191468D01*
X0256431Y0191384D01*
X0256429Y0191300D01*
X0256423Y0191217D01*
X0256413Y0191133D01*
X0256399Y0191051D01*
X0256381Y0190969D01*
X0256360Y0190888D01*
X0256334Y0190808D01*
X0256305Y0190730D01*
X0256272Y0190652D01*
X0256235Y0190577D01*
X0256195Y0190504D01*
X0256151Y0190432D01*
X0256104Y0190363D01*
X0256054Y0190295D01*
X0256001Y0190231D01*
X0255944Y0190169D01*
X0255885Y0190110D01*
X0255823Y0190053D01*
X0255759Y0190000D01*
X0255691Y0189950D01*
X0255622Y0189903D01*
X0255551Y0189859D01*
X0255477Y0189819D01*
X0255402Y0189782D01*
X0255324Y0189749D01*
X0255246Y0189720D01*
X0255166Y0189694D01*
X0255085Y0189673D01*
X0255003Y0189655D01*
X0254921Y0189641D01*
X0254837Y0189631D01*
X0254754Y0189625D01*
X0254670Y0189623D01*
X0254586Y0189625D01*
X0254503Y0189631D01*
X0254419Y0189641D01*
X0254337Y0189655D01*
X0254255Y0189673D01*
X0254174Y0189694D01*
X0254094Y0189720D01*
X0254016Y0189749D01*
X0253938Y0189782D01*
X0253863Y0189819D01*
X0253790Y0189859D01*
X0253718Y0189903D01*
X0253649Y0189950D01*
X0253581Y0190000D01*
X0253517Y0190053D01*
X0253455Y0190110D01*
X0253396Y0190169D01*
X0253339Y0190231D01*
X0253286Y0190295D01*
X0253236Y0190363D01*
X0253189Y0190432D01*
X0253145Y0190503D01*
X0253105Y0190577D01*
X0253068Y0190652D01*
X0253035Y0190730D01*
X0253006Y0190808D01*
X0252980Y0190888D01*
X0252959Y0190969D01*
X0252941Y0191051D01*
X0252927Y0191133D01*
X0252917Y0191217D01*
X0252911Y0191300D01*
X0252909Y0191384D01*
X0237180Y0198057D02*
X0237180Y0210262D01*
X0230487Y0210262D01*
X0230487Y0198057D01*
X0237180Y0198057D01*
X0215930Y0198057D02*
X0209237Y0198057D01*
X0209237Y0210262D01*
X0215930Y0210262D01*
X0215930Y0198057D01*
X0208282Y0195823D02*
X0208282Y0209996D01*
X0189385Y0209996D01*
X0189385Y0195823D01*
X0208282Y0195823D01*
X0189986Y0198185D02*
X0189988Y0198269D01*
X0189994Y0198352D01*
X0190004Y0198436D01*
X0190018Y0198518D01*
X0190036Y0198600D01*
X0190057Y0198681D01*
X0190083Y0198761D01*
X0190112Y0198839D01*
X0190145Y0198917D01*
X0190182Y0198992D01*
X0190222Y0199065D01*
X0190266Y0199137D01*
X0190313Y0199206D01*
X0190363Y0199274D01*
X0190416Y0199338D01*
X0190473Y0199400D01*
X0190532Y0199459D01*
X0190594Y0199516D01*
X0190658Y0199569D01*
X0190726Y0199619D01*
X0190795Y0199666D01*
X0190866Y0199710D01*
X0190940Y0199750D01*
X0191015Y0199787D01*
X0191093Y0199820D01*
X0191171Y0199849D01*
X0191251Y0199875D01*
X0191332Y0199896D01*
X0191414Y0199914D01*
X0191496Y0199928D01*
X0191580Y0199938D01*
X0191663Y0199944D01*
X0191747Y0199946D01*
X0191831Y0199944D01*
X0191914Y0199938D01*
X0191998Y0199928D01*
X0192080Y0199914D01*
X0192162Y0199896D01*
X0192243Y0199875D01*
X0192323Y0199849D01*
X0192401Y0199820D01*
X0192479Y0199787D01*
X0192554Y0199750D01*
X0192627Y0199710D01*
X0192699Y0199666D01*
X0192768Y0199619D01*
X0192836Y0199569D01*
X0192900Y0199516D01*
X0192962Y0199459D01*
X0193021Y0199400D01*
X0193078Y0199338D01*
X0193131Y0199274D01*
X0193181Y0199206D01*
X0193228Y0199137D01*
X0193272Y0199066D01*
X0193312Y0198992D01*
X0193349Y0198917D01*
X0193382Y0198839D01*
X0193411Y0198761D01*
X0193437Y0198681D01*
X0193458Y0198600D01*
X0193476Y0198518D01*
X0193490Y0198436D01*
X0193500Y0198352D01*
X0193506Y0198269D01*
X0193508Y0198185D01*
X0193506Y0198101D01*
X0193500Y0198018D01*
X0193490Y0197934D01*
X0193476Y0197852D01*
X0193458Y0197770D01*
X0193437Y0197689D01*
X0193411Y0197609D01*
X0193382Y0197531D01*
X0193349Y0197453D01*
X0193312Y0197378D01*
X0193272Y0197305D01*
X0193228Y0197233D01*
X0193181Y0197164D01*
X0193131Y0197096D01*
X0193078Y0197032D01*
X0193021Y0196970D01*
X0192962Y0196911D01*
X0192900Y0196854D01*
X0192836Y0196801D01*
X0192768Y0196751D01*
X0192699Y0196704D01*
X0192628Y0196660D01*
X0192554Y0196620D01*
X0192479Y0196583D01*
X0192401Y0196550D01*
X0192323Y0196521D01*
X0192243Y0196495D01*
X0192162Y0196474D01*
X0192080Y0196456D01*
X0191998Y0196442D01*
X0191914Y0196432D01*
X0191831Y0196426D01*
X0191747Y0196424D01*
X0191663Y0196426D01*
X0191580Y0196432D01*
X0191496Y0196442D01*
X0191414Y0196456D01*
X0191332Y0196474D01*
X0191251Y0196495D01*
X0191171Y0196521D01*
X0191093Y0196550D01*
X0191015Y0196583D01*
X0190940Y0196620D01*
X0190867Y0196660D01*
X0190795Y0196704D01*
X0190726Y0196751D01*
X0190658Y0196801D01*
X0190594Y0196854D01*
X0190532Y0196911D01*
X0190473Y0196970D01*
X0190416Y0197032D01*
X0190363Y0197096D01*
X0190313Y0197164D01*
X0190266Y0197233D01*
X0190222Y0197304D01*
X0190182Y0197378D01*
X0190145Y0197453D01*
X0190112Y0197531D01*
X0190083Y0197609D01*
X0190057Y0197689D01*
X0190036Y0197770D01*
X0190018Y0197852D01*
X0190004Y0197934D01*
X0189994Y0198018D01*
X0189988Y0198101D01*
X0189986Y0198185D01*
X0188430Y0198057D02*
X0181737Y0198057D01*
X0181737Y0210262D01*
X0188430Y0210262D01*
X0188430Y0198057D01*
X0194247Y0222673D02*
X0214325Y0222673D01*
X0215900Y0224248D01*
X0215900Y0241571D01*
X0214325Y0243146D01*
X0194247Y0243146D01*
X0194247Y0222673D01*
X0175900Y0224248D02*
X0175900Y0241571D01*
X0174325Y0243146D01*
X0154247Y0243146D01*
X0154247Y0222673D01*
X0174325Y0222673D01*
X0175900Y0224248D01*
X0145930Y0210262D02*
X0145930Y0198057D01*
X0139237Y0198057D01*
X0139237Y0210262D01*
X0145930Y0210262D01*
X0138282Y0209996D02*
X0138282Y0195823D01*
X0119385Y0195823D01*
X0119385Y0209996D01*
X0138282Y0209996D01*
X0134325Y0222673D02*
X0135900Y0224248D01*
X0135900Y0241571D01*
X0134325Y0243146D01*
X0114247Y0243146D01*
X0114247Y0222673D01*
X0134325Y0222673D01*
X0118430Y0210262D02*
X0111737Y0210262D01*
X0111737Y0198057D01*
X0118430Y0198057D01*
X0118430Y0210262D01*
X0119986Y0198185D02*
X0119988Y0198269D01*
X0119994Y0198352D01*
X0120004Y0198436D01*
X0120018Y0198518D01*
X0120036Y0198600D01*
X0120057Y0198681D01*
X0120083Y0198761D01*
X0120112Y0198839D01*
X0120145Y0198917D01*
X0120182Y0198992D01*
X0120222Y0199065D01*
X0120266Y0199137D01*
X0120313Y0199206D01*
X0120363Y0199274D01*
X0120416Y0199338D01*
X0120473Y0199400D01*
X0120532Y0199459D01*
X0120594Y0199516D01*
X0120658Y0199569D01*
X0120726Y0199619D01*
X0120795Y0199666D01*
X0120866Y0199710D01*
X0120940Y0199750D01*
X0121015Y0199787D01*
X0121093Y0199820D01*
X0121171Y0199849D01*
X0121251Y0199875D01*
X0121332Y0199896D01*
X0121414Y0199914D01*
X0121496Y0199928D01*
X0121580Y0199938D01*
X0121663Y0199944D01*
X0121747Y0199946D01*
X0121831Y0199944D01*
X0121914Y0199938D01*
X0121998Y0199928D01*
X0122080Y0199914D01*
X0122162Y0199896D01*
X0122243Y0199875D01*
X0122323Y0199849D01*
X0122401Y0199820D01*
X0122479Y0199787D01*
X0122554Y0199750D01*
X0122627Y0199710D01*
X0122699Y0199666D01*
X0122768Y0199619D01*
X0122836Y0199569D01*
X0122900Y0199516D01*
X0122962Y0199459D01*
X0123021Y0199400D01*
X0123078Y0199338D01*
X0123131Y0199274D01*
X0123181Y0199206D01*
X0123228Y0199137D01*
X0123272Y0199066D01*
X0123312Y0198992D01*
X0123349Y0198917D01*
X0123382Y0198839D01*
X0123411Y0198761D01*
X0123437Y0198681D01*
X0123458Y0198600D01*
X0123476Y0198518D01*
X0123490Y0198436D01*
X0123500Y0198352D01*
X0123506Y0198269D01*
X0123508Y0198185D01*
X0123506Y0198101D01*
X0123500Y0198018D01*
X0123490Y0197934D01*
X0123476Y0197852D01*
X0123458Y0197770D01*
X0123437Y0197689D01*
X0123411Y0197609D01*
X0123382Y0197531D01*
X0123349Y0197453D01*
X0123312Y0197378D01*
X0123272Y0197305D01*
X0123228Y0197233D01*
X0123181Y0197164D01*
X0123131Y0197096D01*
X0123078Y0197032D01*
X0123021Y0196970D01*
X0122962Y0196911D01*
X0122900Y0196854D01*
X0122836Y0196801D01*
X0122768Y0196751D01*
X0122699Y0196704D01*
X0122628Y0196660D01*
X0122554Y0196620D01*
X0122479Y0196583D01*
X0122401Y0196550D01*
X0122323Y0196521D01*
X0122243Y0196495D01*
X0122162Y0196474D01*
X0122080Y0196456D01*
X0121998Y0196442D01*
X0121914Y0196432D01*
X0121831Y0196426D01*
X0121747Y0196424D01*
X0121663Y0196426D01*
X0121580Y0196432D01*
X0121496Y0196442D01*
X0121414Y0196456D01*
X0121332Y0196474D01*
X0121251Y0196495D01*
X0121171Y0196521D01*
X0121093Y0196550D01*
X0121015Y0196583D01*
X0120940Y0196620D01*
X0120867Y0196660D01*
X0120795Y0196704D01*
X0120726Y0196751D01*
X0120658Y0196801D01*
X0120594Y0196854D01*
X0120532Y0196911D01*
X0120473Y0196970D01*
X0120416Y0197032D01*
X0120363Y0197096D01*
X0120313Y0197164D01*
X0120266Y0197233D01*
X0120222Y0197304D01*
X0120182Y0197378D01*
X0120145Y0197453D01*
X0120112Y0197531D01*
X0120083Y0197609D01*
X0120057Y0197689D01*
X0120036Y0197770D01*
X0120018Y0197852D01*
X0120004Y0197934D01*
X0119994Y0198018D01*
X0119988Y0198101D01*
X0119986Y0198185D01*
X0097180Y0208057D02*
X0090487Y0208057D01*
X0090487Y0220262D01*
X0097180Y0220262D01*
X0097180Y0208057D01*
X0088656Y0213746D02*
X0088656Y0199573D01*
X0054010Y0199573D01*
X0054010Y0213746D01*
X0088656Y0213746D01*
X0083940Y0210774D02*
X0083942Y0210857D01*
X0083948Y0210941D01*
X0083958Y0211024D01*
X0083971Y0211106D01*
X0083989Y0211188D01*
X0084011Y0211268D01*
X0084036Y0211348D01*
X0084065Y0211426D01*
X0084097Y0211503D01*
X0084134Y0211579D01*
X0084173Y0211652D01*
X0084217Y0211723D01*
X0084263Y0211793D01*
X0084313Y0211860D01*
X0084366Y0211925D01*
X0084421Y0211987D01*
X0084480Y0212046D01*
X0084542Y0212103D01*
X0084606Y0212156D01*
X0084672Y0212207D01*
X0084741Y0212254D01*
X0084812Y0212298D01*
X0084885Y0212339D01*
X0084960Y0212376D01*
X0085036Y0212409D01*
X0085114Y0212439D01*
X0085194Y0212465D01*
X0085274Y0212488D01*
X0085355Y0212506D01*
X0085438Y0212521D01*
X0085520Y0212532D01*
X0085604Y0212539D01*
X0085687Y0212542D01*
X0085771Y0212541D01*
X0085854Y0212536D01*
X0085937Y0212527D01*
X0086020Y0212514D01*
X0086101Y0212498D01*
X0086182Y0212477D01*
X0086262Y0212453D01*
X0086341Y0212425D01*
X0086418Y0212393D01*
X0086494Y0212358D01*
X0086568Y0212319D01*
X0086640Y0212277D01*
X0086710Y0212231D01*
X0086777Y0212182D01*
X0086843Y0212130D01*
X0086905Y0212075D01*
X0086966Y0212017D01*
X0087023Y0211956D01*
X0087077Y0211893D01*
X0087128Y0211827D01*
X0087177Y0211758D01*
X0087221Y0211688D01*
X0087263Y0211615D01*
X0087301Y0211541D01*
X0087335Y0211465D01*
X0087366Y0211387D01*
X0087393Y0211308D01*
X0087417Y0211228D01*
X0087436Y0211147D01*
X0087452Y0211065D01*
X0087464Y0210982D01*
X0087472Y0210899D01*
X0087476Y0210816D01*
X0087476Y0210732D01*
X0087472Y0210649D01*
X0087464Y0210566D01*
X0087452Y0210483D01*
X0087436Y0210401D01*
X0087417Y0210320D01*
X0087393Y0210240D01*
X0087366Y0210161D01*
X0087335Y0210083D01*
X0087301Y0210007D01*
X0087263Y0209933D01*
X0087221Y0209860D01*
X0087177Y0209790D01*
X0087128Y0209721D01*
X0087077Y0209655D01*
X0087023Y0209592D01*
X0086966Y0209531D01*
X0086905Y0209473D01*
X0086843Y0209418D01*
X0086777Y0209366D01*
X0086710Y0209317D01*
X0086640Y0209271D01*
X0086568Y0209229D01*
X0086494Y0209190D01*
X0086418Y0209155D01*
X0086341Y0209123D01*
X0086262Y0209095D01*
X0086182Y0209071D01*
X0086101Y0209050D01*
X0086020Y0209034D01*
X0085937Y0209021D01*
X0085854Y0209012D01*
X0085771Y0209007D01*
X0085687Y0209006D01*
X0085604Y0209009D01*
X0085520Y0209016D01*
X0085438Y0209027D01*
X0085355Y0209042D01*
X0085274Y0209060D01*
X0085194Y0209083D01*
X0085114Y0209109D01*
X0085036Y0209139D01*
X0084960Y0209172D01*
X0084885Y0209209D01*
X0084812Y0209250D01*
X0084741Y0209294D01*
X0084672Y0209341D01*
X0084606Y0209392D01*
X0084542Y0209445D01*
X0084480Y0209502D01*
X0084421Y0209561D01*
X0084366Y0209623D01*
X0084313Y0209688D01*
X0084263Y0209755D01*
X0084217Y0209825D01*
X0084173Y0209896D01*
X0084134Y0209969D01*
X0084097Y0210045D01*
X0084065Y0210122D01*
X0084036Y0210200D01*
X0084011Y0210280D01*
X0083989Y0210360D01*
X0083971Y0210442D01*
X0083958Y0210524D01*
X0083948Y0210607D01*
X0083942Y0210691D01*
X0083940Y0210774D01*
X0086186Y0228313D02*
X0073981Y0228313D01*
X0073981Y0235006D01*
X0086186Y0235006D01*
X0086186Y0228313D01*
X0071186Y0228313D02*
X0071186Y0235006D01*
X0058981Y0235006D01*
X0058981Y0228313D01*
X0071186Y0228313D01*
X0042180Y0227762D02*
X0042180Y0215557D01*
X0035487Y0215557D01*
X0035487Y0227762D01*
X0042180Y0227762D01*
X0033833Y0231659D02*
X0033833Y0181659D01*
X0020083Y0181659D01*
X0020833Y0181659D02*
X0006833Y0181659D01*
X0006833Y0231659D01*
X0020833Y0231659D01*
X0020833Y0181659D01*
X0031333Y0222909D02*
X0023833Y0226659D01*
X0031333Y0230409D01*
X0031333Y0222909D01*
X0031333Y0223394D02*
X0030365Y0223394D01*
X0031333Y0223983D02*
X0029186Y0223983D01*
X0028008Y0224572D02*
X0031333Y0224572D01*
X0031333Y0225161D02*
X0026830Y0225161D01*
X0025652Y0225750D02*
X0031333Y0225750D01*
X0031333Y0226339D02*
X0024474Y0226339D01*
X0024371Y0226928D02*
X0031333Y0226928D01*
X0031333Y0227517D02*
X0025549Y0227517D01*
X0026727Y0228106D02*
X0031333Y0228106D01*
X0031333Y0228695D02*
X0027905Y0228695D01*
X0029083Y0229284D02*
X0031333Y0229284D01*
X0031333Y0229874D02*
X0030261Y0229874D01*
X0033833Y0231659D02*
X0020083Y0231659D01*
X0045398Y0266659D02*
X0045404Y0267142D01*
X0045422Y0267625D01*
X0045451Y0268107D01*
X0045493Y0268588D01*
X0045546Y0269069D01*
X0045611Y0269547D01*
X0045688Y0270024D01*
X0045776Y0270499D01*
X0045876Y0270972D01*
X0045988Y0271442D01*
X0046111Y0271909D01*
X0046246Y0272373D01*
X0046392Y0272834D01*
X0046549Y0273291D01*
X0046717Y0273744D01*
X0046896Y0274192D01*
X0047087Y0274636D01*
X0047288Y0275075D01*
X0047500Y0275510D01*
X0047722Y0275938D01*
X0047955Y0276362D01*
X0048199Y0276779D01*
X0048452Y0277190D01*
X0048716Y0277595D01*
X0048989Y0277994D01*
X0049272Y0278385D01*
X0049564Y0278770D01*
X0049866Y0279147D01*
X0050177Y0279517D01*
X0050497Y0279879D01*
X0050826Y0280233D01*
X0051164Y0280578D01*
X0051509Y0280916D01*
X0051863Y0281245D01*
X0052225Y0281565D01*
X0052595Y0281876D01*
X0052972Y0282178D01*
X0053357Y0282470D01*
X0053748Y0282753D01*
X0054147Y0283026D01*
X0054552Y0283290D01*
X0054963Y0283543D01*
X0055380Y0283787D01*
X0055804Y0284020D01*
X0056232Y0284242D01*
X0056667Y0284454D01*
X0057106Y0284655D01*
X0057550Y0284846D01*
X0057998Y0285025D01*
X0058451Y0285193D01*
X0058908Y0285350D01*
X0059369Y0285496D01*
X0059833Y0285631D01*
X0060300Y0285754D01*
X0060770Y0285866D01*
X0061243Y0285966D01*
X0061718Y0286054D01*
X0062195Y0286131D01*
X0062673Y0286196D01*
X0063154Y0286249D01*
X0063635Y0286291D01*
X0064117Y0286320D01*
X0064600Y0286338D01*
X0065083Y0286344D01*
X0065566Y0286338D01*
X0066049Y0286320D01*
X0066531Y0286291D01*
X0067012Y0286249D01*
X0067493Y0286196D01*
X0067971Y0286131D01*
X0068448Y0286054D01*
X0068923Y0285966D01*
X0069396Y0285866D01*
X0069866Y0285754D01*
X0070333Y0285631D01*
X0070797Y0285496D01*
X0071258Y0285350D01*
X0071715Y0285193D01*
X0072168Y0285025D01*
X0072616Y0284846D01*
X0073060Y0284655D01*
X0073499Y0284454D01*
X0073934Y0284242D01*
X0074362Y0284020D01*
X0074786Y0283787D01*
X0075203Y0283543D01*
X0075614Y0283290D01*
X0076019Y0283026D01*
X0076418Y0282753D01*
X0076809Y0282470D01*
X0077194Y0282178D01*
X0077571Y0281876D01*
X0077941Y0281565D01*
X0078303Y0281245D01*
X0078657Y0280916D01*
X0079002Y0280578D01*
X0079340Y0280233D01*
X0079669Y0279879D01*
X0079989Y0279517D01*
X0080300Y0279147D01*
X0080602Y0278770D01*
X0080894Y0278385D01*
X0081177Y0277994D01*
X0081450Y0277595D01*
X0081714Y0277190D01*
X0081967Y0276779D01*
X0082211Y0276362D01*
X0082444Y0275938D01*
X0082666Y0275510D01*
X0082878Y0275075D01*
X0083079Y0274636D01*
X0083270Y0274192D01*
X0083449Y0273744D01*
X0083617Y0273291D01*
X0083774Y0272834D01*
X0083920Y0272373D01*
X0084055Y0271909D01*
X0084178Y0271442D01*
X0084290Y0270972D01*
X0084390Y0270499D01*
X0084478Y0270024D01*
X0084555Y0269547D01*
X0084620Y0269069D01*
X0084673Y0268588D01*
X0084715Y0268107D01*
X0084744Y0267625D01*
X0084762Y0267142D01*
X0084768Y0266659D01*
X0084762Y0266176D01*
X0084744Y0265693D01*
X0084715Y0265211D01*
X0084673Y0264730D01*
X0084620Y0264249D01*
X0084555Y0263771D01*
X0084478Y0263294D01*
X0084390Y0262819D01*
X0084290Y0262346D01*
X0084178Y0261876D01*
X0084055Y0261409D01*
X0083920Y0260945D01*
X0083774Y0260484D01*
X0083617Y0260027D01*
X0083449Y0259574D01*
X0083270Y0259126D01*
X0083079Y0258682D01*
X0082878Y0258243D01*
X0082666Y0257808D01*
X0082444Y0257380D01*
X0082211Y0256956D01*
X0081967Y0256539D01*
X0081714Y0256128D01*
X0081450Y0255723D01*
X0081177Y0255324D01*
X0080894Y0254933D01*
X0080602Y0254548D01*
X0080300Y0254171D01*
X0079989Y0253801D01*
X0079669Y0253439D01*
X0079340Y0253085D01*
X0079002Y0252740D01*
X0078657Y0252402D01*
X0078303Y0252073D01*
X0077941Y0251753D01*
X0077571Y0251442D01*
X0077194Y0251140D01*
X0076809Y0250848D01*
X0076418Y0250565D01*
X0076019Y0250292D01*
X0075614Y0250028D01*
X0075203Y0249775D01*
X0074786Y0249531D01*
X0074362Y0249298D01*
X0073934Y0249076D01*
X0073499Y0248864D01*
X0073060Y0248663D01*
X0072616Y0248472D01*
X0072168Y0248293D01*
X0071715Y0248125D01*
X0071258Y0247968D01*
X0070797Y0247822D01*
X0070333Y0247687D01*
X0069866Y0247564D01*
X0069396Y0247452D01*
X0068923Y0247352D01*
X0068448Y0247264D01*
X0067971Y0247187D01*
X0067493Y0247122D01*
X0067012Y0247069D01*
X0066531Y0247027D01*
X0066049Y0246998D01*
X0065566Y0246980D01*
X0065083Y0246974D01*
X0064600Y0246980D01*
X0064117Y0246998D01*
X0063635Y0247027D01*
X0063154Y0247069D01*
X0062673Y0247122D01*
X0062195Y0247187D01*
X0061718Y0247264D01*
X0061243Y0247352D01*
X0060770Y0247452D01*
X0060300Y0247564D01*
X0059833Y0247687D01*
X0059369Y0247822D01*
X0058908Y0247968D01*
X0058451Y0248125D01*
X0057998Y0248293D01*
X0057550Y0248472D01*
X0057106Y0248663D01*
X0056667Y0248864D01*
X0056232Y0249076D01*
X0055804Y0249298D01*
X0055380Y0249531D01*
X0054963Y0249775D01*
X0054552Y0250028D01*
X0054147Y0250292D01*
X0053748Y0250565D01*
X0053357Y0250848D01*
X0052972Y0251140D01*
X0052595Y0251442D01*
X0052225Y0251753D01*
X0051863Y0252073D01*
X0051509Y0252402D01*
X0051164Y0252740D01*
X0050826Y0253085D01*
X0050497Y0253439D01*
X0050177Y0253801D01*
X0049866Y0254171D01*
X0049564Y0254548D01*
X0049272Y0254933D01*
X0048989Y0255324D01*
X0048716Y0255723D01*
X0048452Y0256128D01*
X0048199Y0256539D01*
X0047955Y0256956D01*
X0047722Y0257380D01*
X0047500Y0257808D01*
X0047288Y0258243D01*
X0047087Y0258682D01*
X0046896Y0259126D01*
X0046717Y0259574D01*
X0046549Y0260027D01*
X0046392Y0260484D01*
X0046246Y0260945D01*
X0046111Y0261409D01*
X0045988Y0261876D01*
X0045876Y0262346D01*
X0045776Y0262819D01*
X0045688Y0263294D01*
X0045611Y0263771D01*
X0045546Y0264249D01*
X0045493Y0264730D01*
X0045451Y0265211D01*
X0045422Y0265693D01*
X0045404Y0266176D01*
X0045398Y0266659D01*
X0055083Y0289159D02*
X0095083Y0289159D01*
X0095083Y0310409D01*
X0135083Y0310409D01*
X0135083Y0289159D01*
X0095083Y0289159D01*
X0108583Y0281659D02*
X0111583Y0281659D01*
X0110083Y0280159D02*
X0110083Y0283159D01*
X0085398Y0266659D02*
X0085404Y0267142D01*
X0085422Y0267625D01*
X0085451Y0268107D01*
X0085493Y0268588D01*
X0085546Y0269069D01*
X0085611Y0269547D01*
X0085688Y0270024D01*
X0085776Y0270499D01*
X0085876Y0270972D01*
X0085988Y0271442D01*
X0086111Y0271909D01*
X0086246Y0272373D01*
X0086392Y0272834D01*
X0086549Y0273291D01*
X0086717Y0273744D01*
X0086896Y0274192D01*
X0087087Y0274636D01*
X0087288Y0275075D01*
X0087500Y0275510D01*
X0087722Y0275938D01*
X0087955Y0276362D01*
X0088199Y0276779D01*
X0088452Y0277190D01*
X0088716Y0277595D01*
X0088989Y0277994D01*
X0089272Y0278385D01*
X0089564Y0278770D01*
X0089866Y0279147D01*
X0090177Y0279517D01*
X0090497Y0279879D01*
X0090826Y0280233D01*
X0091164Y0280578D01*
X0091509Y0280916D01*
X0091863Y0281245D01*
X0092225Y0281565D01*
X0092595Y0281876D01*
X0092972Y0282178D01*
X0093357Y0282470D01*
X0093748Y0282753D01*
X0094147Y0283026D01*
X0094552Y0283290D01*
X0094963Y0283543D01*
X0095380Y0283787D01*
X0095804Y0284020D01*
X0096232Y0284242D01*
X0096667Y0284454D01*
X0097106Y0284655D01*
X0097550Y0284846D01*
X0097998Y0285025D01*
X0098451Y0285193D01*
X0098908Y0285350D01*
X0099369Y0285496D01*
X0099833Y0285631D01*
X0100300Y0285754D01*
X0100770Y0285866D01*
X0101243Y0285966D01*
X0101718Y0286054D01*
X0102195Y0286131D01*
X0102673Y0286196D01*
X0103154Y0286249D01*
X0103635Y0286291D01*
X0104117Y0286320D01*
X0104600Y0286338D01*
X0105083Y0286344D01*
X0105566Y0286338D01*
X0106049Y0286320D01*
X0106531Y0286291D01*
X0107012Y0286249D01*
X0107493Y0286196D01*
X0107971Y0286131D01*
X0108448Y0286054D01*
X0108923Y0285966D01*
X0109396Y0285866D01*
X0109866Y0285754D01*
X0110333Y0285631D01*
X0110797Y0285496D01*
X0111258Y0285350D01*
X0111715Y0285193D01*
X0112168Y0285025D01*
X0112616Y0284846D01*
X0113060Y0284655D01*
X0113499Y0284454D01*
X0113934Y0284242D01*
X0114362Y0284020D01*
X0114786Y0283787D01*
X0115203Y0283543D01*
X0115614Y0283290D01*
X0116019Y0283026D01*
X0116418Y0282753D01*
X0116809Y0282470D01*
X0117194Y0282178D01*
X0117571Y0281876D01*
X0117941Y0281565D01*
X0118303Y0281245D01*
X0118657Y0280916D01*
X0119002Y0280578D01*
X0119340Y0280233D01*
X0119669Y0279879D01*
X0119989Y0279517D01*
X0120300Y0279147D01*
X0120602Y0278770D01*
X0120894Y0278385D01*
X0121177Y0277994D01*
X0121450Y0277595D01*
X0121714Y0277190D01*
X0121967Y0276779D01*
X0122211Y0276362D01*
X0122444Y0275938D01*
X0122666Y0275510D01*
X0122878Y0275075D01*
X0123079Y0274636D01*
X0123270Y0274192D01*
X0123449Y0273744D01*
X0123617Y0273291D01*
X0123774Y0272834D01*
X0123920Y0272373D01*
X0124055Y0271909D01*
X0124178Y0271442D01*
X0124290Y0270972D01*
X0124390Y0270499D01*
X0124478Y0270024D01*
X0124555Y0269547D01*
X0124620Y0269069D01*
X0124673Y0268588D01*
X0124715Y0268107D01*
X0124744Y0267625D01*
X0124762Y0267142D01*
X0124768Y0266659D01*
X0124762Y0266176D01*
X0124744Y0265693D01*
X0124715Y0265211D01*
X0124673Y0264730D01*
X0124620Y0264249D01*
X0124555Y0263771D01*
X0124478Y0263294D01*
X0124390Y0262819D01*
X0124290Y0262346D01*
X0124178Y0261876D01*
X0124055Y0261409D01*
X0123920Y0260945D01*
X0123774Y0260484D01*
X0123617Y0260027D01*
X0123449Y0259574D01*
X0123270Y0259126D01*
X0123079Y0258682D01*
X0122878Y0258243D01*
X0122666Y0257808D01*
X0122444Y0257380D01*
X0122211Y0256956D01*
X0121967Y0256539D01*
X0121714Y0256128D01*
X0121450Y0255723D01*
X0121177Y0255324D01*
X0120894Y0254933D01*
X0120602Y0254548D01*
X0120300Y0254171D01*
X0119989Y0253801D01*
X0119669Y0253439D01*
X0119340Y0253085D01*
X0119002Y0252740D01*
X0118657Y0252402D01*
X0118303Y0252073D01*
X0117941Y0251753D01*
X0117571Y0251442D01*
X0117194Y0251140D01*
X0116809Y0250848D01*
X0116418Y0250565D01*
X0116019Y0250292D01*
X0115614Y0250028D01*
X0115203Y0249775D01*
X0114786Y0249531D01*
X0114362Y0249298D01*
X0113934Y0249076D01*
X0113499Y0248864D01*
X0113060Y0248663D01*
X0112616Y0248472D01*
X0112168Y0248293D01*
X0111715Y0248125D01*
X0111258Y0247968D01*
X0110797Y0247822D01*
X0110333Y0247687D01*
X0109866Y0247564D01*
X0109396Y0247452D01*
X0108923Y0247352D01*
X0108448Y0247264D01*
X0107971Y0247187D01*
X0107493Y0247122D01*
X0107012Y0247069D01*
X0106531Y0247027D01*
X0106049Y0246998D01*
X0105566Y0246980D01*
X0105083Y0246974D01*
X0104600Y0246980D01*
X0104117Y0246998D01*
X0103635Y0247027D01*
X0103154Y0247069D01*
X0102673Y0247122D01*
X0102195Y0247187D01*
X0101718Y0247264D01*
X0101243Y0247352D01*
X0100770Y0247452D01*
X0100300Y0247564D01*
X0099833Y0247687D01*
X0099369Y0247822D01*
X0098908Y0247968D01*
X0098451Y0248125D01*
X0097998Y0248293D01*
X0097550Y0248472D01*
X0097106Y0248663D01*
X0096667Y0248864D01*
X0096232Y0249076D01*
X0095804Y0249298D01*
X0095380Y0249531D01*
X0094963Y0249775D01*
X0094552Y0250028D01*
X0094147Y0250292D01*
X0093748Y0250565D01*
X0093357Y0250848D01*
X0092972Y0251140D01*
X0092595Y0251442D01*
X0092225Y0251753D01*
X0091863Y0252073D01*
X0091509Y0252402D01*
X0091164Y0252740D01*
X0090826Y0253085D01*
X0090497Y0253439D01*
X0090177Y0253801D01*
X0089866Y0254171D01*
X0089564Y0254548D01*
X0089272Y0254933D01*
X0088989Y0255324D01*
X0088716Y0255723D01*
X0088452Y0256128D01*
X0088199Y0256539D01*
X0087955Y0256956D01*
X0087722Y0257380D01*
X0087500Y0257808D01*
X0087288Y0258243D01*
X0087087Y0258682D01*
X0086896Y0259126D01*
X0086717Y0259574D01*
X0086549Y0260027D01*
X0086392Y0260484D01*
X0086246Y0260945D01*
X0086111Y0261409D01*
X0085988Y0261876D01*
X0085876Y0262346D01*
X0085776Y0262819D01*
X0085688Y0263294D01*
X0085611Y0263771D01*
X0085546Y0264249D01*
X0085493Y0264730D01*
X0085451Y0265211D01*
X0085422Y0265693D01*
X0085404Y0266176D01*
X0085398Y0266659D01*
X0081583Y0261659D02*
X0078583Y0261659D01*
X0080083Y0260159D02*
X0080083Y0263159D01*
X0055083Y0289159D02*
X0055083Y0310409D01*
X0095083Y0310409D01*
X0135083Y0310409D02*
X0175083Y0310409D01*
X0175083Y0289159D01*
X0135083Y0289159D01*
X0148583Y0281659D02*
X0151583Y0281659D01*
X0150083Y0280159D02*
X0150083Y0283159D01*
X0125398Y0266659D02*
X0125404Y0267142D01*
X0125422Y0267625D01*
X0125451Y0268107D01*
X0125493Y0268588D01*
X0125546Y0269069D01*
X0125611Y0269547D01*
X0125688Y0270024D01*
X0125776Y0270499D01*
X0125876Y0270972D01*
X0125988Y0271442D01*
X0126111Y0271909D01*
X0126246Y0272373D01*
X0126392Y0272834D01*
X0126549Y0273291D01*
X0126717Y0273744D01*
X0126896Y0274192D01*
X0127087Y0274636D01*
X0127288Y0275075D01*
X0127500Y0275510D01*
X0127722Y0275938D01*
X0127955Y0276362D01*
X0128199Y0276779D01*
X0128452Y0277190D01*
X0128716Y0277595D01*
X0128989Y0277994D01*
X0129272Y0278385D01*
X0129564Y0278770D01*
X0129866Y0279147D01*
X0130177Y0279517D01*
X0130497Y0279879D01*
X0130826Y0280233D01*
X0131164Y0280578D01*
X0131509Y0280916D01*
X0131863Y0281245D01*
X0132225Y0281565D01*
X0132595Y0281876D01*
X0132972Y0282178D01*
X0133357Y0282470D01*
X0133748Y0282753D01*
X0134147Y0283026D01*
X0134552Y0283290D01*
X0134963Y0283543D01*
X0135380Y0283787D01*
X0135804Y0284020D01*
X0136232Y0284242D01*
X0136667Y0284454D01*
X0137106Y0284655D01*
X0137550Y0284846D01*
X0137998Y0285025D01*
X0138451Y0285193D01*
X0138908Y0285350D01*
X0139369Y0285496D01*
X0139833Y0285631D01*
X0140300Y0285754D01*
X0140770Y0285866D01*
X0141243Y0285966D01*
X0141718Y0286054D01*
X0142195Y0286131D01*
X0142673Y0286196D01*
X0143154Y0286249D01*
X0143635Y0286291D01*
X0144117Y0286320D01*
X0144600Y0286338D01*
X0145083Y0286344D01*
X0145566Y0286338D01*
X0146049Y0286320D01*
X0146531Y0286291D01*
X0147012Y0286249D01*
X0147493Y0286196D01*
X0147971Y0286131D01*
X0148448Y0286054D01*
X0148923Y0285966D01*
X0149396Y0285866D01*
X0149866Y0285754D01*
X0150333Y0285631D01*
X0150797Y0285496D01*
X0151258Y0285350D01*
X0151715Y0285193D01*
X0152168Y0285025D01*
X0152616Y0284846D01*
X0153060Y0284655D01*
X0153499Y0284454D01*
X0153934Y0284242D01*
X0154362Y0284020D01*
X0154786Y0283787D01*
X0155203Y0283543D01*
X0155614Y0283290D01*
X0156019Y0283026D01*
X0156418Y0282753D01*
X0156809Y0282470D01*
X0157194Y0282178D01*
X0157571Y0281876D01*
X0157941Y0281565D01*
X0158303Y0281245D01*
X0158657Y0280916D01*
X0159002Y0280578D01*
X0159340Y0280233D01*
X0159669Y0279879D01*
X0159989Y0279517D01*
X0160300Y0279147D01*
X0160602Y0278770D01*
X0160894Y0278385D01*
X0161177Y0277994D01*
X0161450Y0277595D01*
X0161714Y0277190D01*
X0161967Y0276779D01*
X0162211Y0276362D01*
X0162444Y0275938D01*
X0162666Y0275510D01*
X0162878Y0275075D01*
X0163079Y0274636D01*
X0163270Y0274192D01*
X0163449Y0273744D01*
X0163617Y0273291D01*
X0163774Y0272834D01*
X0163920Y0272373D01*
X0164055Y0271909D01*
X0164178Y0271442D01*
X0164290Y0270972D01*
X0164390Y0270499D01*
X0164478Y0270024D01*
X0164555Y0269547D01*
X0164620Y0269069D01*
X0164673Y0268588D01*
X0164715Y0268107D01*
X0164744Y0267625D01*
X0164762Y0267142D01*
X0164768Y0266659D01*
X0164762Y0266176D01*
X0164744Y0265693D01*
X0164715Y0265211D01*
X0164673Y0264730D01*
X0164620Y0264249D01*
X0164555Y0263771D01*
X0164478Y0263294D01*
X0164390Y0262819D01*
X0164290Y0262346D01*
X0164178Y0261876D01*
X0164055Y0261409D01*
X0163920Y0260945D01*
X0163774Y0260484D01*
X0163617Y0260027D01*
X0163449Y0259574D01*
X0163270Y0259126D01*
X0163079Y0258682D01*
X0162878Y0258243D01*
X0162666Y0257808D01*
X0162444Y0257380D01*
X0162211Y0256956D01*
X0161967Y0256539D01*
X0161714Y0256128D01*
X0161450Y0255723D01*
X0161177Y0255324D01*
X0160894Y0254933D01*
X0160602Y0254548D01*
X0160300Y0254171D01*
X0159989Y0253801D01*
X0159669Y0253439D01*
X0159340Y0253085D01*
X0159002Y0252740D01*
X0158657Y0252402D01*
X0158303Y0252073D01*
X0157941Y0251753D01*
X0157571Y0251442D01*
X0157194Y0251140D01*
X0156809Y0250848D01*
X0156418Y0250565D01*
X0156019Y0250292D01*
X0155614Y0250028D01*
X0155203Y0249775D01*
X0154786Y0249531D01*
X0154362Y0249298D01*
X0153934Y0249076D01*
X0153499Y0248864D01*
X0153060Y0248663D01*
X0152616Y0248472D01*
X0152168Y0248293D01*
X0151715Y0248125D01*
X0151258Y0247968D01*
X0150797Y0247822D01*
X0150333Y0247687D01*
X0149866Y0247564D01*
X0149396Y0247452D01*
X0148923Y0247352D01*
X0148448Y0247264D01*
X0147971Y0247187D01*
X0147493Y0247122D01*
X0147012Y0247069D01*
X0146531Y0247027D01*
X0146049Y0246998D01*
X0145566Y0246980D01*
X0145083Y0246974D01*
X0144600Y0246980D01*
X0144117Y0246998D01*
X0143635Y0247027D01*
X0143154Y0247069D01*
X0142673Y0247122D01*
X0142195Y0247187D01*
X0141718Y0247264D01*
X0141243Y0247352D01*
X0140770Y0247452D01*
X0140300Y0247564D01*
X0139833Y0247687D01*
X0139369Y0247822D01*
X0138908Y0247968D01*
X0138451Y0248125D01*
X0137998Y0248293D01*
X0137550Y0248472D01*
X0137106Y0248663D01*
X0136667Y0248864D01*
X0136232Y0249076D01*
X0135804Y0249298D01*
X0135380Y0249531D01*
X0134963Y0249775D01*
X0134552Y0250028D01*
X0134147Y0250292D01*
X0133748Y0250565D01*
X0133357Y0250848D01*
X0132972Y0251140D01*
X0132595Y0251442D01*
X0132225Y0251753D01*
X0131863Y0252073D01*
X0131509Y0252402D01*
X0131164Y0252740D01*
X0130826Y0253085D01*
X0130497Y0253439D01*
X0130177Y0253801D01*
X0129866Y0254171D01*
X0129564Y0254548D01*
X0129272Y0254933D01*
X0128989Y0255324D01*
X0128716Y0255723D01*
X0128452Y0256128D01*
X0128199Y0256539D01*
X0127955Y0256956D01*
X0127722Y0257380D01*
X0127500Y0257808D01*
X0127288Y0258243D01*
X0127087Y0258682D01*
X0126896Y0259126D01*
X0126717Y0259574D01*
X0126549Y0260027D01*
X0126392Y0260484D01*
X0126246Y0260945D01*
X0126111Y0261409D01*
X0125988Y0261876D01*
X0125876Y0262346D01*
X0125776Y0262819D01*
X0125688Y0263294D01*
X0125611Y0263771D01*
X0125546Y0264249D01*
X0125493Y0264730D01*
X0125451Y0265211D01*
X0125422Y0265693D01*
X0125404Y0266176D01*
X0125398Y0266659D01*
X0175083Y0289159D02*
X0215083Y0289159D01*
X0215083Y0310409D01*
X0255083Y0310409D01*
X0255083Y0289159D01*
X0215083Y0289159D01*
X0228583Y0281659D02*
X0231583Y0281659D01*
X0230083Y0280159D02*
X0230083Y0283159D01*
X0205398Y0266659D02*
X0205404Y0267142D01*
X0205422Y0267625D01*
X0205451Y0268107D01*
X0205493Y0268588D01*
X0205546Y0269069D01*
X0205611Y0269547D01*
X0205688Y0270024D01*
X0205776Y0270499D01*
X0205876Y0270972D01*
X0205988Y0271442D01*
X0206111Y0271909D01*
X0206246Y0272373D01*
X0206392Y0272834D01*
X0206549Y0273291D01*
X0206717Y0273744D01*
X0206896Y0274192D01*
X0207087Y0274636D01*
X0207288Y0275075D01*
X0207500Y0275510D01*
X0207722Y0275938D01*
X0207955Y0276362D01*
X0208199Y0276779D01*
X0208452Y0277190D01*
X0208716Y0277595D01*
X0208989Y0277994D01*
X0209272Y0278385D01*
X0209564Y0278770D01*
X0209866Y0279147D01*
X0210177Y0279517D01*
X0210497Y0279879D01*
X0210826Y0280233D01*
X0211164Y0280578D01*
X0211509Y0280916D01*
X0211863Y0281245D01*
X0212225Y0281565D01*
X0212595Y0281876D01*
X0212972Y0282178D01*
X0213357Y0282470D01*
X0213748Y0282753D01*
X0214147Y0283026D01*
X0214552Y0283290D01*
X0214963Y0283543D01*
X0215380Y0283787D01*
X0215804Y0284020D01*
X0216232Y0284242D01*
X0216667Y0284454D01*
X0217106Y0284655D01*
X0217550Y0284846D01*
X0217998Y0285025D01*
X0218451Y0285193D01*
X0218908Y0285350D01*
X0219369Y0285496D01*
X0219833Y0285631D01*
X0220300Y0285754D01*
X0220770Y0285866D01*
X0221243Y0285966D01*
X0221718Y0286054D01*
X0222195Y0286131D01*
X0222673Y0286196D01*
X0223154Y0286249D01*
X0223635Y0286291D01*
X0224117Y0286320D01*
X0224600Y0286338D01*
X0225083Y0286344D01*
X0225566Y0286338D01*
X0226049Y0286320D01*
X0226531Y0286291D01*
X0227012Y0286249D01*
X0227493Y0286196D01*
X0227971Y0286131D01*
X0228448Y0286054D01*
X0228923Y0285966D01*
X0229396Y0285866D01*
X0229866Y0285754D01*
X0230333Y0285631D01*
X0230797Y0285496D01*
X0231258Y0285350D01*
X0231715Y0285193D01*
X0232168Y0285025D01*
X0232616Y0284846D01*
X0233060Y0284655D01*
X0233499Y0284454D01*
X0233934Y0284242D01*
X0234362Y0284020D01*
X0234786Y0283787D01*
X0235203Y0283543D01*
X0235614Y0283290D01*
X0236019Y0283026D01*
X0236418Y0282753D01*
X0236809Y0282470D01*
X0237194Y0282178D01*
X0237571Y0281876D01*
X0237941Y0281565D01*
X0238303Y0281245D01*
X0238657Y0280916D01*
X0239002Y0280578D01*
X0239340Y0280233D01*
X0239669Y0279879D01*
X0239989Y0279517D01*
X0240300Y0279147D01*
X0240602Y0278770D01*
X0240894Y0278385D01*
X0241177Y0277994D01*
X0241450Y0277595D01*
X0241714Y0277190D01*
X0241967Y0276779D01*
X0242211Y0276362D01*
X0242444Y0275938D01*
X0242666Y0275510D01*
X0242878Y0275075D01*
X0243079Y0274636D01*
X0243270Y0274192D01*
X0243449Y0273744D01*
X0243617Y0273291D01*
X0243774Y0272834D01*
X0243920Y0272373D01*
X0244055Y0271909D01*
X0244178Y0271442D01*
X0244290Y0270972D01*
X0244390Y0270499D01*
X0244478Y0270024D01*
X0244555Y0269547D01*
X0244620Y0269069D01*
X0244673Y0268588D01*
X0244715Y0268107D01*
X0244744Y0267625D01*
X0244762Y0267142D01*
X0244768Y0266659D01*
X0244762Y0266176D01*
X0244744Y0265693D01*
X0244715Y0265211D01*
X0244673Y0264730D01*
X0244620Y0264249D01*
X0244555Y0263771D01*
X0244478Y0263294D01*
X0244390Y0262819D01*
X0244290Y0262346D01*
X0244178Y0261876D01*
X0244055Y0261409D01*
X0243920Y0260945D01*
X0243774Y0260484D01*
X0243617Y0260027D01*
X0243449Y0259574D01*
X0243270Y0259126D01*
X0243079Y0258682D01*
X0242878Y0258243D01*
X0242666Y0257808D01*
X0242444Y0257380D01*
X0242211Y0256956D01*
X0241967Y0256539D01*
X0241714Y0256128D01*
X0241450Y0255723D01*
X0241177Y0255324D01*
X0240894Y0254933D01*
X0240602Y0254548D01*
X0240300Y0254171D01*
X0239989Y0253801D01*
X0239669Y0253439D01*
X0239340Y0253085D01*
X0239002Y0252740D01*
X0238657Y0252402D01*
X0238303Y0252073D01*
X0237941Y0251753D01*
X0237571Y0251442D01*
X0237194Y0251140D01*
X0236809Y0250848D01*
X0236418Y0250565D01*
X0236019Y0250292D01*
X0235614Y0250028D01*
X0235203Y0249775D01*
X0234786Y0249531D01*
X0234362Y0249298D01*
X0233934Y0249076D01*
X0233499Y0248864D01*
X0233060Y0248663D01*
X0232616Y0248472D01*
X0232168Y0248293D01*
X0231715Y0248125D01*
X0231258Y0247968D01*
X0230797Y0247822D01*
X0230333Y0247687D01*
X0229866Y0247564D01*
X0229396Y0247452D01*
X0228923Y0247352D01*
X0228448Y0247264D01*
X0227971Y0247187D01*
X0227493Y0247122D01*
X0227012Y0247069D01*
X0226531Y0247027D01*
X0226049Y0246998D01*
X0225566Y0246980D01*
X0225083Y0246974D01*
X0224600Y0246980D01*
X0224117Y0246998D01*
X0223635Y0247027D01*
X0223154Y0247069D01*
X0222673Y0247122D01*
X0222195Y0247187D01*
X0221718Y0247264D01*
X0221243Y0247352D01*
X0220770Y0247452D01*
X0220300Y0247564D01*
X0219833Y0247687D01*
X0219369Y0247822D01*
X0218908Y0247968D01*
X0218451Y0248125D01*
X0217998Y0248293D01*
X0217550Y0248472D01*
X0217106Y0248663D01*
X0216667Y0248864D01*
X0216232Y0249076D01*
X0215804Y0249298D01*
X0215380Y0249531D01*
X0214963Y0249775D01*
X0214552Y0250028D01*
X0214147Y0250292D01*
X0213748Y0250565D01*
X0213357Y0250848D01*
X0212972Y0251140D01*
X0212595Y0251442D01*
X0212225Y0251753D01*
X0211863Y0252073D01*
X0211509Y0252402D01*
X0211164Y0252740D01*
X0210826Y0253085D01*
X0210497Y0253439D01*
X0210177Y0253801D01*
X0209866Y0254171D01*
X0209564Y0254548D01*
X0209272Y0254933D01*
X0208989Y0255324D01*
X0208716Y0255723D01*
X0208452Y0256128D01*
X0208199Y0256539D01*
X0207955Y0256956D01*
X0207722Y0257380D01*
X0207500Y0257808D01*
X0207288Y0258243D01*
X0207087Y0258682D01*
X0206896Y0259126D01*
X0206717Y0259574D01*
X0206549Y0260027D01*
X0206392Y0260484D01*
X0206246Y0260945D01*
X0206111Y0261409D01*
X0205988Y0261876D01*
X0205876Y0262346D01*
X0205776Y0262819D01*
X0205688Y0263294D01*
X0205611Y0263771D01*
X0205546Y0264249D01*
X0205493Y0264730D01*
X0205451Y0265211D01*
X0205422Y0265693D01*
X0205404Y0266176D01*
X0205398Y0266659D01*
X0191583Y0281659D02*
X0188583Y0281659D01*
X0190083Y0280159D02*
X0190083Y0283159D01*
X0165398Y0266659D02*
X0165404Y0267142D01*
X0165422Y0267625D01*
X0165451Y0268107D01*
X0165493Y0268588D01*
X0165546Y0269069D01*
X0165611Y0269547D01*
X0165688Y0270024D01*
X0165776Y0270499D01*
X0165876Y0270972D01*
X0165988Y0271442D01*
X0166111Y0271909D01*
X0166246Y0272373D01*
X0166392Y0272834D01*
X0166549Y0273291D01*
X0166717Y0273744D01*
X0166896Y0274192D01*
X0167087Y0274636D01*
X0167288Y0275075D01*
X0167500Y0275510D01*
X0167722Y0275938D01*
X0167955Y0276362D01*
X0168199Y0276779D01*
X0168452Y0277190D01*
X0168716Y0277595D01*
X0168989Y0277994D01*
X0169272Y0278385D01*
X0169564Y0278770D01*
X0169866Y0279147D01*
X0170177Y0279517D01*
X0170497Y0279879D01*
X0170826Y0280233D01*
X0171164Y0280578D01*
X0171509Y0280916D01*
X0171863Y0281245D01*
X0172225Y0281565D01*
X0172595Y0281876D01*
X0172972Y0282178D01*
X0173357Y0282470D01*
X0173748Y0282753D01*
X0174147Y0283026D01*
X0174552Y0283290D01*
X0174963Y0283543D01*
X0175380Y0283787D01*
X0175804Y0284020D01*
X0176232Y0284242D01*
X0176667Y0284454D01*
X0177106Y0284655D01*
X0177550Y0284846D01*
X0177998Y0285025D01*
X0178451Y0285193D01*
X0178908Y0285350D01*
X0179369Y0285496D01*
X0179833Y0285631D01*
X0180300Y0285754D01*
X0180770Y0285866D01*
X0181243Y0285966D01*
X0181718Y0286054D01*
X0182195Y0286131D01*
X0182673Y0286196D01*
X0183154Y0286249D01*
X0183635Y0286291D01*
X0184117Y0286320D01*
X0184600Y0286338D01*
X0185083Y0286344D01*
X0185566Y0286338D01*
X0186049Y0286320D01*
X0186531Y0286291D01*
X0187012Y0286249D01*
X0187493Y0286196D01*
X0187971Y0286131D01*
X0188448Y0286054D01*
X0188923Y0285966D01*
X0189396Y0285866D01*
X0189866Y0285754D01*
X0190333Y0285631D01*
X0190797Y0285496D01*
X0191258Y0285350D01*
X0191715Y0285193D01*
X0192168Y0285025D01*
X0192616Y0284846D01*
X0193060Y0284655D01*
X0193499Y0284454D01*
X0193934Y0284242D01*
X0194362Y0284020D01*
X0194786Y0283787D01*
X0195203Y0283543D01*
X0195614Y0283290D01*
X0196019Y0283026D01*
X0196418Y0282753D01*
X0196809Y0282470D01*
X0197194Y0282178D01*
X0197571Y0281876D01*
X0197941Y0281565D01*
X0198303Y0281245D01*
X0198657Y0280916D01*
X0199002Y0280578D01*
X0199340Y0280233D01*
X0199669Y0279879D01*
X0199989Y0279517D01*
X0200300Y0279147D01*
X0200602Y0278770D01*
X0200894Y0278385D01*
X0201177Y0277994D01*
X0201450Y0277595D01*
X0201714Y0277190D01*
X0201967Y0276779D01*
X0202211Y0276362D01*
X0202444Y0275938D01*
X0202666Y0275510D01*
X0202878Y0275075D01*
X0203079Y0274636D01*
X0203270Y0274192D01*
X0203449Y0273744D01*
X0203617Y0273291D01*
X0203774Y0272834D01*
X0203920Y0272373D01*
X0204055Y0271909D01*
X0204178Y0271442D01*
X0204290Y0270972D01*
X0204390Y0270499D01*
X0204478Y0270024D01*
X0204555Y0269547D01*
X0204620Y0269069D01*
X0204673Y0268588D01*
X0204715Y0268107D01*
X0204744Y0267625D01*
X0204762Y0267142D01*
X0204768Y0266659D01*
X0204762Y0266176D01*
X0204744Y0265693D01*
X0204715Y0265211D01*
X0204673Y0264730D01*
X0204620Y0264249D01*
X0204555Y0263771D01*
X0204478Y0263294D01*
X0204390Y0262819D01*
X0204290Y0262346D01*
X0204178Y0261876D01*
X0204055Y0261409D01*
X0203920Y0260945D01*
X0203774Y0260484D01*
X0203617Y0260027D01*
X0203449Y0259574D01*
X0203270Y0259126D01*
X0203079Y0258682D01*
X0202878Y0258243D01*
X0202666Y0257808D01*
X0202444Y0257380D01*
X0202211Y0256956D01*
X0201967Y0256539D01*
X0201714Y0256128D01*
X0201450Y0255723D01*
X0201177Y0255324D01*
X0200894Y0254933D01*
X0200602Y0254548D01*
X0200300Y0254171D01*
X0199989Y0253801D01*
X0199669Y0253439D01*
X0199340Y0253085D01*
X0199002Y0252740D01*
X0198657Y0252402D01*
X0198303Y0252073D01*
X0197941Y0251753D01*
X0197571Y0251442D01*
X0197194Y0251140D01*
X0196809Y0250848D01*
X0196418Y0250565D01*
X0196019Y0250292D01*
X0195614Y0250028D01*
X0195203Y0249775D01*
X0194786Y0249531D01*
X0194362Y0249298D01*
X0193934Y0249076D01*
X0193499Y0248864D01*
X0193060Y0248663D01*
X0192616Y0248472D01*
X0192168Y0248293D01*
X0191715Y0248125D01*
X0191258Y0247968D01*
X0190797Y0247822D01*
X0190333Y0247687D01*
X0189866Y0247564D01*
X0189396Y0247452D01*
X0188923Y0247352D01*
X0188448Y0247264D01*
X0187971Y0247187D01*
X0187493Y0247122D01*
X0187012Y0247069D01*
X0186531Y0247027D01*
X0186049Y0246998D01*
X0185566Y0246980D01*
X0185083Y0246974D01*
X0184600Y0246980D01*
X0184117Y0246998D01*
X0183635Y0247027D01*
X0183154Y0247069D01*
X0182673Y0247122D01*
X0182195Y0247187D01*
X0181718Y0247264D01*
X0181243Y0247352D01*
X0180770Y0247452D01*
X0180300Y0247564D01*
X0179833Y0247687D01*
X0179369Y0247822D01*
X0178908Y0247968D01*
X0178451Y0248125D01*
X0177998Y0248293D01*
X0177550Y0248472D01*
X0177106Y0248663D01*
X0176667Y0248864D01*
X0176232Y0249076D01*
X0175804Y0249298D01*
X0175380Y0249531D01*
X0174963Y0249775D01*
X0174552Y0250028D01*
X0174147Y0250292D01*
X0173748Y0250565D01*
X0173357Y0250848D01*
X0172972Y0251140D01*
X0172595Y0251442D01*
X0172225Y0251753D01*
X0171863Y0252073D01*
X0171509Y0252402D01*
X0171164Y0252740D01*
X0170826Y0253085D01*
X0170497Y0253439D01*
X0170177Y0253801D01*
X0169866Y0254171D01*
X0169564Y0254548D01*
X0169272Y0254933D01*
X0168989Y0255324D01*
X0168716Y0255723D01*
X0168452Y0256128D01*
X0168199Y0256539D01*
X0167955Y0256956D01*
X0167722Y0257380D01*
X0167500Y0257808D01*
X0167288Y0258243D01*
X0167087Y0258682D01*
X0166896Y0259126D01*
X0166717Y0259574D01*
X0166549Y0260027D01*
X0166392Y0260484D01*
X0166246Y0260945D01*
X0166111Y0261409D01*
X0165988Y0261876D01*
X0165876Y0262346D01*
X0165776Y0262819D01*
X0165688Y0263294D01*
X0165611Y0263771D01*
X0165546Y0264249D01*
X0165493Y0264730D01*
X0165451Y0265211D01*
X0165422Y0265693D01*
X0165404Y0266176D01*
X0165398Y0266659D01*
X0175083Y0310409D02*
X0215083Y0310409D01*
X0255083Y0310439D02*
X0055083Y0310439D01*
X0055083Y0341935D01*
X0255083Y0341935D01*
X0255083Y0310439D01*
X0254325Y0243146D02*
X0234247Y0243146D01*
X0234247Y0222673D01*
X0254325Y0222673D01*
X0255900Y0224248D01*
X0255900Y0241571D01*
X0254325Y0243146D01*
X0241304Y0131217D02*
X0201934Y0131217D01*
X0201934Y0080035D01*
X0207839Y0080035D01*
X0207839Y0052476D01*
X0209808Y0052476D01*
X0209808Y0003264D01*
X0211776Y0001295D01*
X0231461Y0001295D01*
X0233430Y0003264D01*
X0233430Y0052476D01*
X0209808Y0052476D01*
X0233430Y0052476D02*
X0235398Y0052476D01*
X0235398Y0080035D01*
X0241304Y0080035D01*
X0241304Y0131217D01*
X0235398Y0080035D02*
X0207839Y0080035D01*
X0192180Y0101807D02*
X0192180Y0114012D01*
X0185487Y0114012D01*
X0185487Y0101807D01*
X0192180Y0101807D01*
X0180930Y0104012D02*
X0180930Y0091807D01*
X0174237Y0091807D01*
X0174237Y0104012D01*
X0180930Y0104012D01*
X0173430Y0104012D02*
X0166737Y0104012D01*
X0166737Y0091807D01*
X0173430Y0091807D01*
X0173430Y0104012D01*
X0165930Y0104012D02*
X0159237Y0104012D01*
X0159237Y0091807D01*
X0165930Y0091807D01*
X0165930Y0104012D01*
X0130930Y0126807D02*
X0124237Y0126807D01*
X0124237Y0139012D01*
X0130930Y0139012D01*
X0130930Y0126807D01*
X0122446Y0129297D02*
X0122446Y0124179D01*
X0117721Y0124179D01*
X0117721Y0129297D01*
X0122446Y0129297D01*
X0122446Y0132447D01*
X0120083Y0129297D01*
X0117721Y0132447D01*
X0122446Y0132447D01*
X0122446Y0139140D01*
X0117721Y0139140D01*
X0117721Y0132447D01*
X0117721Y0129297D01*
X0117731Y0140813D02*
X0129936Y0140813D01*
X0129936Y0147506D01*
X0117731Y0147506D01*
X0117731Y0140813D01*
X0117731Y0148313D02*
X0129936Y0148313D01*
X0129936Y0155006D01*
X0117731Y0155006D01*
X0117731Y0148313D01*
X0117731Y0155813D02*
X0117731Y0162506D01*
X0129936Y0162506D01*
X0129936Y0155813D01*
X0117731Y0155813D01*
D11*
X0030883Y0194330D02*
X0030883Y0196532D01*
X0030883Y0195431D02*
X0024278Y0195431D01*
X0024278Y0194330D02*
X0024278Y0196532D01*
X0025379Y0198995D02*
X0029782Y0198995D01*
X0030883Y0200096D01*
X0030883Y0202298D01*
X0029782Y0203399D01*
X0029782Y0205993D02*
X0030883Y0207094D01*
X0030883Y0209296D01*
X0029782Y0210397D01*
X0028681Y0210397D01*
X0027581Y0209296D01*
X0027581Y0207094D01*
X0026480Y0205993D01*
X0025379Y0205993D01*
X0024278Y0207094D01*
X0024278Y0209296D01*
X0025379Y0210397D01*
X0024278Y0212991D02*
X0024278Y0216294D01*
X0025379Y0217395D01*
X0027581Y0217395D01*
X0028681Y0216294D01*
X0028681Y0212991D01*
X0030883Y0212991D02*
X0024278Y0212991D01*
X0025379Y0203399D02*
X0024278Y0202298D01*
X0024278Y0200096D01*
X0025379Y0198995D01*
X0059189Y0292109D02*
X0061391Y0292109D01*
X0062492Y0293210D01*
X0062492Y0294311D01*
X0061391Y0295412D01*
X0058088Y0295412D01*
X0058088Y0293210D01*
X0059189Y0292109D01*
X0058088Y0295412D02*
X0060290Y0297614D01*
X0062492Y0298715D01*
X0065086Y0295412D02*
X0069490Y0295412D01*
X0072084Y0297614D02*
X0073185Y0298715D01*
X0075387Y0298715D01*
X0076488Y0297614D01*
X0076488Y0296513D01*
X0072084Y0292109D01*
X0076488Y0292109D01*
X0079082Y0293210D02*
X0080183Y0292109D01*
X0082385Y0292109D01*
X0083486Y0293210D01*
X0083486Y0294311D01*
X0082385Y0295412D01*
X0079082Y0295412D01*
X0079082Y0293210D01*
X0079082Y0295412D02*
X0081284Y0297614D01*
X0083486Y0298715D01*
X0086080Y0298715D02*
X0086080Y0294311D01*
X0088282Y0292109D01*
X0090484Y0294311D01*
X0090484Y0298715D01*
X0084783Y0301960D02*
X0084783Y0306364D01*
X0082581Y0304162D02*
X0086985Y0304162D01*
X0101587Y0304162D02*
X0105991Y0304162D01*
X0103789Y0306364D02*
X0103789Y0301960D01*
X0106187Y0298715D02*
X0105086Y0297614D01*
X0105086Y0293210D01*
X0106187Y0292109D01*
X0108389Y0292109D01*
X0109490Y0293210D01*
X0112084Y0292109D02*
X0112084Y0298715D01*
X0113185Y0296513D02*
X0115387Y0296513D01*
X0116488Y0295412D01*
X0116488Y0292109D01*
X0119082Y0292109D02*
X0123486Y0292109D01*
X0121284Y0292109D02*
X0121284Y0298715D01*
X0119082Y0296513D01*
X0113185Y0296513D02*
X0112084Y0295412D01*
X0109490Y0297614D02*
X0108389Y0298715D01*
X0106187Y0298715D01*
X0122581Y0304162D02*
X0126985Y0304162D01*
X0141587Y0304162D02*
X0145991Y0304162D01*
X0143789Y0306364D02*
X0143789Y0301960D01*
X0146187Y0298715D02*
X0145086Y0297614D01*
X0145086Y0293210D01*
X0146187Y0292109D01*
X0148389Y0292109D01*
X0149490Y0293210D01*
X0152084Y0292109D02*
X0152084Y0298715D01*
X0153185Y0296513D02*
X0152084Y0295412D01*
X0153185Y0296513D02*
X0155387Y0296513D01*
X0156488Y0295412D01*
X0156488Y0292109D01*
X0159082Y0292109D02*
X0163486Y0296513D01*
X0163486Y0297614D01*
X0162385Y0298715D01*
X0160183Y0298715D01*
X0159082Y0297614D01*
X0159082Y0292109D02*
X0163486Y0292109D01*
X0162581Y0304162D02*
X0166985Y0304162D01*
X0181587Y0304162D02*
X0185991Y0304162D01*
X0183789Y0306364D02*
X0183789Y0301960D01*
X0186187Y0298715D02*
X0185086Y0297614D01*
X0185086Y0293210D01*
X0186187Y0292109D01*
X0188389Y0292109D01*
X0189490Y0293210D01*
X0192084Y0292109D02*
X0192084Y0298715D01*
X0193185Y0296513D02*
X0192084Y0295412D01*
X0193185Y0296513D02*
X0195387Y0296513D01*
X0196488Y0295412D01*
X0196488Y0292109D01*
X0199082Y0293210D02*
X0200183Y0292109D01*
X0202385Y0292109D01*
X0203486Y0293210D01*
X0203486Y0294311D01*
X0202385Y0295412D01*
X0201284Y0295412D01*
X0202385Y0295412D02*
X0203486Y0296513D01*
X0203486Y0297614D01*
X0202385Y0298715D01*
X0200183Y0298715D01*
X0199082Y0297614D01*
X0202581Y0304162D02*
X0206985Y0304162D01*
X0221587Y0304162D02*
X0225991Y0304162D01*
X0223789Y0306364D02*
X0223789Y0301960D01*
X0226187Y0298715D02*
X0225086Y0297614D01*
X0225086Y0293210D01*
X0226187Y0292109D01*
X0228389Y0292109D01*
X0229490Y0293210D01*
X0232084Y0292109D02*
X0232084Y0298715D01*
X0233185Y0296513D02*
X0235387Y0296513D01*
X0236488Y0295412D01*
X0236488Y0292109D01*
X0239082Y0295412D02*
X0243486Y0295412D01*
X0242385Y0292109D02*
X0242385Y0298715D01*
X0239082Y0295412D01*
X0233185Y0296513D02*
X0232084Y0295412D01*
X0229490Y0297614D02*
X0228389Y0298715D01*
X0226187Y0298715D01*
X0242581Y0304162D02*
X0246985Y0304162D01*
X0276352Y0266389D02*
X0276352Y0265288D01*
X0278554Y0263087D01*
X0280755Y0263087D02*
X0276352Y0263087D01*
X0277453Y0260492D02*
X0276352Y0259391D01*
X0276352Y0257189D01*
X0277453Y0256089D01*
X0279654Y0256089D01*
X0280755Y0257189D01*
X0280755Y0259391D01*
X0278554Y0260492D02*
X0278554Y0256089D01*
X0277453Y0253494D02*
X0276352Y0252393D01*
X0277453Y0251292D01*
X0280755Y0251292D01*
X0280755Y0249091D02*
X0276352Y0249091D01*
X0276352Y0250192D01*
X0277453Y0251292D01*
X0277453Y0253494D02*
X0280755Y0253494D01*
X0280755Y0246496D02*
X0277453Y0246496D01*
X0276352Y0245395D01*
X0277453Y0244294D01*
X0280755Y0244294D01*
X0280755Y0242093D02*
X0276352Y0242093D01*
X0276352Y0243194D01*
X0277453Y0244294D01*
X0280755Y0239629D02*
X0280755Y0237427D01*
X0280755Y0238528D02*
X0276352Y0238528D01*
X0276352Y0237427D01*
X0274150Y0238528D02*
X0273049Y0238528D01*
X0275251Y0234833D02*
X0274150Y0233732D01*
X0274150Y0230429D01*
X0280755Y0230429D01*
X0280755Y0233732D01*
X0279654Y0234833D01*
X0275251Y0234833D01*
X0289413Y0234833D02*
X0289413Y0231530D01*
X0290514Y0230429D01*
X0292715Y0230429D01*
X0293816Y0231530D01*
X0293816Y0234833D01*
X0292715Y0237427D02*
X0293816Y0238528D01*
X0293816Y0240730D01*
X0292715Y0241831D01*
X0290514Y0241831D01*
X0289413Y0240730D01*
X0289413Y0238528D01*
X0290514Y0237427D01*
X0292715Y0237427D01*
X0293816Y0244425D02*
X0289413Y0244425D01*
X0289413Y0245526D01*
X0290514Y0246627D01*
X0289413Y0247728D01*
X0290514Y0248829D01*
X0293816Y0248829D01*
X0293816Y0246627D02*
X0290514Y0246627D01*
X0278554Y0260492D02*
X0277453Y0260492D01*
X0292715Y0228031D02*
X0293816Y0228031D01*
X0293816Y0226930D01*
X0292715Y0226930D01*
X0292715Y0228031D01*
X0293816Y0224336D02*
X0287211Y0224336D01*
X0289413Y0224336D02*
X0289413Y0221033D01*
X0290514Y0219932D01*
X0292715Y0219932D01*
X0293816Y0221033D01*
X0293816Y0224336D01*
X0289413Y0217404D02*
X0289413Y0216303D01*
X0291615Y0214101D01*
X0293816Y0214101D02*
X0289413Y0214101D01*
X0290514Y0211507D02*
X0289413Y0210406D01*
X0289413Y0208204D01*
X0290514Y0207103D01*
X0292715Y0207103D01*
X0293816Y0208204D01*
X0293816Y0210406D01*
X0291615Y0211507D02*
X0291615Y0207103D01*
X0290514Y0204509D02*
X0293816Y0204509D01*
X0290514Y0204509D02*
X0289413Y0203408D01*
X0289413Y0200105D01*
X0293816Y0200105D01*
X0289413Y0197576D02*
X0289413Y0196475D01*
X0291615Y0194273D01*
X0293816Y0194273D02*
X0289413Y0194273D01*
X0290514Y0191679D02*
X0289413Y0190578D01*
X0289413Y0188376D01*
X0290514Y0187275D01*
X0292715Y0187275D01*
X0293816Y0188376D01*
X0293816Y0190578D01*
X0291615Y0191679D02*
X0291615Y0187275D01*
X0293816Y0184681D02*
X0287211Y0184681D01*
X0289413Y0184681D02*
X0289413Y0181378D01*
X0290514Y0180277D01*
X0292715Y0180277D01*
X0293816Y0181378D01*
X0293816Y0184681D01*
X0293816Y0177814D02*
X0293816Y0175612D01*
X0293816Y0176713D02*
X0287211Y0176713D01*
X0287211Y0175612D01*
X0290514Y0173018D02*
X0289413Y0171917D01*
X0289413Y0169715D01*
X0290514Y0168614D01*
X0292715Y0168614D01*
X0293816Y0169715D01*
X0293816Y0171917D01*
X0292715Y0173018D01*
X0290514Y0173018D01*
X0289413Y0166020D02*
X0289413Y0162717D01*
X0290514Y0161616D01*
X0291615Y0162717D01*
X0291615Y0164919D01*
X0292715Y0166020D01*
X0293816Y0164919D01*
X0293816Y0161616D01*
X0282957Y0166150D02*
X0282957Y0167251D01*
X0281856Y0168352D01*
X0276352Y0168352D01*
X0276352Y0165050D01*
X0277453Y0163949D01*
X0279654Y0163949D01*
X0280755Y0165050D01*
X0280755Y0168352D01*
X0280755Y0170947D02*
X0276352Y0170947D01*
X0276352Y0173148D02*
X0276352Y0174249D01*
X0276352Y0173148D02*
X0278554Y0170947D01*
X0279654Y0176778D02*
X0278554Y0177879D01*
X0278554Y0181182D01*
X0277453Y0181182D02*
X0280755Y0181182D01*
X0280755Y0177879D01*
X0279654Y0176778D01*
X0276352Y0177879D02*
X0276352Y0180081D01*
X0277453Y0181182D01*
X0276352Y0183776D02*
X0276352Y0184877D01*
X0277453Y0185978D01*
X0276352Y0187079D01*
X0277453Y0188180D01*
X0280755Y0188180D01*
X0280755Y0185978D02*
X0277453Y0185978D01*
X0276352Y0183776D02*
X0280755Y0183776D01*
X0280755Y0190774D02*
X0276352Y0190774D01*
X0276352Y0191875D01*
X0277453Y0192976D01*
X0276352Y0194077D01*
X0277453Y0195178D01*
X0280755Y0195178D01*
X0280755Y0192976D02*
X0277453Y0192976D01*
X0279654Y0197772D02*
X0278554Y0198873D01*
X0278554Y0202176D01*
X0277453Y0202176D02*
X0280755Y0202176D01*
X0280755Y0198873D01*
X0279654Y0197772D01*
X0276352Y0198873D02*
X0276352Y0201075D01*
X0277453Y0202176D01*
X0276352Y0204770D02*
X0276352Y0208073D01*
X0277453Y0209174D01*
X0279654Y0209174D01*
X0280755Y0208073D01*
X0280755Y0204770D01*
X0274150Y0204770D01*
X0274150Y0211768D02*
X0274150Y0212869D01*
X0280755Y0212869D01*
X0280755Y0211768D02*
X0280755Y0213970D01*
X0279654Y0216433D02*
X0277453Y0216433D01*
X0276352Y0217534D01*
X0276352Y0219736D01*
X0277453Y0220837D01*
X0278554Y0220837D01*
X0278554Y0216433D01*
X0279654Y0216433D02*
X0280755Y0217534D01*
X0280755Y0219736D01*
X0290514Y0211507D02*
X0291615Y0211507D01*
X0291615Y0191679D02*
X0290514Y0191679D01*
X0279654Y0161354D02*
X0277453Y0161354D01*
X0276352Y0160253D01*
X0276352Y0158052D01*
X0277453Y0156951D01*
X0279654Y0156951D01*
X0280755Y0158052D01*
X0280755Y0160253D01*
X0279654Y0161354D01*
X0276352Y0154422D02*
X0276352Y0153321D01*
X0278554Y0151119D01*
X0280755Y0151119D02*
X0276352Y0151119D01*
X0275251Y0148525D02*
X0277453Y0148525D01*
X0278554Y0147424D01*
X0278554Y0144121D01*
X0280755Y0144121D02*
X0274150Y0144121D01*
X0274150Y0147424D01*
X0275251Y0148525D01*
X0189490Y0297614D02*
X0188389Y0298715D01*
X0186187Y0298715D01*
X0149490Y0297614D02*
X0148389Y0298715D01*
X0146187Y0298715D01*
X0065991Y0304162D02*
X0061587Y0304162D01*
D12*
X0062930Y0269879D02*
X0063647Y0268444D01*
X0065081Y0267009D01*
X0065081Y0269161D01*
X0065799Y0269879D01*
X0066516Y0269879D01*
X0067233Y0269161D01*
X0067233Y0267727D01*
X0066516Y0267009D01*
X0065081Y0267009D01*
X0063647Y0265275D02*
X0062930Y0264557D01*
X0062930Y0263123D01*
X0063647Y0262406D01*
X0066516Y0262406D01*
X0067233Y0263123D01*
X0067233Y0264557D01*
X0066516Y0265275D01*
X0100829Y0265227D02*
X0101547Y0264509D01*
X0102981Y0264509D01*
X0103699Y0265227D01*
X0105433Y0265227D02*
X0105433Y0264509D01*
X0105433Y0265227D02*
X0108302Y0268096D01*
X0108302Y0268813D01*
X0105433Y0268813D01*
X0103699Y0268096D02*
X0102981Y0268813D01*
X0101547Y0268813D01*
X0100829Y0268096D01*
X0100829Y0265227D01*
X0140829Y0265227D02*
X0141547Y0264509D01*
X0142981Y0264509D01*
X0143699Y0265227D01*
X0145433Y0266661D02*
X0148302Y0266661D01*
X0147585Y0264509D02*
X0147585Y0268813D01*
X0145433Y0266661D01*
X0143699Y0268096D02*
X0142981Y0268813D01*
X0141547Y0268813D01*
X0140829Y0268096D01*
X0140829Y0265227D01*
X0180829Y0265227D02*
X0181547Y0264509D01*
X0182981Y0264509D01*
X0183699Y0265227D01*
X0185433Y0265227D02*
X0186151Y0264509D01*
X0187585Y0264509D01*
X0188302Y0265227D01*
X0188302Y0265944D01*
X0187585Y0266661D01*
X0186868Y0266661D01*
X0187585Y0266661D02*
X0188302Y0267379D01*
X0188302Y0268096D01*
X0187585Y0268813D01*
X0186151Y0268813D01*
X0185433Y0268096D01*
X0183699Y0268096D02*
X0182981Y0268813D01*
X0181547Y0268813D01*
X0180829Y0268096D01*
X0180829Y0265227D01*
X0220829Y0265227D02*
X0221547Y0264509D01*
X0222981Y0264509D01*
X0223699Y0265227D01*
X0225433Y0265227D02*
X0226151Y0264509D01*
X0227585Y0264509D01*
X0228302Y0265227D01*
X0228302Y0266661D01*
X0227585Y0267379D01*
X0226868Y0267379D01*
X0225433Y0266661D01*
X0225433Y0268813D01*
X0228302Y0268813D01*
X0223699Y0268096D02*
X0222981Y0268813D01*
X0221547Y0268813D01*
X0220829Y0268096D01*
X0220829Y0265227D01*
X0204622Y0205059D02*
X0203187Y0205059D01*
X0203905Y0205059D02*
X0203905Y0200756D01*
X0204622Y0200756D02*
X0203187Y0200756D01*
X0201553Y0201473D02*
X0201553Y0204342D01*
X0200835Y0205059D01*
X0199401Y0205059D01*
X0198684Y0204342D01*
X0196949Y0202908D02*
X0194080Y0202908D01*
X0194797Y0205059D02*
X0194797Y0200756D01*
X0196949Y0202908D01*
X0198684Y0201473D02*
X0199401Y0200756D01*
X0200835Y0200756D01*
X0201553Y0201473D01*
X0241795Y0188813D02*
X0243229Y0188813D01*
X0242512Y0188813D02*
X0242512Y0184509D01*
X0241795Y0184509D02*
X0243229Y0184509D01*
X0244864Y0185227D02*
X0244864Y0188096D01*
X0245581Y0188813D01*
X0247016Y0188813D01*
X0247733Y0188096D01*
X0249468Y0188096D02*
X0250185Y0188813D01*
X0251620Y0188813D01*
X0252337Y0188096D01*
X0252337Y0187379D01*
X0249468Y0184509D01*
X0252337Y0184509D01*
X0247733Y0185227D02*
X0247016Y0184509D01*
X0245581Y0184509D01*
X0244864Y0185227D01*
X0134622Y0200756D02*
X0133187Y0200756D01*
X0133905Y0200756D02*
X0133905Y0205059D01*
X0134622Y0205059D02*
X0133187Y0205059D01*
X0131553Y0204342D02*
X0130835Y0205059D01*
X0129401Y0205059D01*
X0128684Y0204342D01*
X0126949Y0204342D02*
X0126231Y0205059D01*
X0124797Y0205059D01*
X0124080Y0204342D01*
X0124080Y0203625D01*
X0124797Y0202908D01*
X0125514Y0202908D01*
X0124797Y0202908D02*
X0124080Y0202190D01*
X0124080Y0201473D01*
X0124797Y0200756D01*
X0126231Y0200756D01*
X0126949Y0201473D01*
X0128684Y0201473D02*
X0129401Y0200756D01*
X0130835Y0200756D01*
X0131553Y0201473D01*
X0131553Y0204342D01*
X0076087Y0204509D02*
X0073218Y0204509D01*
X0074652Y0204509D02*
X0074652Y0208813D01*
X0073218Y0207379D01*
X0071483Y0208096D02*
X0070766Y0208813D01*
X0069331Y0208813D01*
X0068614Y0208096D01*
X0068614Y0205227D01*
X0069331Y0204509D01*
X0070766Y0204509D01*
X0071483Y0205227D01*
X0066979Y0204509D02*
X0065545Y0204509D01*
X0066262Y0204509D02*
X0066262Y0208813D01*
X0065545Y0208813D02*
X0066979Y0208813D01*
D13*
X0070312Y0117672D02*
X0072514Y0117672D01*
X0073248Y0116938D01*
X0073248Y0116204D01*
X0072514Y0115470D01*
X0070312Y0115470D01*
X0070312Y0113269D02*
X0070312Y0117672D01*
X0072514Y0115470D02*
X0073248Y0114736D01*
X0073248Y0114002D01*
X0072514Y0113269D01*
X0070312Y0113269D01*
X0072614Y0111767D02*
X0074816Y0111767D01*
X0075549Y0111033D01*
X0075549Y0109565D01*
X0074816Y0108831D01*
X0072614Y0108831D01*
X0072614Y0107363D02*
X0072614Y0111767D01*
X0074916Y0114002D02*
X0075650Y0113269D01*
X0077117Y0113269D01*
X0077851Y0114002D01*
X0077851Y0116938D01*
X0077117Y0117672D01*
X0075650Y0117672D01*
X0074916Y0116938D01*
X0074916Y0114002D01*
X0077218Y0111767D02*
X0077218Y0107363D01*
X0080153Y0107363D01*
X0081821Y0108097D02*
X0082555Y0107363D01*
X0084023Y0107363D01*
X0084757Y0108097D01*
X0086425Y0108097D02*
X0089361Y0111033D01*
X0089361Y0108097D01*
X0088627Y0107363D01*
X0087159Y0107363D01*
X0086425Y0108097D01*
X0086425Y0111033D01*
X0087159Y0111767D01*
X0088627Y0111767D01*
X0089361Y0111033D01*
X0091029Y0111033D02*
X0091029Y0110299D01*
X0091763Y0109565D01*
X0093965Y0109565D01*
X0093965Y0111033D02*
X0093231Y0111767D01*
X0091763Y0111767D01*
X0091029Y0111033D01*
X0091663Y0113269D02*
X0091663Y0117672D01*
X0093331Y0116938D02*
X0093331Y0116204D01*
X0094065Y0115470D01*
X0095533Y0115470D01*
X0096267Y0114736D01*
X0096267Y0114002D01*
X0095533Y0113269D01*
X0094065Y0113269D01*
X0093331Y0114002D01*
X0091663Y0113269D02*
X0088727Y0117672D01*
X0088727Y0113269D01*
X0087059Y0113269D02*
X0085591Y0114736D01*
X0086325Y0114736D02*
X0084123Y0114736D01*
X0084123Y0113269D02*
X0084123Y0117672D01*
X0086325Y0117672D01*
X0087059Y0116938D01*
X0087059Y0115470D01*
X0086325Y0114736D01*
X0084023Y0111767D02*
X0084757Y0111033D01*
X0084023Y0111767D02*
X0082555Y0111767D01*
X0081821Y0111033D01*
X0081821Y0108097D01*
X0078685Y0109565D02*
X0077218Y0109565D01*
X0077218Y0111767D02*
X0080153Y0111767D01*
X0080253Y0113269D02*
X0081721Y0113269D01*
X0082455Y0114002D01*
X0082455Y0117672D01*
X0079520Y0117672D02*
X0079520Y0114002D01*
X0080253Y0113269D01*
X0091029Y0108097D02*
X0091763Y0107363D01*
X0093231Y0107363D01*
X0093965Y0108097D01*
X0093965Y0111033D01*
X0093331Y0116938D02*
X0094065Y0117672D01*
X0095533Y0117672D01*
X0096267Y0116938D01*
X0088627Y0094050D02*
X0087159Y0094050D01*
X0086425Y0093316D01*
X0084757Y0094050D02*
X0084757Y0089646D01*
X0083289Y0091114D01*
X0081822Y0089646D01*
X0081822Y0094050D01*
X0080153Y0093316D02*
X0079419Y0094050D01*
X0077952Y0094050D01*
X0077218Y0093316D01*
X0077218Y0092582D01*
X0077952Y0091848D01*
X0079419Y0091848D01*
X0080153Y0091114D01*
X0080153Y0090380D01*
X0079419Y0089646D01*
X0077952Y0089646D01*
X0077218Y0090380D01*
X0086425Y0090380D02*
X0087159Y0089646D01*
X0088627Y0089646D01*
X0089361Y0090380D01*
X0089361Y0091114D01*
X0088627Y0091848D01*
X0087893Y0091848D01*
X0088627Y0091848D02*
X0089361Y0092582D01*
X0089361Y0093316D01*
X0088627Y0094050D01*
X0150380Y0145821D02*
X0150380Y0147289D01*
X0150380Y0146555D02*
X0154783Y0146555D01*
X0154783Y0145821D02*
X0154783Y0147289D01*
X0154049Y0148890D02*
X0151114Y0148890D01*
X0150380Y0149624D01*
X0150380Y0151092D01*
X0151114Y0151826D01*
X0150380Y0153494D02*
X0152581Y0153494D01*
X0151847Y0154962D01*
X0151847Y0155696D01*
X0152581Y0156430D01*
X0154049Y0156430D01*
X0154783Y0155696D01*
X0154783Y0154228D01*
X0154049Y0153494D01*
X0154049Y0151826D02*
X0154783Y0151092D01*
X0154783Y0149624D01*
X0154049Y0148890D01*
X0150380Y0153494D02*
X0150380Y0156430D01*
X0208107Y0117672D02*
X0208107Y0113269D01*
X0210309Y0113269D01*
X0211043Y0114002D01*
X0211043Y0114736D01*
X0210309Y0115470D01*
X0208107Y0115470D01*
X0210309Y0115470D02*
X0211043Y0116204D01*
X0211043Y0116938D01*
X0210309Y0117672D01*
X0208107Y0117672D01*
X0210409Y0111767D02*
X0212611Y0111767D01*
X0213345Y0111033D01*
X0213345Y0109565D01*
X0212611Y0108831D01*
X0210409Y0108831D01*
X0210409Y0107363D02*
X0210409Y0111767D01*
X0212711Y0114002D02*
X0212711Y0116938D01*
X0213445Y0117672D01*
X0214913Y0117672D01*
X0215647Y0116938D01*
X0215647Y0114002D01*
X0214913Y0113269D01*
X0213445Y0113269D01*
X0212711Y0114002D01*
X0215013Y0111767D02*
X0215013Y0107363D01*
X0217949Y0107363D01*
X0219617Y0108097D02*
X0220351Y0107363D01*
X0221819Y0107363D01*
X0222553Y0108097D01*
X0224221Y0108097D02*
X0227157Y0111033D01*
X0227157Y0108097D01*
X0226423Y0107363D01*
X0224955Y0107363D01*
X0224221Y0108097D01*
X0224221Y0111033D01*
X0224955Y0111767D01*
X0226423Y0111767D01*
X0227157Y0111033D01*
X0228825Y0111033D02*
X0229559Y0111767D01*
X0231026Y0111767D01*
X0231760Y0111033D01*
X0231760Y0108097D01*
X0231026Y0107363D01*
X0229559Y0107363D01*
X0228825Y0108097D01*
X0229559Y0109565D02*
X0231760Y0109565D01*
X0229559Y0109565D02*
X0228825Y0110299D01*
X0228825Y0111033D01*
X0229459Y0113269D02*
X0229459Y0117672D01*
X0231127Y0116938D02*
X0231127Y0116204D01*
X0231861Y0115470D01*
X0233328Y0115470D01*
X0234062Y0114736D01*
X0234062Y0114002D01*
X0233328Y0113269D01*
X0231861Y0113269D01*
X0231127Y0114002D01*
X0229459Y0113269D02*
X0226523Y0117672D01*
X0226523Y0113269D01*
X0224855Y0113269D02*
X0223387Y0114736D01*
X0224121Y0114736D02*
X0221919Y0114736D01*
X0221919Y0113269D02*
X0221919Y0117672D01*
X0224121Y0117672D01*
X0224855Y0116938D01*
X0224855Y0115470D01*
X0224121Y0114736D01*
X0221819Y0111767D02*
X0220351Y0111767D01*
X0219617Y0111033D01*
X0219617Y0108097D01*
X0216481Y0109565D02*
X0215013Y0109565D01*
X0215013Y0111767D02*
X0217949Y0111767D01*
X0218049Y0113269D02*
X0219517Y0113269D01*
X0220251Y0114002D01*
X0220251Y0117672D01*
X0217315Y0117672D02*
X0217315Y0114002D01*
X0218049Y0113269D01*
X0221819Y0111767D02*
X0222553Y0111033D01*
X0231127Y0116938D02*
X0231861Y0117672D01*
X0233328Y0117672D01*
X0234062Y0116938D01*
X0226423Y0094050D02*
X0224221Y0091848D01*
X0227157Y0091848D01*
X0226423Y0089646D02*
X0226423Y0094050D01*
X0222553Y0094050D02*
X0222553Y0089646D01*
X0221085Y0091114D01*
X0219617Y0089646D01*
X0219617Y0094050D01*
X0217949Y0093316D02*
X0217215Y0094050D01*
X0215747Y0094050D01*
X0215013Y0093316D01*
X0215013Y0092582D01*
X0215747Y0091848D01*
X0217215Y0091848D01*
X0217949Y0091114D01*
X0217949Y0090380D01*
X0217215Y0089646D01*
X0215747Y0089646D01*
X0215013Y0090380D01*
X0214790Y0171059D02*
X0214790Y0174169D01*
M02*
