G75*
%MOIN*%
%OFA0B0*%
%FSLAX25Y25*%
%IPPOS*%
%LPD*%
%AMOC8*
5,1,8,0,0,1.08239X$1,22.5*
%
%ADD10R,0.06693X0.02559*%
%ADD11C,0.05937*%
%ADD12R,0.05906X0.05118*%
%ADD13R,0.18504X0.05709*%
%ADD14R,0.41339X0.42913*%
%ADD15R,0.07800X0.02200*%
%ADD16R,0.08661X0.02362*%
%ADD17R,0.09449X0.09449*%
%ADD18C,0.10000*%
%ADD19OC8,0.10000*%
%ADD20R,0.05118X0.05906*%
%ADD21C,0.09843*%
%ADD22C,0.07677*%
%ADD23C,0.06496*%
%ADD24C,0.02400*%
%ADD25C,0.31496*%
%ADD26C,0.00787*%
%ADD27C,0.03962*%
%ADD28C,0.15000*%
D10*
X0088681Y0101250D03*
X0088681Y0106250D03*
X0088681Y0111250D03*
X0088681Y0116250D03*
X0088681Y0121250D03*
X0088681Y0126250D03*
X0088681Y0131250D03*
X0088681Y0136250D03*
X0088681Y0141250D03*
X0088681Y0146250D03*
X0088681Y0151250D03*
X0088681Y0156250D03*
X0088681Y0161250D03*
X0088681Y0166250D03*
X0126319Y0166250D03*
X0126319Y0161250D03*
X0126319Y0156250D03*
X0126319Y0151250D03*
X0126319Y0146250D03*
X0126319Y0141250D03*
X0126319Y0136250D03*
X0126319Y0131250D03*
X0126319Y0126250D03*
X0126319Y0121250D03*
X0126319Y0116250D03*
X0126319Y0111250D03*
X0126319Y0106250D03*
X0126319Y0101250D03*
D11*
X0127500Y0198281D02*
X0127500Y0204219D01*
X0117500Y0204219D02*
X0117500Y0198281D01*
X0107500Y0198281D02*
X0107500Y0204219D01*
X0097500Y0204219D02*
X0097500Y0198281D01*
X0087500Y0198281D02*
X0087500Y0204219D01*
D12*
X0080000Y0157490D03*
X0080000Y0150010D03*
X0071250Y0150010D03*
X0071250Y0157490D03*
X0080000Y0137490D03*
X0080000Y0130010D03*
X0135000Y0127490D03*
X0135000Y0120010D03*
D13*
X0210039Y0115984D03*
X0210039Y0135984D03*
X0210039Y0178976D03*
X0210039Y0198976D03*
D14*
X0246063Y0188976D03*
X0246063Y0125984D03*
D15*
X0184300Y0136250D03*
X0184300Y0141250D03*
X0184300Y0146250D03*
X0184300Y0151250D03*
X0165700Y0151250D03*
X0165700Y0146250D03*
X0165700Y0141250D03*
X0165700Y0136250D03*
D16*
X0117736Y0231250D03*
X0117736Y0236250D03*
X0117736Y0241250D03*
X0117736Y0246250D03*
X0097264Y0246250D03*
X0097264Y0241250D03*
X0097264Y0236250D03*
X0097264Y0231250D03*
D17*
X0085000Y0228907D03*
X0085000Y0248593D03*
X0130000Y0248593D03*
X0130000Y0228907D03*
D18*
X0207785Y0246063D03*
X0207785Y0068898D03*
D19*
X0207785Y0088583D03*
X0207785Y0226378D03*
D20*
X0178740Y0128750D03*
X0171260Y0128750D03*
D21*
X0127500Y0062500D03*
X0127500Y0042500D03*
X0127500Y0022500D03*
X0107500Y0062500D03*
X0087500Y0062500D03*
X0087500Y0042500D03*
X0087500Y0022500D03*
D22*
X0087795Y0283563D02*
X0087795Y0291240D01*
X0067795Y0291240D02*
X0067795Y0283563D01*
X0107795Y0283563D02*
X0107795Y0291240D01*
X0127795Y0291240D02*
X0127795Y0283563D01*
X0147795Y0283563D02*
X0147795Y0291240D01*
X0167795Y0291240D02*
X0167795Y0283563D01*
X0187795Y0283563D02*
X0187795Y0291240D01*
X0207795Y0291240D02*
X0207795Y0283563D01*
D23*
X0255157Y0246220D02*
X0261654Y0246220D01*
X0261654Y0226220D02*
X0255157Y0226220D01*
X0255157Y0088740D02*
X0261654Y0088740D01*
X0261654Y0068740D02*
X0255157Y0068740D01*
D24*
X0246063Y0088740D02*
X0246063Y0100748D01*
X0244154Y0100748D01*
X0206654Y0135748D02*
X0206654Y0135984D01*
X0206299Y0135984D01*
X0206299Y0136250D01*
X0184300Y0136250D01*
X0184300Y0141250D02*
X0177500Y0141250D01*
X0177500Y0128750D01*
X0178740Y0128750D01*
X0192500Y0128750D01*
X0184300Y0146250D02*
X0175000Y0146250D01*
X0175000Y0198976D01*
X0206299Y0198976D01*
X0244154Y0213898D02*
X0244154Y0218898D01*
X0246063Y0218898D01*
X0244154Y0213898D02*
X0249154Y0213898D01*
X0165700Y0146250D02*
X0126319Y0146250D01*
X0135000Y0141250D02*
X0135000Y0127490D01*
X0135000Y0126250D01*
X0126319Y0126250D01*
X0118750Y0126250D01*
X0118750Y0077500D01*
X0127500Y0077500D01*
X0127500Y0062500D01*
X0107500Y0062500D02*
X0107500Y0077500D01*
X0107500Y0146250D01*
X0088681Y0146250D01*
X0088681Y0151250D02*
X0082500Y0151250D01*
X0080000Y0150010D01*
X0071250Y0150010D01*
X0071250Y0157490D02*
X0072096Y0158140D01*
X0072096Y0228907D01*
X0072096Y0258750D01*
X0087795Y0258750D01*
X0087795Y0287402D01*
X0084596Y0249528D02*
X0085000Y0248593D01*
X0084596Y0242303D01*
X0097264Y0241250D01*
X0097264Y0236250D01*
X0097264Y0231250D02*
X0085000Y0231250D01*
X0085000Y0228907D01*
X0072096Y0228907D01*
X0084596Y0229528D02*
X0085000Y0228907D01*
X0097500Y0201250D02*
X0097500Y0188750D01*
X0097500Y0166250D01*
X0088681Y0166250D01*
X0107500Y0166250D02*
X0107500Y0188750D01*
X0107500Y0201250D01*
X0117500Y0201250D02*
X0117500Y0188750D01*
X0117500Y0171250D01*
X0133750Y0171250D01*
X0133750Y0161250D01*
X0126319Y0161250D01*
X0126319Y0166250D02*
X0107500Y0166250D01*
X0127500Y0176250D02*
X0138750Y0176250D01*
X0138750Y0151250D01*
X0135000Y0151250D01*
X0155000Y0136250D02*
X0155000Y0111250D01*
X0126319Y0111250D01*
X0126319Y0121250D02*
X0136319Y0120640D01*
X0135000Y0120010D01*
X0155000Y0136250D02*
X0165700Y0136250D01*
X0127500Y0176250D02*
X0127500Y0188750D01*
X0127500Y0201250D01*
X0127500Y0231250D01*
X0131250Y0231250D01*
X0130000Y0228907D01*
X0127500Y0231250D02*
X0117736Y0231250D01*
X0117736Y0236250D02*
X0117736Y0241250D01*
X0088681Y0136250D02*
X0080000Y0136250D01*
X0080000Y0137490D01*
X0080846Y0130640D02*
X0080000Y0130010D01*
X0080846Y0130640D02*
X0088681Y0131250D01*
D25*
X0023622Y0023622D03*
X0023622Y0291339D03*
X0251969Y0291339D03*
X0251969Y0023622D03*
D26*
X0002306Y0002306D02*
X0001504Y0003246D01*
X0000858Y0004299D01*
X0000385Y0005441D01*
X0000097Y0006642D01*
X0000000Y0007874D01*
X0000000Y0307087D01*
X0000097Y0308318D01*
X0000385Y0309520D01*
X0000858Y0310661D01*
X0001504Y0311715D01*
X0002306Y0312654D01*
X0003246Y0313457D01*
X0004299Y0314102D01*
X0005441Y0314575D01*
X0006642Y0314864D01*
X0007874Y0314961D01*
X0084239Y0314961D01*
X0082707Y0314326D01*
X0080044Y0311663D01*
X0078602Y0308183D01*
X0078602Y0284416D01*
X0080044Y0280936D01*
X0082707Y0278272D01*
X0084627Y0277477D01*
X0084627Y0261918D01*
X0071466Y0261918D01*
X0070302Y0261436D01*
X0069410Y0260545D01*
X0068928Y0259380D01*
X0068928Y0162018D01*
X0067482Y0162018D01*
X0066329Y0160865D01*
X0066329Y0154116D01*
X0066694Y0153750D01*
X0066329Y0153384D01*
X0066329Y0146635D01*
X0067482Y0145482D01*
X0075018Y0145482D01*
X0075625Y0146089D01*
X0076232Y0145482D01*
X0083366Y0145482D01*
X0083366Y0144155D01*
X0083771Y0143750D01*
X0083366Y0143345D01*
X0083366Y0142018D01*
X0076232Y0142018D01*
X0075079Y0140865D01*
X0075079Y0134116D01*
X0076232Y0132963D01*
X0083768Y0132963D01*
X0083887Y0133081D01*
X0084440Y0133081D01*
X0084519Y0133002D01*
X0092843Y0133002D01*
X0093996Y0134155D01*
X0093996Y0138345D01*
X0093591Y0138750D01*
X0093996Y0139155D01*
X0093996Y0143081D01*
X0104331Y0143081D01*
X0104331Y0079917D01*
X0104152Y0079737D01*
X0103550Y0078286D01*
X0103550Y0076714D01*
X0104152Y0075263D01*
X0104331Y0075083D01*
X0104331Y0068645D01*
X0103597Y0068341D01*
X0101659Y0066403D01*
X0100610Y0063870D01*
X0100610Y0061130D01*
X0101659Y0058597D01*
X0103597Y0056659D01*
X0106130Y0055610D01*
X0108870Y0055610D01*
X0111403Y0056659D01*
X0113341Y0058597D01*
X0114390Y0061130D01*
X0114390Y0063870D01*
X0113341Y0066403D01*
X0111403Y0068341D01*
X0110668Y0068645D01*
X0110668Y0075083D01*
X0110848Y0075263D01*
X0111450Y0076714D01*
X0111450Y0078286D01*
X0110848Y0079737D01*
X0110668Y0079917D01*
X0110668Y0146880D01*
X0110186Y0148045D01*
X0109295Y0148936D01*
X0108130Y0149418D01*
X0093996Y0149418D01*
X0093996Y0153345D01*
X0093591Y0153750D01*
X0093996Y0154155D01*
X0093996Y0158345D01*
X0093591Y0158750D01*
X0093996Y0159155D01*
X0093996Y0163081D01*
X0098130Y0163081D01*
X0099295Y0163564D01*
X0100186Y0164455D01*
X0100668Y0165620D01*
X0100668Y0186333D01*
X0100848Y0186513D01*
X0101450Y0187964D01*
X0101450Y0189536D01*
X0100848Y0190987D01*
X0100668Y0191167D01*
X0100668Y0194468D01*
X0101685Y0195485D01*
X0102437Y0197299D01*
X0102437Y0205201D01*
X0101685Y0207015D01*
X0100297Y0208404D01*
X0098482Y0209155D01*
X0096518Y0209155D01*
X0094703Y0208404D01*
X0093315Y0207015D01*
X0092563Y0205201D01*
X0092563Y0197299D01*
X0093315Y0195485D01*
X0094331Y0194468D01*
X0094331Y0191167D01*
X0094152Y0190987D01*
X0093550Y0189536D01*
X0093550Y0187964D01*
X0094152Y0186513D01*
X0094331Y0186333D01*
X0094331Y0169418D01*
X0092922Y0169418D01*
X0092843Y0169498D01*
X0084519Y0169498D01*
X0083366Y0168345D01*
X0083366Y0164155D01*
X0083771Y0163750D01*
X0083366Y0163345D01*
X0083366Y0159155D01*
X0083771Y0158750D01*
X0083366Y0158345D01*
X0083366Y0154537D01*
X0076232Y0154537D01*
X0076171Y0154477D01*
X0076171Y0160865D01*
X0075265Y0161771D01*
X0075265Y0225739D01*
X0078307Y0225739D01*
X0078307Y0223368D01*
X0079460Y0222215D01*
X0090540Y0222215D01*
X0091693Y0223368D01*
X0091693Y0228081D01*
X0097894Y0228081D01*
X0097940Y0228100D01*
X0102410Y0228100D01*
X0103563Y0229254D01*
X0103563Y0233246D01*
X0102410Y0234400D01*
X0097940Y0234400D01*
X0097894Y0234418D01*
X0091693Y0234418D01*
X0091693Y0234447D01*
X0090540Y0235600D01*
X0079460Y0235600D01*
X0078307Y0234447D01*
X0078307Y0232076D01*
X0075265Y0232076D01*
X0075265Y0255581D01*
X0088426Y0255581D01*
X0089590Y0256064D01*
X0090481Y0256955D01*
X0090964Y0258120D01*
X0090964Y0277249D01*
X0093434Y0278272D01*
X0096098Y0280936D01*
X0097539Y0284416D01*
X0097539Y0296831D01*
X0118602Y0296831D01*
X0118602Y0284416D01*
X0120044Y0280936D01*
X0122707Y0278272D01*
X0126187Y0276831D01*
X0129954Y0276831D01*
X0133434Y0278272D01*
X0136098Y0280936D01*
X0137539Y0284416D01*
X0137539Y0296831D01*
X0158602Y0296831D01*
X0158602Y0284416D01*
X0160044Y0280936D01*
X0162707Y0278272D01*
X0166187Y0276831D01*
X0169954Y0276831D01*
X0173434Y0278272D01*
X0176098Y0280936D01*
X0177539Y0284416D01*
X0177539Y0296831D01*
X0198602Y0296831D01*
X0198602Y0284416D01*
X0200044Y0280936D01*
X0202707Y0278272D01*
X0206187Y0276831D01*
X0209954Y0276831D01*
X0213434Y0278272D01*
X0216098Y0280936D01*
X0217539Y0284416D01*
X0217539Y0308183D01*
X0216098Y0311663D01*
X0213434Y0314326D01*
X0211903Y0314961D01*
X0267717Y0314961D01*
X0268948Y0314864D01*
X0270150Y0314575D01*
X0271291Y0314102D01*
X0272345Y0313457D01*
X0273284Y0312654D01*
X0274087Y0311715D01*
X0274732Y0310661D01*
X0275205Y0309520D01*
X0275494Y0308318D01*
X0275591Y0307087D01*
X0275591Y0007874D01*
X0275494Y0006642D01*
X0275205Y0005441D01*
X0274732Y0004299D01*
X0274087Y0003246D01*
X0273284Y0002306D01*
X0272345Y0001504D01*
X0271291Y0000858D01*
X0270150Y0000385D01*
X0268948Y0000097D01*
X0267717Y0000000D01*
X0007874Y0000000D01*
X0006642Y0000097D01*
X0005441Y0000385D01*
X0004299Y0000858D01*
X0003246Y0001504D01*
X0002306Y0002306D01*
X0002262Y0002358D02*
X0273328Y0002358D01*
X0274000Y0003144D02*
X0001591Y0003144D01*
X0001085Y0003930D02*
X0274506Y0003930D01*
X0274905Y0004715D02*
X0000686Y0004715D01*
X0000371Y0005501D02*
X0275220Y0005501D01*
X0275408Y0006287D02*
X0000182Y0006287D01*
X0000063Y0007073D02*
X0275528Y0007073D01*
X0275589Y0007859D02*
X0000001Y0007859D01*
X0000000Y0008645D02*
X0275591Y0008645D01*
X0275591Y0009431D02*
X0000000Y0009431D01*
X0000000Y0010217D02*
X0275591Y0010217D01*
X0275591Y0011003D02*
X0000000Y0011003D01*
X0000000Y0011789D02*
X0275591Y0011789D01*
X0275591Y0012575D02*
X0000000Y0012575D01*
X0000000Y0013361D02*
X0275591Y0013361D01*
X0275591Y0014146D02*
X0000000Y0014146D01*
X0000000Y0014932D02*
X0275591Y0014932D01*
X0275591Y0015718D02*
X0129131Y0015718D01*
X0128870Y0015610D02*
X0131403Y0016659D01*
X0133341Y0018597D01*
X0134390Y0021130D01*
X0134390Y0023870D01*
X0133341Y0026403D01*
X0131403Y0028341D01*
X0128870Y0029390D01*
X0126130Y0029390D01*
X0123597Y0028341D01*
X0121659Y0026403D01*
X0120610Y0023870D01*
X0120610Y0021130D01*
X0121659Y0018597D01*
X0123597Y0016659D01*
X0126130Y0015610D01*
X0128870Y0015610D01*
X0131029Y0016504D02*
X0275591Y0016504D01*
X0275591Y0017290D02*
X0132034Y0017290D01*
X0132820Y0018076D02*
X0275591Y0018076D01*
X0275591Y0018862D02*
X0133450Y0018862D01*
X0133776Y0019648D02*
X0275591Y0019648D01*
X0275591Y0020434D02*
X0134102Y0020434D01*
X0134390Y0021220D02*
X0275591Y0021220D01*
X0275591Y0022006D02*
X0134390Y0022006D01*
X0134390Y0022791D02*
X0275591Y0022791D01*
X0275591Y0023577D02*
X0134390Y0023577D01*
X0134186Y0024363D02*
X0275591Y0024363D01*
X0275591Y0025149D02*
X0133860Y0025149D01*
X0133535Y0025935D02*
X0275591Y0025935D01*
X0275591Y0026721D02*
X0133023Y0026721D01*
X0132237Y0027507D02*
X0275591Y0027507D01*
X0275591Y0028293D02*
X0131451Y0028293D01*
X0129621Y0029079D02*
X0275591Y0029079D01*
X0275591Y0029865D02*
X0000000Y0029865D01*
X0000000Y0030651D02*
X0275591Y0030651D01*
X0275591Y0031437D02*
X0000000Y0031437D01*
X0000000Y0032222D02*
X0275591Y0032222D01*
X0275591Y0033008D02*
X0000000Y0033008D01*
X0000000Y0033794D02*
X0275591Y0033794D01*
X0275591Y0034580D02*
X0000000Y0034580D01*
X0000000Y0035366D02*
X0275591Y0035366D01*
X0275591Y0036152D02*
X0130178Y0036152D01*
X0131403Y0036659D02*
X0128870Y0035610D01*
X0126130Y0035610D01*
X0123597Y0036659D01*
X0121659Y0038597D01*
X0120610Y0041130D01*
X0120610Y0043870D01*
X0121659Y0046403D01*
X0123597Y0048341D01*
X0126130Y0049390D01*
X0128870Y0049390D01*
X0131403Y0048341D01*
X0133341Y0046403D01*
X0134390Y0043870D01*
X0134390Y0041130D01*
X0133341Y0038597D01*
X0131403Y0036659D01*
X0131681Y0036938D02*
X0275591Y0036938D01*
X0275591Y0037724D02*
X0132467Y0037724D01*
X0133253Y0038510D02*
X0275591Y0038510D01*
X0275591Y0039296D02*
X0133630Y0039296D01*
X0133956Y0040082D02*
X0275591Y0040082D01*
X0275591Y0040867D02*
X0134281Y0040867D01*
X0134390Y0041653D02*
X0275591Y0041653D01*
X0275591Y0042439D02*
X0134390Y0042439D01*
X0134390Y0043225D02*
X0275591Y0043225D01*
X0275591Y0044011D02*
X0134331Y0044011D01*
X0134006Y0044797D02*
X0275591Y0044797D01*
X0275591Y0045583D02*
X0133680Y0045583D01*
X0133355Y0046369D02*
X0275591Y0046369D01*
X0275591Y0047155D02*
X0132589Y0047155D01*
X0131803Y0047941D02*
X0275591Y0047941D01*
X0275591Y0048727D02*
X0130471Y0048727D01*
X0124529Y0048727D02*
X0090471Y0048727D01*
X0091403Y0048341D02*
X0088870Y0049390D01*
X0086130Y0049390D01*
X0083597Y0048341D01*
X0081659Y0046403D01*
X0080610Y0043870D01*
X0080610Y0041130D01*
X0081659Y0038597D01*
X0083597Y0036659D01*
X0086130Y0035610D01*
X0088870Y0035610D01*
X0091403Y0036659D01*
X0093341Y0038597D01*
X0094390Y0041130D01*
X0094390Y0043870D01*
X0093341Y0046403D01*
X0091403Y0048341D01*
X0091803Y0047941D02*
X0123197Y0047941D01*
X0122411Y0047155D02*
X0092589Y0047155D01*
X0093355Y0046369D02*
X0121645Y0046369D01*
X0121320Y0045583D02*
X0093680Y0045583D01*
X0094006Y0044797D02*
X0120994Y0044797D01*
X0120669Y0044011D02*
X0094331Y0044011D01*
X0094390Y0043225D02*
X0120610Y0043225D01*
X0120610Y0042439D02*
X0094390Y0042439D01*
X0094390Y0041653D02*
X0120610Y0041653D01*
X0120719Y0040867D02*
X0094281Y0040867D01*
X0093956Y0040082D02*
X0121044Y0040082D01*
X0121370Y0039296D02*
X0093630Y0039296D01*
X0093253Y0038510D02*
X0121747Y0038510D01*
X0122533Y0037724D02*
X0092467Y0037724D01*
X0091681Y0036938D02*
X0123318Y0036938D01*
X0124822Y0036152D02*
X0090178Y0036152D01*
X0084822Y0036152D02*
X0000000Y0036152D01*
X0000000Y0036938D02*
X0083318Y0036938D01*
X0082533Y0037724D02*
X0000000Y0037724D01*
X0000000Y0038510D02*
X0081747Y0038510D01*
X0081370Y0039296D02*
X0000000Y0039296D01*
X0000000Y0040082D02*
X0081044Y0040082D01*
X0080719Y0040867D02*
X0000000Y0040867D01*
X0000000Y0041653D02*
X0080610Y0041653D01*
X0080610Y0042439D02*
X0000000Y0042439D01*
X0000000Y0043225D02*
X0080610Y0043225D01*
X0080669Y0044011D02*
X0000000Y0044011D01*
X0000000Y0044797D02*
X0080994Y0044797D01*
X0081320Y0045583D02*
X0000000Y0045583D01*
X0000000Y0046369D02*
X0081645Y0046369D01*
X0082411Y0047155D02*
X0000000Y0047155D01*
X0000000Y0047941D02*
X0083197Y0047941D01*
X0084529Y0048727D02*
X0000000Y0048727D01*
X0000000Y0049513D02*
X0275591Y0049513D01*
X0275591Y0050298D02*
X0000000Y0050298D01*
X0000000Y0051084D02*
X0275591Y0051084D01*
X0275591Y0051870D02*
X0000000Y0051870D01*
X0000000Y0052656D02*
X0275591Y0052656D01*
X0275591Y0053442D02*
X0000000Y0053442D01*
X0000000Y0054228D02*
X0275591Y0054228D01*
X0275591Y0055014D02*
X0000000Y0055014D01*
X0000000Y0055800D02*
X0105672Y0055800D01*
X0103774Y0056586D02*
X0000000Y0056586D01*
X0000000Y0057372D02*
X0102885Y0057372D01*
X0102099Y0058158D02*
X0000000Y0058158D01*
X0000000Y0058943D02*
X0101516Y0058943D01*
X0101190Y0059729D02*
X0000000Y0059729D01*
X0000000Y0060515D02*
X0100865Y0060515D01*
X0100610Y0061301D02*
X0000000Y0061301D01*
X0000000Y0062087D02*
X0100610Y0062087D01*
X0100610Y0062873D02*
X0000000Y0062873D01*
X0000000Y0063659D02*
X0100610Y0063659D01*
X0100848Y0064445D02*
X0000000Y0064445D01*
X0000000Y0065231D02*
X0101174Y0065231D01*
X0101499Y0066017D02*
X0000000Y0066017D01*
X0000000Y0066803D02*
X0102059Y0066803D01*
X0102845Y0067589D02*
X0000000Y0067589D01*
X0000000Y0068374D02*
X0103678Y0068374D01*
X0104331Y0069160D02*
X0000000Y0069160D01*
X0000000Y0069946D02*
X0104331Y0069946D01*
X0104331Y0070732D02*
X0000000Y0070732D01*
X0000000Y0071518D02*
X0104331Y0071518D01*
X0104331Y0072304D02*
X0000000Y0072304D01*
X0000000Y0073090D02*
X0104331Y0073090D01*
X0104331Y0073876D02*
X0000000Y0073876D01*
X0000000Y0074662D02*
X0104331Y0074662D01*
X0104075Y0075448D02*
X0000000Y0075448D01*
X0000000Y0076234D02*
X0103750Y0076234D01*
X0103550Y0077019D02*
X0000000Y0077019D01*
X0000000Y0077805D02*
X0103550Y0077805D01*
X0103677Y0078591D02*
X0000000Y0078591D01*
X0000000Y0079377D02*
X0104003Y0079377D01*
X0104331Y0080163D02*
X0000000Y0080163D01*
X0000000Y0080949D02*
X0104331Y0080949D01*
X0104331Y0081735D02*
X0000000Y0081735D01*
X0000000Y0082521D02*
X0104331Y0082521D01*
X0104331Y0083307D02*
X0000000Y0083307D01*
X0000000Y0084093D02*
X0104331Y0084093D01*
X0104331Y0084879D02*
X0000000Y0084879D01*
X0000000Y0085665D02*
X0104331Y0085665D01*
X0104331Y0086450D02*
X0000000Y0086450D01*
X0000000Y0087236D02*
X0104331Y0087236D01*
X0104331Y0088022D02*
X0000000Y0088022D01*
X0000000Y0088808D02*
X0104331Y0088808D01*
X0104331Y0089594D02*
X0000000Y0089594D01*
X0000000Y0090380D02*
X0104331Y0090380D01*
X0104331Y0091166D02*
X0000000Y0091166D01*
X0000000Y0091952D02*
X0104331Y0091952D01*
X0104331Y0092738D02*
X0000000Y0092738D01*
X0000000Y0093524D02*
X0104331Y0093524D01*
X0104331Y0094310D02*
X0000000Y0094310D01*
X0000000Y0095095D02*
X0104331Y0095095D01*
X0104331Y0095881D02*
X0000000Y0095881D01*
X0000000Y0096667D02*
X0104331Y0096667D01*
X0104331Y0097453D02*
X0000000Y0097453D01*
X0000000Y0098239D02*
X0084282Y0098239D01*
X0084519Y0098002D02*
X0083366Y0099155D01*
X0083366Y0103345D01*
X0083771Y0103750D01*
X0083366Y0104155D01*
X0083366Y0108345D01*
X0083771Y0108750D01*
X0083366Y0109155D01*
X0083366Y0113345D01*
X0083771Y0113750D01*
X0083366Y0114155D01*
X0083366Y0118345D01*
X0083771Y0118750D01*
X0083366Y0119155D01*
X0083366Y0123345D01*
X0083771Y0123750D01*
X0083366Y0124155D01*
X0083366Y0128345D01*
X0084519Y0129498D01*
X0092843Y0129498D01*
X0093996Y0128345D01*
X0093996Y0124155D01*
X0093591Y0123750D01*
X0093996Y0123345D01*
X0093996Y0119155D01*
X0093591Y0118750D01*
X0093996Y0118345D01*
X0093996Y0114155D01*
X0093591Y0113750D01*
X0093996Y0113345D01*
X0093996Y0109155D01*
X0093591Y0108750D01*
X0093996Y0108345D01*
X0093996Y0104155D01*
X0093591Y0103750D01*
X0093996Y0103345D01*
X0093996Y0099155D01*
X0092843Y0098002D01*
X0084519Y0098002D01*
X0083496Y0099025D02*
X0000000Y0099025D01*
X0000000Y0099811D02*
X0083366Y0099811D01*
X0083366Y0100597D02*
X0000000Y0100597D01*
X0000000Y0101383D02*
X0083366Y0101383D01*
X0083366Y0102169D02*
X0000000Y0102169D01*
X0000000Y0102955D02*
X0083366Y0102955D01*
X0083762Y0103741D02*
X0000000Y0103741D01*
X0000000Y0104526D02*
X0083366Y0104526D01*
X0083366Y0105312D02*
X0000000Y0105312D01*
X0000000Y0106098D02*
X0083366Y0106098D01*
X0083366Y0106884D02*
X0000000Y0106884D01*
X0000000Y0107670D02*
X0083366Y0107670D01*
X0083477Y0108456D02*
X0000000Y0108456D01*
X0000000Y0109242D02*
X0083366Y0109242D01*
X0083366Y0110028D02*
X0000000Y0110028D01*
X0000000Y0110814D02*
X0083366Y0110814D01*
X0083366Y0111600D02*
X0000000Y0111600D01*
X0000000Y0112386D02*
X0083366Y0112386D01*
X0083366Y0113171D02*
X0000000Y0113171D01*
X0000000Y0113957D02*
X0083564Y0113957D01*
X0083366Y0114743D02*
X0000000Y0114743D01*
X0000000Y0115529D02*
X0083366Y0115529D01*
X0083366Y0116315D02*
X0000000Y0116315D01*
X0000000Y0117101D02*
X0083366Y0117101D01*
X0083366Y0117887D02*
X0000000Y0117887D01*
X0000000Y0118673D02*
X0083694Y0118673D01*
X0083366Y0119459D02*
X0000000Y0119459D01*
X0000000Y0120245D02*
X0083366Y0120245D01*
X0083366Y0121031D02*
X0000000Y0121031D01*
X0000000Y0121816D02*
X0083366Y0121816D01*
X0083366Y0122602D02*
X0000000Y0122602D01*
X0000000Y0123388D02*
X0083410Y0123388D01*
X0083366Y0124174D02*
X0000000Y0124174D01*
X0000000Y0124960D02*
X0083366Y0124960D01*
X0083366Y0125746D02*
X0000000Y0125746D01*
X0000000Y0126532D02*
X0083366Y0126532D01*
X0083366Y0127318D02*
X0000000Y0127318D01*
X0000000Y0128104D02*
X0083366Y0128104D01*
X0083911Y0128890D02*
X0000000Y0128890D01*
X0000000Y0129676D02*
X0104331Y0129676D01*
X0104331Y0130462D02*
X0000000Y0130462D01*
X0000000Y0131247D02*
X0104331Y0131247D01*
X0104331Y0132033D02*
X0000000Y0132033D01*
X0000000Y0132819D02*
X0104331Y0132819D01*
X0104331Y0133605D02*
X0093446Y0133605D01*
X0093996Y0134391D02*
X0104331Y0134391D01*
X0104331Y0135177D02*
X0093996Y0135177D01*
X0093996Y0135963D02*
X0104331Y0135963D01*
X0104331Y0136749D02*
X0093996Y0136749D01*
X0093996Y0137535D02*
X0104331Y0137535D01*
X0104331Y0138321D02*
X0093996Y0138321D01*
X0093948Y0139107D02*
X0104331Y0139107D01*
X0104331Y0139892D02*
X0093996Y0139892D01*
X0093996Y0140678D02*
X0104331Y0140678D01*
X0104331Y0141464D02*
X0093996Y0141464D01*
X0093996Y0142250D02*
X0104331Y0142250D01*
X0104331Y0143036D02*
X0093996Y0143036D01*
X0093996Y0150109D02*
X0121004Y0150109D01*
X0121004Y0149323D02*
X0108360Y0149323D01*
X0109693Y0148538D02*
X0121197Y0148538D01*
X0121004Y0148345D02*
X0121004Y0144155D01*
X0121409Y0143750D01*
X0121004Y0143345D01*
X0121004Y0139155D01*
X0121409Y0138750D01*
X0121004Y0138345D01*
X0121004Y0134155D01*
X0121409Y0133750D01*
X0121004Y0133345D01*
X0121004Y0129418D01*
X0118120Y0129418D01*
X0116955Y0128936D01*
X0116064Y0128045D01*
X0115581Y0126880D01*
X0115581Y0076870D01*
X0116064Y0075705D01*
X0116955Y0074814D01*
X0118120Y0074331D01*
X0124331Y0074331D01*
X0124331Y0068645D01*
X0123597Y0068341D01*
X0121659Y0066403D01*
X0120610Y0063870D01*
X0120610Y0061130D01*
X0121659Y0058597D01*
X0123597Y0056659D01*
X0126130Y0055610D01*
X0128870Y0055610D01*
X0131403Y0056659D01*
X0133341Y0058597D01*
X0134390Y0061130D01*
X0134390Y0063870D01*
X0133341Y0066403D01*
X0131403Y0068341D01*
X0130668Y0068645D01*
X0130668Y0075083D01*
X0130848Y0075263D01*
X0131450Y0076714D01*
X0131450Y0078286D01*
X0130848Y0079737D01*
X0129737Y0080848D01*
X0128286Y0081450D01*
X0126714Y0081450D01*
X0125263Y0080848D01*
X0125083Y0080668D01*
X0121918Y0080668D01*
X0121918Y0098241D01*
X0122157Y0098002D01*
X0130481Y0098002D01*
X0131634Y0099155D01*
X0131634Y0103345D01*
X0131229Y0103750D01*
X0131634Y0104155D01*
X0131634Y0108081D01*
X0155630Y0108081D01*
X0156795Y0108564D01*
X0157686Y0109455D01*
X0158168Y0110620D01*
X0158168Y0133081D01*
X0166330Y0133081D01*
X0166572Y0133181D01*
X0170415Y0133181D01*
X0171568Y0134335D01*
X0171568Y0138165D01*
X0170415Y0139318D01*
X0166572Y0139318D01*
X0166330Y0139418D01*
X0154370Y0139418D01*
X0153205Y0138936D01*
X0152314Y0138045D01*
X0151831Y0136880D01*
X0151831Y0114418D01*
X0131634Y0114418D01*
X0131634Y0118345D01*
X0130481Y0119498D01*
X0122157Y0119498D01*
X0121918Y0119259D01*
X0121918Y0123081D01*
X0122078Y0123081D01*
X0122157Y0123002D01*
X0130481Y0123002D01*
X0130560Y0123081D01*
X0131113Y0123081D01*
X0131232Y0122963D01*
X0138768Y0122963D01*
X0139921Y0124116D01*
X0139921Y0130865D01*
X0138768Y0132018D01*
X0138168Y0132018D01*
X0138168Y0138833D01*
X0138348Y0139013D01*
X0138950Y0140464D01*
X0138950Y0142036D01*
X0138516Y0143081D01*
X0166330Y0143081D01*
X0166572Y0143181D01*
X0170415Y0143181D01*
X0171568Y0144335D01*
X0171568Y0148165D01*
X0170984Y0148750D01*
X0171568Y0149335D01*
X0171568Y0153165D01*
X0170415Y0154318D01*
X0160985Y0154318D01*
X0159831Y0153165D01*
X0159831Y0149418D01*
X0141399Y0149418D01*
X0141436Y0149455D01*
X0141918Y0150620D01*
X0141918Y0176880D01*
X0141436Y0178045D01*
X0140545Y0178936D01*
X0139380Y0179418D01*
X0130668Y0179418D01*
X0130668Y0186333D01*
X0130848Y0186513D01*
X0131450Y0187964D01*
X0131450Y0189536D01*
X0130848Y0190987D01*
X0130668Y0191167D01*
X0130668Y0194468D01*
X0131685Y0195485D01*
X0132437Y0197299D01*
X0132437Y0205201D01*
X0131685Y0207015D01*
X0130668Y0208032D01*
X0130668Y0222215D01*
X0135540Y0222215D01*
X0136693Y0223368D01*
X0136693Y0234447D01*
X0135540Y0235600D01*
X0124460Y0235600D01*
X0123307Y0234447D01*
X0123307Y0234418D01*
X0117106Y0234418D01*
X0117060Y0234400D01*
X0112590Y0234400D01*
X0111437Y0233246D01*
X0111437Y0229254D01*
X0112590Y0228100D01*
X0117060Y0228100D01*
X0117106Y0228081D01*
X0123307Y0228081D01*
X0123307Y0223368D01*
X0124331Y0222343D01*
X0124331Y0208032D01*
X0123315Y0207015D01*
X0122563Y0205201D01*
X0122563Y0197299D01*
X0123315Y0195485D01*
X0124331Y0194468D01*
X0124331Y0191167D01*
X0124152Y0190987D01*
X0123550Y0189536D01*
X0123550Y0187964D01*
X0124152Y0186513D01*
X0124331Y0186333D01*
X0124331Y0175620D01*
X0124814Y0174455D01*
X0124851Y0174418D01*
X0120668Y0174418D01*
X0120668Y0186333D01*
X0120848Y0186513D01*
X0121450Y0187964D01*
X0121450Y0189536D01*
X0120848Y0190987D01*
X0120668Y0191167D01*
X0120668Y0194468D01*
X0121685Y0195485D01*
X0122437Y0197299D01*
X0122437Y0205201D01*
X0121685Y0207015D01*
X0120297Y0208404D01*
X0118482Y0209155D01*
X0116518Y0209155D01*
X0114703Y0208404D01*
X0113315Y0207015D01*
X0112563Y0205201D01*
X0112563Y0197299D01*
X0113315Y0195485D01*
X0114331Y0194468D01*
X0114331Y0191167D01*
X0114152Y0190987D01*
X0113550Y0189536D01*
X0113550Y0187964D01*
X0114152Y0186513D01*
X0114331Y0186333D01*
X0114331Y0170620D01*
X0114814Y0169455D01*
X0114851Y0169418D01*
X0110668Y0169418D01*
X0110668Y0186333D01*
X0110848Y0186513D01*
X0111450Y0187964D01*
X0111450Y0189536D01*
X0110848Y0190987D01*
X0110668Y0191167D01*
X0110668Y0194468D01*
X0111685Y0195485D01*
X0112437Y0197299D01*
X0112437Y0205201D01*
X0111685Y0207015D01*
X0110297Y0208404D01*
X0108482Y0209155D01*
X0106518Y0209155D01*
X0104703Y0208404D01*
X0103315Y0207015D01*
X0102563Y0205201D01*
X0102563Y0197299D01*
X0103315Y0195485D01*
X0104331Y0194468D01*
X0104331Y0191167D01*
X0104152Y0190987D01*
X0103550Y0189536D01*
X0103550Y0187964D01*
X0104152Y0186513D01*
X0104331Y0186333D01*
X0104331Y0165620D01*
X0104814Y0164455D01*
X0105705Y0163564D01*
X0106870Y0163081D01*
X0121004Y0163081D01*
X0121004Y0159155D01*
X0121409Y0158750D01*
X0121004Y0158345D01*
X0121004Y0154155D01*
X0121409Y0153750D01*
X0121004Y0153345D01*
X0121004Y0149155D01*
X0121409Y0148750D01*
X0121004Y0148345D01*
X0121004Y0147752D02*
X0110308Y0147752D01*
X0110633Y0146966D02*
X0121004Y0146966D01*
X0121004Y0146180D02*
X0110668Y0146180D01*
X0110668Y0145394D02*
X0121004Y0145394D01*
X0121004Y0144608D02*
X0110668Y0144608D01*
X0110668Y0143822D02*
X0121337Y0143822D01*
X0121004Y0143036D02*
X0110668Y0143036D01*
X0110668Y0142250D02*
X0121004Y0142250D01*
X0121004Y0141464D02*
X0110668Y0141464D01*
X0110668Y0140678D02*
X0121004Y0140678D01*
X0121004Y0139892D02*
X0110668Y0139892D01*
X0110668Y0139107D02*
X0121052Y0139107D01*
X0121004Y0138321D02*
X0110668Y0138321D01*
X0110668Y0137535D02*
X0121004Y0137535D01*
X0121004Y0136749D02*
X0110668Y0136749D01*
X0110668Y0135963D02*
X0121004Y0135963D01*
X0121004Y0135177D02*
X0110668Y0135177D01*
X0110668Y0134391D02*
X0121004Y0134391D01*
X0121264Y0133605D02*
X0110668Y0133605D01*
X0110668Y0132819D02*
X0121004Y0132819D01*
X0121004Y0132033D02*
X0110668Y0132033D01*
X0110668Y0131247D02*
X0121004Y0131247D01*
X0121004Y0130462D02*
X0110668Y0130462D01*
X0110668Y0129676D02*
X0121004Y0129676D01*
X0116909Y0128890D02*
X0110668Y0128890D01*
X0110668Y0128104D02*
X0116123Y0128104D01*
X0115763Y0127318D02*
X0110668Y0127318D01*
X0110668Y0126532D02*
X0115581Y0126532D01*
X0115581Y0125746D02*
X0110668Y0125746D01*
X0110668Y0124960D02*
X0115581Y0124960D01*
X0115581Y0124174D02*
X0110668Y0124174D01*
X0110668Y0123388D02*
X0115581Y0123388D01*
X0115581Y0122602D02*
X0110668Y0122602D01*
X0110668Y0121816D02*
X0115581Y0121816D01*
X0115581Y0121031D02*
X0110668Y0121031D01*
X0110668Y0120245D02*
X0115581Y0120245D01*
X0115581Y0119459D02*
X0110668Y0119459D01*
X0110668Y0118673D02*
X0115581Y0118673D01*
X0115581Y0117887D02*
X0110668Y0117887D01*
X0110668Y0117101D02*
X0115581Y0117101D01*
X0115581Y0116315D02*
X0110668Y0116315D01*
X0110668Y0115529D02*
X0115581Y0115529D01*
X0115581Y0114743D02*
X0110668Y0114743D01*
X0110668Y0113957D02*
X0115581Y0113957D01*
X0115581Y0113171D02*
X0110668Y0113171D01*
X0110668Y0112386D02*
X0115581Y0112386D01*
X0115581Y0111600D02*
X0110668Y0111600D01*
X0110668Y0110814D02*
X0115581Y0110814D01*
X0115581Y0110028D02*
X0110668Y0110028D01*
X0110668Y0109242D02*
X0115581Y0109242D01*
X0115581Y0108456D02*
X0110668Y0108456D01*
X0110668Y0107670D02*
X0115581Y0107670D01*
X0115581Y0106884D02*
X0110668Y0106884D01*
X0110668Y0106098D02*
X0115581Y0106098D01*
X0115581Y0105312D02*
X0110668Y0105312D01*
X0110668Y0104526D02*
X0115581Y0104526D01*
X0115581Y0103741D02*
X0110668Y0103741D01*
X0110668Y0102955D02*
X0115581Y0102955D01*
X0115581Y0102169D02*
X0110668Y0102169D01*
X0110668Y0101383D02*
X0115581Y0101383D01*
X0115581Y0100597D02*
X0110668Y0100597D01*
X0110668Y0099811D02*
X0115581Y0099811D01*
X0115581Y0099025D02*
X0110668Y0099025D01*
X0110668Y0098239D02*
X0115581Y0098239D01*
X0115581Y0097453D02*
X0110668Y0097453D01*
X0110668Y0096667D02*
X0115581Y0096667D01*
X0115581Y0095881D02*
X0110668Y0095881D01*
X0110668Y0095095D02*
X0115581Y0095095D01*
X0115581Y0094310D02*
X0110668Y0094310D01*
X0110668Y0093524D02*
X0115581Y0093524D01*
X0115581Y0092738D02*
X0110668Y0092738D01*
X0110668Y0091952D02*
X0115581Y0091952D01*
X0115581Y0091166D02*
X0110668Y0091166D01*
X0110668Y0090380D02*
X0115581Y0090380D01*
X0115581Y0089594D02*
X0110668Y0089594D01*
X0110668Y0088808D02*
X0115581Y0088808D01*
X0115581Y0088022D02*
X0110668Y0088022D01*
X0110668Y0087236D02*
X0115581Y0087236D01*
X0115581Y0086450D02*
X0110668Y0086450D01*
X0110668Y0085665D02*
X0115581Y0085665D01*
X0115581Y0084879D02*
X0110668Y0084879D01*
X0110668Y0084093D02*
X0115581Y0084093D01*
X0115581Y0083307D02*
X0110668Y0083307D01*
X0110668Y0082521D02*
X0115581Y0082521D01*
X0115581Y0081735D02*
X0110668Y0081735D01*
X0110668Y0080949D02*
X0115581Y0080949D01*
X0115581Y0080163D02*
X0110668Y0080163D01*
X0110997Y0079377D02*
X0115581Y0079377D01*
X0115581Y0078591D02*
X0111323Y0078591D01*
X0111450Y0077805D02*
X0115581Y0077805D01*
X0115581Y0077019D02*
X0111450Y0077019D01*
X0111250Y0076234D02*
X0115845Y0076234D01*
X0116321Y0075448D02*
X0110925Y0075448D01*
X0110668Y0074662D02*
X0117322Y0074662D01*
X0110668Y0073876D02*
X0124331Y0073876D01*
X0124331Y0073090D02*
X0110668Y0073090D01*
X0110668Y0072304D02*
X0124331Y0072304D01*
X0124331Y0071518D02*
X0110668Y0071518D01*
X0110668Y0070732D02*
X0124331Y0070732D01*
X0124331Y0069946D02*
X0110668Y0069946D01*
X0110668Y0069160D02*
X0124331Y0069160D01*
X0123678Y0068374D02*
X0111322Y0068374D01*
X0112155Y0067589D02*
X0122845Y0067589D01*
X0122059Y0066803D02*
X0112941Y0066803D01*
X0113501Y0066017D02*
X0121499Y0066017D01*
X0121174Y0065231D02*
X0113826Y0065231D01*
X0114152Y0064445D02*
X0120848Y0064445D01*
X0120610Y0063659D02*
X0114390Y0063659D01*
X0114390Y0062873D02*
X0120610Y0062873D01*
X0120610Y0062087D02*
X0114390Y0062087D01*
X0114390Y0061301D02*
X0120610Y0061301D01*
X0120865Y0060515D02*
X0114135Y0060515D01*
X0113810Y0059729D02*
X0121190Y0059729D01*
X0121516Y0058943D02*
X0113484Y0058943D01*
X0112901Y0058158D02*
X0122099Y0058158D01*
X0122885Y0057372D02*
X0112115Y0057372D01*
X0111225Y0056586D02*
X0123774Y0056586D01*
X0125672Y0055800D02*
X0109328Y0055800D01*
X0129328Y0055800D02*
X0275591Y0055800D01*
X0275591Y0056586D02*
X0131225Y0056586D01*
X0132115Y0057372D02*
X0275591Y0057372D01*
X0275591Y0058158D02*
X0132901Y0058158D01*
X0133484Y0058943D02*
X0275591Y0058943D01*
X0275591Y0059729D02*
X0133810Y0059729D01*
X0134135Y0060515D02*
X0275591Y0060515D01*
X0275591Y0061301D02*
X0134390Y0061301D01*
X0134390Y0062087D02*
X0206018Y0062087D01*
X0206399Y0061929D02*
X0209172Y0061929D01*
X0211733Y0062990D01*
X0213693Y0064950D01*
X0214754Y0067512D01*
X0214754Y0070284D01*
X0213693Y0072845D01*
X0211733Y0074805D01*
X0209172Y0075866D01*
X0206399Y0075866D01*
X0203838Y0074805D01*
X0201878Y0072845D01*
X0200817Y0070284D01*
X0200817Y0067512D01*
X0201878Y0064950D01*
X0203838Y0062990D01*
X0206399Y0061929D01*
X0204121Y0062873D02*
X0134390Y0062873D01*
X0134390Y0063659D02*
X0203169Y0063659D01*
X0202383Y0064445D02*
X0134152Y0064445D01*
X0133826Y0065231D02*
X0201762Y0065231D01*
X0201436Y0066017D02*
X0133501Y0066017D01*
X0132941Y0066803D02*
X0201111Y0066803D01*
X0200817Y0067589D02*
X0132155Y0067589D01*
X0131322Y0068374D02*
X0200817Y0068374D01*
X0200817Y0069160D02*
X0130668Y0069160D01*
X0130668Y0069946D02*
X0200817Y0069946D01*
X0201003Y0070732D02*
X0130668Y0070732D01*
X0130668Y0071518D02*
X0201328Y0071518D01*
X0201654Y0072304D02*
X0130668Y0072304D01*
X0130668Y0073090D02*
X0202123Y0073090D01*
X0202909Y0073876D02*
X0130668Y0073876D01*
X0130668Y0074662D02*
X0203695Y0074662D01*
X0205389Y0075448D02*
X0130925Y0075448D01*
X0131250Y0076234D02*
X0275591Y0076234D01*
X0275591Y0077019D02*
X0131450Y0077019D01*
X0131450Y0077805D02*
X0275591Y0077805D01*
X0275591Y0078591D02*
X0131323Y0078591D01*
X0130997Y0079377D02*
X0243925Y0079377D01*
X0244180Y0079272D02*
X0260289Y0079272D01*
X0263769Y0080713D01*
X0266433Y0083377D01*
X0267874Y0086857D01*
X0267874Y0090624D01*
X0266433Y0094104D01*
X0263769Y0096767D01*
X0260289Y0098209D01*
X0255531Y0098209D01*
X0255531Y0102559D01*
X0267548Y0102559D01*
X0268701Y0103712D01*
X0268701Y0148256D01*
X0267548Y0149409D01*
X0224578Y0149409D01*
X0223425Y0148256D01*
X0223425Y0103712D01*
X0224578Y0102559D01*
X0236594Y0102559D01*
X0236594Y0086857D01*
X0238036Y0083377D01*
X0240700Y0080713D01*
X0244180Y0079272D01*
X0242027Y0080163D02*
X0130422Y0080163D01*
X0129494Y0080949D02*
X0240464Y0080949D01*
X0239678Y0081735D02*
X0121918Y0081735D01*
X0121918Y0082521D02*
X0238892Y0082521D01*
X0238106Y0083307D02*
X0121918Y0083307D01*
X0121918Y0084093D02*
X0237739Y0084093D01*
X0237414Y0084879D02*
X0121918Y0084879D01*
X0121918Y0085665D02*
X0237088Y0085665D01*
X0236763Y0086450D02*
X0121918Y0086450D01*
X0121918Y0087236D02*
X0236594Y0087236D01*
X0236594Y0088022D02*
X0121918Y0088022D01*
X0121918Y0088808D02*
X0236594Y0088808D01*
X0236594Y0089594D02*
X0121918Y0089594D01*
X0121918Y0090380D02*
X0236594Y0090380D01*
X0236594Y0091166D02*
X0121918Y0091166D01*
X0121918Y0091952D02*
X0236594Y0091952D01*
X0236594Y0092738D02*
X0121918Y0092738D01*
X0121918Y0093524D02*
X0236594Y0093524D01*
X0236594Y0094310D02*
X0121918Y0094310D01*
X0121918Y0095095D02*
X0236594Y0095095D01*
X0236594Y0095881D02*
X0121918Y0095881D01*
X0121918Y0096667D02*
X0236594Y0096667D01*
X0236594Y0097453D02*
X0121918Y0097453D01*
X0121918Y0098239D02*
X0121920Y0098239D01*
X0130718Y0098239D02*
X0236594Y0098239D01*
X0236594Y0099025D02*
X0131504Y0099025D01*
X0131634Y0099811D02*
X0236594Y0099811D01*
X0236594Y0100597D02*
X0131634Y0100597D01*
X0131634Y0101383D02*
X0236594Y0101383D01*
X0236594Y0102169D02*
X0131634Y0102169D01*
X0131634Y0102955D02*
X0224183Y0102955D01*
X0223425Y0103741D02*
X0131238Y0103741D01*
X0131634Y0104526D02*
X0223425Y0104526D01*
X0223425Y0105312D02*
X0131634Y0105312D01*
X0131634Y0106098D02*
X0223425Y0106098D01*
X0223425Y0106884D02*
X0131634Y0106884D01*
X0131634Y0107670D02*
X0223425Y0107670D01*
X0223425Y0108456D02*
X0156534Y0108456D01*
X0157473Y0109242D02*
X0223425Y0109242D01*
X0223425Y0110028D02*
X0157923Y0110028D01*
X0158168Y0110814D02*
X0223425Y0110814D01*
X0223425Y0111600D02*
X0158168Y0111600D01*
X0158168Y0112386D02*
X0223425Y0112386D01*
X0223425Y0113171D02*
X0158168Y0113171D01*
X0158168Y0113957D02*
X0223425Y0113957D01*
X0223425Y0114743D02*
X0158168Y0114743D01*
X0158168Y0115529D02*
X0223425Y0115529D01*
X0223425Y0116315D02*
X0158168Y0116315D01*
X0158168Y0117101D02*
X0223425Y0117101D01*
X0223425Y0117887D02*
X0158168Y0117887D01*
X0158168Y0118673D02*
X0223425Y0118673D01*
X0223425Y0119459D02*
X0158168Y0119459D01*
X0158168Y0120245D02*
X0223425Y0120245D01*
X0223425Y0121031D02*
X0158168Y0121031D01*
X0158168Y0121816D02*
X0223425Y0121816D01*
X0223425Y0122602D02*
X0158168Y0122602D01*
X0158168Y0123388D02*
X0223425Y0123388D01*
X0223425Y0124174D02*
X0182460Y0124174D01*
X0182115Y0123829D02*
X0183268Y0124982D01*
X0183268Y0125581D01*
X0190083Y0125581D01*
X0190263Y0125402D01*
X0191714Y0124800D01*
X0193286Y0124800D01*
X0194737Y0125402D01*
X0195848Y0126513D01*
X0196450Y0127964D01*
X0196450Y0129536D01*
X0195848Y0130987D01*
X0194737Y0132098D01*
X0193286Y0132700D01*
X0191714Y0132700D01*
X0190263Y0132098D01*
X0190083Y0131918D01*
X0183268Y0131918D01*
X0183268Y0132518D01*
X0182604Y0133181D01*
X0183428Y0133181D01*
X0183670Y0133081D01*
X0198819Y0133081D01*
X0198819Y0132315D01*
X0199972Y0131161D01*
X0220107Y0131161D01*
X0221260Y0132315D01*
X0221260Y0139654D01*
X0220107Y0140807D01*
X0199972Y0140807D01*
X0198819Y0139654D01*
X0198819Y0139418D01*
X0190168Y0139418D01*
X0190168Y0143165D01*
X0189584Y0143750D01*
X0190168Y0144335D01*
X0190168Y0148165D01*
X0189584Y0148750D01*
X0190168Y0149335D01*
X0190168Y0153165D01*
X0189015Y0154318D01*
X0179585Y0154318D01*
X0178431Y0153165D01*
X0178431Y0149418D01*
X0178168Y0149418D01*
X0178168Y0195808D01*
X0198819Y0195808D01*
X0198819Y0195307D01*
X0199972Y0194154D01*
X0220107Y0194154D01*
X0221260Y0195307D01*
X0221260Y0202646D01*
X0220107Y0203799D01*
X0199972Y0203799D01*
X0198819Y0202646D01*
X0198819Y0202145D01*
X0174370Y0202145D01*
X0173205Y0201662D01*
X0172314Y0200771D01*
X0171831Y0199607D01*
X0171831Y0145620D01*
X0172314Y0144455D01*
X0173205Y0143564D01*
X0174370Y0143081D01*
X0174851Y0143081D01*
X0174814Y0143045D01*
X0174331Y0141880D01*
X0174331Y0132637D01*
X0174213Y0132518D01*
X0174213Y0124982D01*
X0175366Y0123829D01*
X0182115Y0123829D01*
X0183246Y0124960D02*
X0191329Y0124960D01*
X0193671Y0124960D02*
X0223425Y0124960D01*
X0223425Y0125746D02*
X0195082Y0125746D01*
X0195856Y0126532D02*
X0223425Y0126532D01*
X0223425Y0127318D02*
X0196182Y0127318D01*
X0196450Y0128104D02*
X0223425Y0128104D01*
X0223425Y0128890D02*
X0196450Y0128890D01*
X0196392Y0129676D02*
X0223425Y0129676D01*
X0223425Y0130462D02*
X0196066Y0130462D01*
X0195588Y0131247D02*
X0199886Y0131247D01*
X0199100Y0132033D02*
X0194802Y0132033D01*
X0190198Y0132033D02*
X0183268Y0132033D01*
X0182967Y0132819D02*
X0198819Y0132819D01*
X0199057Y0139892D02*
X0190168Y0139892D01*
X0190168Y0140678D02*
X0199843Y0140678D01*
X0190168Y0141464D02*
X0223425Y0141464D01*
X0223425Y0140678D02*
X0220235Y0140678D01*
X0221021Y0139892D02*
X0223425Y0139892D01*
X0223425Y0139107D02*
X0221260Y0139107D01*
X0221260Y0138321D02*
X0223425Y0138321D01*
X0223425Y0137535D02*
X0221260Y0137535D01*
X0221260Y0136749D02*
X0223425Y0136749D01*
X0223425Y0135963D02*
X0221260Y0135963D01*
X0221260Y0135177D02*
X0223425Y0135177D01*
X0223425Y0134391D02*
X0221260Y0134391D01*
X0221260Y0133605D02*
X0223425Y0133605D01*
X0223425Y0132819D02*
X0221260Y0132819D01*
X0220979Y0132033D02*
X0223425Y0132033D01*
X0223425Y0131247D02*
X0220193Y0131247D01*
X0223425Y0142250D02*
X0190168Y0142250D01*
X0190168Y0143036D02*
X0223425Y0143036D01*
X0223425Y0143822D02*
X0189656Y0143822D01*
X0190168Y0144608D02*
X0223425Y0144608D01*
X0223425Y0145394D02*
X0190168Y0145394D01*
X0190168Y0146180D02*
X0223425Y0146180D01*
X0223425Y0146966D02*
X0190168Y0146966D01*
X0190168Y0147752D02*
X0223425Y0147752D01*
X0223706Y0148538D02*
X0189796Y0148538D01*
X0190157Y0149323D02*
X0224492Y0149323D01*
X0224578Y0165551D02*
X0223425Y0166704D01*
X0223425Y0211248D01*
X0224578Y0212402D01*
X0236594Y0212402D01*
X0236594Y0228104D01*
X0238036Y0231584D01*
X0240700Y0234247D01*
X0244180Y0235689D01*
X0260289Y0235689D01*
X0263769Y0234247D01*
X0266433Y0231584D01*
X0267874Y0228104D01*
X0267874Y0224337D01*
X0266433Y0220857D01*
X0263769Y0218193D01*
X0260289Y0216752D01*
X0255531Y0216752D01*
X0255531Y0212402D01*
X0267548Y0212402D01*
X0268701Y0211248D01*
X0268701Y0166704D01*
X0267548Y0165551D01*
X0224578Y0165551D01*
X0224302Y0165828D02*
X0178168Y0165828D01*
X0178168Y0166614D02*
X0223516Y0166614D01*
X0223425Y0167399D02*
X0178168Y0167399D01*
X0178168Y0168185D02*
X0223425Y0168185D01*
X0223425Y0168971D02*
X0178168Y0168971D01*
X0178168Y0169757D02*
X0223425Y0169757D01*
X0223425Y0170543D02*
X0178168Y0170543D01*
X0178168Y0171329D02*
X0223425Y0171329D01*
X0223425Y0172115D02*
X0178168Y0172115D01*
X0178168Y0172901D02*
X0223425Y0172901D01*
X0223425Y0173687D02*
X0178168Y0173687D01*
X0178168Y0174473D02*
X0223425Y0174473D01*
X0223425Y0175259D02*
X0178168Y0175259D01*
X0178168Y0176044D02*
X0223425Y0176044D01*
X0223425Y0176830D02*
X0178168Y0176830D01*
X0178168Y0177616D02*
X0223425Y0177616D01*
X0223425Y0178402D02*
X0178168Y0178402D01*
X0178168Y0179188D02*
X0223425Y0179188D01*
X0223425Y0179974D02*
X0178168Y0179974D01*
X0178168Y0180760D02*
X0223425Y0180760D01*
X0223425Y0181546D02*
X0178168Y0181546D01*
X0178168Y0182332D02*
X0223425Y0182332D01*
X0223425Y0183118D02*
X0178168Y0183118D01*
X0178168Y0183904D02*
X0223425Y0183904D01*
X0223425Y0184690D02*
X0178168Y0184690D01*
X0178168Y0185475D02*
X0223425Y0185475D01*
X0223425Y0186261D02*
X0178168Y0186261D01*
X0178168Y0187047D02*
X0223425Y0187047D01*
X0223425Y0187833D02*
X0178168Y0187833D01*
X0178168Y0188619D02*
X0223425Y0188619D01*
X0223425Y0189405D02*
X0178168Y0189405D01*
X0178168Y0190191D02*
X0223425Y0190191D01*
X0223425Y0190977D02*
X0178168Y0190977D01*
X0178168Y0191763D02*
X0223425Y0191763D01*
X0223425Y0192549D02*
X0178168Y0192549D01*
X0178168Y0193335D02*
X0223425Y0193335D01*
X0223425Y0194120D02*
X0178168Y0194120D01*
X0178168Y0194906D02*
X0199219Y0194906D01*
X0198819Y0195692D02*
X0178168Y0195692D01*
X0173971Y0201980D02*
X0132437Y0201980D01*
X0132437Y0202766D02*
X0198938Y0202766D01*
X0199724Y0203551D02*
X0132437Y0203551D01*
X0132437Y0204337D02*
X0223425Y0204337D01*
X0223425Y0203551D02*
X0220354Y0203551D01*
X0221140Y0202766D02*
X0223425Y0202766D01*
X0223425Y0201980D02*
X0221260Y0201980D01*
X0221260Y0201194D02*
X0223425Y0201194D01*
X0223425Y0200408D02*
X0221260Y0200408D01*
X0221260Y0199622D02*
X0223425Y0199622D01*
X0223425Y0198836D02*
X0221260Y0198836D01*
X0221260Y0198050D02*
X0223425Y0198050D01*
X0223425Y0197264D02*
X0221260Y0197264D01*
X0221260Y0196478D02*
X0223425Y0196478D01*
X0223425Y0195692D02*
X0221260Y0195692D01*
X0220860Y0194906D02*
X0223425Y0194906D01*
X0223425Y0205123D02*
X0132437Y0205123D01*
X0132143Y0205909D02*
X0223425Y0205909D01*
X0223425Y0206695D02*
X0131818Y0206695D01*
X0131219Y0207481D02*
X0223425Y0207481D01*
X0223425Y0208267D02*
X0130668Y0208267D01*
X0130668Y0209053D02*
X0223425Y0209053D01*
X0223425Y0209839D02*
X0130668Y0209839D01*
X0130668Y0210625D02*
X0223425Y0210625D01*
X0223587Y0211411D02*
X0130668Y0211411D01*
X0130668Y0212196D02*
X0224373Y0212196D01*
X0236594Y0212982D02*
X0130668Y0212982D01*
X0130668Y0213768D02*
X0236594Y0213768D01*
X0236594Y0214554D02*
X0130668Y0214554D01*
X0130668Y0215340D02*
X0236594Y0215340D01*
X0236594Y0216126D02*
X0130668Y0216126D01*
X0130668Y0216912D02*
X0236594Y0216912D01*
X0236594Y0217698D02*
X0130668Y0217698D01*
X0130668Y0218484D02*
X0236594Y0218484D01*
X0236594Y0219270D02*
X0130668Y0219270D01*
X0130668Y0220056D02*
X0236594Y0220056D01*
X0236594Y0220842D02*
X0130668Y0220842D01*
X0130668Y0221627D02*
X0236594Y0221627D01*
X0236594Y0222413D02*
X0135739Y0222413D01*
X0136524Y0223199D02*
X0236594Y0223199D01*
X0236594Y0223985D02*
X0136693Y0223985D01*
X0136693Y0224771D02*
X0236594Y0224771D01*
X0236594Y0225557D02*
X0136693Y0225557D01*
X0136693Y0226343D02*
X0236594Y0226343D01*
X0236594Y0227129D02*
X0136693Y0227129D01*
X0136693Y0227915D02*
X0236594Y0227915D01*
X0236842Y0228701D02*
X0136693Y0228701D01*
X0136693Y0229487D02*
X0237167Y0229487D01*
X0237493Y0230272D02*
X0136693Y0230272D01*
X0136693Y0231058D02*
X0237818Y0231058D01*
X0238296Y0231844D02*
X0136693Y0231844D01*
X0136693Y0232630D02*
X0239082Y0232630D01*
X0239868Y0233416D02*
X0136693Y0233416D01*
X0136693Y0234202D02*
X0240654Y0234202D01*
X0242487Y0234988D02*
X0136152Y0234988D01*
X0123848Y0234988D02*
X0091152Y0234988D01*
X0091693Y0227915D02*
X0123307Y0227915D01*
X0123307Y0227129D02*
X0091693Y0227129D01*
X0091693Y0226343D02*
X0123307Y0226343D01*
X0123307Y0225557D02*
X0091693Y0225557D01*
X0091693Y0224771D02*
X0123307Y0224771D01*
X0123307Y0223985D02*
X0091693Y0223985D01*
X0091524Y0223199D02*
X0123476Y0223199D01*
X0124261Y0222413D02*
X0090739Y0222413D01*
X0079261Y0222413D02*
X0075265Y0222413D01*
X0075265Y0221627D02*
X0124331Y0221627D01*
X0124331Y0220842D02*
X0075265Y0220842D01*
X0075265Y0220056D02*
X0124331Y0220056D01*
X0124331Y0219270D02*
X0075265Y0219270D01*
X0075265Y0218484D02*
X0124331Y0218484D01*
X0124331Y0217698D02*
X0075265Y0217698D01*
X0075265Y0216912D02*
X0124331Y0216912D01*
X0124331Y0216126D02*
X0075265Y0216126D01*
X0075265Y0215340D02*
X0124331Y0215340D01*
X0124331Y0214554D02*
X0075265Y0214554D01*
X0075265Y0213768D02*
X0124331Y0213768D01*
X0124331Y0212982D02*
X0075265Y0212982D01*
X0075265Y0212196D02*
X0124331Y0212196D01*
X0124331Y0211411D02*
X0075265Y0211411D01*
X0075265Y0210625D02*
X0124331Y0210625D01*
X0124331Y0209839D02*
X0075265Y0209839D01*
X0075265Y0209053D02*
X0096270Y0209053D01*
X0094566Y0208267D02*
X0075265Y0208267D01*
X0075265Y0207481D02*
X0093781Y0207481D01*
X0093182Y0206695D02*
X0075265Y0206695D01*
X0075265Y0205909D02*
X0092857Y0205909D01*
X0092563Y0205123D02*
X0075265Y0205123D01*
X0075265Y0204337D02*
X0092563Y0204337D01*
X0092563Y0203551D02*
X0075265Y0203551D01*
X0075265Y0202766D02*
X0092563Y0202766D01*
X0092563Y0201980D02*
X0075265Y0201980D01*
X0075265Y0201194D02*
X0092563Y0201194D01*
X0092563Y0200408D02*
X0075265Y0200408D01*
X0075265Y0199622D02*
X0092563Y0199622D01*
X0092563Y0198836D02*
X0075265Y0198836D01*
X0075265Y0198050D02*
X0092563Y0198050D01*
X0092578Y0197264D02*
X0075265Y0197264D01*
X0075265Y0196478D02*
X0092903Y0196478D01*
X0093229Y0195692D02*
X0075265Y0195692D01*
X0075265Y0194906D02*
X0093893Y0194906D01*
X0094331Y0194120D02*
X0075265Y0194120D01*
X0075265Y0193335D02*
X0094331Y0193335D01*
X0094331Y0192549D02*
X0075265Y0192549D01*
X0075265Y0191763D02*
X0094331Y0191763D01*
X0094147Y0190977D02*
X0075265Y0190977D01*
X0075265Y0190191D02*
X0093822Y0190191D01*
X0093550Y0189405D02*
X0075265Y0189405D01*
X0075265Y0188619D02*
X0093550Y0188619D01*
X0093605Y0187833D02*
X0075265Y0187833D01*
X0075265Y0187047D02*
X0093930Y0187047D01*
X0094331Y0186261D02*
X0075265Y0186261D01*
X0075265Y0185475D02*
X0094331Y0185475D01*
X0094331Y0184690D02*
X0075265Y0184690D01*
X0075265Y0183904D02*
X0094331Y0183904D01*
X0094331Y0183118D02*
X0075265Y0183118D01*
X0075265Y0182332D02*
X0094331Y0182332D01*
X0094331Y0181546D02*
X0075265Y0181546D01*
X0075265Y0180760D02*
X0094331Y0180760D01*
X0094331Y0179974D02*
X0075265Y0179974D01*
X0075265Y0179188D02*
X0094331Y0179188D01*
X0094331Y0178402D02*
X0075265Y0178402D01*
X0075265Y0177616D02*
X0094331Y0177616D01*
X0094331Y0176830D02*
X0075265Y0176830D01*
X0075265Y0176044D02*
X0094331Y0176044D01*
X0094331Y0175259D02*
X0075265Y0175259D01*
X0075265Y0174473D02*
X0094331Y0174473D01*
X0094331Y0173687D02*
X0075265Y0173687D01*
X0075265Y0172901D02*
X0094331Y0172901D01*
X0094331Y0172115D02*
X0075265Y0172115D01*
X0075265Y0171329D02*
X0094331Y0171329D01*
X0094331Y0170543D02*
X0075265Y0170543D01*
X0075265Y0169757D02*
X0094331Y0169757D01*
X0100668Y0169757D02*
X0104331Y0169757D01*
X0104331Y0168971D02*
X0100668Y0168971D01*
X0100668Y0168185D02*
X0104331Y0168185D01*
X0104331Y0167399D02*
X0100668Y0167399D01*
X0100668Y0166614D02*
X0104331Y0166614D01*
X0104331Y0165828D02*
X0100668Y0165828D01*
X0100429Y0165042D02*
X0104571Y0165042D01*
X0105013Y0164256D02*
X0099987Y0164256D01*
X0099068Y0163470D02*
X0105932Y0163470D01*
X0104331Y0170543D02*
X0100668Y0170543D01*
X0100668Y0171329D02*
X0104331Y0171329D01*
X0104331Y0172115D02*
X0100668Y0172115D01*
X0100668Y0172901D02*
X0104331Y0172901D01*
X0104331Y0173687D02*
X0100668Y0173687D01*
X0100668Y0174473D02*
X0104331Y0174473D01*
X0104331Y0175259D02*
X0100668Y0175259D01*
X0100668Y0176044D02*
X0104331Y0176044D01*
X0104331Y0176830D02*
X0100668Y0176830D01*
X0100668Y0177616D02*
X0104331Y0177616D01*
X0104331Y0178402D02*
X0100668Y0178402D01*
X0100668Y0179188D02*
X0104331Y0179188D01*
X0104331Y0179974D02*
X0100668Y0179974D01*
X0100668Y0180760D02*
X0104331Y0180760D01*
X0104331Y0181546D02*
X0100668Y0181546D01*
X0100668Y0182332D02*
X0104331Y0182332D01*
X0104331Y0183118D02*
X0100668Y0183118D01*
X0100668Y0183904D02*
X0104331Y0183904D01*
X0104331Y0184690D02*
X0100668Y0184690D01*
X0100668Y0185475D02*
X0104331Y0185475D01*
X0104331Y0186261D02*
X0100668Y0186261D01*
X0101070Y0187047D02*
X0103930Y0187047D01*
X0103605Y0187833D02*
X0101395Y0187833D01*
X0101450Y0188619D02*
X0103550Y0188619D01*
X0103550Y0189405D02*
X0101450Y0189405D01*
X0101178Y0190191D02*
X0103822Y0190191D01*
X0104147Y0190977D02*
X0100853Y0190977D01*
X0100668Y0191763D02*
X0104331Y0191763D01*
X0104331Y0192549D02*
X0100668Y0192549D01*
X0100668Y0193335D02*
X0104331Y0193335D01*
X0104331Y0194120D02*
X0100668Y0194120D01*
X0101107Y0194906D02*
X0103893Y0194906D01*
X0103229Y0195692D02*
X0101771Y0195692D01*
X0102097Y0196478D02*
X0102903Y0196478D01*
X0102578Y0197264D02*
X0102422Y0197264D01*
X0102437Y0198050D02*
X0102563Y0198050D01*
X0102563Y0198836D02*
X0102437Y0198836D01*
X0102437Y0199622D02*
X0102563Y0199622D01*
X0102563Y0200408D02*
X0102437Y0200408D01*
X0102437Y0201194D02*
X0102563Y0201194D01*
X0102563Y0201980D02*
X0102437Y0201980D01*
X0102437Y0202766D02*
X0102563Y0202766D01*
X0102563Y0203551D02*
X0102437Y0203551D01*
X0102437Y0204337D02*
X0102563Y0204337D01*
X0102563Y0205123D02*
X0102437Y0205123D01*
X0102143Y0205909D02*
X0102857Y0205909D01*
X0103182Y0206695D02*
X0101818Y0206695D01*
X0101219Y0207481D02*
X0103781Y0207481D01*
X0104566Y0208267D02*
X0100434Y0208267D01*
X0098730Y0209053D02*
X0106270Y0209053D01*
X0108730Y0209053D02*
X0116270Y0209053D01*
X0114566Y0208267D02*
X0110434Y0208267D01*
X0111219Y0207481D02*
X0113781Y0207481D01*
X0113182Y0206695D02*
X0111818Y0206695D01*
X0112143Y0205909D02*
X0112857Y0205909D01*
X0112563Y0205123D02*
X0112437Y0205123D01*
X0112437Y0204337D02*
X0112563Y0204337D01*
X0112563Y0203551D02*
X0112437Y0203551D01*
X0112437Y0202766D02*
X0112563Y0202766D01*
X0112563Y0201980D02*
X0112437Y0201980D01*
X0112437Y0201194D02*
X0112563Y0201194D01*
X0112563Y0200408D02*
X0112437Y0200408D01*
X0112437Y0199622D02*
X0112563Y0199622D01*
X0112563Y0198836D02*
X0112437Y0198836D01*
X0112437Y0198050D02*
X0112563Y0198050D01*
X0112578Y0197264D02*
X0112422Y0197264D01*
X0112097Y0196478D02*
X0112903Y0196478D01*
X0113229Y0195692D02*
X0111771Y0195692D01*
X0111107Y0194906D02*
X0113893Y0194906D01*
X0114331Y0194120D02*
X0110668Y0194120D01*
X0110668Y0193335D02*
X0114331Y0193335D01*
X0114331Y0192549D02*
X0110668Y0192549D01*
X0110668Y0191763D02*
X0114331Y0191763D01*
X0114147Y0190977D02*
X0110853Y0190977D01*
X0111178Y0190191D02*
X0113822Y0190191D01*
X0113550Y0189405D02*
X0111450Y0189405D01*
X0111450Y0188619D02*
X0113550Y0188619D01*
X0113605Y0187833D02*
X0111395Y0187833D01*
X0111070Y0187047D02*
X0113930Y0187047D01*
X0114331Y0186261D02*
X0110668Y0186261D01*
X0110668Y0185475D02*
X0114331Y0185475D01*
X0114331Y0184690D02*
X0110668Y0184690D01*
X0110668Y0183904D02*
X0114331Y0183904D01*
X0114331Y0183118D02*
X0110668Y0183118D01*
X0110668Y0182332D02*
X0114331Y0182332D01*
X0114331Y0181546D02*
X0110668Y0181546D01*
X0110668Y0180760D02*
X0114331Y0180760D01*
X0114331Y0179974D02*
X0110668Y0179974D01*
X0110668Y0179188D02*
X0114331Y0179188D01*
X0114331Y0178402D02*
X0110668Y0178402D01*
X0110668Y0177616D02*
X0114331Y0177616D01*
X0114331Y0176830D02*
X0110668Y0176830D01*
X0110668Y0176044D02*
X0114331Y0176044D01*
X0114331Y0175259D02*
X0110668Y0175259D01*
X0110668Y0174473D02*
X0114331Y0174473D01*
X0114331Y0173687D02*
X0110668Y0173687D01*
X0110668Y0172901D02*
X0114331Y0172901D01*
X0114331Y0172115D02*
X0110668Y0172115D01*
X0110668Y0171329D02*
X0114331Y0171329D01*
X0114363Y0170543D02*
X0110668Y0170543D01*
X0110668Y0169757D02*
X0114689Y0169757D01*
X0120668Y0174473D02*
X0124807Y0174473D01*
X0124481Y0175259D02*
X0120668Y0175259D01*
X0120668Y0176044D02*
X0124331Y0176044D01*
X0124331Y0176830D02*
X0120668Y0176830D01*
X0120668Y0177616D02*
X0124331Y0177616D01*
X0124331Y0178402D02*
X0120668Y0178402D01*
X0120668Y0179188D02*
X0124331Y0179188D01*
X0124331Y0179974D02*
X0120668Y0179974D01*
X0120668Y0180760D02*
X0124331Y0180760D01*
X0124331Y0181546D02*
X0120668Y0181546D01*
X0120668Y0182332D02*
X0124331Y0182332D01*
X0124331Y0183118D02*
X0120668Y0183118D01*
X0120668Y0183904D02*
X0124331Y0183904D01*
X0124331Y0184690D02*
X0120668Y0184690D01*
X0120668Y0185475D02*
X0124331Y0185475D01*
X0124331Y0186261D02*
X0120668Y0186261D01*
X0121070Y0187047D02*
X0123930Y0187047D01*
X0123605Y0187833D02*
X0121395Y0187833D01*
X0121450Y0188619D02*
X0123550Y0188619D01*
X0123550Y0189405D02*
X0121450Y0189405D01*
X0121178Y0190191D02*
X0123822Y0190191D01*
X0124147Y0190977D02*
X0120853Y0190977D01*
X0120668Y0191763D02*
X0124331Y0191763D01*
X0124331Y0192549D02*
X0120668Y0192549D01*
X0120668Y0193335D02*
X0124331Y0193335D01*
X0124331Y0194120D02*
X0120668Y0194120D01*
X0121107Y0194906D02*
X0123893Y0194906D01*
X0123229Y0195692D02*
X0121771Y0195692D01*
X0122097Y0196478D02*
X0122903Y0196478D01*
X0122578Y0197264D02*
X0122422Y0197264D01*
X0122437Y0198050D02*
X0122563Y0198050D01*
X0122563Y0198836D02*
X0122437Y0198836D01*
X0122437Y0199622D02*
X0122563Y0199622D01*
X0122563Y0200408D02*
X0122437Y0200408D01*
X0122437Y0201194D02*
X0122563Y0201194D01*
X0122563Y0201980D02*
X0122437Y0201980D01*
X0122437Y0202766D02*
X0122563Y0202766D01*
X0122563Y0203551D02*
X0122437Y0203551D01*
X0122437Y0204337D02*
X0122563Y0204337D01*
X0122563Y0205123D02*
X0122437Y0205123D01*
X0122143Y0205909D02*
X0122857Y0205909D01*
X0123182Y0206695D02*
X0121818Y0206695D01*
X0121219Y0207481D02*
X0123781Y0207481D01*
X0124331Y0208267D02*
X0120434Y0208267D01*
X0118730Y0209053D02*
X0124331Y0209053D01*
X0132437Y0201194D02*
X0172736Y0201194D01*
X0172163Y0200408D02*
X0132437Y0200408D01*
X0132437Y0199622D02*
X0171838Y0199622D01*
X0171831Y0198836D02*
X0132437Y0198836D01*
X0132437Y0198050D02*
X0171831Y0198050D01*
X0171831Y0197264D02*
X0132422Y0197264D01*
X0132097Y0196478D02*
X0171831Y0196478D01*
X0171831Y0195692D02*
X0131771Y0195692D01*
X0131107Y0194906D02*
X0171831Y0194906D01*
X0171831Y0194120D02*
X0130668Y0194120D01*
X0130668Y0193335D02*
X0171831Y0193335D01*
X0171831Y0192549D02*
X0130668Y0192549D01*
X0130668Y0191763D02*
X0171831Y0191763D01*
X0171831Y0190977D02*
X0130853Y0190977D01*
X0131178Y0190191D02*
X0171831Y0190191D01*
X0171831Y0189405D02*
X0131450Y0189405D01*
X0131450Y0188619D02*
X0171831Y0188619D01*
X0171831Y0187833D02*
X0131395Y0187833D01*
X0131070Y0187047D02*
X0171831Y0187047D01*
X0171831Y0186261D02*
X0130668Y0186261D01*
X0130668Y0185475D02*
X0171831Y0185475D01*
X0171831Y0184690D02*
X0130668Y0184690D01*
X0130668Y0183904D02*
X0171831Y0183904D01*
X0171831Y0183118D02*
X0130668Y0183118D01*
X0130668Y0182332D02*
X0171831Y0182332D01*
X0171831Y0181546D02*
X0130668Y0181546D01*
X0130668Y0180760D02*
X0171831Y0180760D01*
X0171831Y0179974D02*
X0130668Y0179974D01*
X0139936Y0179188D02*
X0171831Y0179188D01*
X0171831Y0178402D02*
X0141079Y0178402D01*
X0141614Y0177616D02*
X0171831Y0177616D01*
X0171831Y0176830D02*
X0141918Y0176830D01*
X0141918Y0176044D02*
X0171831Y0176044D01*
X0171831Y0175259D02*
X0141918Y0175259D01*
X0141918Y0174473D02*
X0171831Y0174473D01*
X0171831Y0173687D02*
X0141918Y0173687D01*
X0141918Y0172901D02*
X0171831Y0172901D01*
X0171831Y0172115D02*
X0141918Y0172115D01*
X0141918Y0171329D02*
X0171831Y0171329D01*
X0171831Y0170543D02*
X0141918Y0170543D01*
X0141918Y0169757D02*
X0171831Y0169757D01*
X0171831Y0168971D02*
X0141918Y0168971D01*
X0141918Y0168185D02*
X0171831Y0168185D01*
X0171831Y0167399D02*
X0141918Y0167399D01*
X0141918Y0166614D02*
X0171831Y0166614D01*
X0171831Y0165828D02*
X0141918Y0165828D01*
X0141918Y0165042D02*
X0171831Y0165042D01*
X0171831Y0164256D02*
X0141918Y0164256D01*
X0141918Y0163470D02*
X0171831Y0163470D01*
X0171831Y0162684D02*
X0141918Y0162684D01*
X0141918Y0161898D02*
X0171831Y0161898D01*
X0171831Y0161112D02*
X0141918Y0161112D01*
X0141918Y0160326D02*
X0171831Y0160326D01*
X0171831Y0159540D02*
X0141918Y0159540D01*
X0141918Y0158754D02*
X0171831Y0158754D01*
X0171831Y0157968D02*
X0141918Y0157968D01*
X0141918Y0157183D02*
X0171831Y0157183D01*
X0171831Y0156397D02*
X0141918Y0156397D01*
X0141918Y0155611D02*
X0171831Y0155611D01*
X0171831Y0154825D02*
X0141918Y0154825D01*
X0141918Y0154039D02*
X0160705Y0154039D01*
X0159919Y0153253D02*
X0141918Y0153253D01*
X0141918Y0152467D02*
X0159831Y0152467D01*
X0159831Y0151681D02*
X0141918Y0151681D01*
X0141918Y0150895D02*
X0159831Y0150895D01*
X0159831Y0150109D02*
X0141707Y0150109D01*
X0138535Y0143036D02*
X0174810Y0143036D01*
X0174485Y0142250D02*
X0138861Y0142250D01*
X0138950Y0141464D02*
X0174331Y0141464D01*
X0174331Y0140678D02*
X0138950Y0140678D01*
X0138713Y0139892D02*
X0174331Y0139892D01*
X0174331Y0139107D02*
X0170627Y0139107D01*
X0171413Y0138321D02*
X0174331Y0138321D01*
X0174331Y0137535D02*
X0171568Y0137535D01*
X0171568Y0136749D02*
X0174331Y0136749D01*
X0174331Y0135963D02*
X0171568Y0135963D01*
X0171568Y0135177D02*
X0174331Y0135177D01*
X0174331Y0134391D02*
X0171568Y0134391D01*
X0170839Y0133605D02*
X0174331Y0133605D01*
X0174331Y0132819D02*
X0158168Y0132819D01*
X0158168Y0132033D02*
X0174213Y0132033D01*
X0174213Y0131247D02*
X0158168Y0131247D01*
X0158168Y0130462D02*
X0174213Y0130462D01*
X0174213Y0129676D02*
X0158168Y0129676D01*
X0158168Y0128890D02*
X0174213Y0128890D01*
X0174213Y0128104D02*
X0158168Y0128104D01*
X0158168Y0127318D02*
X0174213Y0127318D01*
X0174213Y0126532D02*
X0158168Y0126532D01*
X0158168Y0125746D02*
X0174213Y0125746D01*
X0174234Y0124960D02*
X0158168Y0124960D01*
X0158168Y0124174D02*
X0175020Y0124174D01*
X0172947Y0143822D02*
X0171056Y0143822D01*
X0171568Y0144608D02*
X0172251Y0144608D01*
X0171925Y0145394D02*
X0171568Y0145394D01*
X0171568Y0146180D02*
X0171831Y0146180D01*
X0171831Y0146966D02*
X0171568Y0146966D01*
X0171568Y0147752D02*
X0171831Y0147752D01*
X0171831Y0148538D02*
X0171196Y0148538D01*
X0171557Y0149323D02*
X0171831Y0149323D01*
X0171831Y0150109D02*
X0171568Y0150109D01*
X0171568Y0150895D02*
X0171831Y0150895D01*
X0171831Y0151681D02*
X0171568Y0151681D01*
X0171568Y0152467D02*
X0171831Y0152467D01*
X0171831Y0153253D02*
X0171481Y0153253D01*
X0171831Y0154039D02*
X0170695Y0154039D01*
X0178168Y0154039D02*
X0179305Y0154039D01*
X0178519Y0153253D02*
X0178168Y0153253D01*
X0178168Y0152467D02*
X0178431Y0152467D01*
X0178431Y0151681D02*
X0178168Y0151681D01*
X0178168Y0150895D02*
X0178431Y0150895D01*
X0178431Y0150109D02*
X0178168Y0150109D01*
X0178168Y0154825D02*
X0275591Y0154825D01*
X0275591Y0155611D02*
X0178168Y0155611D01*
X0178168Y0156397D02*
X0275591Y0156397D01*
X0275591Y0157183D02*
X0178168Y0157183D01*
X0178168Y0157968D02*
X0275591Y0157968D01*
X0275591Y0158754D02*
X0178168Y0158754D01*
X0178168Y0159540D02*
X0275591Y0159540D01*
X0275591Y0160326D02*
X0178168Y0160326D01*
X0178168Y0161112D02*
X0275591Y0161112D01*
X0275591Y0161898D02*
X0178168Y0161898D01*
X0178168Y0162684D02*
X0275591Y0162684D01*
X0275591Y0163470D02*
X0178168Y0163470D01*
X0178168Y0164256D02*
X0275591Y0164256D01*
X0275591Y0165042D02*
X0178168Y0165042D01*
X0189295Y0154039D02*
X0275591Y0154039D01*
X0275591Y0153253D02*
X0190081Y0153253D01*
X0190168Y0152467D02*
X0275591Y0152467D01*
X0275591Y0151681D02*
X0190168Y0151681D01*
X0190168Y0150895D02*
X0275591Y0150895D01*
X0275591Y0150109D02*
X0190168Y0150109D01*
X0153617Y0139107D02*
X0138387Y0139107D01*
X0138168Y0138321D02*
X0152590Y0138321D01*
X0152103Y0137535D02*
X0138168Y0137535D01*
X0138168Y0136749D02*
X0151831Y0136749D01*
X0151831Y0135963D02*
X0138168Y0135963D01*
X0138168Y0135177D02*
X0151831Y0135177D01*
X0151831Y0134391D02*
X0138168Y0134391D01*
X0138168Y0133605D02*
X0151831Y0133605D01*
X0151831Y0132819D02*
X0138168Y0132819D01*
X0138168Y0132033D02*
X0151831Y0132033D01*
X0151831Y0131247D02*
X0139538Y0131247D01*
X0139921Y0130462D02*
X0151831Y0130462D01*
X0151831Y0129676D02*
X0139921Y0129676D01*
X0139921Y0128890D02*
X0151831Y0128890D01*
X0151831Y0128104D02*
X0139921Y0128104D01*
X0139921Y0127318D02*
X0151831Y0127318D01*
X0151831Y0126532D02*
X0139921Y0126532D01*
X0139921Y0125746D02*
X0151831Y0125746D01*
X0151831Y0124960D02*
X0139921Y0124960D01*
X0139921Y0124174D02*
X0151831Y0124174D01*
X0151831Y0123388D02*
X0139194Y0123388D01*
X0131306Y0118673D02*
X0151831Y0118673D01*
X0151831Y0119459D02*
X0130520Y0119459D01*
X0131634Y0117887D02*
X0151831Y0117887D01*
X0151831Y0117101D02*
X0131634Y0117101D01*
X0131634Y0116315D02*
X0151831Y0116315D01*
X0151831Y0115529D02*
X0131634Y0115529D01*
X0131634Y0114743D02*
X0151831Y0114743D01*
X0151831Y0120245D02*
X0121918Y0120245D01*
X0121918Y0121031D02*
X0151831Y0121031D01*
X0151831Y0121816D02*
X0121918Y0121816D01*
X0121918Y0122602D02*
X0151831Y0122602D01*
X0122118Y0119459D02*
X0121918Y0119459D01*
X0104331Y0119459D02*
X0093996Y0119459D01*
X0093996Y0120245D02*
X0104331Y0120245D01*
X0104331Y0121031D02*
X0093996Y0121031D01*
X0093996Y0121816D02*
X0104331Y0121816D01*
X0104331Y0122602D02*
X0093996Y0122602D01*
X0093953Y0123388D02*
X0104331Y0123388D01*
X0104331Y0124174D02*
X0093996Y0124174D01*
X0093996Y0124960D02*
X0104331Y0124960D01*
X0104331Y0125746D02*
X0093996Y0125746D01*
X0093996Y0126532D02*
X0104331Y0126532D01*
X0104331Y0127318D02*
X0093996Y0127318D01*
X0093996Y0128104D02*
X0104331Y0128104D01*
X0104331Y0128890D02*
X0093451Y0128890D01*
X0093668Y0118673D02*
X0104331Y0118673D01*
X0104331Y0117887D02*
X0093996Y0117887D01*
X0093996Y0117101D02*
X0104331Y0117101D01*
X0104331Y0116315D02*
X0093996Y0116315D01*
X0093996Y0115529D02*
X0104331Y0115529D01*
X0104331Y0114743D02*
X0093996Y0114743D01*
X0093798Y0113957D02*
X0104331Y0113957D01*
X0104331Y0113171D02*
X0093996Y0113171D01*
X0093996Y0112386D02*
X0104331Y0112386D01*
X0104331Y0111600D02*
X0093996Y0111600D01*
X0093996Y0110814D02*
X0104331Y0110814D01*
X0104331Y0110028D02*
X0093996Y0110028D01*
X0093996Y0109242D02*
X0104331Y0109242D01*
X0104331Y0108456D02*
X0093885Y0108456D01*
X0093996Y0107670D02*
X0104331Y0107670D01*
X0104331Y0106884D02*
X0093996Y0106884D01*
X0093996Y0106098D02*
X0104331Y0106098D01*
X0104331Y0105312D02*
X0093996Y0105312D01*
X0093996Y0104526D02*
X0104331Y0104526D01*
X0104331Y0103741D02*
X0093600Y0103741D01*
X0093996Y0102955D02*
X0104331Y0102955D01*
X0104331Y0102169D02*
X0093996Y0102169D01*
X0093996Y0101383D02*
X0104331Y0101383D01*
X0104331Y0100597D02*
X0093996Y0100597D01*
X0093996Y0099811D02*
X0104331Y0099811D01*
X0104331Y0099025D02*
X0093866Y0099025D01*
X0093080Y0098239D02*
X0104331Y0098239D01*
X0121918Y0080949D02*
X0125506Y0080949D01*
X0125379Y0029079D02*
X0089621Y0029079D01*
X0088870Y0029390D02*
X0086130Y0029390D01*
X0083597Y0028341D01*
X0081659Y0026403D01*
X0080610Y0023870D01*
X0080610Y0021130D01*
X0081659Y0018597D01*
X0083597Y0016659D01*
X0086130Y0015610D01*
X0088870Y0015610D01*
X0091403Y0016659D01*
X0093341Y0018597D01*
X0094390Y0021130D01*
X0094390Y0023870D01*
X0093341Y0026403D01*
X0091403Y0028341D01*
X0088870Y0029390D01*
X0091451Y0028293D02*
X0123549Y0028293D01*
X0122763Y0027507D02*
X0092237Y0027507D01*
X0093023Y0026721D02*
X0121977Y0026721D01*
X0121465Y0025935D02*
X0093535Y0025935D01*
X0093860Y0025149D02*
X0121140Y0025149D01*
X0120814Y0024363D02*
X0094186Y0024363D01*
X0094390Y0023577D02*
X0120610Y0023577D01*
X0120610Y0022791D02*
X0094390Y0022791D01*
X0094390Y0022006D02*
X0120610Y0022006D01*
X0120610Y0021220D02*
X0094390Y0021220D01*
X0094102Y0020434D02*
X0120898Y0020434D01*
X0121224Y0019648D02*
X0093776Y0019648D01*
X0093450Y0018862D02*
X0121550Y0018862D01*
X0122180Y0018076D02*
X0092820Y0018076D01*
X0092034Y0017290D02*
X0122966Y0017290D01*
X0123971Y0016504D02*
X0091029Y0016504D01*
X0089131Y0015718D02*
X0125869Y0015718D01*
X0085869Y0015718D02*
X0000000Y0015718D01*
X0000000Y0016504D02*
X0083971Y0016504D01*
X0082966Y0017290D02*
X0000000Y0017290D01*
X0000000Y0018076D02*
X0082180Y0018076D01*
X0081550Y0018862D02*
X0000000Y0018862D01*
X0000000Y0019648D02*
X0081224Y0019648D01*
X0080898Y0020434D02*
X0000000Y0020434D01*
X0000000Y0021220D02*
X0080610Y0021220D01*
X0080610Y0022006D02*
X0000000Y0022006D01*
X0000000Y0022791D02*
X0080610Y0022791D01*
X0080610Y0023577D02*
X0000000Y0023577D01*
X0000000Y0024363D02*
X0080814Y0024363D01*
X0081140Y0025149D02*
X0000000Y0025149D01*
X0000000Y0025935D02*
X0081465Y0025935D01*
X0081977Y0026721D02*
X0000000Y0026721D01*
X0000000Y0027507D02*
X0082763Y0027507D01*
X0083549Y0028293D02*
X0000000Y0028293D01*
X0000000Y0029079D02*
X0085379Y0029079D01*
X0007874Y0000000D02*
X0267717Y0000000D01*
X0271117Y0000786D02*
X0004474Y0000786D01*
X0003166Y0001572D02*
X0272424Y0001572D01*
X0275591Y0062087D02*
X0209553Y0062087D01*
X0211450Y0062873D02*
X0275591Y0062873D01*
X0275591Y0063659D02*
X0263018Y0063659D01*
X0262691Y0063524D02*
X0264608Y0064318D01*
X0266076Y0065785D01*
X0266870Y0067703D01*
X0266870Y0069778D01*
X0266076Y0071695D01*
X0264608Y0073163D01*
X0262691Y0073957D01*
X0254120Y0073957D01*
X0252203Y0073163D01*
X0250735Y0071695D01*
X0249941Y0069778D01*
X0249941Y0067703D01*
X0250735Y0065785D01*
X0252203Y0064318D01*
X0254120Y0063524D01*
X0262691Y0063524D01*
X0264736Y0064445D02*
X0275591Y0064445D01*
X0275591Y0065231D02*
X0265521Y0065231D01*
X0266172Y0066017D02*
X0275591Y0066017D01*
X0275591Y0066803D02*
X0266497Y0066803D01*
X0266823Y0067589D02*
X0275591Y0067589D01*
X0275591Y0068374D02*
X0266870Y0068374D01*
X0266870Y0069160D02*
X0275591Y0069160D01*
X0275591Y0069946D02*
X0266800Y0069946D01*
X0266475Y0070732D02*
X0275591Y0070732D01*
X0275591Y0071518D02*
X0266149Y0071518D01*
X0265467Y0072304D02*
X0275591Y0072304D01*
X0275591Y0073090D02*
X0264681Y0073090D01*
X0262886Y0073876D02*
X0275591Y0073876D01*
X0275591Y0074662D02*
X0211876Y0074662D01*
X0212662Y0073876D02*
X0253925Y0073876D01*
X0252130Y0073090D02*
X0213448Y0073090D01*
X0213917Y0072304D02*
X0251344Y0072304D01*
X0250662Y0071518D02*
X0214243Y0071518D01*
X0214568Y0070732D02*
X0250336Y0070732D01*
X0250011Y0069946D02*
X0214754Y0069946D01*
X0214754Y0069160D02*
X0249941Y0069160D01*
X0249941Y0068374D02*
X0214754Y0068374D01*
X0214754Y0067589D02*
X0249988Y0067589D01*
X0250314Y0066803D02*
X0214460Y0066803D01*
X0214135Y0066017D02*
X0250639Y0066017D01*
X0251290Y0065231D02*
X0213809Y0065231D01*
X0213188Y0064445D02*
X0252075Y0064445D01*
X0253793Y0063659D02*
X0212402Y0063659D01*
X0210182Y0075448D02*
X0275591Y0075448D01*
X0275591Y0079377D02*
X0260544Y0079377D01*
X0262441Y0080163D02*
X0275591Y0080163D01*
X0275591Y0080949D02*
X0264005Y0080949D01*
X0264791Y0081735D02*
X0275591Y0081735D01*
X0275591Y0082521D02*
X0265577Y0082521D01*
X0266363Y0083307D02*
X0275591Y0083307D01*
X0275591Y0084093D02*
X0266729Y0084093D01*
X0267055Y0084879D02*
X0275591Y0084879D01*
X0275591Y0085665D02*
X0267380Y0085665D01*
X0267706Y0086450D02*
X0275591Y0086450D01*
X0275591Y0087236D02*
X0267874Y0087236D01*
X0267874Y0088022D02*
X0275591Y0088022D01*
X0275591Y0088808D02*
X0267874Y0088808D01*
X0267874Y0089594D02*
X0275591Y0089594D01*
X0275591Y0090380D02*
X0267874Y0090380D01*
X0267649Y0091166D02*
X0275591Y0091166D01*
X0275591Y0091952D02*
X0267324Y0091952D01*
X0266998Y0092738D02*
X0275591Y0092738D01*
X0275591Y0093524D02*
X0266673Y0093524D01*
X0266227Y0094310D02*
X0275591Y0094310D01*
X0275591Y0095095D02*
X0265441Y0095095D01*
X0264655Y0095881D02*
X0275591Y0095881D01*
X0275591Y0096667D02*
X0263869Y0096667D01*
X0262113Y0097453D02*
X0275591Y0097453D01*
X0275591Y0098239D02*
X0255531Y0098239D01*
X0255531Y0099025D02*
X0275591Y0099025D01*
X0275591Y0099811D02*
X0255531Y0099811D01*
X0255531Y0100597D02*
X0275591Y0100597D01*
X0275591Y0101383D02*
X0255531Y0101383D01*
X0255531Y0102169D02*
X0275591Y0102169D01*
X0275591Y0102955D02*
X0267943Y0102955D01*
X0268701Y0103741D02*
X0275591Y0103741D01*
X0275591Y0104526D02*
X0268701Y0104526D01*
X0268701Y0105312D02*
X0275591Y0105312D01*
X0275591Y0106098D02*
X0268701Y0106098D01*
X0268701Y0106884D02*
X0275591Y0106884D01*
X0275591Y0107670D02*
X0268701Y0107670D01*
X0268701Y0108456D02*
X0275591Y0108456D01*
X0275591Y0109242D02*
X0268701Y0109242D01*
X0268701Y0110028D02*
X0275591Y0110028D01*
X0275591Y0110814D02*
X0268701Y0110814D01*
X0268701Y0111600D02*
X0275591Y0111600D01*
X0275591Y0112386D02*
X0268701Y0112386D01*
X0268701Y0113171D02*
X0275591Y0113171D01*
X0275591Y0113957D02*
X0268701Y0113957D01*
X0268701Y0114743D02*
X0275591Y0114743D01*
X0275591Y0115529D02*
X0268701Y0115529D01*
X0268701Y0116315D02*
X0275591Y0116315D01*
X0275591Y0117101D02*
X0268701Y0117101D01*
X0268701Y0117887D02*
X0275591Y0117887D01*
X0275591Y0118673D02*
X0268701Y0118673D01*
X0268701Y0119459D02*
X0275591Y0119459D01*
X0275591Y0120245D02*
X0268701Y0120245D01*
X0268701Y0121031D02*
X0275591Y0121031D01*
X0275591Y0121816D02*
X0268701Y0121816D01*
X0268701Y0122602D02*
X0275591Y0122602D01*
X0275591Y0123388D02*
X0268701Y0123388D01*
X0268701Y0124174D02*
X0275591Y0124174D01*
X0275591Y0124960D02*
X0268701Y0124960D01*
X0268701Y0125746D02*
X0275591Y0125746D01*
X0275591Y0126532D02*
X0268701Y0126532D01*
X0268701Y0127318D02*
X0275591Y0127318D01*
X0275591Y0128104D02*
X0268701Y0128104D01*
X0268701Y0128890D02*
X0275591Y0128890D01*
X0275591Y0129676D02*
X0268701Y0129676D01*
X0268701Y0130462D02*
X0275591Y0130462D01*
X0275591Y0131247D02*
X0268701Y0131247D01*
X0268701Y0132033D02*
X0275591Y0132033D01*
X0275591Y0132819D02*
X0268701Y0132819D01*
X0268701Y0133605D02*
X0275591Y0133605D01*
X0275591Y0134391D02*
X0268701Y0134391D01*
X0268701Y0135177D02*
X0275591Y0135177D01*
X0275591Y0135963D02*
X0268701Y0135963D01*
X0268701Y0136749D02*
X0275591Y0136749D01*
X0275591Y0137535D02*
X0268701Y0137535D01*
X0268701Y0138321D02*
X0275591Y0138321D01*
X0275591Y0139107D02*
X0268701Y0139107D01*
X0268701Y0139892D02*
X0275591Y0139892D01*
X0275591Y0140678D02*
X0268701Y0140678D01*
X0268701Y0141464D02*
X0275591Y0141464D01*
X0275591Y0142250D02*
X0268701Y0142250D01*
X0268701Y0143036D02*
X0275591Y0143036D01*
X0275591Y0143822D02*
X0268701Y0143822D01*
X0268701Y0144608D02*
X0275591Y0144608D01*
X0275591Y0145394D02*
X0268701Y0145394D01*
X0268701Y0146180D02*
X0275591Y0146180D01*
X0275591Y0146966D02*
X0268701Y0146966D01*
X0268701Y0147752D02*
X0275591Y0147752D01*
X0275591Y0148538D02*
X0268420Y0148538D01*
X0267634Y0149323D02*
X0275591Y0149323D01*
X0275591Y0165828D02*
X0267824Y0165828D01*
X0268610Y0166614D02*
X0275591Y0166614D01*
X0275591Y0167399D02*
X0268701Y0167399D01*
X0268701Y0168185D02*
X0275591Y0168185D01*
X0275591Y0168971D02*
X0268701Y0168971D01*
X0268701Y0169757D02*
X0275591Y0169757D01*
X0275591Y0170543D02*
X0268701Y0170543D01*
X0268701Y0171329D02*
X0275591Y0171329D01*
X0275591Y0172115D02*
X0268701Y0172115D01*
X0268701Y0172901D02*
X0275591Y0172901D01*
X0275591Y0173687D02*
X0268701Y0173687D01*
X0268701Y0174473D02*
X0275591Y0174473D01*
X0275591Y0175259D02*
X0268701Y0175259D01*
X0268701Y0176044D02*
X0275591Y0176044D01*
X0275591Y0176830D02*
X0268701Y0176830D01*
X0268701Y0177616D02*
X0275591Y0177616D01*
X0275591Y0178402D02*
X0268701Y0178402D01*
X0268701Y0179188D02*
X0275591Y0179188D01*
X0275591Y0179974D02*
X0268701Y0179974D01*
X0268701Y0180760D02*
X0275591Y0180760D01*
X0275591Y0181546D02*
X0268701Y0181546D01*
X0268701Y0182332D02*
X0275591Y0182332D01*
X0275591Y0183118D02*
X0268701Y0183118D01*
X0268701Y0183904D02*
X0275591Y0183904D01*
X0275591Y0184690D02*
X0268701Y0184690D01*
X0268701Y0185475D02*
X0275591Y0185475D01*
X0275591Y0186261D02*
X0268701Y0186261D01*
X0268701Y0187047D02*
X0275591Y0187047D01*
X0275591Y0187833D02*
X0268701Y0187833D01*
X0268701Y0188619D02*
X0275591Y0188619D01*
X0275591Y0189405D02*
X0268701Y0189405D01*
X0268701Y0190191D02*
X0275591Y0190191D01*
X0275591Y0190977D02*
X0268701Y0190977D01*
X0268701Y0191763D02*
X0275591Y0191763D01*
X0275591Y0192549D02*
X0268701Y0192549D01*
X0268701Y0193335D02*
X0275591Y0193335D01*
X0275591Y0194120D02*
X0268701Y0194120D01*
X0268701Y0194906D02*
X0275591Y0194906D01*
X0275591Y0195692D02*
X0268701Y0195692D01*
X0268701Y0196478D02*
X0275591Y0196478D01*
X0275591Y0197264D02*
X0268701Y0197264D01*
X0268701Y0198050D02*
X0275591Y0198050D01*
X0275591Y0198836D02*
X0268701Y0198836D01*
X0268701Y0199622D02*
X0275591Y0199622D01*
X0275591Y0200408D02*
X0268701Y0200408D01*
X0268701Y0201194D02*
X0275591Y0201194D01*
X0275591Y0201980D02*
X0268701Y0201980D01*
X0268701Y0202766D02*
X0275591Y0202766D01*
X0275591Y0203551D02*
X0268701Y0203551D01*
X0268701Y0204337D02*
X0275591Y0204337D01*
X0275591Y0205123D02*
X0268701Y0205123D01*
X0268701Y0205909D02*
X0275591Y0205909D01*
X0275591Y0206695D02*
X0268701Y0206695D01*
X0268701Y0207481D02*
X0275591Y0207481D01*
X0275591Y0208267D02*
X0268701Y0208267D01*
X0268701Y0209053D02*
X0275591Y0209053D01*
X0275591Y0209839D02*
X0268701Y0209839D01*
X0268701Y0210625D02*
X0275591Y0210625D01*
X0275591Y0211411D02*
X0268539Y0211411D01*
X0267753Y0212196D02*
X0275591Y0212196D01*
X0275591Y0212982D02*
X0255531Y0212982D01*
X0255531Y0213768D02*
X0275591Y0213768D01*
X0275591Y0214554D02*
X0255531Y0214554D01*
X0255531Y0215340D02*
X0275591Y0215340D01*
X0275591Y0216126D02*
X0255531Y0216126D01*
X0260675Y0216912D02*
X0275591Y0216912D01*
X0275591Y0217698D02*
X0262573Y0217698D01*
X0264059Y0218484D02*
X0275591Y0218484D01*
X0275591Y0219270D02*
X0264845Y0219270D01*
X0265631Y0220056D02*
X0275591Y0220056D01*
X0275591Y0220842D02*
X0266417Y0220842D01*
X0266752Y0221627D02*
X0275591Y0221627D01*
X0275591Y0222413D02*
X0267077Y0222413D01*
X0267403Y0223199D02*
X0275591Y0223199D01*
X0275591Y0223985D02*
X0267728Y0223985D01*
X0267874Y0224771D02*
X0275591Y0224771D01*
X0275591Y0225557D02*
X0267874Y0225557D01*
X0267874Y0226343D02*
X0275591Y0226343D01*
X0275591Y0227129D02*
X0267874Y0227129D01*
X0267874Y0227915D02*
X0275591Y0227915D01*
X0275591Y0228701D02*
X0267627Y0228701D01*
X0267301Y0229487D02*
X0275591Y0229487D01*
X0275591Y0230272D02*
X0266976Y0230272D01*
X0266650Y0231058D02*
X0275591Y0231058D01*
X0275591Y0231844D02*
X0266172Y0231844D01*
X0265386Y0232630D02*
X0275591Y0232630D01*
X0275591Y0233416D02*
X0264600Y0233416D01*
X0263814Y0234202D02*
X0275591Y0234202D01*
X0275591Y0234988D02*
X0261981Y0234988D01*
X0262691Y0241004D02*
X0264608Y0241798D01*
X0266076Y0243266D01*
X0266870Y0245183D01*
X0266870Y0247258D01*
X0266076Y0249175D01*
X0264608Y0250643D01*
X0262691Y0251437D01*
X0254120Y0251437D01*
X0252203Y0250643D01*
X0250735Y0249175D01*
X0249941Y0247258D01*
X0249941Y0245183D01*
X0250735Y0243266D01*
X0252203Y0241798D01*
X0254120Y0241004D01*
X0262691Y0241004D01*
X0263346Y0241275D02*
X0275591Y0241275D01*
X0275591Y0240489D02*
X0212067Y0240489D01*
X0211733Y0240155D02*
X0213693Y0242116D01*
X0214754Y0244677D01*
X0214754Y0247449D01*
X0213693Y0250010D01*
X0211733Y0251971D01*
X0209172Y0253031D01*
X0206399Y0253031D01*
X0203838Y0251971D01*
X0201878Y0250010D01*
X0200817Y0247449D01*
X0200817Y0244677D01*
X0201878Y0242116D01*
X0203838Y0240155D01*
X0206399Y0239094D01*
X0209172Y0239094D01*
X0211733Y0240155D01*
X0210642Y0239703D02*
X0275591Y0239703D01*
X0275591Y0238918D02*
X0075265Y0238918D01*
X0075265Y0239703D02*
X0204929Y0239703D01*
X0203504Y0240489D02*
X0075265Y0240489D01*
X0075265Y0241275D02*
X0202718Y0241275D01*
X0201932Y0242061D02*
X0075265Y0242061D01*
X0075265Y0242847D02*
X0201575Y0242847D01*
X0201249Y0243633D02*
X0123415Y0243633D01*
X0122882Y0243100D02*
X0124035Y0244254D01*
X0124035Y0248246D01*
X0122882Y0249400D01*
X0112590Y0249400D01*
X0111437Y0248246D01*
X0111437Y0244254D01*
X0112590Y0243100D01*
X0122882Y0243100D01*
X0124035Y0244419D02*
X0200924Y0244419D01*
X0200817Y0245205D02*
X0124035Y0245205D01*
X0124035Y0245991D02*
X0200817Y0245991D01*
X0200817Y0246777D02*
X0124035Y0246777D01*
X0124035Y0247563D02*
X0200864Y0247563D01*
X0201189Y0248348D02*
X0123933Y0248348D01*
X0123148Y0249134D02*
X0201515Y0249134D01*
X0201841Y0249920D02*
X0075265Y0249920D01*
X0075265Y0249134D02*
X0091852Y0249134D01*
X0092118Y0249400D02*
X0090965Y0248246D01*
X0090965Y0244254D01*
X0092118Y0243100D01*
X0102410Y0243100D01*
X0103563Y0244254D01*
X0103563Y0248246D01*
X0102410Y0249400D01*
X0092118Y0249400D01*
X0091067Y0248348D02*
X0075265Y0248348D01*
X0075265Y0247563D02*
X0090965Y0247563D01*
X0090965Y0246777D02*
X0075265Y0246777D01*
X0075265Y0245991D02*
X0090965Y0245991D01*
X0090965Y0245205D02*
X0075265Y0245205D01*
X0075265Y0244419D02*
X0090965Y0244419D01*
X0091585Y0243633D02*
X0075265Y0243633D01*
X0075265Y0238132D02*
X0275591Y0238132D01*
X0275591Y0237346D02*
X0075265Y0237346D01*
X0075265Y0236560D02*
X0275591Y0236560D01*
X0275591Y0235774D02*
X0075265Y0235774D01*
X0075265Y0234988D02*
X0078848Y0234988D01*
X0078307Y0234202D02*
X0075265Y0234202D01*
X0075265Y0233416D02*
X0078307Y0233416D01*
X0078307Y0232630D02*
X0075265Y0232630D01*
X0075265Y0225557D02*
X0078307Y0225557D01*
X0078307Y0224771D02*
X0075265Y0224771D01*
X0075265Y0223985D02*
X0078307Y0223985D01*
X0078476Y0223199D02*
X0075265Y0223199D01*
X0068928Y0223199D02*
X0000000Y0223199D01*
X0000000Y0222413D02*
X0068928Y0222413D01*
X0068928Y0221627D02*
X0000000Y0221627D01*
X0000000Y0220842D02*
X0068928Y0220842D01*
X0068928Y0220056D02*
X0000000Y0220056D01*
X0000000Y0219270D02*
X0068928Y0219270D01*
X0068928Y0218484D02*
X0000000Y0218484D01*
X0000000Y0217698D02*
X0068928Y0217698D01*
X0068928Y0216912D02*
X0000000Y0216912D01*
X0000000Y0216126D02*
X0068928Y0216126D01*
X0068928Y0215340D02*
X0000000Y0215340D01*
X0000000Y0214554D02*
X0068928Y0214554D01*
X0068928Y0213768D02*
X0000000Y0213768D01*
X0000000Y0212982D02*
X0068928Y0212982D01*
X0068928Y0212196D02*
X0000000Y0212196D01*
X0000000Y0211411D02*
X0068928Y0211411D01*
X0068928Y0210625D02*
X0000000Y0210625D01*
X0000000Y0209839D02*
X0068928Y0209839D01*
X0068928Y0209053D02*
X0000000Y0209053D01*
X0000000Y0208267D02*
X0068928Y0208267D01*
X0068928Y0207481D02*
X0000000Y0207481D01*
X0000000Y0206695D02*
X0068928Y0206695D01*
X0068928Y0205909D02*
X0000000Y0205909D01*
X0000000Y0205123D02*
X0068928Y0205123D01*
X0068928Y0204337D02*
X0000000Y0204337D01*
X0000000Y0203551D02*
X0068928Y0203551D01*
X0068928Y0202766D02*
X0000000Y0202766D01*
X0000000Y0201980D02*
X0068928Y0201980D01*
X0068928Y0201194D02*
X0000000Y0201194D01*
X0000000Y0200408D02*
X0068928Y0200408D01*
X0068928Y0199622D02*
X0000000Y0199622D01*
X0000000Y0198836D02*
X0068928Y0198836D01*
X0068928Y0198050D02*
X0000000Y0198050D01*
X0000000Y0197264D02*
X0068928Y0197264D01*
X0068928Y0196478D02*
X0000000Y0196478D01*
X0000000Y0195692D02*
X0068928Y0195692D01*
X0068928Y0194906D02*
X0000000Y0194906D01*
X0000000Y0194120D02*
X0068928Y0194120D01*
X0068928Y0193335D02*
X0000000Y0193335D01*
X0000000Y0192549D02*
X0068928Y0192549D01*
X0068928Y0191763D02*
X0000000Y0191763D01*
X0000000Y0190977D02*
X0068928Y0190977D01*
X0068928Y0190191D02*
X0000000Y0190191D01*
X0000000Y0189405D02*
X0068928Y0189405D01*
X0068928Y0188619D02*
X0000000Y0188619D01*
X0000000Y0187833D02*
X0068928Y0187833D01*
X0068928Y0187047D02*
X0000000Y0187047D01*
X0000000Y0186261D02*
X0068928Y0186261D01*
X0068928Y0185475D02*
X0000000Y0185475D01*
X0000000Y0184690D02*
X0068928Y0184690D01*
X0068928Y0183904D02*
X0000000Y0183904D01*
X0000000Y0183118D02*
X0068928Y0183118D01*
X0068928Y0182332D02*
X0000000Y0182332D01*
X0000000Y0181546D02*
X0068928Y0181546D01*
X0068928Y0180760D02*
X0000000Y0180760D01*
X0000000Y0179974D02*
X0068928Y0179974D01*
X0068928Y0179188D02*
X0000000Y0179188D01*
X0000000Y0178402D02*
X0068928Y0178402D01*
X0068928Y0177616D02*
X0000000Y0177616D01*
X0000000Y0176830D02*
X0068928Y0176830D01*
X0068928Y0176044D02*
X0000000Y0176044D01*
X0000000Y0175259D02*
X0068928Y0175259D01*
X0068928Y0174473D02*
X0000000Y0174473D01*
X0000000Y0173687D02*
X0068928Y0173687D01*
X0068928Y0172901D02*
X0000000Y0172901D01*
X0000000Y0172115D02*
X0068928Y0172115D01*
X0068928Y0171329D02*
X0000000Y0171329D01*
X0000000Y0170543D02*
X0068928Y0170543D01*
X0068928Y0169757D02*
X0000000Y0169757D01*
X0000000Y0168971D02*
X0068928Y0168971D01*
X0068928Y0168185D02*
X0000000Y0168185D01*
X0000000Y0167399D02*
X0068928Y0167399D01*
X0068928Y0166614D02*
X0000000Y0166614D01*
X0000000Y0165828D02*
X0068928Y0165828D01*
X0068928Y0165042D02*
X0000000Y0165042D01*
X0000000Y0164256D02*
X0068928Y0164256D01*
X0068928Y0163470D02*
X0000000Y0163470D01*
X0000000Y0162684D02*
X0068928Y0162684D01*
X0067362Y0161898D02*
X0000000Y0161898D01*
X0000000Y0161112D02*
X0066576Y0161112D01*
X0066329Y0160326D02*
X0000000Y0160326D01*
X0000000Y0159540D02*
X0066329Y0159540D01*
X0066329Y0158754D02*
X0000000Y0158754D01*
X0000000Y0157968D02*
X0066329Y0157968D01*
X0066329Y0157183D02*
X0000000Y0157183D01*
X0000000Y0156397D02*
X0066329Y0156397D01*
X0066329Y0155611D02*
X0000000Y0155611D01*
X0000000Y0154825D02*
X0066329Y0154825D01*
X0066406Y0154039D02*
X0000000Y0154039D01*
X0000000Y0153253D02*
X0066329Y0153253D01*
X0066329Y0152467D02*
X0000000Y0152467D01*
X0000000Y0151681D02*
X0066329Y0151681D01*
X0066329Y0150895D02*
X0000000Y0150895D01*
X0000000Y0150109D02*
X0066329Y0150109D01*
X0066329Y0149323D02*
X0000000Y0149323D01*
X0000000Y0148538D02*
X0066329Y0148538D01*
X0066329Y0147752D02*
X0000000Y0147752D01*
X0000000Y0146966D02*
X0066329Y0146966D01*
X0066784Y0146180D02*
X0000000Y0146180D01*
X0000000Y0145394D02*
X0083366Y0145394D01*
X0083366Y0144608D02*
X0000000Y0144608D01*
X0000000Y0143822D02*
X0083699Y0143822D01*
X0083366Y0143036D02*
X0000000Y0143036D01*
X0000000Y0142250D02*
X0083366Y0142250D01*
X0075678Y0141464D02*
X0000000Y0141464D01*
X0000000Y0140678D02*
X0075079Y0140678D01*
X0075079Y0139892D02*
X0000000Y0139892D01*
X0000000Y0139107D02*
X0075079Y0139107D01*
X0075079Y0138321D02*
X0000000Y0138321D01*
X0000000Y0137535D02*
X0075079Y0137535D01*
X0075079Y0136749D02*
X0000000Y0136749D01*
X0000000Y0135963D02*
X0075079Y0135963D01*
X0075079Y0135177D02*
X0000000Y0135177D01*
X0000000Y0134391D02*
X0075079Y0134391D01*
X0075589Y0133605D02*
X0000000Y0133605D01*
X0000000Y0223985D02*
X0068928Y0223985D01*
X0068928Y0224771D02*
X0000000Y0224771D01*
X0000000Y0225557D02*
X0068928Y0225557D01*
X0068928Y0226343D02*
X0000000Y0226343D01*
X0000000Y0227129D02*
X0068928Y0227129D01*
X0068928Y0227915D02*
X0000000Y0227915D01*
X0000000Y0228701D02*
X0068928Y0228701D01*
X0068928Y0229487D02*
X0000000Y0229487D01*
X0000000Y0230272D02*
X0068928Y0230272D01*
X0068928Y0231058D02*
X0000000Y0231058D01*
X0000000Y0231844D02*
X0068928Y0231844D01*
X0068928Y0232630D02*
X0000000Y0232630D01*
X0000000Y0233416D02*
X0068928Y0233416D01*
X0068928Y0234202D02*
X0000000Y0234202D01*
X0000000Y0234988D02*
X0068928Y0234988D01*
X0068928Y0235774D02*
X0000000Y0235774D01*
X0000000Y0236560D02*
X0068928Y0236560D01*
X0068928Y0237346D02*
X0000000Y0237346D01*
X0000000Y0238132D02*
X0068928Y0238132D01*
X0068928Y0238918D02*
X0000000Y0238918D01*
X0000000Y0239703D02*
X0068928Y0239703D01*
X0068928Y0240489D02*
X0000000Y0240489D01*
X0000000Y0241275D02*
X0068928Y0241275D01*
X0068928Y0242061D02*
X0000000Y0242061D01*
X0000000Y0242847D02*
X0068928Y0242847D01*
X0068928Y0243633D02*
X0000000Y0243633D01*
X0000000Y0244419D02*
X0068928Y0244419D01*
X0068928Y0245205D02*
X0000000Y0245205D01*
X0000000Y0245991D02*
X0068928Y0245991D01*
X0068928Y0246777D02*
X0000000Y0246777D01*
X0000000Y0247563D02*
X0068928Y0247563D01*
X0068928Y0248348D02*
X0000000Y0248348D01*
X0000000Y0249134D02*
X0068928Y0249134D01*
X0068928Y0249920D02*
X0000000Y0249920D01*
X0000000Y0250706D02*
X0068928Y0250706D01*
X0068928Y0251492D02*
X0000000Y0251492D01*
X0000000Y0252278D02*
X0068928Y0252278D01*
X0068928Y0253064D02*
X0000000Y0253064D01*
X0000000Y0253850D02*
X0068928Y0253850D01*
X0068928Y0254636D02*
X0000000Y0254636D01*
X0000000Y0255422D02*
X0068928Y0255422D01*
X0068928Y0256208D02*
X0000000Y0256208D01*
X0000000Y0256994D02*
X0068928Y0256994D01*
X0068928Y0257779D02*
X0000000Y0257779D01*
X0000000Y0258565D02*
X0068928Y0258565D01*
X0068928Y0259351D02*
X0000000Y0259351D01*
X0000000Y0260137D02*
X0069241Y0260137D01*
X0069789Y0260923D02*
X0000000Y0260923D01*
X0000000Y0261709D02*
X0070960Y0261709D01*
X0075265Y0255422D02*
X0275591Y0255422D01*
X0275591Y0256208D02*
X0089734Y0256208D01*
X0090497Y0256994D02*
X0275591Y0256994D01*
X0275591Y0257779D02*
X0090823Y0257779D01*
X0090964Y0258565D02*
X0275591Y0258565D01*
X0275591Y0259351D02*
X0090964Y0259351D01*
X0090964Y0260137D02*
X0275591Y0260137D01*
X0275591Y0260923D02*
X0090964Y0260923D01*
X0090964Y0261709D02*
X0275591Y0261709D01*
X0275591Y0262495D02*
X0090964Y0262495D01*
X0090964Y0263281D02*
X0275591Y0263281D01*
X0275591Y0264067D02*
X0090964Y0264067D01*
X0090964Y0264853D02*
X0275591Y0264853D01*
X0275591Y0265639D02*
X0090964Y0265639D01*
X0090964Y0266424D02*
X0275591Y0266424D01*
X0275591Y0267210D02*
X0090964Y0267210D01*
X0090964Y0267996D02*
X0275591Y0267996D01*
X0275591Y0268782D02*
X0090964Y0268782D01*
X0090964Y0269568D02*
X0275591Y0269568D01*
X0275591Y0270354D02*
X0090964Y0270354D01*
X0090964Y0271140D02*
X0275591Y0271140D01*
X0275591Y0271926D02*
X0090964Y0271926D01*
X0090964Y0272712D02*
X0275591Y0272712D01*
X0275591Y0273498D02*
X0090964Y0273498D01*
X0090964Y0274284D02*
X0275591Y0274284D01*
X0275591Y0275070D02*
X0090964Y0275070D01*
X0090964Y0275855D02*
X0275591Y0275855D01*
X0275591Y0276641D02*
X0090964Y0276641D01*
X0091394Y0277427D02*
X0124747Y0277427D01*
X0122850Y0278213D02*
X0093292Y0278213D01*
X0094161Y0278999D02*
X0121980Y0278999D01*
X0121195Y0279785D02*
X0094947Y0279785D01*
X0095733Y0280571D02*
X0120409Y0280571D01*
X0119869Y0281357D02*
X0096272Y0281357D01*
X0096598Y0282143D02*
X0119544Y0282143D01*
X0119218Y0282929D02*
X0096923Y0282929D01*
X0097249Y0283715D02*
X0118893Y0283715D01*
X0118602Y0284500D02*
X0097539Y0284500D01*
X0097539Y0285286D02*
X0118602Y0285286D01*
X0118602Y0286072D02*
X0097539Y0286072D01*
X0097539Y0286858D02*
X0118602Y0286858D01*
X0118602Y0287644D02*
X0097539Y0287644D01*
X0097539Y0288430D02*
X0118602Y0288430D01*
X0118602Y0289216D02*
X0097539Y0289216D01*
X0097539Y0290002D02*
X0118602Y0290002D01*
X0118602Y0290788D02*
X0097539Y0290788D01*
X0097539Y0291574D02*
X0118602Y0291574D01*
X0118602Y0292360D02*
X0097539Y0292360D01*
X0097539Y0293146D02*
X0118602Y0293146D01*
X0118602Y0293931D02*
X0097539Y0293931D01*
X0097539Y0294717D02*
X0118602Y0294717D01*
X0118602Y0295503D02*
X0097539Y0295503D01*
X0097539Y0296289D02*
X0118602Y0296289D01*
X0131394Y0277427D02*
X0164747Y0277427D01*
X0162850Y0278213D02*
X0133292Y0278213D01*
X0134161Y0278999D02*
X0161980Y0278999D01*
X0161195Y0279785D02*
X0134947Y0279785D01*
X0135733Y0280571D02*
X0160409Y0280571D01*
X0159869Y0281357D02*
X0136272Y0281357D01*
X0136598Y0282143D02*
X0159544Y0282143D01*
X0159218Y0282929D02*
X0136923Y0282929D01*
X0137249Y0283715D02*
X0158893Y0283715D01*
X0158602Y0284500D02*
X0137539Y0284500D01*
X0137539Y0285286D02*
X0158602Y0285286D01*
X0158602Y0286072D02*
X0137539Y0286072D01*
X0137539Y0286858D02*
X0158602Y0286858D01*
X0158602Y0287644D02*
X0137539Y0287644D01*
X0137539Y0288430D02*
X0158602Y0288430D01*
X0158602Y0289216D02*
X0137539Y0289216D01*
X0137539Y0290002D02*
X0158602Y0290002D01*
X0158602Y0290788D02*
X0137539Y0290788D01*
X0137539Y0291574D02*
X0158602Y0291574D01*
X0158602Y0292360D02*
X0137539Y0292360D01*
X0137539Y0293146D02*
X0158602Y0293146D01*
X0158602Y0293931D02*
X0137539Y0293931D01*
X0137539Y0294717D02*
X0158602Y0294717D01*
X0158602Y0295503D02*
X0137539Y0295503D01*
X0137539Y0296289D02*
X0158602Y0296289D01*
X0171394Y0277427D02*
X0204747Y0277427D01*
X0202850Y0278213D02*
X0173292Y0278213D01*
X0174161Y0278999D02*
X0201980Y0278999D01*
X0201195Y0279785D02*
X0174947Y0279785D01*
X0175733Y0280571D02*
X0200409Y0280571D01*
X0199869Y0281357D02*
X0176272Y0281357D01*
X0176598Y0282143D02*
X0199544Y0282143D01*
X0199218Y0282929D02*
X0176923Y0282929D01*
X0177249Y0283715D02*
X0198893Y0283715D01*
X0198602Y0284500D02*
X0177539Y0284500D01*
X0177539Y0285286D02*
X0198602Y0285286D01*
X0198602Y0286072D02*
X0177539Y0286072D01*
X0177539Y0286858D02*
X0198602Y0286858D01*
X0198602Y0287644D02*
X0177539Y0287644D01*
X0177539Y0288430D02*
X0198602Y0288430D01*
X0198602Y0289216D02*
X0177539Y0289216D01*
X0177539Y0290002D02*
X0198602Y0290002D01*
X0198602Y0290788D02*
X0177539Y0290788D01*
X0177539Y0291574D02*
X0198602Y0291574D01*
X0198602Y0292360D02*
X0177539Y0292360D01*
X0177539Y0293146D02*
X0198602Y0293146D01*
X0198602Y0293931D02*
X0177539Y0293931D01*
X0177539Y0294717D02*
X0198602Y0294717D01*
X0198602Y0295503D02*
X0177539Y0295503D01*
X0177539Y0296289D02*
X0198602Y0296289D01*
X0211394Y0277427D02*
X0275591Y0277427D01*
X0275591Y0278213D02*
X0213292Y0278213D01*
X0214161Y0278999D02*
X0275591Y0278999D01*
X0275591Y0279785D02*
X0214947Y0279785D01*
X0215733Y0280571D02*
X0275591Y0280571D01*
X0275591Y0281357D02*
X0216272Y0281357D01*
X0216598Y0282143D02*
X0275591Y0282143D01*
X0275591Y0282929D02*
X0216923Y0282929D01*
X0217249Y0283715D02*
X0275591Y0283715D01*
X0275591Y0284500D02*
X0217539Y0284500D01*
X0217539Y0285286D02*
X0275591Y0285286D01*
X0275591Y0286072D02*
X0217539Y0286072D01*
X0217539Y0286858D02*
X0275591Y0286858D01*
X0275591Y0287644D02*
X0217539Y0287644D01*
X0217539Y0288430D02*
X0275591Y0288430D01*
X0275591Y0289216D02*
X0217539Y0289216D01*
X0217539Y0290002D02*
X0275591Y0290002D01*
X0275591Y0290788D02*
X0217539Y0290788D01*
X0217539Y0291574D02*
X0275591Y0291574D01*
X0275591Y0292360D02*
X0217539Y0292360D01*
X0217539Y0293146D02*
X0275591Y0293146D01*
X0275591Y0293931D02*
X0217539Y0293931D01*
X0217539Y0294717D02*
X0275591Y0294717D01*
X0275591Y0295503D02*
X0217539Y0295503D01*
X0217539Y0296289D02*
X0275591Y0296289D01*
X0275591Y0297075D02*
X0217539Y0297075D01*
X0217539Y0297861D02*
X0275591Y0297861D01*
X0275591Y0298647D02*
X0217539Y0298647D01*
X0217539Y0299433D02*
X0275591Y0299433D01*
X0275591Y0300219D02*
X0217539Y0300219D01*
X0217539Y0301005D02*
X0275591Y0301005D01*
X0275591Y0301791D02*
X0217539Y0301791D01*
X0217539Y0302576D02*
X0275591Y0302576D01*
X0275591Y0303362D02*
X0217539Y0303362D01*
X0217539Y0304148D02*
X0275591Y0304148D01*
X0275591Y0304934D02*
X0217539Y0304934D01*
X0217539Y0305720D02*
X0275591Y0305720D01*
X0275591Y0306506D02*
X0217539Y0306506D01*
X0217539Y0307292D02*
X0275574Y0307292D01*
X0275513Y0308078D02*
X0217539Y0308078D01*
X0217257Y0308864D02*
X0275363Y0308864D01*
X0275151Y0309650D02*
X0216932Y0309650D01*
X0216606Y0310436D02*
X0274826Y0310436D01*
X0274389Y0311222D02*
X0216281Y0311222D01*
X0215753Y0312007D02*
X0273837Y0312007D01*
X0273122Y0312793D02*
X0214967Y0312793D01*
X0214181Y0313579D02*
X0272145Y0313579D01*
X0270657Y0314365D02*
X0213340Y0314365D01*
X0210991Y0252278D02*
X0275591Y0252278D01*
X0275591Y0251492D02*
X0212211Y0251492D01*
X0212997Y0250706D02*
X0252356Y0250706D01*
X0251480Y0249920D02*
X0213730Y0249920D01*
X0214056Y0249134D02*
X0250718Y0249134D01*
X0250393Y0248348D02*
X0214381Y0248348D01*
X0214707Y0247563D02*
X0250067Y0247563D01*
X0249941Y0246777D02*
X0214754Y0246777D01*
X0214754Y0245991D02*
X0249941Y0245991D01*
X0249941Y0245205D02*
X0214754Y0245205D01*
X0214647Y0244419D02*
X0250257Y0244419D01*
X0250583Y0243633D02*
X0214322Y0243633D01*
X0213996Y0242847D02*
X0251154Y0242847D01*
X0251939Y0242061D02*
X0213639Y0242061D01*
X0212853Y0241275D02*
X0253465Y0241275D01*
X0264872Y0242061D02*
X0275591Y0242061D01*
X0275591Y0242847D02*
X0265657Y0242847D01*
X0266228Y0243633D02*
X0275591Y0243633D01*
X0275591Y0244419D02*
X0266554Y0244419D01*
X0266870Y0245205D02*
X0275591Y0245205D01*
X0275591Y0245991D02*
X0266870Y0245991D01*
X0266870Y0246777D02*
X0275591Y0246777D01*
X0275591Y0247563D02*
X0266744Y0247563D01*
X0266418Y0248348D02*
X0275591Y0248348D01*
X0275591Y0249134D02*
X0266093Y0249134D01*
X0265331Y0249920D02*
X0275591Y0249920D01*
X0275591Y0250706D02*
X0264455Y0250706D01*
X0275591Y0253064D02*
X0075265Y0253064D01*
X0075265Y0253850D02*
X0275591Y0253850D01*
X0275591Y0254636D02*
X0075265Y0254636D01*
X0075265Y0252278D02*
X0204580Y0252278D01*
X0203360Y0251492D02*
X0075265Y0251492D01*
X0075265Y0250706D02*
X0202574Y0250706D01*
X0121004Y0162684D02*
X0093996Y0162684D01*
X0093996Y0161898D02*
X0121004Y0161898D01*
X0121004Y0161112D02*
X0093996Y0161112D01*
X0093996Y0160326D02*
X0121004Y0160326D01*
X0121004Y0159540D02*
X0093996Y0159540D01*
X0093595Y0158754D02*
X0121405Y0158754D01*
X0121004Y0157968D02*
X0093996Y0157968D01*
X0093996Y0157183D02*
X0121004Y0157183D01*
X0121004Y0156397D02*
X0093996Y0156397D01*
X0093996Y0155611D02*
X0121004Y0155611D01*
X0121004Y0154825D02*
X0093996Y0154825D01*
X0093880Y0154039D02*
X0121120Y0154039D01*
X0121004Y0153253D02*
X0093996Y0153253D01*
X0093996Y0152467D02*
X0121004Y0152467D01*
X0121004Y0151681D02*
X0093996Y0151681D01*
X0093996Y0150895D02*
X0121004Y0150895D01*
X0083993Y0168971D02*
X0075265Y0168971D01*
X0075265Y0168185D02*
X0083366Y0168185D01*
X0083366Y0167399D02*
X0075265Y0167399D01*
X0075265Y0166614D02*
X0083366Y0166614D01*
X0083366Y0165828D02*
X0075265Y0165828D01*
X0075265Y0165042D02*
X0083366Y0165042D01*
X0083366Y0164256D02*
X0075265Y0164256D01*
X0075265Y0163470D02*
X0083491Y0163470D01*
X0083366Y0162684D02*
X0075265Y0162684D01*
X0075265Y0161898D02*
X0083366Y0161898D01*
X0083366Y0161112D02*
X0075924Y0161112D01*
X0076171Y0160326D02*
X0083366Y0160326D01*
X0083366Y0159540D02*
X0076171Y0159540D01*
X0076171Y0158754D02*
X0083767Y0158754D01*
X0083366Y0157968D02*
X0076171Y0157968D01*
X0076171Y0157183D02*
X0083366Y0157183D01*
X0083366Y0156397D02*
X0076171Y0156397D01*
X0076171Y0155611D02*
X0083366Y0155611D01*
X0083366Y0154825D02*
X0076171Y0154825D01*
X0103010Y0228701D02*
X0111990Y0228701D01*
X0111437Y0229487D02*
X0103563Y0229487D01*
X0103563Y0230272D02*
X0111437Y0230272D01*
X0111437Y0231058D02*
X0103563Y0231058D01*
X0103563Y0231844D02*
X0111437Y0231844D01*
X0111437Y0232630D02*
X0103563Y0232630D01*
X0103393Y0233416D02*
X0111607Y0233416D01*
X0112393Y0234202D02*
X0102607Y0234202D01*
X0102942Y0243633D02*
X0112058Y0243633D01*
X0111437Y0244419D02*
X0103563Y0244419D01*
X0103563Y0245205D02*
X0111437Y0245205D01*
X0111437Y0245991D02*
X0103563Y0245991D01*
X0103563Y0246777D02*
X0111437Y0246777D01*
X0111437Y0247563D02*
X0103563Y0247563D01*
X0103461Y0248348D02*
X0111539Y0248348D01*
X0112325Y0249134D02*
X0102675Y0249134D01*
X0084627Y0262495D02*
X0000000Y0262495D01*
X0000000Y0263281D02*
X0084627Y0263281D01*
X0084627Y0264067D02*
X0000000Y0264067D01*
X0000000Y0264853D02*
X0084627Y0264853D01*
X0084627Y0265639D02*
X0000000Y0265639D01*
X0000000Y0266424D02*
X0084627Y0266424D01*
X0084627Y0267210D02*
X0000000Y0267210D01*
X0000000Y0267996D02*
X0084627Y0267996D01*
X0084627Y0268782D02*
X0000000Y0268782D01*
X0000000Y0269568D02*
X0084627Y0269568D01*
X0084627Y0270354D02*
X0000000Y0270354D01*
X0000000Y0271140D02*
X0084627Y0271140D01*
X0084627Y0271926D02*
X0000000Y0271926D01*
X0000000Y0272712D02*
X0084627Y0272712D01*
X0084627Y0273498D02*
X0000000Y0273498D01*
X0000000Y0274284D02*
X0084627Y0274284D01*
X0084627Y0275070D02*
X0000000Y0275070D01*
X0000000Y0275855D02*
X0084627Y0275855D01*
X0084627Y0276641D02*
X0000000Y0276641D01*
X0000000Y0277427D02*
X0084627Y0277427D01*
X0082850Y0278213D02*
X0000000Y0278213D01*
X0000000Y0278999D02*
X0081980Y0278999D01*
X0081195Y0279785D02*
X0000000Y0279785D01*
X0000000Y0280571D02*
X0080409Y0280571D01*
X0079869Y0281357D02*
X0000000Y0281357D01*
X0000000Y0282143D02*
X0079544Y0282143D01*
X0079218Y0282929D02*
X0000000Y0282929D01*
X0000000Y0283715D02*
X0078893Y0283715D01*
X0078602Y0284500D02*
X0000000Y0284500D01*
X0000000Y0285286D02*
X0078602Y0285286D01*
X0078602Y0286072D02*
X0000000Y0286072D01*
X0000000Y0286858D02*
X0078602Y0286858D01*
X0078602Y0287644D02*
X0000000Y0287644D01*
X0000000Y0288430D02*
X0078602Y0288430D01*
X0078602Y0289216D02*
X0000000Y0289216D01*
X0000000Y0290002D02*
X0078602Y0290002D01*
X0078602Y0290788D02*
X0000000Y0290788D01*
X0000000Y0291574D02*
X0078602Y0291574D01*
X0078602Y0292360D02*
X0000000Y0292360D01*
X0000000Y0293146D02*
X0078602Y0293146D01*
X0078602Y0293931D02*
X0000000Y0293931D01*
X0000000Y0294717D02*
X0078602Y0294717D01*
X0078602Y0295503D02*
X0000000Y0295503D01*
X0000000Y0296289D02*
X0078602Y0296289D01*
X0078602Y0297075D02*
X0000000Y0297075D01*
X0000000Y0297861D02*
X0078602Y0297861D01*
X0078602Y0298647D02*
X0000000Y0298647D01*
X0000000Y0299433D02*
X0078602Y0299433D01*
X0078602Y0300219D02*
X0000000Y0300219D01*
X0000000Y0301005D02*
X0078602Y0301005D01*
X0078602Y0301791D02*
X0000000Y0301791D01*
X0000000Y0302576D02*
X0078602Y0302576D01*
X0078602Y0303362D02*
X0000000Y0303362D01*
X0000000Y0304148D02*
X0078602Y0304148D01*
X0078602Y0304934D02*
X0000000Y0304934D01*
X0000000Y0305720D02*
X0078602Y0305720D01*
X0078602Y0306506D02*
X0000000Y0306506D01*
X0000016Y0307292D02*
X0078602Y0307292D01*
X0078602Y0308078D02*
X0000078Y0308078D01*
X0000228Y0308864D02*
X0078885Y0308864D01*
X0079210Y0309650D02*
X0000439Y0309650D01*
X0000765Y0310436D02*
X0079536Y0310436D01*
X0079861Y0311222D02*
X0001201Y0311222D01*
X0001754Y0312007D02*
X0080389Y0312007D01*
X0081174Y0312793D02*
X0002469Y0312793D01*
X0003446Y0313579D02*
X0081960Y0313579D01*
X0082801Y0314365D02*
X0004934Y0314365D01*
D27*
X0067500Y0265000D03*
X0088071Y0308799D03*
X0107500Y0265000D03*
X0128071Y0308799D03*
X0147500Y0265000D03*
X0168071Y0308799D03*
X0187500Y0265000D03*
X0208071Y0308799D03*
X0244154Y0213898D03*
X0249154Y0213898D03*
X0219154Y0211398D03*
X0211654Y0211398D03*
X0212500Y0170000D03*
X0206250Y0170000D03*
X0192500Y0128750D03*
X0211654Y0103248D03*
X0219154Y0103248D03*
X0244154Y0100748D03*
X0249154Y0100748D03*
X0162500Y0128750D03*
X0145000Y0120000D03*
X0135000Y0141250D03*
X0135000Y0151250D03*
X0127500Y0188750D03*
X0117500Y0188750D03*
X0107500Y0188750D03*
X0097500Y0188750D03*
X0107500Y0077500D03*
X0127500Y0077500D03*
D28*
X0246063Y0088740D02*
X0258406Y0088740D01*
X0246063Y0088740D02*
X0246063Y0125984D01*
X0246063Y0188976D02*
X0246063Y0218898D01*
X0246063Y0226220D01*
X0258406Y0226220D01*
X0208071Y0286299D02*
X0208071Y0306299D01*
X0168071Y0306299D01*
X0168071Y0286299D01*
X0168071Y0306299D02*
X0128071Y0306299D01*
X0128071Y0286299D01*
X0128071Y0306299D02*
X0088071Y0306299D01*
X0088071Y0286299D01*
M02*
