%
M48
M72
T01C0.0236
T02C0.0394
T03C0.0400
T04C0.0433
T05C0.0512
T06C0.1654
%
T01
X10750Y7750
X12750Y7750
X14500Y12000
X16250Y12875
X13500Y14125
X13500Y15125
X12750Y18875
X11750Y18875
X10750Y18875
X9750Y18875
X10750Y26500
X8807Y30880
X6750Y26500
X12807Y30880
X14750Y26500
X16807Y30880
X18750Y26500
X20807Y30880
X24415Y21390
X24915Y21390
X21915Y21140
X21165Y21140
X21250Y17000
X20625Y17000
X19250Y12875
X21165Y10325
X21915Y10325
X24415Y10075
X24915Y10075
T02
X12750Y20125
X11750Y20125
X10750Y20125
X9750Y20125
X8750Y20125
T03
X20779Y22638
X20779Y24606
X20779Y8858
X20779Y6890
T04
X25841Y6874
X25841Y8874
X25841Y22622
X25841Y24622
T05
X20780Y28740
X18780Y28740
X16780Y28740
X14780Y28740
X12780Y28740
X10780Y28740
X8780Y28740
X6780Y28740
X8750Y6250
X8750Y4250
X8750Y2250
X10750Y6250
X12750Y6250
X12750Y4250
X12750Y2250
T06
X2362Y2362
X2362Y29134
X25197Y29134
X25197Y2362
M30
