G75*
%MOIN*%
%OFA0B0*%
%FSLAX25Y25*%
%IPPOS*%
%LPD*%
%AMOC8*
5,1,8,0,0,1.08239X$1,22.5*
%
%ADD10R,0.02559X0.06693*%
%ADD11C,0.05937*%
%ADD12R,0.05118X0.05906*%
%ADD13R,0.13386X0.03937*%
%ADD14R,0.37795X0.26772*%
%ADD15R,0.07800X0.02200*%
%ADD16R,0.02362X0.08661*%
%ADD17R,0.09449X0.09449*%
%ADD18R,0.05906X0.05118*%
%ADD19C,0.06496*%
%ADD20C,0.10000*%
%ADD21OC8,0.10000*%
%ADD22C,0.08600*%
%ADD23R,0.05937X0.05937*%
%ADD24R,0.14236X0.14236*%
%ADD25R,0.08661X0.02362*%
%ADD26C,0.02400*%
%ADD27C,0.31496*%
%ADD28C,0.00787*%
%ADD29C,0.03962*%
%ADD30C,0.15000*%
%ADD31C,0.01200*%
D10*
X0103750Y0187431D03*
X0108750Y0187431D03*
X0113750Y0187431D03*
X0118750Y0187431D03*
X0123750Y0187431D03*
X0128750Y0187431D03*
X0133750Y0187431D03*
X0138750Y0187431D03*
X0143750Y0187431D03*
X0148750Y0187431D03*
X0153750Y0187431D03*
X0158750Y0187431D03*
X0163750Y0187431D03*
X0168750Y0187431D03*
X0168750Y0225069D03*
X0163750Y0225069D03*
X0158750Y0225069D03*
X0153750Y0225069D03*
X0148750Y0225069D03*
X0143750Y0225069D03*
X0138750Y0225069D03*
X0133750Y0225069D03*
X0128750Y0225069D03*
X0123750Y0225069D03*
X0118750Y0225069D03*
X0113750Y0225069D03*
X0108750Y0225069D03*
X0103750Y0225069D03*
D11*
X0067969Y0225000D02*
X0062031Y0225000D01*
X0062031Y0215000D02*
X0067969Y0215000D01*
X0067969Y0205000D02*
X0062031Y0205000D01*
X0062031Y0195000D02*
X0067969Y0195000D01*
X0067969Y0185000D02*
X0062031Y0185000D01*
X0203281Y0185000D02*
X0209219Y0185000D01*
X0209219Y0195000D02*
X0203281Y0195000D01*
X0203281Y0205000D02*
X0209219Y0205000D01*
X0209219Y0215000D02*
X0203281Y0215000D01*
X0203281Y0225000D02*
X0209219Y0225000D01*
D12*
X0220207Y0239134D03*
X0227687Y0239134D03*
X0138740Y0233750D03*
X0131260Y0233750D03*
X0128740Y0178750D03*
X0121260Y0178750D03*
X0128760Y0123750D03*
X0136240Y0123750D03*
X0121240Y0079705D03*
X0113760Y0079705D03*
X0089990Y0079705D03*
X0082510Y0079705D03*
X0059990Y0080000D03*
X0052510Y0080000D03*
X0191260Y0079705D03*
X0198740Y0079705D03*
X0221555Y0080000D03*
X0229035Y0080000D03*
X0251260Y0080295D03*
X0258740Y0080295D03*
X0267510Y0108750D03*
X0274990Y0108750D03*
X0274990Y0142500D03*
X0267510Y0142500D03*
D13*
X0304016Y0150000D03*
X0304016Y0130000D03*
X0304016Y0105000D03*
X0304016Y0085000D03*
X0304016Y0060000D03*
X0304016Y0040000D03*
D14*
X0343780Y0050000D03*
X0343780Y0095000D03*
X0343780Y0140000D03*
D15*
X0280550Y0131250D03*
X0280550Y0126250D03*
X0280550Y0121250D03*
X0280550Y0116250D03*
X0261950Y0116250D03*
X0261950Y0121250D03*
X0261950Y0126250D03*
X0261950Y0131250D03*
X0261950Y0150000D03*
X0261950Y0155000D03*
X0261950Y0160000D03*
X0261950Y0165000D03*
X0280550Y0165000D03*
X0280550Y0160000D03*
X0280550Y0155000D03*
X0280550Y0150000D03*
D16*
X0251447Y0195148D03*
X0246447Y0195148D03*
X0241447Y0195148D03*
X0236447Y0195148D03*
X0236447Y0215620D03*
X0241447Y0215620D03*
X0246447Y0215620D03*
X0251447Y0215620D03*
D17*
X0253789Y0227884D03*
X0234104Y0227884D03*
X0234104Y0182884D03*
X0253789Y0182884D03*
D18*
X0210866Y0238957D03*
X0210866Y0246437D03*
X0095000Y0208740D03*
X0086250Y0208740D03*
X0086250Y0201260D03*
X0095000Y0201260D03*
X0090000Y0095945D03*
X0090000Y0088465D03*
X0098750Y0087195D03*
X0098750Y0079715D03*
X0121250Y0088465D03*
X0130000Y0087195D03*
X0130000Y0079715D03*
X0121250Y0095945D03*
X0068750Y0087490D03*
X0060000Y0088760D03*
X0060000Y0096240D03*
X0068750Y0080010D03*
X0198750Y0088465D03*
X0207500Y0087195D03*
X0207500Y0079715D03*
X0229045Y0088760D03*
X0237795Y0087490D03*
X0237795Y0080010D03*
X0258750Y0088760D03*
X0267795Y0087490D03*
X0267795Y0080010D03*
X0258750Y0096240D03*
X0229045Y0096240D03*
X0198750Y0095945D03*
D19*
X0320000Y0231752D02*
X0320000Y0238248D01*
X0340000Y0238248D02*
X0340000Y0231752D01*
D20*
X0339843Y0197500D03*
D21*
X0320157Y0197500D03*
D22*
X0390700Y0135000D02*
X0399300Y0135000D01*
X0399300Y0115000D02*
X0390700Y0115000D01*
X0390700Y0095000D02*
X0399300Y0095000D01*
X0399300Y0075000D02*
X0390700Y0075000D01*
D23*
X0255906Y0045276D03*
X0255906Y0035433D03*
X0255906Y0025591D03*
X0198819Y0025591D03*
X0198819Y0045276D03*
X0118110Y0045276D03*
X0118110Y0035433D03*
X0118110Y0025591D03*
X0061024Y0025591D03*
X0061024Y0045276D03*
D24*
X0088583Y0057874D03*
X0088583Y0012992D03*
X0226378Y0012992D03*
X0226378Y0057874D03*
D25*
X0156486Y0131250D03*
X0156486Y0136250D03*
X0156486Y0141250D03*
X0156486Y0146250D03*
X0156486Y0151250D03*
X0156486Y0156250D03*
X0156486Y0161250D03*
X0136014Y0161250D03*
X0136014Y0156250D03*
X0136014Y0151250D03*
X0136014Y0146250D03*
X0136014Y0141250D03*
X0136014Y0136250D03*
X0136014Y0131250D03*
D26*
X0122500Y0131250D01*
X0102500Y0131250D01*
X0102500Y0093750D01*
X0105000Y0093750D01*
X0105000Y0073750D01*
X0113750Y0073750D01*
X0113760Y0073750D01*
X0113760Y0079705D01*
X0082510Y0079705D02*
X0082510Y0073750D01*
X0082500Y0073750D01*
X0052510Y0073750D02*
X0052500Y0073750D01*
X0052510Y0073750D02*
X0052510Y0080000D01*
X0136240Y0123750D02*
X0136240Y0131250D01*
X0136250Y0131250D01*
X0136240Y0131250D02*
X0136014Y0131250D01*
X0122500Y0141250D02*
X0122500Y0160000D01*
X0128750Y0160000D01*
X0128750Y0165000D01*
X0136250Y0165000D01*
X0136250Y0172500D01*
X0128740Y0172500D01*
X0128740Y0178750D01*
X0128740Y0187431D01*
X0128750Y0187431D01*
X0128750Y0195000D01*
X0095000Y0195000D01*
X0095000Y0201260D01*
X0095000Y0195000D02*
X0086250Y0195000D01*
X0077500Y0195000D01*
X0065000Y0195000D01*
X0065000Y0185000D02*
X0098750Y0185000D01*
X0098750Y0180000D01*
X0108750Y0180000D01*
X0108750Y0175000D01*
X0138750Y0225069D02*
X0138750Y0233750D01*
X0138740Y0233750D01*
X0193750Y0185000D02*
X0206250Y0185000D01*
X0231250Y0182884D02*
X0231250Y0173750D01*
X0236447Y0181634D02*
X0234104Y0182884D01*
X0231250Y0182884D01*
X0236447Y0181634D02*
X0236447Y0195148D01*
X0241447Y0195148D02*
X0246447Y0195148D01*
X0246447Y0215620D02*
X0241447Y0215620D01*
X0246447Y0215620D02*
X0247500Y0228287D01*
X0253789Y0227884D01*
X0262500Y0220000D02*
X0273750Y0220000D01*
X0340000Y0220000D01*
X0340000Y0235000D01*
X0273750Y0220000D02*
X0273750Y0155000D01*
X0273750Y0142500D01*
X0274990Y0142500D01*
X0273750Y0142500D02*
X0273750Y0121250D01*
X0273750Y0108750D01*
X0274990Y0108750D01*
X0267904Y0109774D02*
X0267904Y0121033D01*
X0261950Y0121250D01*
X0273750Y0121250D02*
X0280550Y0121250D01*
X0280550Y0116250D02*
X0280550Y0060000D01*
X0304016Y0060000D01*
X0251260Y0073750D02*
X0251250Y0073750D01*
X0251260Y0073750D02*
X0251260Y0080295D01*
X0221555Y0080000D02*
X0221555Y0073750D01*
X0221250Y0073750D01*
X0191260Y0073750D02*
X0191250Y0073750D01*
X0191260Y0073750D02*
X0191260Y0079705D01*
X0267510Y0108750D02*
X0267560Y0108774D01*
X0267608Y0108802D01*
X0267654Y0108833D01*
X0267697Y0108867D01*
X0267738Y0108905D01*
X0267776Y0108945D01*
X0267811Y0108988D01*
X0267844Y0109033D01*
X0267872Y0109080D01*
X0267898Y0109129D01*
X0267919Y0109180D01*
X0267937Y0109233D01*
X0267952Y0109286D01*
X0267962Y0109341D01*
X0267968Y0109396D01*
X0267971Y0109451D01*
X0267970Y0109506D01*
X0267964Y0109562D01*
X0267955Y0109616D01*
X0267942Y0109670D01*
X0267925Y0109723D01*
X0267904Y0109774D01*
X0287500Y0105000D02*
X0287500Y0126250D01*
X0280550Y0126250D01*
X0287500Y0105000D02*
X0304016Y0105000D01*
X0304016Y0150000D02*
X0280550Y0150000D01*
X0280550Y0155000D02*
X0273750Y0155000D01*
X0236447Y0215620D02*
X0236447Y0227884D01*
X0234104Y0227884D01*
X0234724Y0228287D01*
X0234724Y0240000D01*
X0262500Y0240000D01*
X0262500Y0220000D01*
X0234724Y0240000D02*
X0227500Y0240000D01*
X0227687Y0239134D01*
D27*
X0389764Y0232283D03*
X0389764Y0023622D03*
X0023622Y0023622D03*
X0023622Y0232283D03*
D28*
X0001504Y0003246D02*
X0002306Y0002306D01*
X0003246Y0001504D01*
X0004299Y0000858D01*
X0005441Y0000385D01*
X0006642Y0000097D01*
X0007874Y0000000D01*
X0405512Y0000000D01*
X0007874Y0000000D01*
X0004474Y0000786D02*
X0408912Y0000786D01*
X0409087Y0000858D02*
X0407945Y0000385D01*
X0406744Y0000097D01*
X0405512Y0000000D01*
X0409087Y0000858D02*
X0410140Y0001504D01*
X0411080Y0002306D01*
X0411882Y0003246D01*
X0412528Y0004299D01*
X0413000Y0005441D01*
X0413289Y0006642D01*
X0413386Y0007874D01*
X0413386Y0248031D01*
X0413289Y0249263D01*
X0413000Y0250465D01*
X0412528Y0251606D01*
X0411882Y0252660D01*
X0411080Y0253599D01*
X0410140Y0254402D01*
X0409087Y0255047D01*
X0407945Y0255520D01*
X0406744Y0255809D01*
X0405512Y0255906D01*
X0007874Y0255906D01*
X0006642Y0255809D01*
X0005441Y0255520D01*
X0004299Y0255047D01*
X0003246Y0254402D01*
X0002306Y0253599D01*
X0001504Y0252660D01*
X0000858Y0251606D01*
X0000385Y0250465D01*
X0000097Y0249263D01*
X0000000Y0248031D01*
X0000000Y0007874D01*
X0000097Y0006642D01*
X0000385Y0005441D01*
X0000858Y0004299D01*
X0001504Y0003246D01*
X0001591Y0003144D02*
X0411795Y0003144D01*
X0412301Y0003930D02*
X0001085Y0003930D01*
X0000686Y0004715D02*
X0412700Y0004715D01*
X0413015Y0005501D02*
X0000371Y0005501D01*
X0000182Y0006287D02*
X0413204Y0006287D01*
X0413323Y0007073D02*
X0000063Y0007073D01*
X0000001Y0007859D02*
X0413385Y0007859D01*
X0413386Y0008645D02*
X0000000Y0008645D01*
X0000000Y0009431D02*
X0413386Y0009431D01*
X0413386Y0010217D02*
X0000000Y0010217D01*
X0000000Y0011003D02*
X0413386Y0011003D01*
X0413386Y0011789D02*
X0000000Y0011789D01*
X0000000Y0012575D02*
X0413386Y0012575D01*
X0413386Y0013361D02*
X0000000Y0013361D01*
X0000000Y0014146D02*
X0413386Y0014146D01*
X0413386Y0014932D02*
X0000000Y0014932D01*
X0000000Y0015718D02*
X0413386Y0015718D01*
X0413386Y0016504D02*
X0000000Y0016504D01*
X0000000Y0017290D02*
X0413386Y0017290D01*
X0413386Y0018076D02*
X0000000Y0018076D01*
X0000000Y0018862D02*
X0413386Y0018862D01*
X0413386Y0019648D02*
X0000000Y0019648D01*
X0000000Y0020434D02*
X0413386Y0020434D01*
X0413386Y0021220D02*
X0260255Y0021220D01*
X0259689Y0020654D02*
X0260843Y0021807D01*
X0260843Y0023022D01*
X0268306Y0023022D01*
X0269250Y0023413D01*
X0269973Y0024136D01*
X0270364Y0025080D01*
X0270364Y0075482D01*
X0271563Y0075482D01*
X0272717Y0076635D01*
X0272717Y0083384D01*
X0272351Y0083750D01*
X0272717Y0084116D01*
X0272717Y0090865D01*
X0271563Y0092018D01*
X0264027Y0092018D01*
X0263671Y0091662D01*
X0263671Y0092134D01*
X0262518Y0093287D01*
X0255068Y0093287D01*
X0255068Y0106761D01*
X0254677Y0107705D01*
X0253955Y0108427D01*
X0253011Y0108818D01*
X0172568Y0108818D01*
X0172568Y0144261D01*
X0172177Y0145205D01*
X0171455Y0145927D01*
X0170511Y0146318D01*
X0165068Y0146318D01*
X0165068Y0151761D01*
X0164677Y0152705D01*
X0163955Y0153427D01*
X0163342Y0153681D01*
X0168011Y0153681D01*
X0168955Y0154073D01*
X0169677Y0154795D01*
X0170068Y0155739D01*
X0170068Y0168011D01*
X0169677Y0168955D01*
X0168955Y0169677D01*
X0168011Y0170068D01*
X0161318Y0170068D01*
X0161318Y0180408D01*
X0161573Y0179795D01*
X0162295Y0179073D01*
X0163239Y0178681D01*
X0163714Y0178681D01*
X0163550Y0178286D01*
X0163550Y0176714D01*
X0164152Y0175263D01*
X0165263Y0174152D01*
X0166714Y0173550D01*
X0168286Y0173550D01*
X0169737Y0174152D01*
X0170517Y0174931D01*
X0218681Y0174931D01*
X0218681Y0115739D01*
X0219073Y0114795D01*
X0219795Y0114073D01*
X0220739Y0113681D01*
X0256735Y0113681D01*
X0257235Y0113181D01*
X0266665Y0113181D01*
X0267818Y0114335D01*
X0267818Y0118165D01*
X0266665Y0119318D01*
X0257235Y0119318D01*
X0256735Y0118818D01*
X0223818Y0118818D01*
X0223818Y0123681D01*
X0256735Y0123681D01*
X0257235Y0123181D01*
X0266665Y0123181D01*
X0267818Y0124335D01*
X0267818Y0128165D01*
X0267234Y0128750D01*
X0267818Y0129335D01*
X0267818Y0133165D01*
X0266665Y0134318D01*
X0257235Y0134318D01*
X0256081Y0133165D01*
X0256081Y0129335D01*
X0256598Y0128818D01*
X0226318Y0128818D01*
X0226318Y0147431D01*
X0256735Y0147431D01*
X0257235Y0146931D01*
X0266665Y0146931D01*
X0267818Y0148085D01*
X0267818Y0151915D01*
X0266665Y0153068D01*
X0257235Y0153068D01*
X0256735Y0152568D01*
X0228818Y0152568D01*
X0228818Y0170596D01*
X0229013Y0170402D01*
X0230464Y0169800D01*
X0232036Y0169800D01*
X0233487Y0170402D01*
X0234598Y0171513D01*
X0235200Y0172964D01*
X0235200Y0174536D01*
X0234598Y0175987D01*
X0234418Y0176167D01*
X0234418Y0176191D01*
X0239644Y0176191D01*
X0240797Y0177344D01*
X0240797Y0188424D01*
X0239644Y0189577D01*
X0239615Y0189577D01*
X0239615Y0195778D01*
X0239596Y0195824D01*
X0239596Y0200294D01*
X0238443Y0201447D01*
X0234450Y0201447D01*
X0233297Y0200294D01*
X0233297Y0195824D01*
X0233278Y0195778D01*
X0233278Y0189577D01*
X0228818Y0189577D01*
X0228818Y0221191D01*
X0233278Y0221191D01*
X0233278Y0214990D01*
X0233297Y0214944D01*
X0233297Y0210474D01*
X0234450Y0209321D01*
X0238443Y0209321D01*
X0239596Y0210474D01*
X0239596Y0214944D01*
X0239615Y0214990D01*
X0239615Y0221191D01*
X0239644Y0221191D01*
X0240797Y0222344D01*
X0240797Y0233424D01*
X0239644Y0234577D01*
X0237893Y0234577D01*
X0237893Y0236831D01*
X0259331Y0236831D01*
X0259331Y0219370D01*
X0259814Y0218205D01*
X0260705Y0217314D01*
X0261870Y0216831D01*
X0270581Y0216831D01*
X0270581Y0146387D01*
X0270463Y0146268D01*
X0270463Y0138732D01*
X0270581Y0138613D01*
X0270581Y0112637D01*
X0270463Y0112518D01*
X0270463Y0104982D01*
X0271616Y0103829D01*
X0277381Y0103829D01*
X0277381Y0059370D01*
X0277864Y0058205D01*
X0278755Y0057314D01*
X0279920Y0056831D01*
X0295739Y0056831D01*
X0296507Y0056063D01*
X0311524Y0056063D01*
X0312677Y0057216D01*
X0312677Y0062784D01*
X0311524Y0063937D01*
X0296507Y0063937D01*
X0295739Y0063168D01*
X0283718Y0063168D01*
X0283718Y0113181D01*
X0284331Y0113181D01*
X0284331Y0104370D01*
X0284814Y0103205D01*
X0285705Y0102314D01*
X0286870Y0101831D01*
X0295739Y0101831D01*
X0296507Y0101063D01*
X0311524Y0101063D01*
X0312677Y0102216D01*
X0312677Y0107784D01*
X0311524Y0108937D01*
X0296507Y0108937D01*
X0295739Y0108168D01*
X0290668Y0108168D01*
X0290668Y0126880D01*
X0290186Y0128045D01*
X0289295Y0128936D01*
X0288130Y0129418D01*
X0286418Y0129418D01*
X0286418Y0133165D01*
X0285265Y0134318D01*
X0276918Y0134318D01*
X0276918Y0137579D01*
X0278365Y0137579D01*
X0279518Y0138732D01*
X0279518Y0146268D01*
X0278854Y0146931D01*
X0279678Y0146931D01*
X0279920Y0146831D01*
X0295739Y0146831D01*
X0296507Y0146063D01*
X0311524Y0146063D01*
X0312677Y0147216D01*
X0312677Y0152784D01*
X0311524Y0153937D01*
X0296507Y0153937D01*
X0295739Y0153168D01*
X0286418Y0153168D01*
X0286418Y0156915D01*
X0285834Y0157500D01*
X0286418Y0158085D01*
X0286418Y0161915D01*
X0285834Y0162500D01*
X0286418Y0163085D01*
X0286418Y0166915D01*
X0285265Y0168068D01*
X0276918Y0168068D01*
X0276918Y0216831D01*
X0337583Y0216831D01*
X0337763Y0216652D01*
X0339214Y0216050D01*
X0340786Y0216050D01*
X0342237Y0216652D01*
X0343348Y0217763D01*
X0343950Y0219214D01*
X0343950Y0220786D01*
X0343348Y0222237D01*
X0343168Y0222417D01*
X0343168Y0227543D01*
X0344422Y0228797D01*
X0345217Y0230714D01*
X0345217Y0239286D01*
X0344422Y0241203D01*
X0342955Y0242670D01*
X0341038Y0243465D01*
X0338962Y0243465D01*
X0337045Y0242670D01*
X0335578Y0241203D01*
X0334783Y0239286D01*
X0334783Y0230714D01*
X0335578Y0228797D01*
X0336831Y0227543D01*
X0336831Y0223168D01*
X0265668Y0223168D01*
X0265668Y0240630D01*
X0265186Y0241795D01*
X0264295Y0242686D01*
X0263130Y0243168D01*
X0231948Y0243168D01*
X0231061Y0244055D01*
X0224313Y0244055D01*
X0223947Y0243689D01*
X0223581Y0244055D01*
X0216832Y0244055D01*
X0215679Y0242902D01*
X0215679Y0242439D01*
X0214634Y0243484D01*
X0207098Y0243484D01*
X0205945Y0242331D01*
X0205945Y0240068D01*
X0166767Y0240068D01*
X0165987Y0240848D01*
X0164536Y0241450D01*
X0162964Y0241450D01*
X0161528Y0240855D01*
X0161455Y0240927D01*
X0160511Y0241318D01*
X0113239Y0241318D01*
X0112295Y0240927D01*
X0111573Y0240205D01*
X0111181Y0239261D01*
X0111181Y0230047D01*
X0110845Y0230384D01*
X0106655Y0230384D01*
X0106250Y0229979D01*
X0105845Y0230384D01*
X0101655Y0230384D01*
X0100502Y0229231D01*
X0100502Y0220907D01*
X0101181Y0220228D01*
X0101181Y0217568D01*
X0080517Y0217568D01*
X0079737Y0218348D01*
X0078286Y0218950D01*
X0076714Y0218950D01*
X0075263Y0218348D01*
X0074483Y0217568D01*
X0072248Y0217568D01*
X0072154Y0217797D01*
X0070765Y0219185D01*
X0068951Y0219937D01*
X0061049Y0219937D01*
X0059235Y0219185D01*
X0057846Y0217797D01*
X0057094Y0215982D01*
X0057094Y0214018D01*
X0057846Y0212203D01*
X0059235Y0210815D01*
X0061049Y0210063D01*
X0068951Y0210063D01*
X0070765Y0210815D01*
X0072154Y0212203D01*
X0072248Y0212431D01*
X0074483Y0212431D01*
X0075263Y0211652D01*
X0076528Y0211128D01*
X0076045Y0210927D01*
X0075323Y0210205D01*
X0074931Y0209261D01*
X0074931Y0208017D01*
X0074483Y0207568D01*
X0072248Y0207568D01*
X0072154Y0207797D01*
X0070765Y0209185D01*
X0068951Y0209937D01*
X0061049Y0209937D01*
X0059235Y0209185D01*
X0057846Y0207797D01*
X0057752Y0207568D01*
X0055739Y0207568D01*
X0054795Y0207177D01*
X0054073Y0206455D01*
X0053681Y0205511D01*
X0053681Y0189489D01*
X0054073Y0188545D01*
X0054795Y0187823D01*
X0055739Y0187431D01*
X0057695Y0187431D01*
X0057094Y0185982D01*
X0057094Y0184018D01*
X0057846Y0182203D01*
X0059235Y0180815D01*
X0061049Y0180063D01*
X0068951Y0180063D01*
X0070765Y0180815D01*
X0071782Y0181831D01*
X0075083Y0181831D01*
X0075263Y0181652D01*
X0076714Y0181050D01*
X0078286Y0181050D01*
X0079737Y0181652D01*
X0079917Y0181831D01*
X0095581Y0181831D01*
X0095581Y0179370D01*
X0096064Y0178205D01*
X0096955Y0177314D01*
X0098120Y0176831D01*
X0105234Y0176831D01*
X0104800Y0175786D01*
X0104800Y0174214D01*
X0105402Y0172763D01*
X0106513Y0171652D01*
X0107964Y0171050D01*
X0109536Y0171050D01*
X0110987Y0171652D01*
X0112098Y0172763D01*
X0112700Y0174214D01*
X0112700Y0175786D01*
X0112512Y0176238D01*
X0112964Y0176050D01*
X0114536Y0176050D01*
X0115987Y0176652D01*
X0117098Y0177763D01*
X0117700Y0179214D01*
X0117700Y0180786D01*
X0117148Y0182116D01*
X0120845Y0182116D01*
X0121998Y0183269D01*
X0121998Y0191593D01*
X0121759Y0191831D01*
X0125581Y0191831D01*
X0125581Y0191672D01*
X0125502Y0191593D01*
X0125502Y0183671D01*
X0125366Y0183671D01*
X0124213Y0182518D01*
X0124213Y0174982D01*
X0125366Y0173829D01*
X0125572Y0173829D01*
X0125572Y0171870D01*
X0126054Y0170705D01*
X0126945Y0169814D01*
X0128110Y0169331D01*
X0133081Y0169331D01*
X0133081Y0168168D01*
X0128120Y0168168D01*
X0126955Y0167686D01*
X0126064Y0166795D01*
X0125581Y0165630D01*
X0125581Y0163168D01*
X0121870Y0163168D01*
X0120705Y0162686D01*
X0119814Y0161795D01*
X0119331Y0160630D01*
X0119331Y0143667D01*
X0119152Y0143487D01*
X0118550Y0142036D01*
X0118550Y0140464D01*
X0118714Y0140068D01*
X0068239Y0140068D01*
X0067295Y0139677D01*
X0066573Y0138955D01*
X0066181Y0138011D01*
X0066181Y0092018D01*
X0064982Y0092018D01*
X0064921Y0091957D01*
X0064921Y0092134D01*
X0063768Y0093287D01*
X0056232Y0093287D01*
X0055079Y0092134D01*
X0055079Y0085385D01*
X0055543Y0084921D01*
X0049135Y0084921D01*
X0047982Y0083768D01*
X0047982Y0076232D01*
X0048881Y0075333D01*
X0048550Y0074536D01*
X0048550Y0072964D01*
X0049152Y0071513D01*
X0050263Y0070402D01*
X0051714Y0069800D01*
X0053286Y0069800D01*
X0054737Y0070402D01*
X0055848Y0071513D01*
X0056450Y0072964D01*
X0056450Y0074536D01*
X0056125Y0075319D01*
X0056250Y0075444D01*
X0056616Y0075079D01*
X0063365Y0075079D01*
X0064375Y0076089D01*
X0064982Y0075482D01*
X0066181Y0075482D01*
X0066181Y0047844D01*
X0065961Y0047844D01*
X0065961Y0049059D01*
X0064808Y0050213D01*
X0057240Y0050213D01*
X0056087Y0049059D01*
X0056087Y0041492D01*
X0057240Y0040339D01*
X0064808Y0040339D01*
X0065961Y0041492D01*
X0065961Y0042707D01*
X0069261Y0042707D01*
X0070205Y0043098D01*
X0070927Y0043821D01*
X0071318Y0044765D01*
X0071318Y0075482D01*
X0072518Y0075482D01*
X0073671Y0076635D01*
X0073671Y0083384D01*
X0073306Y0083750D01*
X0073671Y0084116D01*
X0073671Y0090865D01*
X0072518Y0092018D01*
X0071318Y0092018D01*
X0071318Y0134931D01*
X0096181Y0134931D01*
X0096181Y0091722D01*
X0094982Y0091722D01*
X0094921Y0091662D01*
X0094921Y0091839D01*
X0093768Y0092992D01*
X0086232Y0092992D01*
X0085079Y0091839D01*
X0085079Y0085090D01*
X0085543Y0084626D01*
X0079135Y0084626D01*
X0077982Y0083473D01*
X0077982Y0075937D01*
X0078794Y0075125D01*
X0078550Y0074536D01*
X0078550Y0072964D01*
X0079152Y0071513D01*
X0080263Y0070402D01*
X0081714Y0069800D01*
X0083286Y0069800D01*
X0084737Y0070402D01*
X0085848Y0071513D01*
X0086450Y0072964D01*
X0086450Y0074536D01*
X0086211Y0075111D01*
X0086250Y0075149D01*
X0086616Y0074783D01*
X0093365Y0074783D01*
X0094375Y0075794D01*
X0094982Y0075187D01*
X0096181Y0075187D01*
X0096181Y0044765D01*
X0096573Y0043821D01*
X0097295Y0043098D01*
X0098239Y0042707D01*
X0113173Y0042707D01*
X0113173Y0041492D01*
X0114326Y0040339D01*
X0121894Y0040339D01*
X0123047Y0041492D01*
X0123047Y0049059D01*
X0121894Y0050213D01*
X0114326Y0050213D01*
X0113173Y0049059D01*
X0113173Y0047844D01*
X0101318Y0047844D01*
X0101318Y0075187D01*
X0101831Y0075187D01*
X0101831Y0073120D01*
X0102314Y0071955D01*
X0103205Y0071064D01*
X0104370Y0070581D01*
X0111333Y0070581D01*
X0111513Y0070402D01*
X0112964Y0069800D01*
X0114536Y0069800D01*
X0115987Y0070402D01*
X0117098Y0071513D01*
X0117700Y0072964D01*
X0117700Y0074536D01*
X0117461Y0075111D01*
X0117500Y0075149D01*
X0117866Y0074783D01*
X0124615Y0074783D01*
X0125625Y0075794D01*
X0126232Y0075187D01*
X0127431Y0075187D01*
X0127431Y0028159D01*
X0123047Y0028159D01*
X0123047Y0029374D01*
X0121894Y0030528D01*
X0114326Y0030528D01*
X0113173Y0029374D01*
X0113173Y0021807D01*
X0114326Y0020654D01*
X0121894Y0020654D01*
X0123047Y0021807D01*
X0123047Y0023022D01*
X0130511Y0023022D01*
X0131455Y0023413D01*
X0132177Y0024136D01*
X0132568Y0025080D01*
X0132568Y0075187D01*
X0133768Y0075187D01*
X0134921Y0076340D01*
X0134921Y0083089D01*
X0134556Y0083455D01*
X0134921Y0083820D01*
X0134921Y0084931D01*
X0144261Y0084931D01*
X0145205Y0085323D01*
X0145927Y0086045D01*
X0146318Y0086989D01*
X0146318Y0133959D01*
X0146989Y0133681D01*
X0150622Y0133681D01*
X0150187Y0133246D01*
X0150187Y0129254D01*
X0151340Y0128100D01*
X0153918Y0128100D01*
X0153918Y0087954D01*
X0154309Y0087010D01*
X0155031Y0086287D01*
X0155975Y0085896D01*
X0193829Y0085896D01*
X0193829Y0085090D01*
X0194293Y0084626D01*
X0187885Y0084626D01*
X0186732Y0083473D01*
X0186732Y0075937D01*
X0187544Y0075125D01*
X0187300Y0074536D01*
X0187300Y0072964D01*
X0187902Y0071513D01*
X0189013Y0070402D01*
X0190464Y0069800D01*
X0192036Y0069800D01*
X0193487Y0070402D01*
X0194598Y0071513D01*
X0195200Y0072964D01*
X0195200Y0074536D01*
X0194961Y0075111D01*
X0195000Y0075149D01*
X0195366Y0074783D01*
X0202115Y0074783D01*
X0203125Y0075794D01*
X0203732Y0075187D01*
X0204931Y0075187D01*
X0204931Y0047844D01*
X0203756Y0047844D01*
X0203756Y0049059D01*
X0202603Y0050213D01*
X0195035Y0050213D01*
X0193882Y0049059D01*
X0193882Y0041492D01*
X0195035Y0040339D01*
X0202603Y0040339D01*
X0203756Y0041492D01*
X0203756Y0042707D01*
X0208011Y0042707D01*
X0208955Y0043098D01*
X0209677Y0043821D01*
X0210068Y0044765D01*
X0210068Y0075187D01*
X0211268Y0075187D01*
X0212421Y0076340D01*
X0212421Y0083089D01*
X0212056Y0083455D01*
X0212421Y0083820D01*
X0212421Y0090569D01*
X0211268Y0091722D01*
X0203732Y0091722D01*
X0203671Y0091662D01*
X0203671Y0091839D01*
X0202518Y0092992D01*
X0194982Y0092992D01*
X0193829Y0091839D01*
X0193829Y0091033D01*
X0159055Y0091033D01*
X0159055Y0128100D01*
X0161632Y0128100D01*
X0162785Y0129254D01*
X0162785Y0133246D01*
X0162282Y0133750D01*
X0162785Y0134254D01*
X0162785Y0138246D01*
X0162350Y0138681D01*
X0164931Y0138681D01*
X0164931Y0103239D01*
X0165323Y0102295D01*
X0166045Y0101573D01*
X0166989Y0101181D01*
X0221181Y0101181D01*
X0221181Y0088249D01*
X0221573Y0087305D01*
X0222295Y0086582D01*
X0223239Y0086191D01*
X0224124Y0086191D01*
X0224124Y0085385D01*
X0224588Y0084921D01*
X0218181Y0084921D01*
X0217028Y0083768D01*
X0217028Y0076232D01*
X0217717Y0075542D01*
X0217300Y0074536D01*
X0217300Y0072964D01*
X0217902Y0071513D01*
X0219013Y0070402D01*
X0220464Y0069800D01*
X0222036Y0069800D01*
X0223487Y0070402D01*
X0224598Y0071513D01*
X0225200Y0072964D01*
X0225200Y0074536D01*
X0224961Y0075111D01*
X0225295Y0075444D01*
X0225661Y0075079D01*
X0232410Y0075079D01*
X0233420Y0076089D01*
X0234027Y0075482D01*
X0235227Y0075482D01*
X0235227Y0044765D01*
X0235618Y0043821D01*
X0236340Y0043098D01*
X0237284Y0042707D01*
X0250969Y0042707D01*
X0250969Y0041492D01*
X0252122Y0040339D01*
X0259689Y0040339D01*
X0260843Y0041492D01*
X0260843Y0049059D01*
X0259689Y0050213D01*
X0252122Y0050213D01*
X0250969Y0049059D01*
X0250969Y0047844D01*
X0240364Y0047844D01*
X0240364Y0075482D01*
X0241563Y0075482D01*
X0242717Y0076635D01*
X0242717Y0083384D01*
X0242351Y0083750D01*
X0242717Y0084116D01*
X0242717Y0090865D01*
X0241563Y0092018D01*
X0234027Y0092018D01*
X0233967Y0091957D01*
X0233967Y0092134D01*
X0232813Y0093287D01*
X0226318Y0093287D01*
X0226318Y0103681D01*
X0249931Y0103681D01*
X0249931Y0088249D01*
X0250323Y0087305D01*
X0251045Y0086582D01*
X0251989Y0086191D01*
X0253829Y0086191D01*
X0253829Y0085385D01*
X0253998Y0085217D01*
X0247885Y0085217D01*
X0246732Y0084063D01*
X0246732Y0076527D01*
X0247717Y0075542D01*
X0247300Y0074536D01*
X0247300Y0072964D01*
X0247902Y0071513D01*
X0249013Y0070402D01*
X0250464Y0069800D01*
X0252036Y0069800D01*
X0253487Y0070402D01*
X0254598Y0071513D01*
X0255200Y0072964D01*
X0255200Y0074536D01*
X0254788Y0075528D01*
X0255000Y0075740D01*
X0255366Y0075374D01*
X0262115Y0075374D01*
X0263125Y0076384D01*
X0264027Y0075482D01*
X0265227Y0075482D01*
X0265227Y0028159D01*
X0260843Y0028159D01*
X0260843Y0029374D01*
X0259689Y0030528D01*
X0252122Y0030528D01*
X0250969Y0029374D01*
X0250969Y0021807D01*
X0252122Y0020654D01*
X0259689Y0020654D01*
X0260843Y0022006D02*
X0413386Y0022006D01*
X0413386Y0022791D02*
X0260843Y0022791D01*
X0260843Y0028293D02*
X0265227Y0028293D01*
X0265227Y0029079D02*
X0260843Y0029079D01*
X0260352Y0029865D02*
X0265227Y0029865D01*
X0265227Y0030651D02*
X0132568Y0030651D01*
X0132568Y0031437D02*
X0265227Y0031437D01*
X0265227Y0032222D02*
X0132568Y0032222D01*
X0132568Y0033008D02*
X0265227Y0033008D01*
X0265227Y0033794D02*
X0132568Y0033794D01*
X0132568Y0034580D02*
X0265227Y0034580D01*
X0265227Y0035366D02*
X0132568Y0035366D01*
X0132568Y0036152D02*
X0265227Y0036152D01*
X0265227Y0036938D02*
X0132568Y0036938D01*
X0132568Y0037724D02*
X0265227Y0037724D01*
X0265227Y0038510D02*
X0132568Y0038510D01*
X0132568Y0039296D02*
X0265227Y0039296D01*
X0265227Y0040082D02*
X0132568Y0040082D01*
X0132568Y0040867D02*
X0194506Y0040867D01*
X0193882Y0041653D02*
X0132568Y0041653D01*
X0132568Y0042439D02*
X0193882Y0042439D01*
X0193882Y0043225D02*
X0132568Y0043225D01*
X0132568Y0044011D02*
X0193882Y0044011D01*
X0193882Y0044797D02*
X0132568Y0044797D01*
X0132568Y0045583D02*
X0193882Y0045583D01*
X0193882Y0046369D02*
X0132568Y0046369D01*
X0132568Y0047155D02*
X0193882Y0047155D01*
X0193882Y0047941D02*
X0132568Y0047941D01*
X0132568Y0048727D02*
X0193882Y0048727D01*
X0194335Y0049513D02*
X0132568Y0049513D01*
X0132568Y0050298D02*
X0204931Y0050298D01*
X0204931Y0049513D02*
X0203303Y0049513D01*
X0203756Y0048727D02*
X0204931Y0048727D01*
X0204931Y0047941D02*
X0203756Y0047941D01*
X0204931Y0051084D02*
X0132568Y0051084D01*
X0132568Y0051870D02*
X0204931Y0051870D01*
X0204931Y0052656D02*
X0132568Y0052656D01*
X0132568Y0053442D02*
X0204931Y0053442D01*
X0204931Y0054228D02*
X0132568Y0054228D01*
X0132568Y0055014D02*
X0204931Y0055014D01*
X0204931Y0055800D02*
X0132568Y0055800D01*
X0132568Y0056586D02*
X0204931Y0056586D01*
X0204931Y0057372D02*
X0132568Y0057372D01*
X0132568Y0058158D02*
X0204931Y0058158D01*
X0204931Y0058943D02*
X0132568Y0058943D01*
X0132568Y0059729D02*
X0204931Y0059729D01*
X0204931Y0060515D02*
X0132568Y0060515D01*
X0132568Y0061301D02*
X0204931Y0061301D01*
X0204931Y0062087D02*
X0132568Y0062087D01*
X0132568Y0062873D02*
X0204931Y0062873D01*
X0204931Y0063659D02*
X0132568Y0063659D01*
X0132568Y0064445D02*
X0204931Y0064445D01*
X0204931Y0065231D02*
X0132568Y0065231D01*
X0132568Y0066017D02*
X0204931Y0066017D01*
X0204931Y0066803D02*
X0132568Y0066803D01*
X0132568Y0067589D02*
X0204931Y0067589D01*
X0204931Y0068374D02*
X0132568Y0068374D01*
X0132568Y0069160D02*
X0204931Y0069160D01*
X0204931Y0069946D02*
X0192388Y0069946D01*
X0193818Y0070732D02*
X0204931Y0070732D01*
X0204931Y0071518D02*
X0194601Y0071518D01*
X0194926Y0072304D02*
X0204931Y0072304D01*
X0204931Y0073090D02*
X0195200Y0073090D01*
X0195200Y0073876D02*
X0204931Y0073876D01*
X0204931Y0074662D02*
X0195147Y0074662D01*
X0190112Y0069946D02*
X0132568Y0069946D01*
X0132568Y0070732D02*
X0188682Y0070732D01*
X0187899Y0071518D02*
X0132568Y0071518D01*
X0132568Y0072304D02*
X0187574Y0072304D01*
X0187300Y0073090D02*
X0132568Y0073090D01*
X0132568Y0073876D02*
X0187300Y0073876D01*
X0187353Y0074662D02*
X0132568Y0074662D01*
X0134029Y0075448D02*
X0187221Y0075448D01*
X0186732Y0076234D02*
X0134815Y0076234D01*
X0134921Y0077019D02*
X0186732Y0077019D01*
X0186732Y0077805D02*
X0134921Y0077805D01*
X0134921Y0078591D02*
X0186732Y0078591D01*
X0186732Y0079377D02*
X0134921Y0079377D01*
X0134921Y0080163D02*
X0186732Y0080163D01*
X0186732Y0080949D02*
X0134921Y0080949D01*
X0134921Y0081735D02*
X0186732Y0081735D01*
X0186732Y0082521D02*
X0134921Y0082521D01*
X0134703Y0083307D02*
X0186732Y0083307D01*
X0187352Y0084093D02*
X0134921Y0084093D01*
X0134921Y0084879D02*
X0194040Y0084879D01*
X0193829Y0085665D02*
X0145547Y0085665D01*
X0146095Y0086450D02*
X0154868Y0086450D01*
X0154215Y0087236D02*
X0146318Y0087236D01*
X0146318Y0088022D02*
X0153918Y0088022D01*
X0153918Y0088808D02*
X0146318Y0088808D01*
X0146318Y0089594D02*
X0153918Y0089594D01*
X0153918Y0090380D02*
X0146318Y0090380D01*
X0146318Y0091166D02*
X0153918Y0091166D01*
X0153918Y0091952D02*
X0146318Y0091952D01*
X0146318Y0092738D02*
X0153918Y0092738D01*
X0153918Y0093524D02*
X0146318Y0093524D01*
X0146318Y0094310D02*
X0153918Y0094310D01*
X0153918Y0095095D02*
X0146318Y0095095D01*
X0146318Y0095881D02*
X0153918Y0095881D01*
X0153918Y0096667D02*
X0146318Y0096667D01*
X0146318Y0097453D02*
X0153918Y0097453D01*
X0153918Y0098239D02*
X0146318Y0098239D01*
X0146318Y0099025D02*
X0153918Y0099025D01*
X0153918Y0099811D02*
X0146318Y0099811D01*
X0146318Y0100597D02*
X0153918Y0100597D01*
X0153918Y0101383D02*
X0146318Y0101383D01*
X0146318Y0102169D02*
X0153918Y0102169D01*
X0153918Y0102955D02*
X0146318Y0102955D01*
X0146318Y0103741D02*
X0153918Y0103741D01*
X0153918Y0104526D02*
X0146318Y0104526D01*
X0146318Y0105312D02*
X0153918Y0105312D01*
X0153918Y0106098D02*
X0146318Y0106098D01*
X0146318Y0106884D02*
X0153918Y0106884D01*
X0153918Y0107670D02*
X0146318Y0107670D01*
X0146318Y0108456D02*
X0153918Y0108456D01*
X0153918Y0109242D02*
X0146318Y0109242D01*
X0146318Y0110028D02*
X0153918Y0110028D01*
X0153918Y0110814D02*
X0146318Y0110814D01*
X0146318Y0111600D02*
X0153918Y0111600D01*
X0153918Y0112386D02*
X0146318Y0112386D01*
X0146318Y0113171D02*
X0153918Y0113171D01*
X0153918Y0113957D02*
X0146318Y0113957D01*
X0146318Y0114743D02*
X0153918Y0114743D01*
X0153918Y0115529D02*
X0146318Y0115529D01*
X0146318Y0116315D02*
X0153918Y0116315D01*
X0153918Y0117101D02*
X0146318Y0117101D01*
X0146318Y0117887D02*
X0153918Y0117887D01*
X0153918Y0118673D02*
X0146318Y0118673D01*
X0146318Y0119459D02*
X0153918Y0119459D01*
X0153918Y0120245D02*
X0146318Y0120245D01*
X0146318Y0121031D02*
X0153918Y0121031D01*
X0153918Y0121816D02*
X0146318Y0121816D01*
X0146318Y0122602D02*
X0153918Y0122602D01*
X0153918Y0123388D02*
X0146318Y0123388D01*
X0146318Y0124174D02*
X0153918Y0124174D01*
X0153918Y0124960D02*
X0146318Y0124960D01*
X0146318Y0125746D02*
X0153918Y0125746D01*
X0153918Y0126532D02*
X0146318Y0126532D01*
X0146318Y0127318D02*
X0153918Y0127318D01*
X0151337Y0128104D02*
X0146318Y0128104D01*
X0146318Y0128890D02*
X0150551Y0128890D01*
X0150187Y0129676D02*
X0146318Y0129676D01*
X0146318Y0130462D02*
X0150187Y0130462D01*
X0150187Y0131247D02*
X0146318Y0131247D01*
X0146318Y0132033D02*
X0150187Y0132033D01*
X0150187Y0132819D02*
X0146318Y0132819D01*
X0146318Y0133605D02*
X0150546Y0133605D01*
X0159055Y0127318D02*
X0164931Y0127318D01*
X0164931Y0128104D02*
X0161636Y0128104D01*
X0162422Y0128890D02*
X0164931Y0128890D01*
X0164931Y0129676D02*
X0162785Y0129676D01*
X0162785Y0130462D02*
X0164931Y0130462D01*
X0164931Y0131247D02*
X0162785Y0131247D01*
X0162785Y0132033D02*
X0164931Y0132033D01*
X0164931Y0132819D02*
X0162785Y0132819D01*
X0162427Y0133605D02*
X0164931Y0133605D01*
X0164931Y0134391D02*
X0162785Y0134391D01*
X0162785Y0135177D02*
X0164931Y0135177D01*
X0164931Y0135963D02*
X0162785Y0135963D01*
X0162785Y0136749D02*
X0164931Y0136749D01*
X0164931Y0137535D02*
X0162785Y0137535D01*
X0162711Y0138321D02*
X0164931Y0138321D01*
X0172568Y0138321D02*
X0218681Y0138321D01*
X0218681Y0139107D02*
X0172568Y0139107D01*
X0172568Y0139892D02*
X0218681Y0139892D01*
X0218681Y0140678D02*
X0172568Y0140678D01*
X0172568Y0141464D02*
X0218681Y0141464D01*
X0218681Y0142250D02*
X0172568Y0142250D01*
X0172568Y0143036D02*
X0218681Y0143036D01*
X0218681Y0143822D02*
X0172568Y0143822D01*
X0172425Y0144608D02*
X0218681Y0144608D01*
X0218681Y0145394D02*
X0171989Y0145394D01*
X0170846Y0146180D02*
X0218681Y0146180D01*
X0218681Y0146966D02*
X0165068Y0146966D01*
X0165068Y0147752D02*
X0218681Y0147752D01*
X0218681Y0148538D02*
X0165068Y0148538D01*
X0165068Y0149323D02*
X0218681Y0149323D01*
X0218681Y0150109D02*
X0165068Y0150109D01*
X0165068Y0150895D02*
X0218681Y0150895D01*
X0218681Y0151681D02*
X0165068Y0151681D01*
X0164776Y0152467D02*
X0218681Y0152467D01*
X0218681Y0153253D02*
X0164129Y0153253D01*
X0168874Y0154039D02*
X0218681Y0154039D01*
X0218681Y0154825D02*
X0169690Y0154825D01*
X0170015Y0155611D02*
X0218681Y0155611D01*
X0218681Y0156397D02*
X0170068Y0156397D01*
X0170068Y0157183D02*
X0218681Y0157183D01*
X0218681Y0157968D02*
X0170068Y0157968D01*
X0170068Y0158754D02*
X0218681Y0158754D01*
X0218681Y0159540D02*
X0170068Y0159540D01*
X0170068Y0160326D02*
X0218681Y0160326D01*
X0218681Y0161112D02*
X0170068Y0161112D01*
X0170068Y0161898D02*
X0218681Y0161898D01*
X0218681Y0162684D02*
X0170068Y0162684D01*
X0170068Y0163470D02*
X0218681Y0163470D01*
X0218681Y0164256D02*
X0170068Y0164256D01*
X0170068Y0165042D02*
X0218681Y0165042D01*
X0218681Y0165828D02*
X0170068Y0165828D01*
X0170068Y0166614D02*
X0218681Y0166614D01*
X0218681Y0167399D02*
X0170068Y0167399D01*
X0169996Y0168185D02*
X0218681Y0168185D01*
X0218681Y0168971D02*
X0169661Y0168971D01*
X0168762Y0169757D02*
X0218681Y0169757D01*
X0218681Y0170543D02*
X0161318Y0170543D01*
X0161318Y0171329D02*
X0218681Y0171329D01*
X0218681Y0172115D02*
X0161318Y0172115D01*
X0161318Y0172901D02*
X0218681Y0172901D01*
X0218681Y0173687D02*
X0168615Y0173687D01*
X0170058Y0174473D02*
X0218681Y0174473D01*
X0221181Y0180068D02*
X0210214Y0180068D01*
X0212015Y0180815D01*
X0213404Y0182203D01*
X0214155Y0184018D01*
X0214155Y0185982D01*
X0213404Y0187797D01*
X0212015Y0189185D01*
X0210201Y0189937D01*
X0202299Y0189937D01*
X0200485Y0189185D01*
X0199468Y0188168D01*
X0196167Y0188168D01*
X0195987Y0188348D01*
X0194536Y0188950D01*
X0192964Y0188950D01*
X0191513Y0188348D01*
X0190402Y0187237D01*
X0189800Y0185786D01*
X0189800Y0184214D01*
X0190402Y0182763D01*
X0191513Y0181652D01*
X0192964Y0181050D01*
X0194536Y0181050D01*
X0195987Y0181652D01*
X0196167Y0181831D01*
X0199468Y0181831D01*
X0200485Y0180815D01*
X0202286Y0180068D01*
X0174791Y0180068D01*
X0175068Y0180739D01*
X0175068Y0192431D01*
X0190733Y0192431D01*
X0191513Y0191652D01*
X0192964Y0191050D01*
X0194536Y0191050D01*
X0195987Y0191652D01*
X0196767Y0192431D01*
X0199002Y0192431D01*
X0199096Y0192203D01*
X0200485Y0190815D01*
X0202299Y0190063D01*
X0210201Y0190063D01*
X0212015Y0190815D01*
X0213404Y0192203D01*
X0214155Y0194018D01*
X0214155Y0195982D01*
X0213404Y0197797D01*
X0212015Y0199185D01*
X0210201Y0199937D01*
X0202299Y0199937D01*
X0200485Y0199185D01*
X0199096Y0197797D01*
X0199002Y0197568D01*
X0196767Y0197568D01*
X0195987Y0198348D01*
X0194536Y0198950D01*
X0192964Y0198950D01*
X0191513Y0198348D01*
X0190733Y0197568D01*
X0171989Y0197568D01*
X0171318Y0197291D01*
X0171318Y0202431D01*
X0190733Y0202431D01*
X0191513Y0201652D01*
X0192964Y0201050D01*
X0194536Y0201050D01*
X0195987Y0201652D01*
X0196767Y0202431D01*
X0199002Y0202431D01*
X0199096Y0202203D01*
X0200485Y0200815D01*
X0202299Y0200063D01*
X0210201Y0200063D01*
X0212015Y0200815D01*
X0213404Y0202203D01*
X0214155Y0204018D01*
X0214155Y0205982D01*
X0213404Y0207797D01*
X0212015Y0209185D01*
X0210201Y0209937D01*
X0202299Y0209937D01*
X0200485Y0209185D01*
X0199096Y0207797D01*
X0199002Y0207568D01*
X0196767Y0207568D01*
X0195987Y0208348D01*
X0194536Y0208950D01*
X0192964Y0208950D01*
X0191513Y0208348D01*
X0190733Y0207568D01*
X0168239Y0207568D01*
X0167295Y0207177D01*
X0166573Y0206455D01*
X0166181Y0205511D01*
X0166181Y0192409D01*
X0165845Y0192746D01*
X0161655Y0192746D01*
X0161250Y0192341D01*
X0160845Y0192746D01*
X0156655Y0192746D01*
X0156250Y0192341D01*
X0155845Y0192746D01*
X0151655Y0192746D01*
X0151250Y0192341D01*
X0150845Y0192746D01*
X0146655Y0192746D01*
X0146250Y0192341D01*
X0145845Y0192746D01*
X0141655Y0192746D01*
X0141250Y0192341D01*
X0140845Y0192746D01*
X0136655Y0192746D01*
X0136250Y0192341D01*
X0135845Y0192746D01*
X0131918Y0192746D01*
X0131918Y0195630D01*
X0131436Y0196795D01*
X0130545Y0197686D01*
X0129380Y0198168D01*
X0099921Y0198168D01*
X0099921Y0204634D01*
X0099556Y0205000D01*
X0099921Y0205366D01*
X0099921Y0212115D01*
X0099604Y0212431D01*
X0104261Y0212431D01*
X0105205Y0212823D01*
X0105927Y0213545D01*
X0106318Y0214489D01*
X0106318Y0220091D01*
X0106655Y0219754D01*
X0110845Y0219754D01*
X0111250Y0220159D01*
X0111655Y0219754D01*
X0115845Y0219754D01*
X0116250Y0220159D01*
X0116655Y0219754D01*
X0120845Y0219754D01*
X0121250Y0220159D01*
X0121655Y0219754D01*
X0125845Y0219754D01*
X0126250Y0220159D01*
X0126655Y0219754D01*
X0130845Y0219754D01*
X0131998Y0220907D01*
X0131998Y0229231D01*
X0130845Y0230384D01*
X0126655Y0230384D01*
X0126250Y0229979D01*
X0125845Y0230384D01*
X0121655Y0230384D01*
X0121250Y0229979D01*
X0120845Y0230384D01*
X0116655Y0230384D01*
X0116318Y0230047D01*
X0116318Y0236181D01*
X0134213Y0236181D01*
X0134213Y0229982D01*
X0135366Y0228829D01*
X0135502Y0228829D01*
X0135502Y0220907D01*
X0136655Y0219754D01*
X0140845Y0219754D01*
X0141250Y0220159D01*
X0141655Y0219754D01*
X0145845Y0219754D01*
X0146250Y0220159D01*
X0146655Y0219754D01*
X0150845Y0219754D01*
X0151250Y0220159D01*
X0151655Y0219754D01*
X0155845Y0219754D01*
X0156250Y0220159D01*
X0156655Y0219754D01*
X0160845Y0219754D01*
X0161250Y0220159D01*
X0161655Y0219754D01*
X0165845Y0219754D01*
X0166181Y0220091D01*
X0166181Y0214489D01*
X0166573Y0213545D01*
X0167295Y0212823D01*
X0168239Y0212431D01*
X0190733Y0212431D01*
X0191513Y0211652D01*
X0192964Y0211050D01*
X0194536Y0211050D01*
X0195987Y0211652D01*
X0196767Y0212431D01*
X0199002Y0212431D01*
X0199096Y0212203D01*
X0200485Y0210815D01*
X0202299Y0210063D01*
X0210201Y0210063D01*
X0212015Y0210815D01*
X0213404Y0212203D01*
X0214155Y0214018D01*
X0214155Y0215982D01*
X0213404Y0217797D01*
X0212015Y0219185D01*
X0210201Y0219937D01*
X0202299Y0219937D01*
X0200485Y0219185D01*
X0199096Y0217797D01*
X0199002Y0217568D01*
X0196767Y0217568D01*
X0195987Y0218348D01*
X0194536Y0218950D01*
X0192964Y0218950D01*
X0191513Y0218348D01*
X0190733Y0217568D01*
X0171318Y0217568D01*
X0171318Y0220228D01*
X0171998Y0220907D01*
X0171998Y0228681D01*
X0221181Y0228681D01*
X0221181Y0180068D01*
X0221181Y0180760D02*
X0211883Y0180760D01*
X0212746Y0181546D02*
X0221181Y0181546D01*
X0221181Y0182332D02*
X0213457Y0182332D01*
X0213783Y0183118D02*
X0221181Y0183118D01*
X0221181Y0183904D02*
X0214108Y0183904D01*
X0214155Y0184690D02*
X0221181Y0184690D01*
X0221181Y0185475D02*
X0214155Y0185475D01*
X0214040Y0186261D02*
X0221181Y0186261D01*
X0221181Y0187047D02*
X0213714Y0187047D01*
X0213367Y0187833D02*
X0221181Y0187833D01*
X0221181Y0188619D02*
X0212581Y0188619D01*
X0211485Y0189405D02*
X0221181Y0189405D01*
X0221181Y0190191D02*
X0210509Y0190191D01*
X0212177Y0190977D02*
X0221181Y0190977D01*
X0221181Y0191763D02*
X0212963Y0191763D01*
X0213547Y0192549D02*
X0221181Y0192549D01*
X0221181Y0193335D02*
X0213872Y0193335D01*
X0214155Y0194120D02*
X0221181Y0194120D01*
X0221181Y0194906D02*
X0214155Y0194906D01*
X0214155Y0195692D02*
X0221181Y0195692D01*
X0221181Y0196478D02*
X0213950Y0196478D01*
X0213624Y0197264D02*
X0221181Y0197264D01*
X0221181Y0198050D02*
X0213150Y0198050D01*
X0212365Y0198836D02*
X0221181Y0198836D01*
X0221181Y0199622D02*
X0210961Y0199622D01*
X0211033Y0200408D02*
X0221181Y0200408D01*
X0221181Y0201194D02*
X0212394Y0201194D01*
X0213180Y0201980D02*
X0221181Y0201980D01*
X0221181Y0202766D02*
X0213637Y0202766D01*
X0213962Y0203551D02*
X0221181Y0203551D01*
X0221181Y0204337D02*
X0214155Y0204337D01*
X0214155Y0205123D02*
X0221181Y0205123D01*
X0221181Y0205909D02*
X0214155Y0205909D01*
X0213860Y0206695D02*
X0221181Y0206695D01*
X0221181Y0207481D02*
X0213535Y0207481D01*
X0212934Y0208267D02*
X0221181Y0208267D01*
X0221181Y0209053D02*
X0212148Y0209053D01*
X0211556Y0210625D02*
X0221181Y0210625D01*
X0221181Y0211411D02*
X0212611Y0211411D01*
X0213397Y0212196D02*
X0221181Y0212196D01*
X0221181Y0212982D02*
X0213727Y0212982D01*
X0214052Y0213768D02*
X0221181Y0213768D01*
X0221181Y0214554D02*
X0214155Y0214554D01*
X0214155Y0215340D02*
X0221181Y0215340D01*
X0221181Y0216126D02*
X0214096Y0216126D01*
X0213770Y0216912D02*
X0221181Y0216912D01*
X0221181Y0217698D02*
X0213445Y0217698D01*
X0212717Y0218484D02*
X0221181Y0218484D01*
X0221181Y0219270D02*
X0211812Y0219270D01*
X0221181Y0220056D02*
X0171318Y0220056D01*
X0171318Y0219270D02*
X0200688Y0219270D01*
X0199783Y0218484D02*
X0195660Y0218484D01*
X0196638Y0217698D02*
X0199055Y0217698D01*
X0199103Y0212196D02*
X0196532Y0212196D01*
X0195405Y0211411D02*
X0199889Y0211411D01*
X0200943Y0210625D02*
X0099921Y0210625D01*
X0099921Y0211411D02*
X0192095Y0211411D01*
X0190968Y0212196D02*
X0099839Y0212196D01*
X0099921Y0209839D02*
X0202062Y0209839D01*
X0200352Y0209053D02*
X0099921Y0209053D01*
X0099921Y0208267D02*
X0191431Y0208267D01*
X0196069Y0208267D02*
X0199566Y0208267D01*
X0199320Y0201980D02*
X0196315Y0201980D01*
X0194882Y0201194D02*
X0200106Y0201194D01*
X0201467Y0200408D02*
X0171318Y0200408D01*
X0171318Y0201194D02*
X0192618Y0201194D01*
X0191185Y0201980D02*
X0171318Y0201980D01*
X0171318Y0199622D02*
X0201539Y0199622D01*
X0200135Y0198836D02*
X0194810Y0198836D01*
X0196286Y0198050D02*
X0199350Y0198050D01*
X0199537Y0191763D02*
X0196098Y0191763D01*
X0195334Y0188619D02*
X0199919Y0188619D01*
X0201015Y0189405D02*
X0175068Y0189405D01*
X0175068Y0188619D02*
X0192166Y0188619D01*
X0190998Y0187833D02*
X0175068Y0187833D01*
X0175068Y0187047D02*
X0190323Y0187047D01*
X0189997Y0186261D02*
X0175068Y0186261D01*
X0175068Y0185475D02*
X0189800Y0185475D01*
X0189800Y0184690D02*
X0175068Y0184690D01*
X0175068Y0183904D02*
X0189929Y0183904D01*
X0190255Y0183118D02*
X0175068Y0183118D01*
X0175068Y0182332D02*
X0190833Y0182332D01*
X0191768Y0181546D02*
X0175068Y0181546D01*
X0175068Y0180760D02*
X0200617Y0180760D01*
X0199754Y0181546D02*
X0195732Y0181546D01*
X0201991Y0190191D02*
X0175068Y0190191D01*
X0175068Y0190977D02*
X0200323Y0190977D01*
X0191402Y0191763D02*
X0175068Y0191763D01*
X0171318Y0198050D02*
X0191214Y0198050D01*
X0192690Y0198836D02*
X0171318Y0198836D01*
X0166181Y0198836D02*
X0099921Y0198836D01*
X0099921Y0199622D02*
X0166181Y0199622D01*
X0166181Y0200408D02*
X0099921Y0200408D01*
X0099921Y0201194D02*
X0166181Y0201194D01*
X0166181Y0201980D02*
X0099921Y0201980D01*
X0099921Y0202766D02*
X0166181Y0202766D01*
X0166181Y0203551D02*
X0099921Y0203551D01*
X0099921Y0204337D02*
X0166181Y0204337D01*
X0166181Y0205123D02*
X0099679Y0205123D01*
X0099921Y0205909D02*
X0166346Y0205909D01*
X0166813Y0206695D02*
X0099921Y0206695D01*
X0099921Y0207481D02*
X0168028Y0207481D01*
X0167135Y0212982D02*
X0105365Y0212982D01*
X0106020Y0213768D02*
X0166480Y0213768D01*
X0166181Y0214554D02*
X0106318Y0214554D01*
X0106318Y0215340D02*
X0166181Y0215340D01*
X0166181Y0216126D02*
X0106318Y0216126D01*
X0106318Y0216912D02*
X0166181Y0216912D01*
X0166181Y0217698D02*
X0106318Y0217698D01*
X0106318Y0218484D02*
X0166181Y0218484D01*
X0166181Y0219270D02*
X0106318Y0219270D01*
X0106318Y0220056D02*
X0106353Y0220056D01*
X0111147Y0220056D02*
X0111353Y0220056D01*
X0116147Y0220056D02*
X0116353Y0220056D01*
X0121147Y0220056D02*
X0121353Y0220056D01*
X0126147Y0220056D02*
X0126353Y0220056D01*
X0131147Y0220056D02*
X0136353Y0220056D01*
X0135567Y0220842D02*
X0131932Y0220842D01*
X0131998Y0221627D02*
X0135502Y0221627D01*
X0135502Y0222413D02*
X0131998Y0222413D01*
X0131998Y0223199D02*
X0135502Y0223199D01*
X0135502Y0223985D02*
X0131998Y0223985D01*
X0131998Y0224771D02*
X0135502Y0224771D01*
X0135502Y0225557D02*
X0131998Y0225557D01*
X0131998Y0226343D02*
X0135502Y0226343D01*
X0135502Y0227129D02*
X0131998Y0227129D01*
X0131998Y0227915D02*
X0135502Y0227915D01*
X0135502Y0228701D02*
X0131998Y0228701D01*
X0131742Y0229487D02*
X0134708Y0229487D01*
X0134213Y0230272D02*
X0130956Y0230272D01*
X0134213Y0231058D02*
X0116318Y0231058D01*
X0116318Y0230272D02*
X0116544Y0230272D01*
X0116318Y0231844D02*
X0134213Y0231844D01*
X0134213Y0232630D02*
X0116318Y0232630D01*
X0116318Y0233416D02*
X0134213Y0233416D01*
X0134213Y0234202D02*
X0116318Y0234202D01*
X0116318Y0234988D02*
X0134213Y0234988D01*
X0134213Y0235774D02*
X0116318Y0235774D01*
X0111181Y0235774D02*
X0000000Y0235774D01*
X0000000Y0236560D02*
X0111181Y0236560D01*
X0111181Y0237346D02*
X0000000Y0237346D01*
X0000000Y0238132D02*
X0111181Y0238132D01*
X0111181Y0238918D02*
X0000000Y0238918D01*
X0000000Y0239703D02*
X0111365Y0239703D01*
X0111857Y0240489D02*
X0000000Y0240489D01*
X0000000Y0241275D02*
X0113135Y0241275D01*
X0111181Y0234988D02*
X0000000Y0234988D01*
X0000000Y0234202D02*
X0111181Y0234202D01*
X0111181Y0233416D02*
X0000000Y0233416D01*
X0000000Y0232630D02*
X0111181Y0232630D01*
X0111181Y0231844D02*
X0000000Y0231844D01*
X0000000Y0231058D02*
X0111181Y0231058D01*
X0111181Y0230272D02*
X0110956Y0230272D01*
X0106544Y0230272D02*
X0105956Y0230272D01*
X0101544Y0230272D02*
X0000000Y0230272D01*
X0000000Y0229487D02*
X0100758Y0229487D01*
X0100502Y0228701D02*
X0000000Y0228701D01*
X0000000Y0227915D02*
X0100502Y0227915D01*
X0100502Y0227129D02*
X0000000Y0227129D01*
X0000000Y0226343D02*
X0100502Y0226343D01*
X0100502Y0225557D02*
X0000000Y0225557D01*
X0000000Y0224771D02*
X0100502Y0224771D01*
X0100502Y0223985D02*
X0000000Y0223985D01*
X0000000Y0223199D02*
X0100502Y0223199D01*
X0100502Y0222413D02*
X0000000Y0222413D01*
X0000000Y0221627D02*
X0100502Y0221627D01*
X0100567Y0220842D02*
X0000000Y0220842D01*
X0000000Y0220056D02*
X0101181Y0220056D01*
X0101181Y0219270D02*
X0070562Y0219270D01*
X0071467Y0218484D02*
X0075590Y0218484D01*
X0074612Y0217698D02*
X0072195Y0217698D01*
X0072147Y0212196D02*
X0074718Y0212196D01*
X0075845Y0211411D02*
X0071361Y0211411D01*
X0070306Y0210625D02*
X0075742Y0210625D01*
X0075171Y0209839D02*
X0069188Y0209839D01*
X0070898Y0209053D02*
X0074931Y0209053D01*
X0074931Y0208267D02*
X0071684Y0208267D01*
X0060812Y0209839D02*
X0000000Y0209839D01*
X0000000Y0210625D02*
X0059693Y0210625D01*
X0058639Y0211411D02*
X0000000Y0211411D01*
X0000000Y0212196D02*
X0057853Y0212196D01*
X0057523Y0212982D02*
X0000000Y0212982D01*
X0000000Y0213768D02*
X0057198Y0213768D01*
X0057094Y0214554D02*
X0000000Y0214554D01*
X0000000Y0215340D02*
X0057094Y0215340D01*
X0057154Y0216126D02*
X0000000Y0216126D01*
X0000000Y0216912D02*
X0057480Y0216912D01*
X0057805Y0217698D02*
X0000000Y0217698D01*
X0000000Y0218484D02*
X0058533Y0218484D01*
X0059438Y0219270D02*
X0000000Y0219270D01*
X0000000Y0209053D02*
X0059102Y0209053D01*
X0058316Y0208267D02*
X0000000Y0208267D01*
X0000000Y0207481D02*
X0055528Y0207481D01*
X0054313Y0206695D02*
X0000000Y0206695D01*
X0000000Y0205909D02*
X0053846Y0205909D01*
X0053681Y0205123D02*
X0000000Y0205123D01*
X0000000Y0204337D02*
X0053681Y0204337D01*
X0053681Y0203551D02*
X0000000Y0203551D01*
X0000000Y0202766D02*
X0053681Y0202766D01*
X0053681Y0201980D02*
X0000000Y0201980D01*
X0000000Y0201194D02*
X0053681Y0201194D01*
X0053681Y0200408D02*
X0000000Y0200408D01*
X0000000Y0199622D02*
X0053681Y0199622D01*
X0053681Y0198836D02*
X0000000Y0198836D01*
X0000000Y0198050D02*
X0053681Y0198050D01*
X0053681Y0197264D02*
X0000000Y0197264D01*
X0000000Y0196478D02*
X0053681Y0196478D01*
X0053681Y0195692D02*
X0000000Y0195692D01*
X0000000Y0194906D02*
X0053681Y0194906D01*
X0053681Y0194120D02*
X0000000Y0194120D01*
X0000000Y0193335D02*
X0053681Y0193335D01*
X0053681Y0192549D02*
X0000000Y0192549D01*
X0000000Y0191763D02*
X0053681Y0191763D01*
X0053681Y0190977D02*
X0000000Y0190977D01*
X0000000Y0190191D02*
X0053681Y0190191D01*
X0053716Y0189405D02*
X0000000Y0189405D01*
X0000000Y0188619D02*
X0054042Y0188619D01*
X0054784Y0187833D02*
X0000000Y0187833D01*
X0000000Y0187047D02*
X0057536Y0187047D01*
X0057210Y0186261D02*
X0000000Y0186261D01*
X0000000Y0185475D02*
X0057094Y0185475D01*
X0057094Y0184690D02*
X0000000Y0184690D01*
X0000000Y0183904D02*
X0057142Y0183904D01*
X0057467Y0183118D02*
X0000000Y0183118D01*
X0000000Y0182332D02*
X0057793Y0182332D01*
X0058504Y0181546D02*
X0000000Y0181546D01*
X0000000Y0180760D02*
X0059367Y0180760D01*
X0070633Y0180760D02*
X0095581Y0180760D01*
X0095581Y0181546D02*
X0079482Y0181546D01*
X0075518Y0181546D02*
X0071496Y0181546D01*
X0095581Y0179974D02*
X0000000Y0179974D01*
X0000000Y0179188D02*
X0095657Y0179188D01*
X0095982Y0178402D02*
X0000000Y0178402D01*
X0000000Y0177616D02*
X0096653Y0177616D01*
X0104908Y0176044D02*
X0000000Y0176044D01*
X0000000Y0175259D02*
X0104800Y0175259D01*
X0104800Y0174473D02*
X0000000Y0174473D01*
X0000000Y0173687D02*
X0105019Y0173687D01*
X0105344Y0172901D02*
X0000000Y0172901D01*
X0000000Y0172115D02*
X0106049Y0172115D01*
X0107292Y0171329D02*
X0000000Y0171329D01*
X0000000Y0170543D02*
X0126216Y0170543D01*
X0125796Y0171329D02*
X0110208Y0171329D01*
X0111451Y0172115D02*
X0125572Y0172115D01*
X0125572Y0172901D02*
X0112155Y0172901D01*
X0112481Y0173687D02*
X0125572Y0173687D01*
X0124722Y0174473D02*
X0112700Y0174473D01*
X0112700Y0175259D02*
X0124213Y0175259D01*
X0124213Y0176044D02*
X0112592Y0176044D01*
X0116166Y0176830D02*
X0124213Y0176830D01*
X0124213Y0177616D02*
X0116952Y0177616D01*
X0117363Y0178402D02*
X0124213Y0178402D01*
X0124213Y0179188D02*
X0117689Y0179188D01*
X0117700Y0179974D02*
X0124213Y0179974D01*
X0124213Y0180760D02*
X0117700Y0180760D01*
X0117385Y0181546D02*
X0124213Y0181546D01*
X0124213Y0182332D02*
X0121061Y0182332D01*
X0121846Y0183118D02*
X0124812Y0183118D01*
X0125502Y0183904D02*
X0121998Y0183904D01*
X0121998Y0184690D02*
X0125502Y0184690D01*
X0125502Y0185475D02*
X0121998Y0185475D01*
X0121998Y0186261D02*
X0125502Y0186261D01*
X0125502Y0187047D02*
X0121998Y0187047D01*
X0121998Y0187833D02*
X0125502Y0187833D01*
X0125502Y0188619D02*
X0121998Y0188619D01*
X0121998Y0189405D02*
X0125502Y0189405D01*
X0125502Y0190191D02*
X0121998Y0190191D01*
X0121998Y0190977D02*
X0125502Y0190977D01*
X0125581Y0191763D02*
X0121828Y0191763D01*
X0129666Y0198050D02*
X0166181Y0198050D01*
X0166181Y0197264D02*
X0130967Y0197264D01*
X0131567Y0196478D02*
X0166181Y0196478D01*
X0166181Y0195692D02*
X0131893Y0195692D01*
X0131918Y0194906D02*
X0166181Y0194906D01*
X0166181Y0194120D02*
X0131918Y0194120D01*
X0131918Y0193335D02*
X0166181Y0193335D01*
X0166181Y0192549D02*
X0166042Y0192549D01*
X0161458Y0192549D02*
X0161042Y0192549D01*
X0156458Y0192549D02*
X0156042Y0192549D01*
X0151458Y0192549D02*
X0151042Y0192549D01*
X0146458Y0192549D02*
X0146042Y0192549D01*
X0141458Y0192549D02*
X0141042Y0192549D01*
X0136458Y0192549D02*
X0136042Y0192549D01*
X0154261Y0177431D02*
X0155205Y0177823D01*
X0155927Y0178545D01*
X0156181Y0179158D01*
X0156181Y0166989D01*
X0156573Y0166045D01*
X0157295Y0165323D01*
X0158239Y0164931D01*
X0159261Y0164931D01*
X0164931Y0164931D01*
X0164931Y0158818D01*
X0162213Y0158818D01*
X0161632Y0159400D01*
X0152568Y0159400D01*
X0152568Y0177431D01*
X0154261Y0177431D01*
X0154707Y0177616D02*
X0156181Y0177616D01*
X0156181Y0176830D02*
X0152568Y0176830D01*
X0152568Y0176044D02*
X0156181Y0176044D01*
X0156181Y0175259D02*
X0152568Y0175259D01*
X0152568Y0174473D02*
X0156181Y0174473D01*
X0156181Y0173687D02*
X0152568Y0173687D01*
X0152568Y0172901D02*
X0156181Y0172901D01*
X0156181Y0172115D02*
X0152568Y0172115D01*
X0152568Y0171329D02*
X0156181Y0171329D01*
X0156181Y0170543D02*
X0152568Y0170543D01*
X0152568Y0169757D02*
X0156181Y0169757D01*
X0156181Y0168971D02*
X0152568Y0168971D01*
X0152568Y0168185D02*
X0156181Y0168185D01*
X0156181Y0167399D02*
X0152568Y0167399D01*
X0152568Y0166614D02*
X0156337Y0166614D01*
X0156790Y0165828D02*
X0152568Y0165828D01*
X0152568Y0165042D02*
X0157973Y0165042D01*
X0152568Y0164256D02*
X0164931Y0164256D01*
X0164931Y0163470D02*
X0152568Y0163470D01*
X0152568Y0162684D02*
X0164931Y0162684D01*
X0164931Y0161898D02*
X0152568Y0161898D01*
X0152568Y0161112D02*
X0164931Y0161112D01*
X0164931Y0160326D02*
X0152568Y0160326D01*
X0152568Y0159540D02*
X0164931Y0159540D01*
X0166385Y0173687D02*
X0161318Y0173687D01*
X0161318Y0174473D02*
X0164942Y0174473D01*
X0164156Y0175259D02*
X0161318Y0175259D01*
X0161318Y0176044D02*
X0163828Y0176044D01*
X0163550Y0176830D02*
X0161318Y0176830D01*
X0161318Y0177616D02*
X0163550Y0177616D01*
X0163599Y0178402D02*
X0161318Y0178402D01*
X0161318Y0179188D02*
X0162179Y0179188D01*
X0161498Y0179974D02*
X0161318Y0179974D01*
X0156181Y0178402D02*
X0155785Y0178402D01*
X0133081Y0168971D02*
X0000000Y0168971D01*
X0000000Y0168185D02*
X0133081Y0168185D01*
X0127082Y0169757D02*
X0000000Y0169757D01*
X0000000Y0167399D02*
X0126669Y0167399D01*
X0125989Y0166614D02*
X0000000Y0166614D01*
X0000000Y0165828D02*
X0125663Y0165828D01*
X0125581Y0165042D02*
X0000000Y0165042D01*
X0000000Y0164256D02*
X0125581Y0164256D01*
X0125581Y0163470D02*
X0000000Y0163470D01*
X0000000Y0162684D02*
X0120703Y0162684D01*
X0119917Y0161898D02*
X0000000Y0161898D01*
X0000000Y0161112D02*
X0119531Y0161112D01*
X0119331Y0160326D02*
X0000000Y0160326D01*
X0000000Y0159540D02*
X0119331Y0159540D01*
X0119331Y0158754D02*
X0000000Y0158754D01*
X0000000Y0157968D02*
X0119331Y0157968D01*
X0119331Y0157183D02*
X0000000Y0157183D01*
X0000000Y0156397D02*
X0119331Y0156397D01*
X0119331Y0155611D02*
X0000000Y0155611D01*
X0000000Y0154825D02*
X0119331Y0154825D01*
X0119331Y0154039D02*
X0000000Y0154039D01*
X0000000Y0153253D02*
X0119331Y0153253D01*
X0119331Y0152467D02*
X0000000Y0152467D01*
X0000000Y0151681D02*
X0119331Y0151681D01*
X0119331Y0150895D02*
X0000000Y0150895D01*
X0000000Y0150109D02*
X0119331Y0150109D01*
X0119331Y0149323D02*
X0000000Y0149323D01*
X0000000Y0148538D02*
X0119331Y0148538D01*
X0119331Y0147752D02*
X0000000Y0147752D01*
X0000000Y0146966D02*
X0119331Y0146966D01*
X0119331Y0146180D02*
X0000000Y0146180D01*
X0000000Y0145394D02*
X0119331Y0145394D01*
X0119331Y0144608D02*
X0000000Y0144608D01*
X0000000Y0143822D02*
X0119331Y0143822D01*
X0118965Y0143036D02*
X0000000Y0143036D01*
X0000000Y0142250D02*
X0118639Y0142250D01*
X0118550Y0141464D02*
X0000000Y0141464D01*
X0000000Y0140678D02*
X0118550Y0140678D01*
X0120083Y0128081D02*
X0105668Y0128081D01*
X0105668Y0096903D01*
X0106795Y0096436D01*
X0107686Y0095545D01*
X0108168Y0094380D01*
X0108168Y0076918D01*
X0109232Y0076918D01*
X0109232Y0083473D01*
X0110385Y0084626D01*
X0116793Y0084626D01*
X0116329Y0085090D01*
X0116329Y0091839D01*
X0117482Y0092992D01*
X0125018Y0092992D01*
X0126171Y0091839D01*
X0126171Y0091662D01*
X0126232Y0091722D01*
X0133768Y0091722D01*
X0134921Y0090569D01*
X0134921Y0090068D01*
X0141181Y0090068D01*
X0141181Y0128122D01*
X0141160Y0128100D01*
X0140185Y0128100D01*
X0140768Y0127518D01*
X0140768Y0119982D01*
X0139615Y0118829D01*
X0132866Y0118829D01*
X0131713Y0119982D01*
X0131713Y0127518D01*
X0132276Y0128081D01*
X0124917Y0128081D01*
X0124737Y0127902D01*
X0123286Y0127300D01*
X0121714Y0127300D01*
X0120263Y0127902D01*
X0120083Y0128081D01*
X0121672Y0127318D02*
X0105668Y0127318D01*
X0105668Y0126532D02*
X0131713Y0126532D01*
X0131713Y0127318D02*
X0123328Y0127318D01*
X0131713Y0125746D02*
X0105668Y0125746D01*
X0105668Y0124960D02*
X0131713Y0124960D01*
X0131713Y0124174D02*
X0105668Y0124174D01*
X0105668Y0123388D02*
X0131713Y0123388D01*
X0131713Y0122602D02*
X0105668Y0122602D01*
X0105668Y0121816D02*
X0131713Y0121816D01*
X0131713Y0121031D02*
X0105668Y0121031D01*
X0105668Y0120245D02*
X0131713Y0120245D01*
X0132236Y0119459D02*
X0105668Y0119459D01*
X0105668Y0118673D02*
X0141181Y0118673D01*
X0141181Y0119459D02*
X0140245Y0119459D01*
X0140768Y0120245D02*
X0141181Y0120245D01*
X0141181Y0121031D02*
X0140768Y0121031D01*
X0140768Y0121816D02*
X0141181Y0121816D01*
X0141181Y0122602D02*
X0140768Y0122602D01*
X0140768Y0123388D02*
X0141181Y0123388D01*
X0141181Y0124174D02*
X0140768Y0124174D01*
X0140768Y0124960D02*
X0141181Y0124960D01*
X0141181Y0125746D02*
X0140768Y0125746D01*
X0140768Y0126532D02*
X0141181Y0126532D01*
X0141181Y0127318D02*
X0140768Y0127318D01*
X0141163Y0128104D02*
X0141181Y0128104D01*
X0141181Y0117887D02*
X0105668Y0117887D01*
X0105668Y0117101D02*
X0141181Y0117101D01*
X0141181Y0116315D02*
X0105668Y0116315D01*
X0105668Y0115529D02*
X0141181Y0115529D01*
X0141181Y0114743D02*
X0105668Y0114743D01*
X0105668Y0113957D02*
X0141181Y0113957D01*
X0141181Y0113171D02*
X0105668Y0113171D01*
X0105668Y0112386D02*
X0141181Y0112386D01*
X0141181Y0111600D02*
X0105668Y0111600D01*
X0105668Y0110814D02*
X0141181Y0110814D01*
X0141181Y0110028D02*
X0105668Y0110028D01*
X0105668Y0109242D02*
X0141181Y0109242D01*
X0141181Y0108456D02*
X0105668Y0108456D01*
X0105668Y0107670D02*
X0141181Y0107670D01*
X0141181Y0106884D02*
X0105668Y0106884D01*
X0105668Y0106098D02*
X0141181Y0106098D01*
X0141181Y0105312D02*
X0105668Y0105312D01*
X0105668Y0104526D02*
X0141181Y0104526D01*
X0141181Y0103741D02*
X0105668Y0103741D01*
X0105668Y0102955D02*
X0141181Y0102955D01*
X0141181Y0102169D02*
X0105668Y0102169D01*
X0105668Y0101383D02*
X0141181Y0101383D01*
X0141181Y0100597D02*
X0105668Y0100597D01*
X0105668Y0099811D02*
X0141181Y0099811D01*
X0141181Y0099025D02*
X0105668Y0099025D01*
X0105668Y0098239D02*
X0141181Y0098239D01*
X0141181Y0097453D02*
X0105668Y0097453D01*
X0106237Y0096667D02*
X0141181Y0096667D01*
X0141181Y0095881D02*
X0107350Y0095881D01*
X0107872Y0095095D02*
X0141181Y0095095D01*
X0141181Y0094310D02*
X0108168Y0094310D01*
X0108168Y0093524D02*
X0141181Y0093524D01*
X0141181Y0092738D02*
X0125273Y0092738D01*
X0126058Y0091952D02*
X0141181Y0091952D01*
X0141181Y0091166D02*
X0134325Y0091166D01*
X0134921Y0090380D02*
X0141181Y0090380D01*
X0159055Y0091166D02*
X0193829Y0091166D01*
X0193942Y0091952D02*
X0159055Y0091952D01*
X0159055Y0092738D02*
X0194727Y0092738D01*
X0202773Y0092738D02*
X0221181Y0092738D01*
X0221181Y0093524D02*
X0159055Y0093524D01*
X0159055Y0094310D02*
X0221181Y0094310D01*
X0221181Y0095095D02*
X0159055Y0095095D01*
X0159055Y0095881D02*
X0221181Y0095881D01*
X0221181Y0096667D02*
X0159055Y0096667D01*
X0159055Y0097453D02*
X0221181Y0097453D01*
X0221181Y0098239D02*
X0159055Y0098239D01*
X0159055Y0099025D02*
X0221181Y0099025D01*
X0221181Y0099811D02*
X0159055Y0099811D01*
X0159055Y0100597D02*
X0221181Y0100597D01*
X0226318Y0100597D02*
X0249931Y0100597D01*
X0249931Y0101383D02*
X0226318Y0101383D01*
X0226318Y0102169D02*
X0249931Y0102169D01*
X0249931Y0102955D02*
X0226318Y0102955D01*
X0226318Y0099811D02*
X0249931Y0099811D01*
X0249931Y0099025D02*
X0226318Y0099025D01*
X0226318Y0098239D02*
X0249931Y0098239D01*
X0249931Y0097453D02*
X0226318Y0097453D01*
X0226318Y0096667D02*
X0249931Y0096667D01*
X0249931Y0095881D02*
X0226318Y0095881D01*
X0226318Y0095095D02*
X0249931Y0095095D01*
X0249931Y0094310D02*
X0226318Y0094310D01*
X0226318Y0093524D02*
X0249931Y0093524D01*
X0249931Y0092738D02*
X0233363Y0092738D01*
X0241629Y0091952D02*
X0249931Y0091952D01*
X0249931Y0091166D02*
X0242415Y0091166D01*
X0242717Y0090380D02*
X0249931Y0090380D01*
X0249931Y0089594D02*
X0242717Y0089594D01*
X0242717Y0088808D02*
X0249931Y0088808D01*
X0250025Y0088022D02*
X0242717Y0088022D01*
X0242717Y0087236D02*
X0250391Y0087236D01*
X0251364Y0086450D02*
X0242717Y0086450D01*
X0242717Y0085665D02*
X0253829Y0085665D01*
X0247547Y0084879D02*
X0242717Y0084879D01*
X0242693Y0084093D02*
X0246762Y0084093D01*
X0246732Y0083307D02*
X0242717Y0083307D01*
X0242717Y0082521D02*
X0246732Y0082521D01*
X0246732Y0081735D02*
X0242717Y0081735D01*
X0242717Y0080949D02*
X0246732Y0080949D01*
X0246732Y0080163D02*
X0242717Y0080163D01*
X0242717Y0079377D02*
X0246732Y0079377D01*
X0246732Y0078591D02*
X0242717Y0078591D01*
X0242717Y0077805D02*
X0246732Y0077805D01*
X0246732Y0077019D02*
X0242717Y0077019D01*
X0242315Y0076234D02*
X0247026Y0076234D01*
X0247678Y0075448D02*
X0240364Y0075448D01*
X0240364Y0074662D02*
X0247353Y0074662D01*
X0247300Y0073876D02*
X0240364Y0073876D01*
X0240364Y0073090D02*
X0247300Y0073090D01*
X0247574Y0072304D02*
X0240364Y0072304D01*
X0240364Y0071518D02*
X0247899Y0071518D01*
X0248682Y0070732D02*
X0240364Y0070732D01*
X0240364Y0069946D02*
X0250112Y0069946D01*
X0252388Y0069946D02*
X0265227Y0069946D01*
X0265227Y0069160D02*
X0240364Y0069160D01*
X0240364Y0068374D02*
X0265227Y0068374D01*
X0265227Y0067589D02*
X0240364Y0067589D01*
X0240364Y0066803D02*
X0265227Y0066803D01*
X0265227Y0066017D02*
X0240364Y0066017D01*
X0240364Y0065231D02*
X0265227Y0065231D01*
X0265227Y0064445D02*
X0240364Y0064445D01*
X0240364Y0063659D02*
X0265227Y0063659D01*
X0265227Y0062873D02*
X0240364Y0062873D01*
X0240364Y0062087D02*
X0265227Y0062087D01*
X0265227Y0061301D02*
X0240364Y0061301D01*
X0240364Y0060515D02*
X0265227Y0060515D01*
X0265227Y0059729D02*
X0240364Y0059729D01*
X0240364Y0058943D02*
X0265227Y0058943D01*
X0265227Y0058158D02*
X0240364Y0058158D01*
X0240364Y0057372D02*
X0265227Y0057372D01*
X0265227Y0056586D02*
X0240364Y0056586D01*
X0240364Y0055800D02*
X0265227Y0055800D01*
X0265227Y0055014D02*
X0240364Y0055014D01*
X0240364Y0054228D02*
X0265227Y0054228D01*
X0265227Y0053442D02*
X0240364Y0053442D01*
X0240364Y0052656D02*
X0265227Y0052656D01*
X0265227Y0051870D02*
X0240364Y0051870D01*
X0240364Y0051084D02*
X0265227Y0051084D01*
X0265227Y0050298D02*
X0240364Y0050298D01*
X0240364Y0049513D02*
X0251422Y0049513D01*
X0250969Y0048727D02*
X0240364Y0048727D01*
X0240364Y0047941D02*
X0250969Y0047941D01*
X0260389Y0049513D02*
X0265227Y0049513D01*
X0265227Y0048727D02*
X0260843Y0048727D01*
X0260843Y0047941D02*
X0265227Y0047941D01*
X0265227Y0047155D02*
X0260843Y0047155D01*
X0260843Y0046369D02*
X0265227Y0046369D01*
X0265227Y0045583D02*
X0260843Y0045583D01*
X0260843Y0044797D02*
X0265227Y0044797D01*
X0265227Y0044011D02*
X0260843Y0044011D01*
X0260843Y0043225D02*
X0265227Y0043225D01*
X0265227Y0042439D02*
X0260843Y0042439D01*
X0260843Y0041653D02*
X0265227Y0041653D01*
X0265227Y0040867D02*
X0260218Y0040867D01*
X0251593Y0040867D02*
X0203132Y0040867D01*
X0203756Y0041653D02*
X0250969Y0041653D01*
X0250969Y0042439D02*
X0203756Y0042439D01*
X0209082Y0043225D02*
X0236213Y0043225D01*
X0235539Y0044011D02*
X0209756Y0044011D01*
X0210068Y0044797D02*
X0235227Y0044797D01*
X0235227Y0045583D02*
X0210068Y0045583D01*
X0210068Y0046369D02*
X0235227Y0046369D01*
X0235227Y0047155D02*
X0210068Y0047155D01*
X0210068Y0047941D02*
X0235227Y0047941D01*
X0235227Y0048727D02*
X0210068Y0048727D01*
X0210068Y0049513D02*
X0235227Y0049513D01*
X0235227Y0050298D02*
X0210068Y0050298D01*
X0210068Y0051084D02*
X0235227Y0051084D01*
X0235227Y0051870D02*
X0210068Y0051870D01*
X0210068Y0052656D02*
X0235227Y0052656D01*
X0235227Y0053442D02*
X0210068Y0053442D01*
X0210068Y0054228D02*
X0235227Y0054228D01*
X0235227Y0055014D02*
X0210068Y0055014D01*
X0210068Y0055800D02*
X0235227Y0055800D01*
X0235227Y0056586D02*
X0210068Y0056586D01*
X0210068Y0057372D02*
X0235227Y0057372D01*
X0235227Y0058158D02*
X0210068Y0058158D01*
X0210068Y0058943D02*
X0235227Y0058943D01*
X0235227Y0059729D02*
X0210068Y0059729D01*
X0210068Y0060515D02*
X0235227Y0060515D01*
X0235227Y0061301D02*
X0210068Y0061301D01*
X0210068Y0062087D02*
X0235227Y0062087D01*
X0235227Y0062873D02*
X0210068Y0062873D01*
X0210068Y0063659D02*
X0235227Y0063659D01*
X0235227Y0064445D02*
X0210068Y0064445D01*
X0210068Y0065231D02*
X0235227Y0065231D01*
X0235227Y0066017D02*
X0210068Y0066017D01*
X0210068Y0066803D02*
X0235227Y0066803D01*
X0235227Y0067589D02*
X0210068Y0067589D01*
X0210068Y0068374D02*
X0235227Y0068374D01*
X0235227Y0069160D02*
X0210068Y0069160D01*
X0210068Y0069946D02*
X0220112Y0069946D01*
X0218682Y0070732D02*
X0210068Y0070732D01*
X0210068Y0071518D02*
X0217899Y0071518D01*
X0217574Y0072304D02*
X0210068Y0072304D01*
X0210068Y0073090D02*
X0217300Y0073090D01*
X0217300Y0073876D02*
X0210068Y0073876D01*
X0210068Y0074662D02*
X0217353Y0074662D01*
X0217678Y0075448D02*
X0211529Y0075448D01*
X0212315Y0076234D02*
X0217028Y0076234D01*
X0217028Y0077019D02*
X0212421Y0077019D01*
X0212421Y0077805D02*
X0217028Y0077805D01*
X0217028Y0078591D02*
X0212421Y0078591D01*
X0212421Y0079377D02*
X0217028Y0079377D01*
X0217028Y0080163D02*
X0212421Y0080163D01*
X0212421Y0080949D02*
X0217028Y0080949D01*
X0217028Y0081735D02*
X0212421Y0081735D01*
X0212421Y0082521D02*
X0217028Y0082521D01*
X0217028Y0083307D02*
X0212203Y0083307D01*
X0212421Y0084093D02*
X0217352Y0084093D01*
X0218138Y0084879D02*
X0212421Y0084879D01*
X0212421Y0085665D02*
X0224124Y0085665D01*
X0222614Y0086450D02*
X0212421Y0086450D01*
X0212421Y0087236D02*
X0221641Y0087236D01*
X0221275Y0088022D02*
X0212421Y0088022D01*
X0212421Y0088808D02*
X0221181Y0088808D01*
X0221181Y0089594D02*
X0212421Y0089594D01*
X0212421Y0090380D02*
X0221181Y0090380D01*
X0221181Y0091166D02*
X0211825Y0091166D01*
X0203558Y0091952D02*
X0221181Y0091952D01*
X0225147Y0074662D02*
X0235227Y0074662D01*
X0235227Y0075448D02*
X0232779Y0075448D01*
X0235227Y0073876D02*
X0225200Y0073876D01*
X0225200Y0073090D02*
X0235227Y0073090D01*
X0235227Y0072304D02*
X0224926Y0072304D01*
X0224601Y0071518D02*
X0235227Y0071518D01*
X0235227Y0070732D02*
X0223818Y0070732D01*
X0222388Y0069946D02*
X0235227Y0069946D01*
X0253818Y0070732D02*
X0265227Y0070732D01*
X0265227Y0071518D02*
X0254601Y0071518D01*
X0254926Y0072304D02*
X0265227Y0072304D01*
X0265227Y0073090D02*
X0255200Y0073090D01*
X0255200Y0073876D02*
X0265227Y0073876D01*
X0265227Y0074662D02*
X0255147Y0074662D01*
X0255292Y0075448D02*
X0254822Y0075448D01*
X0262188Y0075448D02*
X0265227Y0075448D01*
X0263276Y0076234D02*
X0262974Y0076234D01*
X0270364Y0075448D02*
X0277381Y0075448D01*
X0277381Y0076234D02*
X0272315Y0076234D01*
X0272717Y0077019D02*
X0277381Y0077019D01*
X0277381Y0077805D02*
X0272717Y0077805D01*
X0272717Y0078591D02*
X0277381Y0078591D01*
X0277381Y0079377D02*
X0272717Y0079377D01*
X0272717Y0080163D02*
X0277381Y0080163D01*
X0277381Y0080949D02*
X0272717Y0080949D01*
X0272717Y0081735D02*
X0277381Y0081735D01*
X0277381Y0082521D02*
X0272717Y0082521D01*
X0272717Y0083307D02*
X0277381Y0083307D01*
X0277381Y0084093D02*
X0272693Y0084093D01*
X0272717Y0084879D02*
X0277381Y0084879D01*
X0277381Y0085665D02*
X0272717Y0085665D01*
X0272717Y0086450D02*
X0277381Y0086450D01*
X0277381Y0087236D02*
X0272717Y0087236D01*
X0272717Y0088022D02*
X0277381Y0088022D01*
X0277381Y0088808D02*
X0272717Y0088808D01*
X0272717Y0089594D02*
X0277381Y0089594D01*
X0277381Y0090380D02*
X0272717Y0090380D01*
X0272415Y0091166D02*
X0277381Y0091166D01*
X0277381Y0091952D02*
X0271629Y0091952D01*
X0277381Y0092738D02*
X0263068Y0092738D01*
X0263671Y0091952D02*
X0263961Y0091952D01*
X0255068Y0093524D02*
X0277381Y0093524D01*
X0277381Y0094310D02*
X0255068Y0094310D01*
X0255068Y0095095D02*
X0277381Y0095095D01*
X0277381Y0095881D02*
X0255068Y0095881D01*
X0255068Y0096667D02*
X0277381Y0096667D01*
X0277381Y0097453D02*
X0255068Y0097453D01*
X0255068Y0098239D02*
X0277381Y0098239D01*
X0277381Y0099025D02*
X0255068Y0099025D01*
X0255068Y0099811D02*
X0277381Y0099811D01*
X0277381Y0100597D02*
X0255068Y0100597D01*
X0255068Y0101383D02*
X0277381Y0101383D01*
X0277381Y0102169D02*
X0255068Y0102169D01*
X0255068Y0102955D02*
X0277381Y0102955D01*
X0277381Y0103741D02*
X0255068Y0103741D01*
X0255068Y0104526D02*
X0270918Y0104526D01*
X0270463Y0105312D02*
X0255068Y0105312D01*
X0255068Y0106098D02*
X0270463Y0106098D01*
X0270463Y0106884D02*
X0255017Y0106884D01*
X0254692Y0107670D02*
X0270463Y0107670D01*
X0270463Y0108456D02*
X0253886Y0108456D01*
X0267441Y0113957D02*
X0270581Y0113957D01*
X0270581Y0113171D02*
X0172568Y0113171D01*
X0172568Y0112386D02*
X0270463Y0112386D01*
X0270463Y0111600D02*
X0172568Y0111600D01*
X0172568Y0110814D02*
X0270463Y0110814D01*
X0270463Y0110028D02*
X0172568Y0110028D01*
X0172568Y0109242D02*
X0270463Y0109242D01*
X0270581Y0114743D02*
X0267818Y0114743D01*
X0267818Y0115529D02*
X0270581Y0115529D01*
X0270581Y0116315D02*
X0267818Y0116315D01*
X0267818Y0117101D02*
X0270581Y0117101D01*
X0270581Y0117887D02*
X0267818Y0117887D01*
X0267311Y0118673D02*
X0270581Y0118673D01*
X0270581Y0119459D02*
X0223818Y0119459D01*
X0223818Y0120245D02*
X0270581Y0120245D01*
X0270581Y0121031D02*
X0223818Y0121031D01*
X0223818Y0121816D02*
X0270581Y0121816D01*
X0270581Y0122602D02*
X0223818Y0122602D01*
X0223818Y0123388D02*
X0257028Y0123388D01*
X0256526Y0128890D02*
X0226318Y0128890D01*
X0226318Y0129676D02*
X0256081Y0129676D01*
X0256081Y0130462D02*
X0226318Y0130462D01*
X0226318Y0131247D02*
X0256081Y0131247D01*
X0256081Y0132033D02*
X0226318Y0132033D01*
X0226318Y0132819D02*
X0256081Y0132819D01*
X0256521Y0133605D02*
X0226318Y0133605D01*
X0226318Y0134391D02*
X0270581Y0134391D01*
X0270581Y0133605D02*
X0267379Y0133605D01*
X0267818Y0132819D02*
X0270581Y0132819D01*
X0270581Y0132033D02*
X0267818Y0132033D01*
X0267818Y0131247D02*
X0270581Y0131247D01*
X0270581Y0130462D02*
X0267818Y0130462D01*
X0267818Y0129676D02*
X0270581Y0129676D01*
X0270581Y0128890D02*
X0267374Y0128890D01*
X0267818Y0128104D02*
X0270581Y0128104D01*
X0270581Y0127318D02*
X0267818Y0127318D01*
X0267818Y0126532D02*
X0270581Y0126532D01*
X0270581Y0125746D02*
X0267818Y0125746D01*
X0267818Y0124960D02*
X0270581Y0124960D01*
X0270581Y0124174D02*
X0267658Y0124174D01*
X0266872Y0123388D02*
X0270581Y0123388D01*
X0270581Y0135177D02*
X0226318Y0135177D01*
X0226318Y0135963D02*
X0270581Y0135963D01*
X0270581Y0136749D02*
X0226318Y0136749D01*
X0226318Y0137535D02*
X0270581Y0137535D01*
X0270581Y0138321D02*
X0226318Y0138321D01*
X0226318Y0139107D02*
X0270463Y0139107D01*
X0270463Y0139892D02*
X0226318Y0139892D01*
X0226318Y0140678D02*
X0270463Y0140678D01*
X0270463Y0141464D02*
X0226318Y0141464D01*
X0226318Y0142250D02*
X0270463Y0142250D01*
X0270463Y0143036D02*
X0226318Y0143036D01*
X0226318Y0143822D02*
X0270463Y0143822D01*
X0270463Y0144608D02*
X0226318Y0144608D01*
X0226318Y0145394D02*
X0270463Y0145394D01*
X0270463Y0146180D02*
X0226318Y0146180D01*
X0226318Y0146966D02*
X0257200Y0146966D01*
X0266700Y0146966D02*
X0270581Y0146966D01*
X0270581Y0147752D02*
X0267486Y0147752D01*
X0267818Y0148538D02*
X0270581Y0148538D01*
X0270581Y0149323D02*
X0267818Y0149323D01*
X0267818Y0150109D02*
X0270581Y0150109D01*
X0270581Y0150895D02*
X0267818Y0150895D01*
X0267818Y0151681D02*
X0270581Y0151681D01*
X0270581Y0152467D02*
X0267267Y0152467D01*
X0270581Y0153253D02*
X0228818Y0153253D01*
X0228818Y0154039D02*
X0270581Y0154039D01*
X0270581Y0154825D02*
X0228818Y0154825D01*
X0228818Y0155611D02*
X0270581Y0155611D01*
X0270581Y0156397D02*
X0228818Y0156397D01*
X0228818Y0157183D02*
X0256984Y0157183D01*
X0257235Y0156931D02*
X0266665Y0156931D01*
X0267818Y0158085D01*
X0267818Y0161915D01*
X0267234Y0162500D01*
X0267818Y0163085D01*
X0267818Y0166915D01*
X0266665Y0168068D01*
X0257235Y0168068D01*
X0256081Y0166915D01*
X0256081Y0163085D01*
X0256666Y0162500D01*
X0256081Y0161915D01*
X0256081Y0158085D01*
X0257235Y0156931D01*
X0256198Y0157968D02*
X0228818Y0157968D01*
X0228818Y0158754D02*
X0256081Y0158754D01*
X0256081Y0159540D02*
X0228818Y0159540D01*
X0228818Y0160326D02*
X0256081Y0160326D01*
X0256081Y0161112D02*
X0228818Y0161112D01*
X0228818Y0161898D02*
X0256081Y0161898D01*
X0256482Y0162684D02*
X0228818Y0162684D01*
X0228818Y0163470D02*
X0256081Y0163470D01*
X0256081Y0164256D02*
X0228818Y0164256D01*
X0228818Y0165042D02*
X0256081Y0165042D01*
X0256081Y0165828D02*
X0228818Y0165828D01*
X0228818Y0166614D02*
X0256081Y0166614D01*
X0256566Y0167399D02*
X0228818Y0167399D01*
X0228818Y0168185D02*
X0270581Y0168185D01*
X0270581Y0167399D02*
X0267334Y0167399D01*
X0267818Y0166614D02*
X0270581Y0166614D01*
X0270581Y0165828D02*
X0267818Y0165828D01*
X0267818Y0165042D02*
X0270581Y0165042D01*
X0270581Y0164256D02*
X0267818Y0164256D01*
X0267818Y0163470D02*
X0270581Y0163470D01*
X0270581Y0162684D02*
X0267418Y0162684D01*
X0267818Y0161898D02*
X0270581Y0161898D01*
X0270581Y0161112D02*
X0267818Y0161112D01*
X0267818Y0160326D02*
X0270581Y0160326D01*
X0270581Y0159540D02*
X0267818Y0159540D01*
X0267818Y0158754D02*
X0270581Y0158754D01*
X0270581Y0157968D02*
X0267702Y0157968D01*
X0266916Y0157183D02*
X0270581Y0157183D01*
X0286018Y0162684D02*
X0413386Y0162684D01*
X0413386Y0163470D02*
X0286418Y0163470D01*
X0286418Y0164256D02*
X0413386Y0164256D01*
X0413386Y0165042D02*
X0286418Y0165042D01*
X0286418Y0165828D02*
X0413386Y0165828D01*
X0413386Y0166614D02*
X0286418Y0166614D01*
X0285934Y0167399D02*
X0413386Y0167399D01*
X0413386Y0168185D02*
X0276918Y0168185D01*
X0276918Y0168971D02*
X0413386Y0168971D01*
X0413386Y0169757D02*
X0276918Y0169757D01*
X0276918Y0170543D02*
X0413386Y0170543D01*
X0413386Y0171329D02*
X0276918Y0171329D01*
X0276918Y0172115D02*
X0413386Y0172115D01*
X0413386Y0172901D02*
X0276918Y0172901D01*
X0276918Y0173687D02*
X0413386Y0173687D01*
X0413386Y0174473D02*
X0276918Y0174473D01*
X0276918Y0175259D02*
X0413386Y0175259D01*
X0413386Y0176044D02*
X0276918Y0176044D01*
X0276918Y0176830D02*
X0413386Y0176830D01*
X0413386Y0177616D02*
X0276918Y0177616D01*
X0276918Y0178402D02*
X0413386Y0178402D01*
X0413386Y0179188D02*
X0276918Y0179188D01*
X0276918Y0179974D02*
X0413386Y0179974D01*
X0413386Y0180760D02*
X0276918Y0180760D01*
X0276918Y0181546D02*
X0413386Y0181546D01*
X0413386Y0182332D02*
X0276918Y0182332D01*
X0276918Y0183118D02*
X0413386Y0183118D01*
X0413386Y0183904D02*
X0276918Y0183904D01*
X0276918Y0184690D02*
X0413386Y0184690D01*
X0413386Y0185475D02*
X0276918Y0185475D01*
X0276918Y0186261D02*
X0413386Y0186261D01*
X0413386Y0187047D02*
X0276918Y0187047D01*
X0276918Y0187833D02*
X0413386Y0187833D01*
X0413386Y0188619D02*
X0276918Y0188619D01*
X0276918Y0189405D02*
X0413386Y0189405D01*
X0413386Y0190191D02*
X0276918Y0190191D01*
X0276918Y0190977D02*
X0337381Y0190977D01*
X0338456Y0190531D02*
X0341229Y0190531D01*
X0343790Y0191592D01*
X0345750Y0193553D01*
X0346811Y0196114D01*
X0346811Y0198886D01*
X0345750Y0201447D01*
X0343790Y0203408D01*
X0341229Y0204468D01*
X0338456Y0204468D01*
X0335895Y0203408D01*
X0333935Y0201447D01*
X0332874Y0198886D01*
X0332874Y0196114D01*
X0333935Y0193553D01*
X0335895Y0191592D01*
X0338456Y0190531D01*
X0335725Y0191763D02*
X0276918Y0191763D01*
X0276918Y0192549D02*
X0334939Y0192549D01*
X0334153Y0193335D02*
X0276918Y0193335D01*
X0276918Y0194120D02*
X0333700Y0194120D01*
X0333374Y0194906D02*
X0276918Y0194906D01*
X0276918Y0195692D02*
X0333049Y0195692D01*
X0332874Y0196478D02*
X0276918Y0196478D01*
X0276918Y0197264D02*
X0332874Y0197264D01*
X0332874Y0198050D02*
X0276918Y0198050D01*
X0276918Y0198836D02*
X0332874Y0198836D01*
X0333179Y0199622D02*
X0276918Y0199622D01*
X0276918Y0200408D02*
X0333504Y0200408D01*
X0333830Y0201194D02*
X0276918Y0201194D01*
X0276918Y0201980D02*
X0334467Y0201980D01*
X0335253Y0202766D02*
X0276918Y0202766D01*
X0276918Y0203551D02*
X0336242Y0203551D01*
X0338140Y0204337D02*
X0276918Y0204337D01*
X0276918Y0205123D02*
X0413386Y0205123D01*
X0413386Y0204337D02*
X0341545Y0204337D01*
X0343443Y0203551D02*
X0413386Y0203551D01*
X0413386Y0202766D02*
X0344432Y0202766D01*
X0345218Y0201980D02*
X0413386Y0201980D01*
X0413386Y0201194D02*
X0345855Y0201194D01*
X0346181Y0200408D02*
X0413386Y0200408D01*
X0413386Y0199622D02*
X0346506Y0199622D01*
X0346811Y0198836D02*
X0413386Y0198836D01*
X0413386Y0198050D02*
X0346811Y0198050D01*
X0346811Y0197264D02*
X0413386Y0197264D01*
X0413386Y0196478D02*
X0346811Y0196478D01*
X0346636Y0195692D02*
X0413386Y0195692D01*
X0413386Y0194906D02*
X0346311Y0194906D01*
X0345985Y0194120D02*
X0413386Y0194120D01*
X0413386Y0193335D02*
X0345532Y0193335D01*
X0344746Y0192549D02*
X0413386Y0192549D01*
X0413386Y0191763D02*
X0343960Y0191763D01*
X0342304Y0190977D02*
X0413386Y0190977D01*
X0413386Y0205909D02*
X0276918Y0205909D01*
X0276918Y0206695D02*
X0413386Y0206695D01*
X0413386Y0207481D02*
X0276918Y0207481D01*
X0276918Y0208267D02*
X0413386Y0208267D01*
X0413386Y0209053D02*
X0276918Y0209053D01*
X0276918Y0209839D02*
X0413386Y0209839D01*
X0413386Y0210625D02*
X0276918Y0210625D01*
X0276918Y0211411D02*
X0413386Y0211411D01*
X0413386Y0212196D02*
X0276918Y0212196D01*
X0276918Y0212982D02*
X0413386Y0212982D01*
X0413386Y0213768D02*
X0276918Y0213768D01*
X0276918Y0214554D02*
X0413386Y0214554D01*
X0413386Y0215340D02*
X0276918Y0215340D01*
X0276918Y0216126D02*
X0339032Y0216126D01*
X0340968Y0216126D02*
X0413386Y0216126D01*
X0413386Y0216912D02*
X0342498Y0216912D01*
X0343283Y0217698D02*
X0413386Y0217698D01*
X0413386Y0218484D02*
X0343647Y0218484D01*
X0343950Y0219270D02*
X0413386Y0219270D01*
X0413386Y0220056D02*
X0343950Y0220056D01*
X0343926Y0220842D02*
X0413386Y0220842D01*
X0413386Y0221627D02*
X0343601Y0221627D01*
X0343172Y0222413D02*
X0413386Y0222413D01*
X0413386Y0223199D02*
X0343168Y0223199D01*
X0343168Y0223985D02*
X0413386Y0223985D01*
X0413386Y0224771D02*
X0343168Y0224771D01*
X0343168Y0225557D02*
X0413386Y0225557D01*
X0413386Y0226343D02*
X0343168Y0226343D01*
X0343168Y0227129D02*
X0413386Y0227129D01*
X0413386Y0227915D02*
X0343540Y0227915D01*
X0344326Y0228701D02*
X0413386Y0228701D01*
X0413386Y0229487D02*
X0344708Y0229487D01*
X0345034Y0230272D02*
X0413386Y0230272D01*
X0413386Y0231058D02*
X0345217Y0231058D01*
X0345217Y0231844D02*
X0413386Y0231844D01*
X0413386Y0232630D02*
X0345217Y0232630D01*
X0345217Y0233416D02*
X0413386Y0233416D01*
X0413386Y0234202D02*
X0345217Y0234202D01*
X0345217Y0234988D02*
X0413386Y0234988D01*
X0413386Y0235774D02*
X0345217Y0235774D01*
X0345217Y0236560D02*
X0413386Y0236560D01*
X0413386Y0237346D02*
X0345217Y0237346D01*
X0345217Y0238132D02*
X0413386Y0238132D01*
X0413386Y0238918D02*
X0345217Y0238918D01*
X0345043Y0239703D02*
X0413386Y0239703D01*
X0413386Y0240489D02*
X0344718Y0240489D01*
X0344350Y0241275D02*
X0413386Y0241275D01*
X0413386Y0242061D02*
X0343564Y0242061D01*
X0342528Y0242847D02*
X0413386Y0242847D01*
X0413386Y0243633D02*
X0231484Y0243633D01*
X0237893Y0236560D02*
X0259331Y0236560D01*
X0259331Y0235774D02*
X0237893Y0235774D01*
X0237893Y0234988D02*
X0259331Y0234988D01*
X0259331Y0234202D02*
X0240019Y0234202D01*
X0240797Y0233416D02*
X0259331Y0233416D01*
X0259331Y0232630D02*
X0240797Y0232630D01*
X0240797Y0231844D02*
X0259331Y0231844D01*
X0259331Y0231058D02*
X0240797Y0231058D01*
X0240797Y0230272D02*
X0259331Y0230272D01*
X0259331Y0229487D02*
X0240797Y0229487D01*
X0240797Y0228701D02*
X0259331Y0228701D01*
X0259331Y0227915D02*
X0240797Y0227915D01*
X0240797Y0227129D02*
X0259331Y0227129D01*
X0259331Y0226343D02*
X0240797Y0226343D01*
X0240797Y0225557D02*
X0259331Y0225557D01*
X0259331Y0224771D02*
X0240797Y0224771D01*
X0240797Y0223985D02*
X0259331Y0223985D01*
X0259331Y0223199D02*
X0240797Y0223199D01*
X0240797Y0222413D02*
X0259331Y0222413D01*
X0259331Y0221627D02*
X0253735Y0221627D01*
X0253443Y0221919D02*
X0254596Y0220766D01*
X0254596Y0210474D01*
X0253443Y0209321D01*
X0249450Y0209321D01*
X0248297Y0210474D01*
X0248297Y0220766D01*
X0249450Y0221919D01*
X0253443Y0221919D01*
X0254521Y0220842D02*
X0259331Y0220842D01*
X0259331Y0220056D02*
X0254596Y0220056D01*
X0254596Y0219270D02*
X0259373Y0219270D01*
X0259698Y0218484D02*
X0254596Y0218484D01*
X0254596Y0217698D02*
X0260321Y0217698D01*
X0261675Y0216912D02*
X0254596Y0216912D01*
X0254596Y0216126D02*
X0270581Y0216126D01*
X0270581Y0215340D02*
X0254596Y0215340D01*
X0254596Y0214554D02*
X0270581Y0214554D01*
X0270581Y0213768D02*
X0254596Y0213768D01*
X0254596Y0212982D02*
X0270581Y0212982D01*
X0270581Y0212196D02*
X0254596Y0212196D01*
X0254596Y0211411D02*
X0270581Y0211411D01*
X0270581Y0210625D02*
X0254596Y0210625D01*
X0253961Y0209839D02*
X0270581Y0209839D01*
X0270581Y0209053D02*
X0228818Y0209053D01*
X0228818Y0209839D02*
X0233932Y0209839D01*
X0233297Y0210625D02*
X0228818Y0210625D01*
X0228818Y0211411D02*
X0233297Y0211411D01*
X0233297Y0212196D02*
X0228818Y0212196D01*
X0228818Y0212982D02*
X0233297Y0212982D01*
X0233297Y0213768D02*
X0228818Y0213768D01*
X0228818Y0214554D02*
X0233297Y0214554D01*
X0233278Y0215340D02*
X0228818Y0215340D01*
X0228818Y0216126D02*
X0233278Y0216126D01*
X0233278Y0216912D02*
X0228818Y0216912D01*
X0228818Y0217698D02*
X0233278Y0217698D01*
X0233278Y0218484D02*
X0228818Y0218484D01*
X0228818Y0219270D02*
X0233278Y0219270D01*
X0233278Y0220056D02*
X0228818Y0220056D01*
X0228818Y0220842D02*
X0233278Y0220842D01*
X0239615Y0220842D02*
X0248373Y0220842D01*
X0248297Y0220056D02*
X0239615Y0220056D01*
X0239615Y0219270D02*
X0248297Y0219270D01*
X0248297Y0218484D02*
X0239615Y0218484D01*
X0239615Y0217698D02*
X0248297Y0217698D01*
X0248297Y0216912D02*
X0239615Y0216912D01*
X0239615Y0216126D02*
X0248297Y0216126D01*
X0248297Y0215340D02*
X0239615Y0215340D01*
X0239596Y0214554D02*
X0248297Y0214554D01*
X0248297Y0213768D02*
X0239596Y0213768D01*
X0239596Y0212982D02*
X0248297Y0212982D01*
X0248297Y0212196D02*
X0239596Y0212196D01*
X0239596Y0211411D02*
X0248297Y0211411D01*
X0248297Y0210625D02*
X0239596Y0210625D01*
X0238961Y0209839D02*
X0248932Y0209839D01*
X0249450Y0201447D02*
X0248297Y0200294D01*
X0248297Y0190002D01*
X0249450Y0188848D01*
X0253443Y0188848D01*
X0254596Y0190002D01*
X0254596Y0200294D01*
X0253443Y0201447D01*
X0249450Y0201447D01*
X0249197Y0201194D02*
X0238696Y0201194D01*
X0239482Y0200408D02*
X0248411Y0200408D01*
X0248297Y0199622D02*
X0239596Y0199622D01*
X0239596Y0198836D02*
X0248297Y0198836D01*
X0248297Y0198050D02*
X0239596Y0198050D01*
X0239596Y0197264D02*
X0248297Y0197264D01*
X0248297Y0196478D02*
X0239596Y0196478D01*
X0239615Y0195692D02*
X0248297Y0195692D01*
X0248297Y0194906D02*
X0239615Y0194906D01*
X0239615Y0194120D02*
X0248297Y0194120D01*
X0248297Y0193335D02*
X0239615Y0193335D01*
X0239615Y0192549D02*
X0248297Y0192549D01*
X0248297Y0191763D02*
X0239615Y0191763D01*
X0239615Y0190977D02*
X0248297Y0190977D01*
X0248297Y0190191D02*
X0239615Y0190191D01*
X0239816Y0189405D02*
X0248894Y0189405D01*
X0254000Y0189405D02*
X0270581Y0189405D01*
X0270581Y0188619D02*
X0240602Y0188619D01*
X0240797Y0187833D02*
X0270581Y0187833D01*
X0270581Y0187047D02*
X0240797Y0187047D01*
X0240797Y0186261D02*
X0270581Y0186261D01*
X0270581Y0185475D02*
X0240797Y0185475D01*
X0240797Y0184690D02*
X0270581Y0184690D01*
X0270581Y0183904D02*
X0240797Y0183904D01*
X0240797Y0183118D02*
X0270581Y0183118D01*
X0270581Y0182332D02*
X0240797Y0182332D01*
X0240797Y0181546D02*
X0270581Y0181546D01*
X0270581Y0180760D02*
X0240797Y0180760D01*
X0240797Y0179974D02*
X0270581Y0179974D01*
X0270581Y0179188D02*
X0240797Y0179188D01*
X0240797Y0178402D02*
X0270581Y0178402D01*
X0270581Y0177616D02*
X0240797Y0177616D01*
X0240284Y0176830D02*
X0270581Y0176830D01*
X0270581Y0176044D02*
X0234541Y0176044D01*
X0234900Y0175259D02*
X0270581Y0175259D01*
X0270581Y0174473D02*
X0235200Y0174473D01*
X0235200Y0173687D02*
X0270581Y0173687D01*
X0270581Y0172901D02*
X0235173Y0172901D01*
X0234848Y0172115D02*
X0270581Y0172115D01*
X0270581Y0171329D02*
X0234415Y0171329D01*
X0233629Y0170543D02*
X0270581Y0170543D01*
X0270581Y0169757D02*
X0228818Y0169757D01*
X0228818Y0168971D02*
X0270581Y0168971D01*
X0286418Y0161898D02*
X0413386Y0161898D01*
X0413386Y0161112D02*
X0286418Y0161112D01*
X0286418Y0160326D02*
X0413386Y0160326D01*
X0413386Y0159540D02*
X0286418Y0159540D01*
X0286418Y0158754D02*
X0413386Y0158754D01*
X0413386Y0157968D02*
X0286302Y0157968D01*
X0286151Y0157183D02*
X0413386Y0157183D01*
X0413386Y0156397D02*
X0286418Y0156397D01*
X0286418Y0155611D02*
X0413386Y0155611D01*
X0413386Y0154825D02*
X0364022Y0154825D01*
X0363493Y0155354D02*
X0324066Y0155354D01*
X0322913Y0154201D01*
X0322913Y0125799D01*
X0324066Y0124646D01*
X0354464Y0124646D01*
X0369473Y0109637D01*
X0372137Y0106973D01*
X0375617Y0105531D01*
X0396883Y0105531D01*
X0400363Y0106973D01*
X0403027Y0109637D01*
X0403186Y0110021D01*
X0404614Y0111449D01*
X0405568Y0113753D01*
X0405568Y0116247D01*
X0404614Y0118551D01*
X0403186Y0119979D01*
X0403027Y0120363D01*
X0400363Y0123027D01*
X0396883Y0124468D01*
X0381422Y0124468D01*
X0364646Y0141245D01*
X0364646Y0154201D01*
X0363493Y0155354D01*
X0364646Y0154039D02*
X0413386Y0154039D01*
X0413386Y0153253D02*
X0364646Y0153253D01*
X0364646Y0152467D02*
X0413386Y0152467D01*
X0413386Y0151681D02*
X0364646Y0151681D01*
X0364646Y0150895D02*
X0413386Y0150895D01*
X0413386Y0150109D02*
X0364646Y0150109D01*
X0364646Y0149323D02*
X0413386Y0149323D01*
X0413386Y0148538D02*
X0364646Y0148538D01*
X0364646Y0147752D02*
X0413386Y0147752D01*
X0413386Y0146966D02*
X0364646Y0146966D01*
X0364646Y0146180D02*
X0413386Y0146180D01*
X0413386Y0145394D02*
X0364646Y0145394D01*
X0364646Y0144608D02*
X0413386Y0144608D01*
X0413386Y0143822D02*
X0364646Y0143822D01*
X0364646Y0143036D02*
X0413386Y0143036D01*
X0413386Y0142250D02*
X0364646Y0142250D01*
X0364646Y0141464D02*
X0413386Y0141464D01*
X0413386Y0140678D02*
X0401971Y0140678D01*
X0402851Y0140314D02*
X0400547Y0141268D01*
X0389453Y0141268D01*
X0387149Y0140314D01*
X0385386Y0138551D01*
X0384431Y0136247D01*
X0384431Y0133753D01*
X0385386Y0131449D01*
X0387149Y0129686D01*
X0389453Y0128731D01*
X0400547Y0128731D01*
X0402851Y0129686D01*
X0404614Y0131449D01*
X0405568Y0133753D01*
X0405568Y0136247D01*
X0404614Y0138551D01*
X0402851Y0140314D01*
X0403272Y0139892D02*
X0413386Y0139892D01*
X0413386Y0139107D02*
X0404058Y0139107D01*
X0404710Y0138321D02*
X0413386Y0138321D01*
X0413386Y0137535D02*
X0405035Y0137535D01*
X0405361Y0136749D02*
X0413386Y0136749D01*
X0413386Y0135963D02*
X0405568Y0135963D01*
X0405568Y0135177D02*
X0413386Y0135177D01*
X0413386Y0134391D02*
X0405568Y0134391D01*
X0405507Y0133605D02*
X0413386Y0133605D01*
X0413386Y0132819D02*
X0405182Y0132819D01*
X0404856Y0132033D02*
X0413386Y0132033D01*
X0413386Y0131247D02*
X0404412Y0131247D01*
X0403627Y0130462D02*
X0413386Y0130462D01*
X0413386Y0129676D02*
X0402826Y0129676D01*
X0400929Y0128890D02*
X0413386Y0128890D01*
X0413386Y0128104D02*
X0377787Y0128104D01*
X0378573Y0127318D02*
X0413386Y0127318D01*
X0413386Y0126532D02*
X0379359Y0126532D01*
X0380144Y0125746D02*
X0413386Y0125746D01*
X0413386Y0124960D02*
X0380930Y0124960D01*
X0377001Y0128890D02*
X0389071Y0128890D01*
X0387174Y0129676D02*
X0376215Y0129676D01*
X0375429Y0130462D02*
X0386373Y0130462D01*
X0385588Y0131247D02*
X0374643Y0131247D01*
X0373857Y0132033D02*
X0385144Y0132033D01*
X0384818Y0132819D02*
X0373071Y0132819D01*
X0372285Y0133605D02*
X0384493Y0133605D01*
X0384431Y0134391D02*
X0371499Y0134391D01*
X0370713Y0135177D02*
X0384431Y0135177D01*
X0384431Y0135963D02*
X0369928Y0135963D01*
X0369142Y0136749D02*
X0384639Y0136749D01*
X0384965Y0137535D02*
X0368356Y0137535D01*
X0367570Y0138321D02*
X0385290Y0138321D01*
X0385942Y0139107D02*
X0366784Y0139107D01*
X0365998Y0139892D02*
X0386727Y0139892D01*
X0388029Y0140678D02*
X0365212Y0140678D01*
X0354935Y0124174D02*
X0290668Y0124174D01*
X0290668Y0123388D02*
X0355721Y0123388D01*
X0356507Y0122602D02*
X0290668Y0122602D01*
X0290668Y0121816D02*
X0357293Y0121816D01*
X0358079Y0121031D02*
X0290668Y0121031D01*
X0290668Y0120245D02*
X0358865Y0120245D01*
X0359651Y0119459D02*
X0290668Y0119459D01*
X0290668Y0118673D02*
X0360437Y0118673D01*
X0361223Y0117887D02*
X0290668Y0117887D01*
X0290668Y0117101D02*
X0362008Y0117101D01*
X0362794Y0116315D02*
X0290668Y0116315D01*
X0290668Y0115529D02*
X0363580Y0115529D01*
X0364366Y0114743D02*
X0290668Y0114743D01*
X0290668Y0113957D02*
X0365152Y0113957D01*
X0365938Y0113171D02*
X0290668Y0113171D01*
X0290668Y0112386D02*
X0366724Y0112386D01*
X0367510Y0111600D02*
X0290668Y0111600D01*
X0290668Y0110814D02*
X0368296Y0110814D01*
X0369082Y0110028D02*
X0363819Y0110028D01*
X0363493Y0110354D02*
X0364646Y0109201D01*
X0364646Y0104468D01*
X0396883Y0104468D01*
X0400363Y0103027D01*
X0403027Y0100363D01*
X0403186Y0099979D01*
X0404614Y0098551D01*
X0405568Y0096247D01*
X0405568Y0093753D01*
X0404614Y0091449D01*
X0403186Y0090021D01*
X0403027Y0089637D01*
X0400363Y0086973D01*
X0396883Y0085531D01*
X0364646Y0085531D01*
X0364646Y0080799D01*
X0363493Y0079646D01*
X0324066Y0079646D01*
X0322913Y0080799D01*
X0322913Y0109201D01*
X0324066Y0110354D01*
X0363493Y0110354D01*
X0364605Y0109242D02*
X0369868Y0109242D01*
X0370654Y0108456D02*
X0364646Y0108456D01*
X0364646Y0107670D02*
X0371439Y0107670D01*
X0372351Y0106884D02*
X0364646Y0106884D01*
X0364646Y0106098D02*
X0374248Y0106098D01*
X0364646Y0105312D02*
X0413386Y0105312D01*
X0413386Y0104526D02*
X0364646Y0104526D01*
X0364646Y0084879D02*
X0413386Y0084879D01*
X0413386Y0085665D02*
X0397205Y0085665D01*
X0396883Y0084468D02*
X0375617Y0084468D01*
X0372137Y0083027D01*
X0369473Y0080363D01*
X0364473Y0075363D01*
X0354464Y0065354D01*
X0324066Y0065354D01*
X0322913Y0064201D01*
X0322913Y0035799D01*
X0324066Y0034646D01*
X0363493Y0034646D01*
X0364646Y0035799D01*
X0364646Y0048755D01*
X0377863Y0061973D01*
X0381422Y0065531D01*
X0396883Y0065531D01*
X0400363Y0066973D01*
X0403027Y0069637D01*
X0403186Y0070021D01*
X0404614Y0071449D01*
X0405568Y0073753D01*
X0405568Y0076247D01*
X0404614Y0078551D01*
X0403186Y0079979D01*
X0403027Y0080363D01*
X0400363Y0083027D01*
X0396883Y0084468D01*
X0397791Y0084093D02*
X0413386Y0084093D01*
X0413386Y0083307D02*
X0399688Y0083307D01*
X0400870Y0082521D02*
X0413386Y0082521D01*
X0413386Y0081735D02*
X0401656Y0081735D01*
X0402441Y0080949D02*
X0413386Y0080949D01*
X0413386Y0080163D02*
X0403110Y0080163D01*
X0403788Y0079377D02*
X0413386Y0079377D01*
X0413386Y0078591D02*
X0404574Y0078591D01*
X0404923Y0077805D02*
X0413386Y0077805D01*
X0413386Y0077019D02*
X0405248Y0077019D01*
X0405568Y0076234D02*
X0413386Y0076234D01*
X0413386Y0075448D02*
X0405568Y0075448D01*
X0405568Y0074662D02*
X0413386Y0074662D01*
X0413386Y0073876D02*
X0405568Y0073876D01*
X0405294Y0073090D02*
X0413386Y0073090D01*
X0413386Y0072304D02*
X0404968Y0072304D01*
X0404643Y0071518D02*
X0413386Y0071518D01*
X0413386Y0070732D02*
X0403897Y0070732D01*
X0403155Y0069946D02*
X0413386Y0069946D01*
X0413386Y0069160D02*
X0402551Y0069160D01*
X0401765Y0068374D02*
X0413386Y0068374D01*
X0413386Y0067589D02*
X0400979Y0067589D01*
X0399952Y0066803D02*
X0413386Y0066803D01*
X0413386Y0066017D02*
X0398055Y0066017D01*
X0413386Y0065231D02*
X0381121Y0065231D01*
X0380335Y0064445D02*
X0413386Y0064445D01*
X0413386Y0063659D02*
X0379549Y0063659D01*
X0378764Y0062873D02*
X0413386Y0062873D01*
X0413386Y0062087D02*
X0377978Y0062087D01*
X0377192Y0061301D02*
X0413386Y0061301D01*
X0413386Y0060515D02*
X0376406Y0060515D01*
X0375620Y0059729D02*
X0413386Y0059729D01*
X0413386Y0058943D02*
X0374834Y0058943D01*
X0374048Y0058158D02*
X0413386Y0058158D01*
X0413386Y0057372D02*
X0373262Y0057372D01*
X0372476Y0056586D02*
X0413386Y0056586D01*
X0413386Y0055800D02*
X0371690Y0055800D01*
X0370904Y0055014D02*
X0413386Y0055014D01*
X0413386Y0054228D02*
X0370118Y0054228D01*
X0369333Y0053442D02*
X0413386Y0053442D01*
X0413386Y0052656D02*
X0368547Y0052656D01*
X0367761Y0051870D02*
X0413386Y0051870D01*
X0413386Y0051084D02*
X0366975Y0051084D01*
X0366189Y0050298D02*
X0413386Y0050298D01*
X0413386Y0049513D02*
X0365403Y0049513D01*
X0364646Y0048727D02*
X0413386Y0048727D01*
X0413386Y0047941D02*
X0364646Y0047941D01*
X0364646Y0047155D02*
X0413386Y0047155D01*
X0413386Y0046369D02*
X0364646Y0046369D01*
X0364646Y0045583D02*
X0413386Y0045583D01*
X0413386Y0044797D02*
X0364646Y0044797D01*
X0364646Y0044011D02*
X0413386Y0044011D01*
X0413386Y0043225D02*
X0364646Y0043225D01*
X0364646Y0042439D02*
X0413386Y0042439D01*
X0413386Y0041653D02*
X0364646Y0041653D01*
X0364646Y0040867D02*
X0413386Y0040867D01*
X0413386Y0040082D02*
X0364646Y0040082D01*
X0364646Y0039296D02*
X0413386Y0039296D01*
X0413386Y0038510D02*
X0364646Y0038510D01*
X0364646Y0037724D02*
X0413386Y0037724D01*
X0413386Y0036938D02*
X0364646Y0036938D01*
X0364646Y0036152D02*
X0413386Y0036152D01*
X0413386Y0035366D02*
X0364213Y0035366D01*
X0323346Y0035366D02*
X0270364Y0035366D01*
X0270364Y0034580D02*
X0413386Y0034580D01*
X0413386Y0033794D02*
X0270364Y0033794D01*
X0270364Y0033008D02*
X0413386Y0033008D01*
X0413386Y0032222D02*
X0270364Y0032222D01*
X0270364Y0031437D02*
X0413386Y0031437D01*
X0413386Y0030651D02*
X0270364Y0030651D01*
X0270364Y0029865D02*
X0413386Y0029865D01*
X0413386Y0029079D02*
X0270364Y0029079D01*
X0270364Y0028293D02*
X0413386Y0028293D01*
X0413386Y0027507D02*
X0270364Y0027507D01*
X0270364Y0026721D02*
X0413386Y0026721D01*
X0413386Y0025935D02*
X0270364Y0025935D01*
X0270364Y0025149D02*
X0413386Y0025149D01*
X0413386Y0024363D02*
X0270067Y0024363D01*
X0269415Y0023577D02*
X0413386Y0023577D01*
X0411124Y0002358D02*
X0002262Y0002358D01*
X0003166Y0001572D02*
X0410220Y0001572D01*
X0322913Y0036152D02*
X0270364Y0036152D01*
X0270364Y0036938D02*
X0322913Y0036938D01*
X0322913Y0037724D02*
X0270364Y0037724D01*
X0270364Y0038510D02*
X0322913Y0038510D01*
X0322913Y0039296D02*
X0270364Y0039296D01*
X0270364Y0040082D02*
X0322913Y0040082D01*
X0322913Y0040867D02*
X0270364Y0040867D01*
X0270364Y0041653D02*
X0322913Y0041653D01*
X0322913Y0042439D02*
X0270364Y0042439D01*
X0270364Y0043225D02*
X0322913Y0043225D01*
X0322913Y0044011D02*
X0270364Y0044011D01*
X0270364Y0044797D02*
X0322913Y0044797D01*
X0322913Y0045583D02*
X0270364Y0045583D01*
X0270364Y0046369D02*
X0322913Y0046369D01*
X0322913Y0047155D02*
X0270364Y0047155D01*
X0270364Y0047941D02*
X0322913Y0047941D01*
X0322913Y0048727D02*
X0270364Y0048727D01*
X0270364Y0049513D02*
X0322913Y0049513D01*
X0322913Y0050298D02*
X0270364Y0050298D01*
X0270364Y0051084D02*
X0322913Y0051084D01*
X0322913Y0051870D02*
X0270364Y0051870D01*
X0270364Y0052656D02*
X0322913Y0052656D01*
X0322913Y0053442D02*
X0270364Y0053442D01*
X0270364Y0054228D02*
X0322913Y0054228D01*
X0322913Y0055014D02*
X0270364Y0055014D01*
X0270364Y0055800D02*
X0322913Y0055800D01*
X0322913Y0056586D02*
X0312047Y0056586D01*
X0312677Y0057372D02*
X0322913Y0057372D01*
X0322913Y0058158D02*
X0312677Y0058158D01*
X0312677Y0058943D02*
X0322913Y0058943D01*
X0322913Y0059729D02*
X0312677Y0059729D01*
X0312677Y0060515D02*
X0322913Y0060515D01*
X0322913Y0061301D02*
X0312677Y0061301D01*
X0312677Y0062087D02*
X0322913Y0062087D01*
X0322913Y0062873D02*
X0312588Y0062873D01*
X0311802Y0063659D02*
X0322913Y0063659D01*
X0323157Y0064445D02*
X0283718Y0064445D01*
X0283718Y0065231D02*
X0323943Y0065231D01*
X0323549Y0080163D02*
X0283718Y0080163D01*
X0283718Y0079377D02*
X0368487Y0079377D01*
X0369273Y0080163D02*
X0364010Y0080163D01*
X0364646Y0080949D02*
X0370059Y0080949D01*
X0370844Y0081735D02*
X0364646Y0081735D01*
X0364646Y0082521D02*
X0371630Y0082521D01*
X0372812Y0083307D02*
X0364646Y0083307D01*
X0364646Y0084093D02*
X0374709Y0084093D01*
X0367701Y0078591D02*
X0283718Y0078591D01*
X0283718Y0077805D02*
X0366915Y0077805D01*
X0366129Y0077019D02*
X0283718Y0077019D01*
X0283718Y0076234D02*
X0365343Y0076234D01*
X0364557Y0075448D02*
X0283718Y0075448D01*
X0283718Y0074662D02*
X0363771Y0074662D01*
X0362985Y0073876D02*
X0283718Y0073876D01*
X0283718Y0073090D02*
X0362199Y0073090D01*
X0361414Y0072304D02*
X0283718Y0072304D01*
X0283718Y0071518D02*
X0360628Y0071518D01*
X0359842Y0070732D02*
X0283718Y0070732D01*
X0283718Y0069946D02*
X0359056Y0069946D01*
X0358270Y0069160D02*
X0283718Y0069160D01*
X0283718Y0068374D02*
X0357484Y0068374D01*
X0356698Y0067589D02*
X0283718Y0067589D01*
X0283718Y0066803D02*
X0355912Y0066803D01*
X0355126Y0066017D02*
X0283718Y0066017D01*
X0283718Y0063659D02*
X0296229Y0063659D01*
X0295985Y0056586D02*
X0270364Y0056586D01*
X0270364Y0057372D02*
X0278697Y0057372D01*
X0277911Y0058158D02*
X0270364Y0058158D01*
X0270364Y0058943D02*
X0277558Y0058943D01*
X0277381Y0059729D02*
X0270364Y0059729D01*
X0270364Y0060515D02*
X0277381Y0060515D01*
X0277381Y0061301D02*
X0270364Y0061301D01*
X0270364Y0062087D02*
X0277381Y0062087D01*
X0277381Y0062873D02*
X0270364Y0062873D01*
X0270364Y0063659D02*
X0277381Y0063659D01*
X0277381Y0064445D02*
X0270364Y0064445D01*
X0270364Y0065231D02*
X0277381Y0065231D01*
X0277381Y0066017D02*
X0270364Y0066017D01*
X0270364Y0066803D02*
X0277381Y0066803D01*
X0277381Y0067589D02*
X0270364Y0067589D01*
X0270364Y0068374D02*
X0277381Y0068374D01*
X0277381Y0069160D02*
X0270364Y0069160D01*
X0270364Y0069946D02*
X0277381Y0069946D01*
X0277381Y0070732D02*
X0270364Y0070732D01*
X0270364Y0071518D02*
X0277381Y0071518D01*
X0277381Y0072304D02*
X0270364Y0072304D01*
X0270364Y0073090D02*
X0277381Y0073090D01*
X0277381Y0073876D02*
X0270364Y0073876D01*
X0270364Y0074662D02*
X0277381Y0074662D01*
X0283718Y0080949D02*
X0322913Y0080949D01*
X0322913Y0081735D02*
X0283718Y0081735D01*
X0283718Y0082521D02*
X0322913Y0082521D01*
X0322913Y0083307D02*
X0283718Y0083307D01*
X0283718Y0084093D02*
X0322913Y0084093D01*
X0322913Y0084879D02*
X0283718Y0084879D01*
X0283718Y0085665D02*
X0322913Y0085665D01*
X0322913Y0086450D02*
X0283718Y0086450D01*
X0283718Y0087236D02*
X0322913Y0087236D01*
X0322913Y0088022D02*
X0283718Y0088022D01*
X0283718Y0088808D02*
X0322913Y0088808D01*
X0322913Y0089594D02*
X0283718Y0089594D01*
X0283718Y0090380D02*
X0322913Y0090380D01*
X0322913Y0091166D02*
X0283718Y0091166D01*
X0283718Y0091952D02*
X0322913Y0091952D01*
X0322913Y0092738D02*
X0283718Y0092738D01*
X0283718Y0093524D02*
X0322913Y0093524D01*
X0322913Y0094310D02*
X0283718Y0094310D01*
X0283718Y0095095D02*
X0322913Y0095095D01*
X0322913Y0095881D02*
X0283718Y0095881D01*
X0283718Y0096667D02*
X0322913Y0096667D01*
X0322913Y0097453D02*
X0283718Y0097453D01*
X0283718Y0098239D02*
X0322913Y0098239D01*
X0322913Y0099025D02*
X0283718Y0099025D01*
X0283718Y0099811D02*
X0322913Y0099811D01*
X0322913Y0100597D02*
X0283718Y0100597D01*
X0283718Y0101383D02*
X0296188Y0101383D01*
X0296026Y0108456D02*
X0290668Y0108456D01*
X0290668Y0109242D02*
X0322954Y0109242D01*
X0322913Y0108456D02*
X0312005Y0108456D01*
X0312677Y0107670D02*
X0322913Y0107670D01*
X0322913Y0106884D02*
X0312677Y0106884D01*
X0312677Y0106098D02*
X0322913Y0106098D01*
X0322913Y0105312D02*
X0312677Y0105312D01*
X0312677Y0104526D02*
X0322913Y0104526D01*
X0322913Y0103741D02*
X0312677Y0103741D01*
X0312677Y0102955D02*
X0322913Y0102955D01*
X0322913Y0102169D02*
X0312630Y0102169D01*
X0311844Y0101383D02*
X0322913Y0101383D01*
X0323740Y0110028D02*
X0290668Y0110028D01*
X0284331Y0110028D02*
X0283718Y0110028D01*
X0283718Y0110814D02*
X0284331Y0110814D01*
X0284331Y0111600D02*
X0283718Y0111600D01*
X0283718Y0112386D02*
X0284331Y0112386D01*
X0284331Y0113171D02*
X0283718Y0113171D01*
X0283718Y0109242D02*
X0284331Y0109242D01*
X0284331Y0108456D02*
X0283718Y0108456D01*
X0283718Y0107670D02*
X0284331Y0107670D01*
X0284331Y0106884D02*
X0283718Y0106884D01*
X0283718Y0106098D02*
X0284331Y0106098D01*
X0284331Y0105312D02*
X0283718Y0105312D01*
X0283718Y0104526D02*
X0284331Y0104526D01*
X0284592Y0103741D02*
X0283718Y0103741D01*
X0283718Y0102955D02*
X0285064Y0102955D01*
X0286056Y0102169D02*
X0283718Y0102169D01*
X0290668Y0124960D02*
X0323752Y0124960D01*
X0322966Y0125746D02*
X0290668Y0125746D01*
X0290668Y0126532D02*
X0322913Y0126532D01*
X0322913Y0127318D02*
X0290487Y0127318D01*
X0290127Y0128104D02*
X0322913Y0128104D01*
X0322913Y0128890D02*
X0289341Y0128890D01*
X0286418Y0129676D02*
X0322913Y0129676D01*
X0322913Y0130462D02*
X0286418Y0130462D01*
X0286418Y0131247D02*
X0322913Y0131247D01*
X0322913Y0132033D02*
X0286418Y0132033D01*
X0286418Y0132819D02*
X0322913Y0132819D01*
X0322913Y0133605D02*
X0285979Y0133605D01*
X0279107Y0138321D02*
X0322913Y0138321D01*
X0322913Y0139107D02*
X0279518Y0139107D01*
X0279518Y0139892D02*
X0322913Y0139892D01*
X0322913Y0140678D02*
X0279518Y0140678D01*
X0279518Y0141464D02*
X0322913Y0141464D01*
X0322913Y0142250D02*
X0279518Y0142250D01*
X0279518Y0143036D02*
X0322913Y0143036D01*
X0322913Y0143822D02*
X0279518Y0143822D01*
X0279518Y0144608D02*
X0322913Y0144608D01*
X0322913Y0145394D02*
X0279518Y0145394D01*
X0279518Y0146180D02*
X0296391Y0146180D01*
X0295823Y0153253D02*
X0286418Y0153253D01*
X0286418Y0154039D02*
X0322913Y0154039D01*
X0322913Y0153253D02*
X0312208Y0153253D01*
X0312677Y0152467D02*
X0322913Y0152467D01*
X0322913Y0151681D02*
X0312677Y0151681D01*
X0312677Y0150895D02*
X0322913Y0150895D01*
X0322913Y0150109D02*
X0312677Y0150109D01*
X0312677Y0149323D02*
X0322913Y0149323D01*
X0322913Y0148538D02*
X0312677Y0148538D01*
X0312677Y0147752D02*
X0322913Y0147752D01*
X0322913Y0146966D02*
X0312427Y0146966D01*
X0311641Y0146180D02*
X0322913Y0146180D01*
X0322913Y0137535D02*
X0276918Y0137535D01*
X0276918Y0136749D02*
X0322913Y0136749D01*
X0322913Y0135963D02*
X0276918Y0135963D01*
X0276918Y0135177D02*
X0322913Y0135177D01*
X0322913Y0134391D02*
X0276918Y0134391D01*
X0286418Y0154825D02*
X0323537Y0154825D01*
X0270581Y0190191D02*
X0254596Y0190191D01*
X0254596Y0190977D02*
X0270581Y0190977D01*
X0270581Y0191763D02*
X0254596Y0191763D01*
X0254596Y0192549D02*
X0270581Y0192549D01*
X0270581Y0193335D02*
X0254596Y0193335D01*
X0254596Y0194120D02*
X0270581Y0194120D01*
X0270581Y0194906D02*
X0254596Y0194906D01*
X0254596Y0195692D02*
X0270581Y0195692D01*
X0270581Y0196478D02*
X0254596Y0196478D01*
X0254596Y0197264D02*
X0270581Y0197264D01*
X0270581Y0198050D02*
X0254596Y0198050D01*
X0254596Y0198836D02*
X0270581Y0198836D01*
X0270581Y0199622D02*
X0254596Y0199622D01*
X0254482Y0200408D02*
X0270581Y0200408D01*
X0270581Y0201194D02*
X0253696Y0201194D01*
X0270581Y0201980D02*
X0228818Y0201980D01*
X0228818Y0202766D02*
X0270581Y0202766D01*
X0270581Y0203551D02*
X0228818Y0203551D01*
X0228818Y0204337D02*
X0270581Y0204337D01*
X0270581Y0205123D02*
X0228818Y0205123D01*
X0228818Y0205909D02*
X0270581Y0205909D01*
X0270581Y0206695D02*
X0228818Y0206695D01*
X0228818Y0207481D02*
X0270581Y0207481D01*
X0270581Y0208267D02*
X0228818Y0208267D01*
X0228818Y0201194D02*
X0234197Y0201194D01*
X0233411Y0200408D02*
X0228818Y0200408D01*
X0228818Y0199622D02*
X0233297Y0199622D01*
X0233297Y0198836D02*
X0228818Y0198836D01*
X0228818Y0198050D02*
X0233297Y0198050D01*
X0233297Y0197264D02*
X0228818Y0197264D01*
X0228818Y0196478D02*
X0233297Y0196478D01*
X0233278Y0195692D02*
X0228818Y0195692D01*
X0228818Y0194906D02*
X0233278Y0194906D01*
X0233278Y0194120D02*
X0228818Y0194120D01*
X0228818Y0193335D02*
X0233278Y0193335D01*
X0233278Y0192549D02*
X0228818Y0192549D01*
X0228818Y0191763D02*
X0233278Y0191763D01*
X0233278Y0190977D02*
X0228818Y0190977D01*
X0228818Y0190191D02*
X0233278Y0190191D01*
X0228871Y0170543D02*
X0228818Y0170543D01*
X0218681Y0137535D02*
X0172568Y0137535D01*
X0172568Y0136749D02*
X0218681Y0136749D01*
X0218681Y0135963D02*
X0172568Y0135963D01*
X0172568Y0135177D02*
X0218681Y0135177D01*
X0218681Y0134391D02*
X0172568Y0134391D01*
X0172568Y0133605D02*
X0218681Y0133605D01*
X0218681Y0132819D02*
X0172568Y0132819D01*
X0172568Y0132033D02*
X0218681Y0132033D01*
X0218681Y0131247D02*
X0172568Y0131247D01*
X0172568Y0130462D02*
X0218681Y0130462D01*
X0218681Y0129676D02*
X0172568Y0129676D01*
X0172568Y0128890D02*
X0218681Y0128890D01*
X0218681Y0128104D02*
X0172568Y0128104D01*
X0172568Y0127318D02*
X0218681Y0127318D01*
X0218681Y0126532D02*
X0172568Y0126532D01*
X0172568Y0125746D02*
X0218681Y0125746D01*
X0218681Y0124960D02*
X0172568Y0124960D01*
X0172568Y0124174D02*
X0218681Y0124174D01*
X0218681Y0123388D02*
X0172568Y0123388D01*
X0172568Y0122602D02*
X0218681Y0122602D01*
X0218681Y0121816D02*
X0172568Y0121816D01*
X0172568Y0121031D02*
X0218681Y0121031D01*
X0218681Y0120245D02*
X0172568Y0120245D01*
X0172568Y0119459D02*
X0218681Y0119459D01*
X0218681Y0118673D02*
X0172568Y0118673D01*
X0172568Y0117887D02*
X0218681Y0117887D01*
X0218681Y0117101D02*
X0172568Y0117101D01*
X0172568Y0116315D02*
X0218681Y0116315D01*
X0218768Y0115529D02*
X0172568Y0115529D01*
X0172568Y0114743D02*
X0219124Y0114743D01*
X0220073Y0113957D02*
X0172568Y0113957D01*
X0164931Y0113957D02*
X0159055Y0113957D01*
X0159055Y0113171D02*
X0164931Y0113171D01*
X0164931Y0112386D02*
X0159055Y0112386D01*
X0159055Y0111600D02*
X0164931Y0111600D01*
X0164931Y0110814D02*
X0159055Y0110814D01*
X0159055Y0110028D02*
X0164931Y0110028D01*
X0164931Y0109242D02*
X0159055Y0109242D01*
X0159055Y0108456D02*
X0164931Y0108456D01*
X0164931Y0107670D02*
X0159055Y0107670D01*
X0159055Y0106884D02*
X0164931Y0106884D01*
X0164931Y0106098D02*
X0159055Y0106098D01*
X0159055Y0105312D02*
X0164931Y0105312D01*
X0164931Y0104526D02*
X0159055Y0104526D01*
X0159055Y0103741D02*
X0164931Y0103741D01*
X0165049Y0102955D02*
X0159055Y0102955D01*
X0159055Y0102169D02*
X0165449Y0102169D01*
X0166503Y0101383D02*
X0159055Y0101383D01*
X0159055Y0114743D02*
X0164931Y0114743D01*
X0164931Y0115529D02*
X0159055Y0115529D01*
X0159055Y0116315D02*
X0164931Y0116315D01*
X0164931Y0117101D02*
X0159055Y0117101D01*
X0159055Y0117887D02*
X0164931Y0117887D01*
X0164931Y0118673D02*
X0159055Y0118673D01*
X0159055Y0119459D02*
X0164931Y0119459D01*
X0164931Y0120245D02*
X0159055Y0120245D01*
X0159055Y0121031D02*
X0164931Y0121031D01*
X0164931Y0121816D02*
X0159055Y0121816D01*
X0159055Y0122602D02*
X0164931Y0122602D01*
X0164931Y0123388D02*
X0159055Y0123388D01*
X0159055Y0124174D02*
X0164931Y0124174D01*
X0164931Y0124960D02*
X0159055Y0124960D01*
X0159055Y0125746D02*
X0164931Y0125746D01*
X0164931Y0126532D02*
X0159055Y0126532D01*
X0117227Y0092738D02*
X0108168Y0092738D01*
X0108168Y0091952D02*
X0116442Y0091952D01*
X0116329Y0091166D02*
X0108168Y0091166D01*
X0108168Y0090380D02*
X0116329Y0090380D01*
X0116329Y0089594D02*
X0108168Y0089594D01*
X0108168Y0088808D02*
X0116329Y0088808D01*
X0116329Y0088022D02*
X0108168Y0088022D01*
X0108168Y0087236D02*
X0116329Y0087236D01*
X0116329Y0086450D02*
X0108168Y0086450D01*
X0108168Y0085665D02*
X0116329Y0085665D01*
X0116540Y0084879D02*
X0108168Y0084879D01*
X0108168Y0084093D02*
X0109852Y0084093D01*
X0109232Y0083307D02*
X0108168Y0083307D01*
X0108168Y0082521D02*
X0109232Y0082521D01*
X0109232Y0081735D02*
X0108168Y0081735D01*
X0108168Y0080949D02*
X0109232Y0080949D01*
X0109232Y0080163D02*
X0108168Y0080163D01*
X0108168Y0079377D02*
X0109232Y0079377D01*
X0109232Y0078591D02*
X0108168Y0078591D01*
X0108168Y0077805D02*
X0109232Y0077805D01*
X0109232Y0077019D02*
X0108168Y0077019D01*
X0101831Y0074662D02*
X0101318Y0074662D01*
X0101318Y0073876D02*
X0101831Y0073876D01*
X0101844Y0073090D02*
X0101318Y0073090D01*
X0101318Y0072304D02*
X0102169Y0072304D01*
X0102751Y0071518D02*
X0101318Y0071518D01*
X0101318Y0070732D02*
X0104006Y0070732D01*
X0101318Y0069946D02*
X0112612Y0069946D01*
X0114888Y0069946D02*
X0127431Y0069946D01*
X0127431Y0069160D02*
X0101318Y0069160D01*
X0101318Y0068374D02*
X0127431Y0068374D01*
X0127431Y0067589D02*
X0101318Y0067589D01*
X0101318Y0066803D02*
X0127431Y0066803D01*
X0127431Y0066017D02*
X0101318Y0066017D01*
X0101318Y0065231D02*
X0127431Y0065231D01*
X0127431Y0064445D02*
X0101318Y0064445D01*
X0101318Y0063659D02*
X0127431Y0063659D01*
X0127431Y0062873D02*
X0101318Y0062873D01*
X0101318Y0062087D02*
X0127431Y0062087D01*
X0127431Y0061301D02*
X0101318Y0061301D01*
X0101318Y0060515D02*
X0127431Y0060515D01*
X0127431Y0059729D02*
X0101318Y0059729D01*
X0101318Y0058943D02*
X0127431Y0058943D01*
X0127431Y0058158D02*
X0101318Y0058158D01*
X0101318Y0057372D02*
X0127431Y0057372D01*
X0127431Y0056586D02*
X0101318Y0056586D01*
X0101318Y0055800D02*
X0127431Y0055800D01*
X0127431Y0055014D02*
X0101318Y0055014D01*
X0101318Y0054228D02*
X0127431Y0054228D01*
X0127431Y0053442D02*
X0101318Y0053442D01*
X0101318Y0052656D02*
X0127431Y0052656D01*
X0127431Y0051870D02*
X0101318Y0051870D01*
X0101318Y0051084D02*
X0127431Y0051084D01*
X0127431Y0050298D02*
X0101318Y0050298D01*
X0101318Y0049513D02*
X0113626Y0049513D01*
X0113173Y0048727D02*
X0101318Y0048727D01*
X0101318Y0047941D02*
X0113173Y0047941D01*
X0122594Y0049513D02*
X0127431Y0049513D01*
X0127431Y0048727D02*
X0123047Y0048727D01*
X0123047Y0047941D02*
X0127431Y0047941D01*
X0127431Y0047155D02*
X0123047Y0047155D01*
X0123047Y0046369D02*
X0127431Y0046369D01*
X0127431Y0045583D02*
X0123047Y0045583D01*
X0123047Y0044797D02*
X0127431Y0044797D01*
X0127431Y0044011D02*
X0123047Y0044011D01*
X0123047Y0043225D02*
X0127431Y0043225D01*
X0127431Y0042439D02*
X0123047Y0042439D01*
X0123047Y0041653D02*
X0127431Y0041653D01*
X0127431Y0040867D02*
X0122423Y0040867D01*
X0127431Y0040082D02*
X0000000Y0040082D01*
X0000000Y0040867D02*
X0056711Y0040867D01*
X0056087Y0041653D02*
X0000000Y0041653D01*
X0000000Y0042439D02*
X0056087Y0042439D01*
X0056087Y0043225D02*
X0000000Y0043225D01*
X0000000Y0044011D02*
X0056087Y0044011D01*
X0056087Y0044797D02*
X0000000Y0044797D01*
X0000000Y0045583D02*
X0056087Y0045583D01*
X0056087Y0046369D02*
X0000000Y0046369D01*
X0000000Y0047155D02*
X0056087Y0047155D01*
X0056087Y0047941D02*
X0000000Y0047941D01*
X0000000Y0048727D02*
X0056087Y0048727D01*
X0056540Y0049513D02*
X0000000Y0049513D01*
X0000000Y0050298D02*
X0066181Y0050298D01*
X0066181Y0049513D02*
X0065508Y0049513D01*
X0065961Y0048727D02*
X0066181Y0048727D01*
X0066181Y0047941D02*
X0065961Y0047941D01*
X0066181Y0051084D02*
X0000000Y0051084D01*
X0000000Y0051870D02*
X0066181Y0051870D01*
X0066181Y0052656D02*
X0000000Y0052656D01*
X0000000Y0053442D02*
X0066181Y0053442D01*
X0066181Y0054228D02*
X0000000Y0054228D01*
X0000000Y0055014D02*
X0066181Y0055014D01*
X0066181Y0055800D02*
X0000000Y0055800D01*
X0000000Y0056586D02*
X0066181Y0056586D01*
X0066181Y0057372D02*
X0000000Y0057372D01*
X0000000Y0058158D02*
X0066181Y0058158D01*
X0066181Y0058943D02*
X0000000Y0058943D01*
X0000000Y0059729D02*
X0066181Y0059729D01*
X0066181Y0060515D02*
X0000000Y0060515D01*
X0000000Y0061301D02*
X0066181Y0061301D01*
X0066181Y0062087D02*
X0000000Y0062087D01*
X0000000Y0062873D02*
X0066181Y0062873D01*
X0066181Y0063659D02*
X0000000Y0063659D01*
X0000000Y0064445D02*
X0066181Y0064445D01*
X0066181Y0065231D02*
X0000000Y0065231D01*
X0000000Y0066017D02*
X0066181Y0066017D01*
X0066181Y0066803D02*
X0000000Y0066803D01*
X0000000Y0067589D02*
X0066181Y0067589D01*
X0066181Y0068374D02*
X0000000Y0068374D01*
X0000000Y0069160D02*
X0066181Y0069160D01*
X0066181Y0069946D02*
X0053638Y0069946D01*
X0055068Y0070732D02*
X0066181Y0070732D01*
X0066181Y0071518D02*
X0055851Y0071518D01*
X0056176Y0072304D02*
X0066181Y0072304D01*
X0066181Y0073090D02*
X0056450Y0073090D01*
X0056450Y0073876D02*
X0066181Y0073876D01*
X0066181Y0074662D02*
X0056397Y0074662D01*
X0051362Y0069946D02*
X0000000Y0069946D01*
X0000000Y0070732D02*
X0049932Y0070732D01*
X0049149Y0071518D02*
X0000000Y0071518D01*
X0000000Y0072304D02*
X0048824Y0072304D01*
X0048550Y0073090D02*
X0000000Y0073090D01*
X0000000Y0073876D02*
X0048550Y0073876D01*
X0048603Y0074662D02*
X0000000Y0074662D01*
X0000000Y0075448D02*
X0048766Y0075448D01*
X0047982Y0076234D02*
X0000000Y0076234D01*
X0000000Y0077019D02*
X0047982Y0077019D01*
X0047982Y0077805D02*
X0000000Y0077805D01*
X0000000Y0078591D02*
X0047982Y0078591D01*
X0047982Y0079377D02*
X0000000Y0079377D01*
X0000000Y0080163D02*
X0047982Y0080163D01*
X0047982Y0080949D02*
X0000000Y0080949D01*
X0000000Y0081735D02*
X0047982Y0081735D01*
X0047982Y0082521D02*
X0000000Y0082521D01*
X0000000Y0083307D02*
X0047982Y0083307D01*
X0048307Y0084093D02*
X0000000Y0084093D01*
X0000000Y0084879D02*
X0049093Y0084879D01*
X0055079Y0085665D02*
X0000000Y0085665D01*
X0000000Y0086450D02*
X0055079Y0086450D01*
X0055079Y0087236D02*
X0000000Y0087236D01*
X0000000Y0088022D02*
X0055079Y0088022D01*
X0055079Y0088808D02*
X0000000Y0088808D01*
X0000000Y0089594D02*
X0055079Y0089594D01*
X0055079Y0090380D02*
X0000000Y0090380D01*
X0000000Y0091166D02*
X0055079Y0091166D01*
X0055079Y0091952D02*
X0000000Y0091952D01*
X0000000Y0092738D02*
X0055682Y0092738D01*
X0064318Y0092738D02*
X0066181Y0092738D01*
X0066181Y0093524D02*
X0000000Y0093524D01*
X0000000Y0094310D02*
X0066181Y0094310D01*
X0066181Y0095095D02*
X0000000Y0095095D01*
X0000000Y0095881D02*
X0066181Y0095881D01*
X0066181Y0096667D02*
X0000000Y0096667D01*
X0000000Y0097453D02*
X0066181Y0097453D01*
X0066181Y0098239D02*
X0000000Y0098239D01*
X0000000Y0099025D02*
X0066181Y0099025D01*
X0066181Y0099811D02*
X0000000Y0099811D01*
X0000000Y0100597D02*
X0066181Y0100597D01*
X0066181Y0101383D02*
X0000000Y0101383D01*
X0000000Y0102169D02*
X0066181Y0102169D01*
X0066181Y0102955D02*
X0000000Y0102955D01*
X0000000Y0103741D02*
X0066181Y0103741D01*
X0066181Y0104526D02*
X0000000Y0104526D01*
X0000000Y0105312D02*
X0066181Y0105312D01*
X0066181Y0106098D02*
X0000000Y0106098D01*
X0000000Y0106884D02*
X0066181Y0106884D01*
X0066181Y0107670D02*
X0000000Y0107670D01*
X0000000Y0108456D02*
X0066181Y0108456D01*
X0066181Y0109242D02*
X0000000Y0109242D01*
X0000000Y0110028D02*
X0066181Y0110028D01*
X0066181Y0110814D02*
X0000000Y0110814D01*
X0000000Y0111600D02*
X0066181Y0111600D01*
X0066181Y0112386D02*
X0000000Y0112386D01*
X0000000Y0113171D02*
X0066181Y0113171D01*
X0066181Y0113957D02*
X0000000Y0113957D01*
X0000000Y0114743D02*
X0066181Y0114743D01*
X0066181Y0115529D02*
X0000000Y0115529D01*
X0000000Y0116315D02*
X0066181Y0116315D01*
X0066181Y0117101D02*
X0000000Y0117101D01*
X0000000Y0117887D02*
X0066181Y0117887D01*
X0066181Y0118673D02*
X0000000Y0118673D01*
X0000000Y0119459D02*
X0066181Y0119459D01*
X0066181Y0120245D02*
X0000000Y0120245D01*
X0000000Y0121031D02*
X0066181Y0121031D01*
X0066181Y0121816D02*
X0000000Y0121816D01*
X0000000Y0122602D02*
X0066181Y0122602D01*
X0066181Y0123388D02*
X0000000Y0123388D01*
X0000000Y0124174D02*
X0066181Y0124174D01*
X0066181Y0124960D02*
X0000000Y0124960D01*
X0000000Y0125746D02*
X0066181Y0125746D01*
X0066181Y0126532D02*
X0000000Y0126532D01*
X0000000Y0127318D02*
X0066181Y0127318D01*
X0066181Y0128104D02*
X0000000Y0128104D01*
X0000000Y0128890D02*
X0066181Y0128890D01*
X0066181Y0129676D02*
X0000000Y0129676D01*
X0000000Y0130462D02*
X0066181Y0130462D01*
X0066181Y0131247D02*
X0000000Y0131247D01*
X0000000Y0132033D02*
X0066181Y0132033D01*
X0066181Y0132819D02*
X0000000Y0132819D01*
X0000000Y0133605D02*
X0066181Y0133605D01*
X0066181Y0134391D02*
X0000000Y0134391D01*
X0000000Y0135177D02*
X0066181Y0135177D01*
X0066181Y0135963D02*
X0000000Y0135963D01*
X0000000Y0136749D02*
X0066181Y0136749D01*
X0066181Y0137535D02*
X0000000Y0137535D01*
X0000000Y0138321D02*
X0066310Y0138321D01*
X0066724Y0139107D02*
X0000000Y0139107D01*
X0000000Y0139892D02*
X0067814Y0139892D01*
X0071318Y0134391D02*
X0096181Y0134391D01*
X0096181Y0133605D02*
X0071318Y0133605D01*
X0071318Y0132819D02*
X0096181Y0132819D01*
X0096181Y0132033D02*
X0071318Y0132033D01*
X0071318Y0131247D02*
X0096181Y0131247D01*
X0096181Y0130462D02*
X0071318Y0130462D01*
X0071318Y0129676D02*
X0096181Y0129676D01*
X0096181Y0128890D02*
X0071318Y0128890D01*
X0071318Y0128104D02*
X0096181Y0128104D01*
X0096181Y0127318D02*
X0071318Y0127318D01*
X0071318Y0126532D02*
X0096181Y0126532D01*
X0096181Y0125746D02*
X0071318Y0125746D01*
X0071318Y0124960D02*
X0096181Y0124960D01*
X0096181Y0124174D02*
X0071318Y0124174D01*
X0071318Y0123388D02*
X0096181Y0123388D01*
X0096181Y0122602D02*
X0071318Y0122602D01*
X0071318Y0121816D02*
X0096181Y0121816D01*
X0096181Y0121031D02*
X0071318Y0121031D01*
X0071318Y0120245D02*
X0096181Y0120245D01*
X0096181Y0119459D02*
X0071318Y0119459D01*
X0071318Y0118673D02*
X0096181Y0118673D01*
X0096181Y0117887D02*
X0071318Y0117887D01*
X0071318Y0117101D02*
X0096181Y0117101D01*
X0096181Y0116315D02*
X0071318Y0116315D01*
X0071318Y0115529D02*
X0096181Y0115529D01*
X0096181Y0114743D02*
X0071318Y0114743D01*
X0071318Y0113957D02*
X0096181Y0113957D01*
X0096181Y0113171D02*
X0071318Y0113171D01*
X0071318Y0112386D02*
X0096181Y0112386D01*
X0096181Y0111600D02*
X0071318Y0111600D01*
X0071318Y0110814D02*
X0096181Y0110814D01*
X0096181Y0110028D02*
X0071318Y0110028D01*
X0071318Y0109242D02*
X0096181Y0109242D01*
X0096181Y0108456D02*
X0071318Y0108456D01*
X0071318Y0107670D02*
X0096181Y0107670D01*
X0096181Y0106884D02*
X0071318Y0106884D01*
X0071318Y0106098D02*
X0096181Y0106098D01*
X0096181Y0105312D02*
X0071318Y0105312D01*
X0071318Y0104526D02*
X0096181Y0104526D01*
X0096181Y0103741D02*
X0071318Y0103741D01*
X0071318Y0102955D02*
X0096181Y0102955D01*
X0096181Y0102169D02*
X0071318Y0102169D01*
X0071318Y0101383D02*
X0096181Y0101383D01*
X0096181Y0100597D02*
X0071318Y0100597D01*
X0071318Y0099811D02*
X0096181Y0099811D01*
X0096181Y0099025D02*
X0071318Y0099025D01*
X0071318Y0098239D02*
X0096181Y0098239D01*
X0096181Y0097453D02*
X0071318Y0097453D01*
X0071318Y0096667D02*
X0096181Y0096667D01*
X0096181Y0095881D02*
X0071318Y0095881D01*
X0071318Y0095095D02*
X0096181Y0095095D01*
X0096181Y0094310D02*
X0071318Y0094310D01*
X0071318Y0093524D02*
X0096181Y0093524D01*
X0096181Y0092738D02*
X0094023Y0092738D01*
X0094808Y0091952D02*
X0096181Y0091952D01*
X0085977Y0092738D02*
X0071318Y0092738D01*
X0072584Y0091952D02*
X0085192Y0091952D01*
X0085079Y0091166D02*
X0073370Y0091166D01*
X0073671Y0090380D02*
X0085079Y0090380D01*
X0085079Y0089594D02*
X0073671Y0089594D01*
X0073671Y0088808D02*
X0085079Y0088808D01*
X0085079Y0088022D02*
X0073671Y0088022D01*
X0073671Y0087236D02*
X0085079Y0087236D01*
X0085079Y0086450D02*
X0073671Y0086450D01*
X0073671Y0085665D02*
X0085079Y0085665D01*
X0085290Y0084879D02*
X0073671Y0084879D01*
X0073648Y0084093D02*
X0078602Y0084093D01*
X0077982Y0083307D02*
X0073671Y0083307D01*
X0073671Y0082521D02*
X0077982Y0082521D01*
X0077982Y0081735D02*
X0073671Y0081735D01*
X0073671Y0080949D02*
X0077982Y0080949D01*
X0077982Y0080163D02*
X0073671Y0080163D01*
X0073671Y0079377D02*
X0077982Y0079377D01*
X0077982Y0078591D02*
X0073671Y0078591D01*
X0073671Y0077805D02*
X0077982Y0077805D01*
X0077982Y0077019D02*
X0073671Y0077019D01*
X0073269Y0076234D02*
X0077982Y0076234D01*
X0078471Y0075448D02*
X0071318Y0075448D01*
X0071318Y0074662D02*
X0078603Y0074662D01*
X0078550Y0073876D02*
X0071318Y0073876D01*
X0071318Y0073090D02*
X0078550Y0073090D01*
X0078824Y0072304D02*
X0071318Y0072304D01*
X0071318Y0071518D02*
X0079149Y0071518D01*
X0079932Y0070732D02*
X0071318Y0070732D01*
X0071318Y0069946D02*
X0081362Y0069946D01*
X0083638Y0069946D02*
X0096181Y0069946D01*
X0096181Y0069160D02*
X0071318Y0069160D01*
X0071318Y0068374D02*
X0096181Y0068374D01*
X0096181Y0067589D02*
X0071318Y0067589D01*
X0071318Y0066803D02*
X0096181Y0066803D01*
X0096181Y0066017D02*
X0071318Y0066017D01*
X0071318Y0065231D02*
X0096181Y0065231D01*
X0096181Y0064445D02*
X0071318Y0064445D01*
X0071318Y0063659D02*
X0096181Y0063659D01*
X0096181Y0062873D02*
X0071318Y0062873D01*
X0071318Y0062087D02*
X0096181Y0062087D01*
X0096181Y0061301D02*
X0071318Y0061301D01*
X0071318Y0060515D02*
X0096181Y0060515D01*
X0096181Y0059729D02*
X0071318Y0059729D01*
X0071318Y0058943D02*
X0096181Y0058943D01*
X0096181Y0058158D02*
X0071318Y0058158D01*
X0071318Y0057372D02*
X0096181Y0057372D01*
X0096181Y0056586D02*
X0071318Y0056586D01*
X0071318Y0055800D02*
X0096181Y0055800D01*
X0096181Y0055014D02*
X0071318Y0055014D01*
X0071318Y0054228D02*
X0096181Y0054228D01*
X0096181Y0053442D02*
X0071318Y0053442D01*
X0071318Y0052656D02*
X0096181Y0052656D01*
X0096181Y0051870D02*
X0071318Y0051870D01*
X0071318Y0051084D02*
X0096181Y0051084D01*
X0096181Y0050298D02*
X0071318Y0050298D01*
X0071318Y0049513D02*
X0096181Y0049513D01*
X0096181Y0048727D02*
X0071318Y0048727D01*
X0071318Y0047941D02*
X0096181Y0047941D01*
X0096181Y0047155D02*
X0071318Y0047155D01*
X0071318Y0046369D02*
X0096181Y0046369D01*
X0096181Y0045583D02*
X0071318Y0045583D01*
X0071318Y0044797D02*
X0096181Y0044797D01*
X0096494Y0044011D02*
X0071006Y0044011D01*
X0070332Y0043225D02*
X0097168Y0043225D01*
X0113173Y0042439D02*
X0065961Y0042439D01*
X0065961Y0041653D02*
X0113173Y0041653D01*
X0113797Y0040867D02*
X0065336Y0040867D01*
X0085068Y0070732D02*
X0096181Y0070732D01*
X0096181Y0071518D02*
X0085851Y0071518D01*
X0086176Y0072304D02*
X0096181Y0072304D01*
X0096181Y0073090D02*
X0086450Y0073090D01*
X0086450Y0073876D02*
X0096181Y0073876D01*
X0096181Y0074662D02*
X0086397Y0074662D01*
X0094029Y0075448D02*
X0094721Y0075448D01*
X0116318Y0070732D02*
X0127431Y0070732D01*
X0127431Y0071518D02*
X0117101Y0071518D01*
X0117426Y0072304D02*
X0127431Y0072304D01*
X0127431Y0073090D02*
X0117700Y0073090D01*
X0117700Y0073876D02*
X0127431Y0073876D01*
X0127431Y0074662D02*
X0117647Y0074662D01*
X0125279Y0075448D02*
X0125971Y0075448D01*
X0127431Y0039296D02*
X0000000Y0039296D01*
X0000000Y0038510D02*
X0127431Y0038510D01*
X0127431Y0037724D02*
X0000000Y0037724D01*
X0000000Y0036938D02*
X0127431Y0036938D01*
X0127431Y0036152D02*
X0000000Y0036152D01*
X0000000Y0035366D02*
X0127431Y0035366D01*
X0127431Y0034580D02*
X0000000Y0034580D01*
X0000000Y0033794D02*
X0127431Y0033794D01*
X0127431Y0033008D02*
X0000000Y0033008D01*
X0000000Y0032222D02*
X0127431Y0032222D01*
X0127431Y0031437D02*
X0000000Y0031437D01*
X0000000Y0030651D02*
X0127431Y0030651D01*
X0127431Y0029865D02*
X0122557Y0029865D01*
X0123047Y0029079D02*
X0127431Y0029079D01*
X0127431Y0028293D02*
X0123047Y0028293D01*
X0123047Y0022791D02*
X0250969Y0022791D01*
X0250969Y0022006D02*
X0123047Y0022006D01*
X0122460Y0021220D02*
X0251556Y0021220D01*
X0250969Y0023577D02*
X0131619Y0023577D01*
X0132272Y0024363D02*
X0250969Y0024363D01*
X0250969Y0025149D02*
X0132568Y0025149D01*
X0132568Y0025935D02*
X0250969Y0025935D01*
X0250969Y0026721D02*
X0132568Y0026721D01*
X0132568Y0027507D02*
X0250969Y0027507D01*
X0250969Y0028293D02*
X0132568Y0028293D01*
X0132568Y0029079D02*
X0250969Y0029079D01*
X0251459Y0029865D02*
X0132568Y0029865D01*
X0113663Y0029865D02*
X0000000Y0029865D01*
X0000000Y0029079D02*
X0113173Y0029079D01*
X0113173Y0028293D02*
X0000000Y0028293D01*
X0000000Y0027507D02*
X0113173Y0027507D01*
X0113173Y0026721D02*
X0000000Y0026721D01*
X0000000Y0025935D02*
X0113173Y0025935D01*
X0113173Y0025149D02*
X0000000Y0025149D01*
X0000000Y0024363D02*
X0113173Y0024363D01*
X0113173Y0023577D02*
X0000000Y0023577D01*
X0000000Y0022791D02*
X0113173Y0022791D01*
X0113173Y0022006D02*
X0000000Y0022006D01*
X0000000Y0021220D02*
X0113760Y0021220D01*
X0066181Y0075448D02*
X0063733Y0075448D01*
X0202779Y0075448D02*
X0203471Y0075448D01*
X0105233Y0176830D02*
X0000000Y0176830D01*
X0079410Y0218484D02*
X0101181Y0218484D01*
X0101181Y0217698D02*
X0080388Y0217698D01*
X0120956Y0230272D02*
X0121544Y0230272D01*
X0125956Y0230272D02*
X0126544Y0230272D01*
X0141147Y0220056D02*
X0141353Y0220056D01*
X0146147Y0220056D02*
X0146353Y0220056D01*
X0151147Y0220056D02*
X0151353Y0220056D01*
X0156147Y0220056D02*
X0156353Y0220056D01*
X0161147Y0220056D02*
X0161353Y0220056D01*
X0166147Y0220056D02*
X0166181Y0220056D01*
X0171318Y0218484D02*
X0191840Y0218484D01*
X0190862Y0217698D02*
X0171318Y0217698D01*
X0171932Y0220842D02*
X0221181Y0220842D01*
X0221181Y0221627D02*
X0171998Y0221627D01*
X0171998Y0222413D02*
X0221181Y0222413D01*
X0221181Y0223199D02*
X0171998Y0223199D01*
X0171998Y0223985D02*
X0221181Y0223985D01*
X0221181Y0224771D02*
X0171998Y0224771D01*
X0171998Y0225557D02*
X0221181Y0225557D01*
X0221181Y0226343D02*
X0171998Y0226343D01*
X0171998Y0227129D02*
X0221181Y0227129D01*
X0221181Y0227915D02*
X0171998Y0227915D01*
X0166346Y0240489D02*
X0205945Y0240489D01*
X0205945Y0241275D02*
X0164957Y0241275D01*
X0162544Y0241275D02*
X0160615Y0241275D01*
X0205945Y0242061D02*
X0000000Y0242061D01*
X0000000Y0242847D02*
X0206461Y0242847D01*
X0215271Y0242847D02*
X0215679Y0242847D01*
X0216410Y0243633D02*
X0000000Y0243633D01*
X0000000Y0244419D02*
X0413386Y0244419D01*
X0413386Y0245205D02*
X0000000Y0245205D01*
X0000000Y0245991D02*
X0413386Y0245991D01*
X0413386Y0246777D02*
X0000000Y0246777D01*
X0000000Y0247563D02*
X0413386Y0247563D01*
X0413361Y0248348D02*
X0000025Y0248348D01*
X0000087Y0249134D02*
X0413299Y0249134D01*
X0413131Y0249920D02*
X0000255Y0249920D01*
X0000485Y0250706D02*
X0412900Y0250706D01*
X0412575Y0251492D02*
X0000811Y0251492D01*
X0001270Y0252278D02*
X0412116Y0252278D01*
X0411537Y0253064D02*
X0001849Y0253064D01*
X0002600Y0253850D02*
X0410786Y0253850D01*
X0409758Y0254636D02*
X0003628Y0254636D01*
X0005203Y0255422D02*
X0408183Y0255422D01*
X0337472Y0242847D02*
X0263906Y0242847D01*
X0264920Y0242061D02*
X0336436Y0242061D01*
X0335650Y0241275D02*
X0265401Y0241275D01*
X0265668Y0240489D02*
X0335282Y0240489D01*
X0334957Y0239703D02*
X0265668Y0239703D01*
X0265668Y0238918D02*
X0334783Y0238918D01*
X0334783Y0238132D02*
X0265668Y0238132D01*
X0265668Y0237346D02*
X0334783Y0237346D01*
X0334783Y0236560D02*
X0265668Y0236560D01*
X0265668Y0235774D02*
X0334783Y0235774D01*
X0334783Y0234988D02*
X0265668Y0234988D01*
X0265668Y0234202D02*
X0334783Y0234202D01*
X0334783Y0233416D02*
X0265668Y0233416D01*
X0265668Y0232630D02*
X0334783Y0232630D01*
X0334783Y0231844D02*
X0265668Y0231844D01*
X0265668Y0231058D02*
X0334783Y0231058D01*
X0334966Y0230272D02*
X0265668Y0230272D01*
X0265668Y0229487D02*
X0335292Y0229487D01*
X0335674Y0228701D02*
X0265668Y0228701D01*
X0265668Y0227915D02*
X0336460Y0227915D01*
X0336831Y0227129D02*
X0265668Y0227129D01*
X0265668Y0226343D02*
X0336831Y0226343D01*
X0336831Y0225557D02*
X0265668Y0225557D01*
X0265668Y0224771D02*
X0336831Y0224771D01*
X0336831Y0223985D02*
X0265668Y0223985D01*
X0265668Y0223199D02*
X0336831Y0223199D01*
X0249159Y0221627D02*
X0240081Y0221627D01*
X0221181Y0209839D02*
X0210438Y0209839D01*
X0397594Y0124174D02*
X0413386Y0124174D01*
X0413386Y0123388D02*
X0399491Y0123388D01*
X0400788Y0122602D02*
X0413386Y0122602D01*
X0413386Y0121816D02*
X0401574Y0121816D01*
X0402360Y0121031D02*
X0413386Y0121031D01*
X0413386Y0120245D02*
X0403076Y0120245D01*
X0403706Y0119459D02*
X0413386Y0119459D01*
X0413386Y0118673D02*
X0404492Y0118673D01*
X0404889Y0117887D02*
X0413386Y0117887D01*
X0413386Y0117101D02*
X0405215Y0117101D01*
X0405540Y0116315D02*
X0413386Y0116315D01*
X0413386Y0115529D02*
X0405568Y0115529D01*
X0405568Y0114743D02*
X0413386Y0114743D01*
X0413386Y0113957D02*
X0405568Y0113957D01*
X0405328Y0113171D02*
X0413386Y0113171D01*
X0413386Y0112386D02*
X0405002Y0112386D01*
X0404676Y0111600D02*
X0413386Y0111600D01*
X0413386Y0110814D02*
X0403979Y0110814D01*
X0403193Y0110028D02*
X0413386Y0110028D01*
X0413386Y0109242D02*
X0402632Y0109242D01*
X0401846Y0108456D02*
X0413386Y0108456D01*
X0413386Y0107670D02*
X0401061Y0107670D01*
X0400149Y0106884D02*
X0413386Y0106884D01*
X0413386Y0106098D02*
X0398252Y0106098D01*
X0398641Y0103741D02*
X0413386Y0103741D01*
X0413386Y0102955D02*
X0400436Y0102955D01*
X0401222Y0102169D02*
X0413386Y0102169D01*
X0413386Y0101383D02*
X0402008Y0101383D01*
X0402794Y0100597D02*
X0413386Y0100597D01*
X0413386Y0099811D02*
X0403354Y0099811D01*
X0404140Y0099025D02*
X0413386Y0099025D01*
X0413386Y0098239D02*
X0404743Y0098239D01*
X0405069Y0097453D02*
X0413386Y0097453D01*
X0413386Y0096667D02*
X0405394Y0096667D01*
X0405568Y0095881D02*
X0413386Y0095881D01*
X0413386Y0095095D02*
X0405568Y0095095D01*
X0405568Y0094310D02*
X0413386Y0094310D01*
X0413386Y0093524D02*
X0405473Y0093524D01*
X0405148Y0092738D02*
X0413386Y0092738D01*
X0413386Y0091952D02*
X0404822Y0091952D01*
X0404331Y0091166D02*
X0413386Y0091166D01*
X0413386Y0090380D02*
X0403545Y0090380D01*
X0402985Y0089594D02*
X0413386Y0089594D01*
X0413386Y0088808D02*
X0402199Y0088808D01*
X0401413Y0088022D02*
X0413386Y0088022D01*
X0413386Y0087236D02*
X0400627Y0087236D01*
X0399102Y0086450D02*
X0413386Y0086450D01*
D29*
X0372500Y0092500D03*
X0372500Y0097500D03*
X0372500Y0112500D03*
X0372500Y0117500D03*
X0372500Y0075000D03*
X0372500Y0070000D03*
X0305000Y0050000D03*
X0251250Y0073750D03*
X0221250Y0073750D03*
X0191250Y0073750D03*
X0123750Y0110000D03*
X0122500Y0131250D03*
X0122500Y0141250D03*
X0162500Y0162500D03*
X0167500Y0177500D03*
X0193750Y0185000D03*
X0193750Y0195000D03*
X0193750Y0205000D03*
X0193750Y0215000D03*
X0193750Y0225000D03*
X0163750Y0237500D03*
X0153750Y0232500D03*
X0121250Y0233750D03*
X0077500Y0215000D03*
X0077500Y0205000D03*
X0077500Y0195000D03*
X0077500Y0185000D03*
X0108750Y0175000D03*
X0113750Y0180000D03*
X0122500Y0170000D03*
X0136250Y0172500D03*
X0231250Y0173750D03*
X0305000Y0197500D03*
X0340000Y0220000D03*
X0305000Y0235000D03*
X0305000Y0140000D03*
X0305000Y0095000D03*
X0113750Y0073750D03*
X0082500Y0073750D03*
X0052500Y0073750D03*
D30*
X0343780Y0095000D02*
X0395000Y0095000D01*
X0395000Y0115000D02*
X0377500Y0115000D01*
X0352500Y0140000D01*
X0343780Y0140000D01*
X0377500Y0075000D02*
X0395000Y0075000D01*
X0377500Y0075000D02*
X0372500Y0070000D01*
X0352500Y0050000D01*
X0343780Y0050000D01*
D31*
X0267795Y0025591D02*
X0267795Y0080010D01*
X0258740Y0080010D01*
X0258740Y0080295D01*
X0258750Y0087490D02*
X0258750Y0088760D01*
X0252500Y0088760D01*
X0252500Y0106250D01*
X0170000Y0106250D01*
X0170000Y0143750D01*
X0162500Y0143750D01*
X0162500Y0151250D01*
X0156486Y0151250D01*
X0156486Y0146250D02*
X0150000Y0146250D01*
X0150000Y0180000D01*
X0153750Y0180000D01*
X0153750Y0187431D01*
X0148750Y0187431D02*
X0148750Y0182500D01*
X0147500Y0182500D01*
X0147500Y0136250D01*
X0156486Y0136250D01*
X0156486Y0141250D02*
X0167500Y0141250D01*
X0167500Y0103750D01*
X0223750Y0103750D01*
X0223750Y0088760D01*
X0229045Y0088760D01*
X0229045Y0087490D01*
X0237795Y0087490D01*
X0237795Y0080010D02*
X0229035Y0080010D01*
X0229035Y0080000D01*
X0237795Y0080010D02*
X0237795Y0045276D01*
X0255906Y0045276D01*
X0255906Y0025591D02*
X0267795Y0025591D01*
X0207500Y0045276D02*
X0207500Y0079715D01*
X0207500Y0079705D01*
X0198740Y0079705D01*
X0198750Y0087195D02*
X0198750Y0088465D01*
X0156486Y0088465D01*
X0156486Y0131250D01*
X0143750Y0136250D02*
X0143750Y0087500D01*
X0130000Y0087500D01*
X0130000Y0087195D01*
X0121250Y0087195D01*
X0121250Y0088465D01*
X0121240Y0079715D02*
X0121240Y0079705D01*
X0121240Y0079715D02*
X0130000Y0079715D01*
X0130000Y0025591D01*
X0118110Y0025591D01*
X0118110Y0045276D02*
X0098750Y0045276D01*
X0098750Y0079715D01*
X0089990Y0079715D01*
X0089990Y0079705D01*
X0090000Y0087195D02*
X0090000Y0088465D01*
X0090000Y0087195D02*
X0098750Y0087195D01*
X0098750Y0135000D01*
X0128750Y0135000D01*
X0128750Y0146250D01*
X0136014Y0146250D01*
X0136014Y0141250D02*
X0145000Y0141250D01*
X0145000Y0182500D01*
X0143750Y0182500D01*
X0143750Y0187431D01*
X0138750Y0187431D02*
X0138750Y0180000D01*
X0142500Y0180000D01*
X0142500Y0151250D01*
X0136014Y0151250D01*
X0136014Y0156250D02*
X0126250Y0156250D01*
X0126250Y0137500D01*
X0068750Y0137500D01*
X0068750Y0087490D01*
X0061270Y0087490D01*
X0061201Y0087492D01*
X0061133Y0087497D01*
X0061065Y0087507D01*
X0060997Y0087520D01*
X0060930Y0087536D01*
X0060864Y0087556D01*
X0060800Y0087580D01*
X0060737Y0087607D01*
X0060675Y0087638D01*
X0060615Y0087672D01*
X0060557Y0087709D01*
X0060501Y0087749D01*
X0060448Y0087792D01*
X0060397Y0087838D01*
X0060348Y0087887D01*
X0060302Y0087938D01*
X0060259Y0087991D01*
X0060219Y0088047D01*
X0060182Y0088105D01*
X0060148Y0088165D01*
X0060117Y0088227D01*
X0060090Y0088290D01*
X0060066Y0088354D01*
X0060046Y0088420D01*
X0060030Y0088487D01*
X0060017Y0088555D01*
X0060007Y0088623D01*
X0060002Y0088691D01*
X0060000Y0088760D01*
X0060000Y0080010D02*
X0068750Y0080010D01*
X0068750Y0045276D01*
X0061024Y0045276D01*
X0059990Y0080000D02*
X0059991Y0080005D01*
X0059995Y0080009D01*
X0060000Y0080010D01*
X0136014Y0136250D02*
X0143750Y0136250D01*
X0156486Y0156250D02*
X0167500Y0156250D01*
X0167500Y0167500D01*
X0158750Y0167500D01*
X0158750Y0187431D01*
X0163750Y0187431D02*
X0163750Y0181250D01*
X0172500Y0181250D01*
X0172500Y0195000D01*
X0193750Y0195000D01*
X0206250Y0195000D01*
X0206250Y0205000D02*
X0193750Y0205000D01*
X0168750Y0205000D01*
X0168750Y0187431D01*
X0167500Y0177500D02*
X0221250Y0177500D01*
X0221250Y0116250D01*
X0261950Y0116250D01*
X0261950Y0126250D02*
X0223750Y0126250D01*
X0223750Y0231250D01*
X0157500Y0231250D01*
X0157500Y0236250D01*
X0143750Y0236250D01*
X0143750Y0225069D01*
X0153750Y0225069D02*
X0153750Y0232500D01*
X0160000Y0233750D02*
X0160000Y0238750D01*
X0113750Y0238750D01*
X0113750Y0225069D01*
X0103750Y0225069D02*
X0103750Y0215000D01*
X0095000Y0215000D01*
X0095000Y0208740D01*
X0095000Y0215000D02*
X0077500Y0215000D01*
X0065000Y0215000D01*
X0077500Y0208750D02*
X0086250Y0208750D01*
X0086250Y0208740D01*
X0077500Y0208750D02*
X0077500Y0205000D01*
X0065000Y0205000D01*
X0056250Y0205000D01*
X0056250Y0190000D01*
X0103750Y0190000D01*
X0103750Y0187431D01*
X0113750Y0187431D02*
X0113750Y0180000D01*
X0133750Y0177500D02*
X0140000Y0177500D01*
X0140000Y0161250D01*
X0136014Y0161250D01*
X0133750Y0161250D01*
X0133750Y0177500D02*
X0133750Y0187431D01*
X0168750Y0215000D02*
X0193750Y0215000D01*
X0206250Y0215000D01*
X0226250Y0233750D02*
X0160000Y0233750D01*
X0163750Y0237500D02*
X0210866Y0237500D01*
X0210866Y0238957D01*
X0210866Y0239134D01*
X0220207Y0239134D01*
X0226250Y0233750D02*
X0226250Y0150000D01*
X0261950Y0150000D01*
X0258750Y0087490D02*
X0267795Y0087490D01*
X0207500Y0087195D02*
X0198750Y0087195D01*
X0198819Y0045276D02*
X0207500Y0045276D01*
X0086250Y0195000D02*
X0086250Y0201260D01*
X0168750Y0215000D02*
X0168750Y0225069D01*
M02*
