%
M48
M72
T01C0.0236
T02C0.0394
T03C0.0400
T04C0.0433
T05C0.1024
T06C0.1654
%
T01
X5250Y7375
X8250Y7375
X11375Y7375
X12375Y11000
X12250Y13125
X12250Y14125
X16250Y16250
X16750Y17750
X19375Y18500
X19375Y19500
X19375Y20500
X19375Y21500
X19375Y22500
X16375Y23750
X15375Y23250
X12125Y23375
X7750Y21500
X7750Y20500
X7750Y19500
X7750Y18500
X10875Y17500
X11375Y18000
X12250Y17000
X13625Y17250
X23125Y17375
X30500Y19750
X34000Y22000
X30500Y23500
X30500Y14000
X37250Y11750
X37250Y11250
X37250Y9750
X37250Y9250
X37250Y7500
X37250Y7000
X30500Y5000
X25125Y7375
X22125Y7375
X19125Y7375
X30500Y9500
T02
X25591Y4528
X25591Y3543
X25591Y2559
X19882Y2559
X19882Y4528
X11811Y4528
X11811Y3543
X11811Y2559
X6102Y2559
X6102Y4528
X6500Y18500
X6500Y19500
X6500Y20500
X6500Y21500
X6500Y22500
X20625Y22500
X20625Y21500
X20625Y20500
X20625Y19500
X20625Y18500
T03
X32016Y19750
X33984Y19750
T04
X34000Y23500
X32000Y23500
X39500Y13500
X39500Y11500
X39500Y9500
X39500Y7500
T05
X22638Y5787
X22638Y1299
X8858Y1299
X8858Y5787
T06
X2362Y2362
X2362Y23228
X38976Y23228
X38976Y2362
M30
