G75*
%MOIN*%
%OFA0B0*%
%FSLAX25Y25*%
%IPPOS*%
%LPD*%
%AMOC8*
5,1,8,0,0,1.08239X$1,22.5*
%
%ADD10R,0.02559X0.06693*%
%ADD11C,0.05937*%
%ADD12R,0.05118X0.05906*%
%ADD13R,0.03937X0.13386*%
%ADD14R,0.26772X0.37795*%
%ADD15R,0.02200X0.07800*%
%ADD16R,0.02362X0.08661*%
%ADD17R,0.09449X0.09449*%
%ADD18C,0.10000*%
%ADD19OC8,0.10000*%
%ADD20R,0.05906X0.05118*%
%ADD21C,0.09843*%
%ADD22C,0.08600*%
%ADD23C,0.06496*%
%ADD24C,0.02400*%
%ADD25C,0.31496*%
%ADD26C,0.00787*%
%ADD27C,0.03962*%
%ADD28C,0.15000*%
D10*
X0220000Y0101181D03*
X0225000Y0101181D03*
X0230000Y0101181D03*
X0235000Y0101181D03*
X0240000Y0101181D03*
X0245000Y0101181D03*
X0250000Y0101181D03*
X0255000Y0101181D03*
X0260000Y0101181D03*
X0265000Y0101181D03*
X0270000Y0101181D03*
X0275000Y0101181D03*
X0280000Y0101181D03*
X0285000Y0101181D03*
X0285000Y0138819D03*
X0280000Y0138819D03*
X0275000Y0138819D03*
X0270000Y0138819D03*
X0265000Y0138819D03*
X0260000Y0138819D03*
X0255000Y0138819D03*
X0250000Y0138819D03*
X0245000Y0138819D03*
X0240000Y0138819D03*
X0235000Y0138819D03*
X0230000Y0138819D03*
X0225000Y0138819D03*
X0220000Y0138819D03*
D11*
X0317031Y0140000D02*
X0322969Y0140000D01*
X0322969Y0130000D02*
X0317031Y0130000D01*
X0317031Y0120000D02*
X0322969Y0120000D01*
X0322969Y0110000D02*
X0317031Y0110000D01*
X0317031Y0100000D02*
X0322969Y0100000D01*
D12*
X0246240Y0092500D03*
X0238760Y0092500D03*
X0248760Y0147500D03*
X0256240Y0147500D03*
X0270010Y0147500D03*
X0277490Y0147500D03*
X0277490Y0156250D03*
X0270010Y0156250D03*
D13*
X0360079Y0065354D03*
X0380079Y0065354D03*
X0120236Y0065354D03*
X0100236Y0065354D03*
D14*
X0110236Y0025591D03*
X0370079Y0025591D03*
D15*
X0262500Y0044450D03*
X0257500Y0044450D03*
X0252500Y0044450D03*
X0247500Y0044450D03*
X0247500Y0063050D03*
X0252500Y0063050D03*
X0257500Y0063050D03*
X0262500Y0063050D03*
D16*
X0172500Y0109764D03*
X0167500Y0109764D03*
X0162500Y0109764D03*
X0157500Y0109764D03*
X0157500Y0130236D03*
X0162500Y0130236D03*
X0167500Y0130236D03*
X0172500Y0130236D03*
D17*
X0172343Y0143750D03*
X0152657Y0143750D03*
X0152657Y0096250D03*
X0172343Y0096250D03*
D18*
X0053150Y0055118D03*
X0427165Y0055118D03*
D19*
X0407480Y0055118D03*
X0072835Y0055118D03*
D20*
X0240000Y0057490D03*
X0240000Y0050010D03*
D21*
X0070000Y0100000D03*
X0050000Y0100000D03*
X0030000Y0100000D03*
X0070000Y0120000D03*
X0070000Y0140000D03*
X0050000Y0140000D03*
X0030000Y0140000D03*
D22*
X0134724Y0176802D02*
X0134724Y0185402D01*
X0154724Y0185402D02*
X0154724Y0176802D01*
X0174724Y0176802D02*
X0174724Y0185402D01*
X0194724Y0185402D02*
X0194724Y0176802D01*
X0214724Y0176802D02*
X0214724Y0185402D01*
X0234724Y0185402D02*
X0234724Y0176802D01*
X0254724Y0176802D02*
X0254724Y0185402D01*
X0274724Y0185402D02*
X0274724Y0176802D01*
D23*
X0407323Y0018996D02*
X0407323Y0012500D01*
X0427323Y0012500D02*
X0427323Y0018996D01*
X0072992Y0018996D02*
X0072992Y0012500D01*
X0052992Y0012500D02*
X0052992Y0018996D01*
D24*
X0072992Y0025591D02*
X0085000Y0025591D01*
X0085000Y0027500D01*
X0120000Y0053750D02*
X0120000Y0065000D01*
X0120236Y0065000D01*
X0120236Y0065354D01*
X0120000Y0053750D02*
X0221250Y0053750D01*
X0221250Y0045000D01*
X0247500Y0045000D01*
X0247500Y0044450D01*
X0252500Y0044450D02*
X0252500Y0051250D01*
X0241240Y0051250D01*
X0241170Y0051248D01*
X0241101Y0051242D01*
X0241032Y0051232D01*
X0240964Y0051219D01*
X0240897Y0051202D01*
X0240830Y0051180D01*
X0240765Y0051156D01*
X0240702Y0051127D01*
X0240640Y0051095D01*
X0240580Y0051060D01*
X0240522Y0051021D01*
X0240467Y0050979D01*
X0240414Y0050935D01*
X0240363Y0050887D01*
X0240315Y0050836D01*
X0240271Y0050783D01*
X0240229Y0050728D01*
X0240190Y0050670D01*
X0240155Y0050610D01*
X0240123Y0050548D01*
X0240094Y0050485D01*
X0240070Y0050420D01*
X0240048Y0050353D01*
X0240031Y0050286D01*
X0240018Y0050218D01*
X0240008Y0050149D01*
X0240002Y0050080D01*
X0240000Y0050010D01*
X0225000Y0050010D01*
X0225000Y0057500D01*
X0155000Y0057500D01*
X0155000Y0076063D01*
X0157500Y0087500D02*
X0190000Y0087500D01*
X0190000Y0110000D01*
X0245000Y0110000D01*
X0245000Y0101181D01*
X0245000Y0092500D01*
X0246240Y0092500D01*
X0257500Y0092500D01*
X0272500Y0092500D02*
X0272500Y0090000D01*
X0295000Y0090000D01*
X0295000Y0100000D01*
X0307500Y0100000D01*
X0320000Y0100000D01*
X0320000Y0110000D02*
X0307500Y0110000D01*
X0290000Y0110000D01*
X0290000Y0095000D01*
X0280000Y0095000D01*
X0280000Y0101181D01*
X0285000Y0101181D02*
X0285000Y0120000D01*
X0307500Y0120000D01*
X0320000Y0120000D01*
X0320000Y0130000D02*
X0307500Y0130000D01*
X0285000Y0130000D01*
X0285000Y0138819D01*
X0270000Y0138819D02*
X0270000Y0147500D01*
X0270010Y0147500D01*
X0270010Y0156250D01*
X0277490Y0156250D02*
X0277500Y0156250D01*
X0277500Y0167500D01*
X0274724Y0167500D01*
X0274724Y0181102D01*
X0256240Y0147500D02*
X0255000Y0147500D01*
X0255000Y0138819D01*
X0250000Y0138819D02*
X0250000Y0147500D01*
X0248760Y0147500D01*
X0265000Y0138819D02*
X0265000Y0120000D01*
X0087500Y0120000D01*
X0070000Y0120000D01*
X0070000Y0100000D02*
X0087500Y0100000D01*
X0152657Y0100000D01*
X0152657Y0096250D01*
X0157500Y0096250D01*
X0157500Y0087500D01*
X0157500Y0096250D02*
X0157500Y0109764D01*
X0162500Y0109764D02*
X0167500Y0109764D01*
X0167500Y0096250D01*
X0172343Y0096250D01*
X0230000Y0101181D02*
X0230000Y0072500D01*
X0247500Y0072500D01*
X0247500Y0063050D01*
X0252500Y0063050D02*
X0252500Y0077500D01*
X0238750Y0077500D01*
X0238750Y0092500D01*
X0238760Y0092500D01*
X0240000Y0092028D01*
X0240000Y0101181D01*
X0265000Y0101181D02*
X0265000Y0077500D01*
X0257500Y0077500D01*
X0257500Y0063050D01*
X0252500Y0063050D02*
X0252500Y0056250D01*
X0241240Y0056250D01*
X0241170Y0056252D01*
X0241101Y0056258D01*
X0241032Y0056268D01*
X0240964Y0056281D01*
X0240897Y0056298D01*
X0240830Y0056320D01*
X0240765Y0056344D01*
X0240702Y0056373D01*
X0240640Y0056405D01*
X0240580Y0056440D01*
X0240522Y0056479D01*
X0240467Y0056521D01*
X0240414Y0056565D01*
X0240363Y0056613D01*
X0240315Y0056664D01*
X0240271Y0056717D01*
X0240229Y0056772D01*
X0240190Y0056830D01*
X0240155Y0056890D01*
X0240123Y0056952D01*
X0240094Y0057015D01*
X0240070Y0057080D01*
X0240048Y0057147D01*
X0240031Y0057214D01*
X0240018Y0057282D01*
X0240008Y0057351D01*
X0240002Y0057420D01*
X0240000Y0057490D01*
X0257500Y0053750D02*
X0380079Y0053750D01*
X0380079Y0065354D01*
X0395000Y0027500D02*
X0400000Y0027500D01*
X0400000Y0025591D01*
X0395000Y0027500D02*
X0395000Y0022500D01*
X0257500Y0044450D02*
X0257500Y0053750D01*
X0167500Y0130236D02*
X0162500Y0130236D01*
X0157500Y0130236D02*
X0157500Y0143750D01*
X0152657Y0143750D01*
X0154724Y0143750D01*
X0154724Y0181102D01*
X0174724Y0181102D02*
X0174724Y0143750D01*
X0172343Y0143750D01*
X0167500Y0143750D01*
X0167500Y0130236D01*
D25*
X0023622Y0185039D03*
X0023622Y0023622D03*
X0456693Y0023622D03*
X0456693Y0185039D03*
D26*
X0002306Y0002306D02*
X0001504Y0003246D01*
X0000858Y0004299D01*
X0000385Y0005441D01*
X0000097Y0006642D01*
X0000000Y0007874D01*
X0000000Y0200787D01*
X0000097Y0202019D01*
X0000385Y0203221D01*
X0000858Y0204362D01*
X0001504Y0205416D01*
X0002306Y0206355D01*
X0003246Y0207158D01*
X0004299Y0207803D01*
X0005441Y0208276D01*
X0006642Y0208564D01*
X0007874Y0208661D01*
X0151168Y0208661D01*
X0149637Y0208027D01*
X0146973Y0205363D01*
X0145531Y0201883D01*
X0145531Y0178117D01*
X0146973Y0174637D01*
X0149637Y0171973D01*
X0151556Y0171178D01*
X0151556Y0150443D01*
X0147118Y0150443D01*
X0145965Y0149290D01*
X0145965Y0138210D01*
X0147118Y0137057D01*
X0154331Y0137057D01*
X0154331Y0129606D01*
X0154350Y0129560D01*
X0154350Y0125090D01*
X0155504Y0123937D01*
X0159496Y0123937D01*
X0160650Y0125090D01*
X0160650Y0129560D01*
X0160668Y0129606D01*
X0160668Y0144380D01*
X0160186Y0145545D01*
X0159350Y0146381D01*
X0159350Y0149290D01*
X0158197Y0150443D01*
X0157893Y0150443D01*
X0157893Y0170950D01*
X0160363Y0171973D01*
X0163027Y0174637D01*
X0164468Y0178117D01*
X0164468Y0190531D01*
X0185531Y0190531D01*
X0185531Y0178117D01*
X0186973Y0174637D01*
X0189637Y0171973D01*
X0193117Y0170531D01*
X0196883Y0170531D01*
X0200363Y0171973D01*
X0203027Y0174637D01*
X0204468Y0178117D01*
X0204468Y0190531D01*
X0225531Y0190531D01*
X0225531Y0178117D01*
X0226973Y0174637D01*
X0229637Y0171973D01*
X0233117Y0170531D01*
X0236883Y0170531D01*
X0240363Y0171973D01*
X0243027Y0174637D01*
X0244468Y0178117D01*
X0244468Y0190531D01*
X0265531Y0190531D01*
X0265531Y0178117D01*
X0266973Y0174637D01*
X0269637Y0171973D01*
X0271556Y0171178D01*
X0271556Y0166870D01*
X0272038Y0165705D01*
X0272930Y0164814D01*
X0274094Y0164331D01*
X0274331Y0164331D01*
X0274331Y0161171D01*
X0274116Y0161171D01*
X0273750Y0160806D01*
X0273384Y0161171D01*
X0266635Y0161171D01*
X0265482Y0160018D01*
X0265482Y0152482D01*
X0266089Y0151875D01*
X0265482Y0151268D01*
X0265482Y0144134D01*
X0262905Y0144134D01*
X0262500Y0143729D01*
X0262095Y0144134D01*
X0260768Y0144134D01*
X0260768Y0151268D01*
X0259615Y0152421D01*
X0252866Y0152421D01*
X0251713Y0151268D01*
X0251713Y0143732D01*
X0251831Y0143613D01*
X0251831Y0143060D01*
X0251752Y0142981D01*
X0251752Y0134657D01*
X0252905Y0133504D01*
X0257095Y0133504D01*
X0257500Y0133909D01*
X0257905Y0133504D01*
X0261831Y0133504D01*
X0261831Y0123168D01*
X0089917Y0123168D01*
X0089737Y0123348D01*
X0088286Y0123950D01*
X0086714Y0123950D01*
X0085263Y0123348D01*
X0085083Y0123168D01*
X0076145Y0123168D01*
X0075841Y0123903D01*
X0073903Y0125841D01*
X0071370Y0126890D01*
X0068630Y0126890D01*
X0066097Y0125841D01*
X0064159Y0123903D01*
X0063110Y0121370D01*
X0063110Y0118630D01*
X0064159Y0116097D01*
X0066097Y0114159D01*
X0068630Y0113110D01*
X0071370Y0113110D01*
X0073903Y0114159D01*
X0075841Y0116097D01*
X0076145Y0116831D01*
X0085083Y0116831D01*
X0085263Y0116652D01*
X0086714Y0116050D01*
X0088286Y0116050D01*
X0089737Y0116652D01*
X0089917Y0116831D01*
X0265630Y0116831D01*
X0266795Y0117314D01*
X0267686Y0118205D01*
X0268168Y0119370D01*
X0268168Y0133504D01*
X0272095Y0133504D01*
X0272500Y0133909D01*
X0272905Y0133504D01*
X0277095Y0133504D01*
X0277500Y0133909D01*
X0277905Y0133504D01*
X0281831Y0133504D01*
X0281831Y0129370D01*
X0282314Y0128205D01*
X0283205Y0127314D01*
X0284370Y0126831D01*
X0305083Y0126831D01*
X0305263Y0126652D01*
X0306714Y0126050D01*
X0308286Y0126050D01*
X0309737Y0126652D01*
X0309917Y0126831D01*
X0313218Y0126831D01*
X0314235Y0125815D01*
X0316049Y0125063D01*
X0323951Y0125063D01*
X0325765Y0125815D01*
X0327154Y0127203D01*
X0327905Y0129018D01*
X0327905Y0130982D01*
X0327154Y0132797D01*
X0325765Y0134185D01*
X0323951Y0134937D01*
X0316049Y0134937D01*
X0314235Y0134185D01*
X0313218Y0133168D01*
X0309917Y0133168D01*
X0309737Y0133348D01*
X0308286Y0133950D01*
X0306714Y0133950D01*
X0305263Y0133348D01*
X0305083Y0133168D01*
X0288168Y0133168D01*
X0288168Y0134578D01*
X0288248Y0134657D01*
X0288248Y0142981D01*
X0287095Y0144134D01*
X0282905Y0144134D01*
X0282500Y0143729D01*
X0282095Y0144134D01*
X0277905Y0144134D01*
X0277500Y0143729D01*
X0277095Y0144134D01*
X0274537Y0144134D01*
X0274537Y0151268D01*
X0274477Y0151329D01*
X0280865Y0151329D01*
X0282018Y0152482D01*
X0282018Y0160018D01*
X0280865Y0161171D01*
X0280668Y0161171D01*
X0280668Y0168130D01*
X0280186Y0169295D01*
X0279295Y0170186D01*
X0278130Y0170668D01*
X0277893Y0170668D01*
X0277893Y0170950D01*
X0280363Y0171973D01*
X0283027Y0174637D01*
X0284468Y0178117D01*
X0284468Y0201883D01*
X0283027Y0205363D01*
X0280363Y0208027D01*
X0278832Y0208661D01*
X0472441Y0208661D01*
X0473673Y0208564D01*
X0474874Y0208276D01*
X0476016Y0207803D01*
X0477069Y0207158D01*
X0478009Y0206355D01*
X0478811Y0205416D01*
X0479457Y0204362D01*
X0479930Y0203221D01*
X0480218Y0202019D01*
X0480315Y0200787D01*
X0480315Y0007874D01*
X0480218Y0006642D01*
X0479930Y0005441D01*
X0479457Y0004299D01*
X0478811Y0003246D01*
X0478009Y0002306D01*
X0477069Y0001504D01*
X0476016Y0000858D01*
X0474874Y0000385D01*
X0473673Y0000097D01*
X0472441Y0000000D01*
X0007874Y0000000D01*
X0006642Y0000097D01*
X0005441Y0000385D01*
X0004299Y0000858D01*
X0003246Y0001504D01*
X0002306Y0002306D01*
X0002262Y0002358D02*
X0478053Y0002358D01*
X0478724Y0003144D02*
X0001591Y0003144D01*
X0001085Y0003930D02*
X0479230Y0003930D01*
X0479629Y0004715D02*
X0000686Y0004715D01*
X0000371Y0005501D02*
X0095258Y0005501D01*
X0094882Y0005878D02*
X0096035Y0004724D01*
X0124437Y0004724D01*
X0125591Y0005878D01*
X0125591Y0045304D01*
X0124437Y0046457D01*
X0096035Y0046457D01*
X0094882Y0045304D01*
X0094882Y0035059D01*
X0071109Y0035059D01*
X0067629Y0033618D01*
X0064965Y0030954D01*
X0063524Y0027474D01*
X0063524Y0013865D01*
X0064965Y0010385D01*
X0067629Y0007721D01*
X0071109Y0006280D01*
X0074876Y0006280D01*
X0078356Y0007721D01*
X0081019Y0010385D01*
X0082461Y0013865D01*
X0082461Y0016122D01*
X0094882Y0016122D01*
X0094882Y0005878D01*
X0094882Y0006287D02*
X0074894Y0006287D01*
X0076792Y0007073D02*
X0094882Y0007073D01*
X0094882Y0007859D02*
X0078494Y0007859D01*
X0079280Y0008645D02*
X0094882Y0008645D01*
X0094882Y0009431D02*
X0080066Y0009431D01*
X0080851Y0010217D02*
X0094882Y0010217D01*
X0094882Y0011003D02*
X0081275Y0011003D01*
X0081601Y0011789D02*
X0094882Y0011789D01*
X0094882Y0012575D02*
X0081926Y0012575D01*
X0082252Y0013361D02*
X0094882Y0013361D01*
X0094882Y0014146D02*
X0082461Y0014146D01*
X0082461Y0014932D02*
X0094882Y0014932D01*
X0094882Y0015718D02*
X0082461Y0015718D01*
X0067491Y0007859D02*
X0055420Y0007859D01*
X0055947Y0008078D02*
X0057414Y0009545D01*
X0058209Y0011462D01*
X0058209Y0020034D01*
X0057414Y0021951D01*
X0055947Y0023418D01*
X0054030Y0024213D01*
X0051954Y0024213D01*
X0050037Y0023418D01*
X0048570Y0021951D01*
X0047776Y0020034D01*
X0047776Y0011462D01*
X0048570Y0009545D01*
X0050037Y0008078D01*
X0051954Y0007283D01*
X0054030Y0007283D01*
X0055947Y0008078D01*
X0056514Y0008645D02*
X0066705Y0008645D01*
X0065919Y0009431D02*
X0057300Y0009431D01*
X0057693Y0010217D02*
X0065133Y0010217D01*
X0064709Y0011003D02*
X0058018Y0011003D01*
X0058209Y0011789D02*
X0064383Y0011789D01*
X0064058Y0012575D02*
X0058209Y0012575D01*
X0058209Y0013361D02*
X0063732Y0013361D01*
X0063524Y0014146D02*
X0058209Y0014146D01*
X0058209Y0014932D02*
X0063524Y0014932D01*
X0063524Y0015718D02*
X0058209Y0015718D01*
X0058209Y0016504D02*
X0063524Y0016504D01*
X0063524Y0017290D02*
X0058209Y0017290D01*
X0058209Y0018076D02*
X0063524Y0018076D01*
X0063524Y0018862D02*
X0058209Y0018862D01*
X0058209Y0019648D02*
X0063524Y0019648D01*
X0063524Y0020434D02*
X0058043Y0020434D01*
X0057717Y0021220D02*
X0063524Y0021220D01*
X0063524Y0022006D02*
X0057360Y0022006D01*
X0056574Y0022791D02*
X0063524Y0022791D01*
X0063524Y0023577D02*
X0055563Y0023577D01*
X0050421Y0023577D02*
X0000000Y0023577D01*
X0000000Y0022791D02*
X0049410Y0022791D01*
X0048624Y0022006D02*
X0000000Y0022006D01*
X0000000Y0021220D02*
X0048267Y0021220D01*
X0047941Y0020434D02*
X0000000Y0020434D01*
X0000000Y0019648D02*
X0047776Y0019648D01*
X0047776Y0018862D02*
X0000000Y0018862D01*
X0000000Y0018076D02*
X0047776Y0018076D01*
X0047776Y0017290D02*
X0000000Y0017290D01*
X0000000Y0016504D02*
X0047776Y0016504D01*
X0047776Y0015718D02*
X0000000Y0015718D01*
X0000000Y0014932D02*
X0047776Y0014932D01*
X0047776Y0014146D02*
X0000000Y0014146D01*
X0000000Y0013361D02*
X0047776Y0013361D01*
X0047776Y0012575D02*
X0000000Y0012575D01*
X0000000Y0011789D02*
X0047776Y0011789D01*
X0047966Y0011003D02*
X0000000Y0011003D01*
X0000000Y0010217D02*
X0048291Y0010217D01*
X0048684Y0009431D02*
X0000000Y0009431D01*
X0000000Y0008645D02*
X0049470Y0008645D01*
X0050565Y0007859D02*
X0000001Y0007859D01*
X0000063Y0007073D02*
X0069193Y0007073D01*
X0071090Y0006287D02*
X0000182Y0006287D01*
X0003166Y0001572D02*
X0477149Y0001572D01*
X0475841Y0000786D02*
X0004474Y0000786D01*
X0007874Y0000000D02*
X0472441Y0000000D01*
X0479944Y0005501D02*
X0385057Y0005501D01*
X0385433Y0005878D02*
X0384280Y0004724D01*
X0355878Y0004724D01*
X0354724Y0005878D01*
X0354724Y0045304D01*
X0355878Y0046457D01*
X0384280Y0046457D01*
X0385433Y0045304D01*
X0385433Y0035059D01*
X0398117Y0035059D01*
X0405439Y0035059D01*
X0409206Y0035059D01*
X0412686Y0033618D01*
X0415350Y0030954D01*
X0416791Y0027474D01*
X0416791Y0013865D01*
X0415350Y0010385D01*
X0412686Y0007721D01*
X0409206Y0006280D01*
X0405439Y0006280D01*
X0401959Y0007721D01*
X0399296Y0010385D01*
X0397854Y0013865D01*
X0397854Y0016122D01*
X0385433Y0016122D01*
X0385433Y0005878D01*
X0385433Y0006287D02*
X0405421Y0006287D01*
X0403523Y0007073D02*
X0385433Y0007073D01*
X0385433Y0007859D02*
X0401821Y0007859D01*
X0401035Y0008645D02*
X0385433Y0008645D01*
X0385433Y0009431D02*
X0400249Y0009431D01*
X0399463Y0010217D02*
X0385433Y0010217D01*
X0385433Y0011003D02*
X0399040Y0011003D01*
X0398714Y0011789D02*
X0385433Y0011789D01*
X0385433Y0012575D02*
X0398389Y0012575D01*
X0398063Y0013361D02*
X0385433Y0013361D01*
X0385433Y0014146D02*
X0397854Y0014146D01*
X0397854Y0014932D02*
X0385433Y0014932D01*
X0385433Y0015718D02*
X0397854Y0015718D01*
X0412824Y0007859D02*
X0424895Y0007859D01*
X0424368Y0008078D02*
X0426285Y0007283D01*
X0428360Y0007283D01*
X0430278Y0008078D01*
X0431745Y0009545D01*
X0432539Y0011462D01*
X0432539Y0020034D01*
X0431745Y0021951D01*
X0430278Y0023418D01*
X0428360Y0024213D01*
X0426285Y0024213D01*
X0424368Y0023418D01*
X0422900Y0021951D01*
X0422106Y0020034D01*
X0422106Y0011462D01*
X0422900Y0009545D01*
X0424368Y0008078D01*
X0423800Y0008645D02*
X0413610Y0008645D01*
X0414396Y0009431D02*
X0423015Y0009431D01*
X0422622Y0010217D02*
X0415182Y0010217D01*
X0415606Y0011003D02*
X0422297Y0011003D01*
X0422106Y0011789D02*
X0415931Y0011789D01*
X0416257Y0012575D02*
X0422106Y0012575D01*
X0422106Y0013361D02*
X0416583Y0013361D01*
X0416791Y0014146D02*
X0422106Y0014146D01*
X0422106Y0014932D02*
X0416791Y0014932D01*
X0416791Y0015718D02*
X0422106Y0015718D01*
X0422106Y0016504D02*
X0416791Y0016504D01*
X0416791Y0017290D02*
X0422106Y0017290D01*
X0422106Y0018076D02*
X0416791Y0018076D01*
X0416791Y0018862D02*
X0422106Y0018862D01*
X0422106Y0019648D02*
X0416791Y0019648D01*
X0416791Y0020434D02*
X0422272Y0020434D01*
X0422598Y0021220D02*
X0416791Y0021220D01*
X0416791Y0022006D02*
X0422955Y0022006D01*
X0423741Y0022791D02*
X0416791Y0022791D01*
X0416791Y0023577D02*
X0424752Y0023577D01*
X0429894Y0023577D02*
X0480315Y0023577D01*
X0480315Y0022791D02*
X0430905Y0022791D01*
X0431691Y0022006D02*
X0480315Y0022006D01*
X0480315Y0021220D02*
X0432048Y0021220D01*
X0432374Y0020434D02*
X0480315Y0020434D01*
X0480315Y0019648D02*
X0432539Y0019648D01*
X0432539Y0018862D02*
X0480315Y0018862D01*
X0480315Y0018076D02*
X0432539Y0018076D01*
X0432539Y0017290D02*
X0480315Y0017290D01*
X0480315Y0016504D02*
X0432539Y0016504D01*
X0432539Y0015718D02*
X0480315Y0015718D01*
X0480315Y0014932D02*
X0432539Y0014932D01*
X0432539Y0014146D02*
X0480315Y0014146D01*
X0480315Y0013361D02*
X0432539Y0013361D01*
X0432539Y0012575D02*
X0480315Y0012575D01*
X0480315Y0011789D02*
X0432539Y0011789D01*
X0432349Y0011003D02*
X0480315Y0011003D01*
X0480315Y0010217D02*
X0432023Y0010217D01*
X0431631Y0009431D02*
X0480315Y0009431D01*
X0480315Y0008645D02*
X0430845Y0008645D01*
X0429750Y0007859D02*
X0480314Y0007859D01*
X0480252Y0007073D02*
X0411122Y0007073D01*
X0409225Y0006287D02*
X0480133Y0006287D01*
X0480315Y0024363D02*
X0416791Y0024363D01*
X0416791Y0025149D02*
X0480315Y0025149D01*
X0480315Y0025935D02*
X0416791Y0025935D01*
X0416791Y0026721D02*
X0480315Y0026721D01*
X0480315Y0027507D02*
X0416778Y0027507D01*
X0416452Y0028293D02*
X0480315Y0028293D01*
X0480315Y0029079D02*
X0416127Y0029079D01*
X0415801Y0029865D02*
X0480315Y0029865D01*
X0480315Y0030651D02*
X0415476Y0030651D01*
X0414867Y0031437D02*
X0480315Y0031437D01*
X0480315Y0032222D02*
X0414081Y0032222D01*
X0413296Y0033008D02*
X0480315Y0033008D01*
X0480315Y0033794D02*
X0412260Y0033794D01*
X0410362Y0034580D02*
X0480315Y0034580D01*
X0480315Y0035366D02*
X0385433Y0035366D01*
X0385433Y0036152D02*
X0480315Y0036152D01*
X0480315Y0036938D02*
X0385433Y0036938D01*
X0385433Y0037724D02*
X0480315Y0037724D01*
X0480315Y0038510D02*
X0385433Y0038510D01*
X0385433Y0039296D02*
X0480315Y0039296D01*
X0480315Y0040082D02*
X0385433Y0040082D01*
X0385433Y0040867D02*
X0480315Y0040867D01*
X0480315Y0041653D02*
X0385433Y0041653D01*
X0385433Y0042439D02*
X0480315Y0042439D01*
X0480315Y0043225D02*
X0385433Y0043225D01*
X0385433Y0044011D02*
X0480315Y0044011D01*
X0480315Y0044797D02*
X0385433Y0044797D01*
X0385154Y0045583D02*
X0480315Y0045583D01*
X0480315Y0046369D02*
X0384368Y0046369D01*
X0381874Y0051064D02*
X0382765Y0051955D01*
X0383247Y0053120D01*
X0383247Y0057078D01*
X0384016Y0057846D01*
X0384016Y0072863D01*
X0382863Y0074016D01*
X0377295Y0074016D01*
X0376142Y0072863D01*
X0376142Y0057846D01*
X0376910Y0057078D01*
X0376910Y0056918D01*
X0256870Y0056918D01*
X0255705Y0056436D01*
X0254814Y0055545D01*
X0254331Y0054380D01*
X0254331Y0053899D01*
X0254295Y0053936D01*
X0253130Y0054418D01*
X0243887Y0054418D01*
X0243768Y0054537D01*
X0236232Y0054537D01*
X0235079Y0053384D01*
X0235079Y0053178D01*
X0228168Y0053178D01*
X0228168Y0058130D01*
X0227686Y0059295D01*
X0226795Y0060186D01*
X0225630Y0060668D01*
X0158168Y0060668D01*
X0158168Y0073646D01*
X0158348Y0073826D01*
X0158950Y0075277D01*
X0158950Y0076849D01*
X0158348Y0078300D01*
X0157237Y0079411D01*
X0155786Y0080013D01*
X0154214Y0080013D01*
X0152763Y0079411D01*
X0151652Y0078300D01*
X0151050Y0076849D01*
X0151050Y0075277D01*
X0151652Y0073826D01*
X0151831Y0073646D01*
X0151831Y0056918D01*
X0123246Y0056918D01*
X0124173Y0057846D01*
X0124173Y0072863D01*
X0123020Y0074016D01*
X0117452Y0074016D01*
X0116299Y0072863D01*
X0116299Y0057846D01*
X0116831Y0057314D01*
X0116831Y0053120D01*
X0117314Y0051955D01*
X0118205Y0051064D01*
X0119370Y0050581D01*
X0218081Y0050581D01*
X0218081Y0044370D01*
X0218564Y0043205D01*
X0219455Y0042314D01*
X0220620Y0041831D01*
X0244431Y0041831D01*
X0244431Y0039735D01*
X0245585Y0038581D01*
X0249415Y0038581D01*
X0250000Y0039166D01*
X0250585Y0038581D01*
X0254415Y0038581D01*
X0255000Y0039166D01*
X0255585Y0038581D01*
X0259415Y0038581D01*
X0260000Y0039166D01*
X0260585Y0038581D01*
X0264415Y0038581D01*
X0265568Y0039735D01*
X0265568Y0049165D01*
X0264415Y0050318D01*
X0260668Y0050318D01*
X0260668Y0050581D01*
X0380709Y0050581D01*
X0381874Y0051064D01*
X0381894Y0051084D02*
X0421344Y0051084D01*
X0421258Y0051171D02*
X0423218Y0049210D01*
X0425779Y0048150D01*
X0428551Y0048150D01*
X0431113Y0049210D01*
X0433073Y0051171D01*
X0434134Y0053732D01*
X0434134Y0056504D01*
X0433073Y0059065D01*
X0431113Y0061026D01*
X0428551Y0062087D01*
X0425779Y0062087D01*
X0423218Y0061026D01*
X0421258Y0059065D01*
X0420197Y0056504D01*
X0420197Y0053732D01*
X0421258Y0051171D01*
X0420968Y0051870D02*
X0382680Y0051870D01*
X0383055Y0052656D02*
X0420642Y0052656D01*
X0420317Y0053442D02*
X0383247Y0053442D01*
X0383247Y0054228D02*
X0420197Y0054228D01*
X0420197Y0055014D02*
X0383247Y0055014D01*
X0383247Y0055800D02*
X0420197Y0055800D01*
X0420231Y0056586D02*
X0383247Y0056586D01*
X0383541Y0057372D02*
X0420556Y0057372D01*
X0420882Y0058158D02*
X0384016Y0058158D01*
X0384016Y0058943D02*
X0421207Y0058943D01*
X0421922Y0059729D02*
X0384016Y0059729D01*
X0384016Y0060515D02*
X0422708Y0060515D01*
X0423883Y0061301D02*
X0384016Y0061301D01*
X0384016Y0062087D02*
X0480315Y0062087D01*
X0480315Y0061301D02*
X0430448Y0061301D01*
X0431623Y0060515D02*
X0480315Y0060515D01*
X0480315Y0059729D02*
X0432409Y0059729D01*
X0433123Y0058943D02*
X0480315Y0058943D01*
X0480315Y0058158D02*
X0433449Y0058158D01*
X0433775Y0057372D02*
X0480315Y0057372D01*
X0480315Y0056586D02*
X0434100Y0056586D01*
X0434134Y0055800D02*
X0480315Y0055800D01*
X0480315Y0055014D02*
X0434134Y0055014D01*
X0434134Y0054228D02*
X0480315Y0054228D01*
X0480315Y0053442D02*
X0434014Y0053442D01*
X0433688Y0052656D02*
X0480315Y0052656D01*
X0480315Y0051870D02*
X0433363Y0051870D01*
X0432987Y0051084D02*
X0480315Y0051084D01*
X0480315Y0050298D02*
X0432201Y0050298D01*
X0431415Y0049513D02*
X0480315Y0049513D01*
X0480315Y0048727D02*
X0429944Y0048727D01*
X0424386Y0048727D02*
X0265568Y0048727D01*
X0265568Y0047941D02*
X0480315Y0047941D01*
X0480315Y0047155D02*
X0265568Y0047155D01*
X0265568Y0046369D02*
X0355790Y0046369D01*
X0355004Y0045583D02*
X0265568Y0045583D01*
X0265568Y0044797D02*
X0354724Y0044797D01*
X0354724Y0044011D02*
X0265568Y0044011D01*
X0265568Y0043225D02*
X0354724Y0043225D01*
X0354724Y0042439D02*
X0265568Y0042439D01*
X0265568Y0041653D02*
X0354724Y0041653D01*
X0354724Y0040867D02*
X0265568Y0040867D01*
X0265568Y0040082D02*
X0354724Y0040082D01*
X0354724Y0039296D02*
X0265130Y0039296D01*
X0265221Y0049513D02*
X0422916Y0049513D01*
X0422130Y0050298D02*
X0264435Y0050298D01*
X0254331Y0054228D02*
X0253590Y0054228D01*
X0254594Y0055014D02*
X0228168Y0055014D01*
X0228168Y0055800D02*
X0255069Y0055800D01*
X0256066Y0056586D02*
X0228168Y0056586D01*
X0228168Y0057372D02*
X0245394Y0057372D01*
X0245585Y0057181D02*
X0244431Y0058335D01*
X0244431Y0062178D01*
X0244331Y0062420D01*
X0244331Y0069331D01*
X0229370Y0069331D01*
X0228205Y0069814D01*
X0227314Y0070705D01*
X0226831Y0071870D01*
X0226831Y0095866D01*
X0222905Y0095866D01*
X0222500Y0096271D01*
X0222095Y0095866D01*
X0217905Y0095866D01*
X0216752Y0097019D01*
X0216752Y0105343D01*
X0217905Y0106496D01*
X0222095Y0106496D01*
X0222500Y0106091D01*
X0222905Y0106496D01*
X0227095Y0106496D01*
X0227500Y0106091D01*
X0227905Y0106496D01*
X0232095Y0106496D01*
X0232500Y0106091D01*
X0232905Y0106496D01*
X0237095Y0106496D01*
X0238248Y0105343D01*
X0238248Y0097019D01*
X0237095Y0095866D01*
X0233168Y0095866D01*
X0233168Y0075668D01*
X0248130Y0075668D01*
X0249295Y0075186D01*
X0250186Y0074295D01*
X0250668Y0073130D01*
X0250668Y0062420D01*
X0250568Y0062178D01*
X0250568Y0058335D01*
X0249415Y0057181D01*
X0245585Y0057181D01*
X0244609Y0058158D02*
X0228157Y0058158D01*
X0227832Y0058943D02*
X0244431Y0058943D01*
X0244431Y0059729D02*
X0227252Y0059729D01*
X0226000Y0060515D02*
X0244431Y0060515D01*
X0244431Y0061301D02*
X0158168Y0061301D01*
X0158168Y0062087D02*
X0244431Y0062087D01*
X0244331Y0062873D02*
X0158168Y0062873D01*
X0158168Y0063659D02*
X0244331Y0063659D01*
X0244331Y0064445D02*
X0158168Y0064445D01*
X0158168Y0065231D02*
X0244331Y0065231D01*
X0244331Y0066017D02*
X0158168Y0066017D01*
X0158168Y0066803D02*
X0244331Y0066803D01*
X0244331Y0067589D02*
X0158168Y0067589D01*
X0158168Y0068374D02*
X0244331Y0068374D01*
X0244331Y0069160D02*
X0158168Y0069160D01*
X0158168Y0069946D02*
X0228073Y0069946D01*
X0227303Y0070732D02*
X0158168Y0070732D01*
X0158168Y0071518D02*
X0226977Y0071518D01*
X0226831Y0072304D02*
X0158168Y0072304D01*
X0158168Y0073090D02*
X0226831Y0073090D01*
X0226831Y0073876D02*
X0158369Y0073876D01*
X0158695Y0074662D02*
X0226831Y0074662D01*
X0226831Y0075448D02*
X0158950Y0075448D01*
X0158950Y0076234D02*
X0226831Y0076234D01*
X0226831Y0077019D02*
X0158879Y0077019D01*
X0158553Y0077805D02*
X0226831Y0077805D01*
X0226831Y0078591D02*
X0158057Y0078591D01*
X0157271Y0079377D02*
X0226831Y0079377D01*
X0226831Y0080163D02*
X0000000Y0080163D01*
X0000000Y0079377D02*
X0152729Y0079377D01*
X0151943Y0078591D02*
X0000000Y0078591D01*
X0000000Y0077805D02*
X0151447Y0077805D01*
X0151121Y0077019D02*
X0000000Y0077019D01*
X0000000Y0076234D02*
X0151050Y0076234D01*
X0151050Y0075448D02*
X0000000Y0075448D01*
X0000000Y0074662D02*
X0151305Y0074662D01*
X0151631Y0073876D02*
X0123160Y0073876D01*
X0123946Y0073090D02*
X0151831Y0073090D01*
X0151831Y0072304D02*
X0124173Y0072304D01*
X0124173Y0071518D02*
X0151831Y0071518D01*
X0151831Y0070732D02*
X0124173Y0070732D01*
X0124173Y0069946D02*
X0151831Y0069946D01*
X0151831Y0069160D02*
X0124173Y0069160D01*
X0124173Y0068374D02*
X0151831Y0068374D01*
X0151831Y0067589D02*
X0124173Y0067589D01*
X0124173Y0066803D02*
X0151831Y0066803D01*
X0151831Y0066017D02*
X0124173Y0066017D01*
X0124173Y0065231D02*
X0151831Y0065231D01*
X0151831Y0064445D02*
X0124173Y0064445D01*
X0124173Y0063659D02*
X0151831Y0063659D01*
X0151831Y0062873D02*
X0124173Y0062873D01*
X0124173Y0062087D02*
X0151831Y0062087D01*
X0151831Y0061301D02*
X0124173Y0061301D01*
X0124173Y0060515D02*
X0151831Y0060515D01*
X0151831Y0059729D02*
X0124173Y0059729D01*
X0124173Y0058943D02*
X0151831Y0058943D01*
X0151831Y0058158D02*
X0124173Y0058158D01*
X0123699Y0057372D02*
X0151831Y0057372D01*
X0124525Y0046369D02*
X0218081Y0046369D01*
X0218081Y0047155D02*
X0000000Y0047155D01*
X0000000Y0047941D02*
X0218081Y0047941D01*
X0218081Y0048727D02*
X0055929Y0048727D01*
X0057097Y0049210D02*
X0054536Y0048150D01*
X0051763Y0048150D01*
X0049202Y0049210D01*
X0047242Y0051171D01*
X0046181Y0053732D01*
X0046181Y0056504D01*
X0047242Y0059065D01*
X0049202Y0061026D01*
X0051763Y0062087D01*
X0054536Y0062087D01*
X0057097Y0061026D01*
X0059057Y0059065D01*
X0060118Y0056504D01*
X0060118Y0053732D01*
X0059057Y0051171D01*
X0057097Y0049210D01*
X0057399Y0049513D02*
X0218081Y0049513D01*
X0218081Y0050298D02*
X0058185Y0050298D01*
X0058971Y0051084D02*
X0118185Y0051084D01*
X0117399Y0051870D02*
X0059347Y0051870D01*
X0059672Y0052656D02*
X0117023Y0052656D01*
X0116831Y0053442D02*
X0059998Y0053442D01*
X0060118Y0054228D02*
X0116831Y0054228D01*
X0116831Y0055014D02*
X0060118Y0055014D01*
X0060118Y0055800D02*
X0116831Y0055800D01*
X0116831Y0056586D02*
X0060084Y0056586D01*
X0059759Y0057372D02*
X0116774Y0057372D01*
X0116299Y0058158D02*
X0059433Y0058158D01*
X0059108Y0058943D02*
X0116299Y0058943D01*
X0116299Y0059729D02*
X0058393Y0059729D01*
X0057607Y0060515D02*
X0116299Y0060515D01*
X0116299Y0061301D02*
X0056432Y0061301D01*
X0049867Y0061301D02*
X0000000Y0061301D01*
X0000000Y0060515D02*
X0048692Y0060515D01*
X0047906Y0059729D02*
X0000000Y0059729D01*
X0000000Y0058943D02*
X0047191Y0058943D01*
X0046866Y0058158D02*
X0000000Y0058158D01*
X0000000Y0057372D02*
X0046540Y0057372D01*
X0046215Y0056586D02*
X0000000Y0056586D01*
X0000000Y0055800D02*
X0046181Y0055800D01*
X0046181Y0055014D02*
X0000000Y0055014D01*
X0000000Y0054228D02*
X0046181Y0054228D01*
X0046301Y0053442D02*
X0000000Y0053442D01*
X0000000Y0052656D02*
X0046627Y0052656D01*
X0046952Y0051870D02*
X0000000Y0051870D01*
X0000000Y0051084D02*
X0047328Y0051084D01*
X0048114Y0050298D02*
X0000000Y0050298D01*
X0000000Y0049513D02*
X0048900Y0049513D01*
X0050370Y0048727D02*
X0000000Y0048727D01*
X0000000Y0046369D02*
X0095947Y0046369D01*
X0095161Y0045583D02*
X0000000Y0045583D01*
X0000000Y0044797D02*
X0094882Y0044797D01*
X0094882Y0044011D02*
X0000000Y0044011D01*
X0000000Y0043225D02*
X0094882Y0043225D01*
X0094882Y0042439D02*
X0000000Y0042439D01*
X0000000Y0041653D02*
X0094882Y0041653D01*
X0094882Y0040867D02*
X0000000Y0040867D01*
X0000000Y0040082D02*
X0094882Y0040082D01*
X0094882Y0039296D02*
X0000000Y0039296D01*
X0000000Y0038510D02*
X0094882Y0038510D01*
X0094882Y0037724D02*
X0000000Y0037724D01*
X0000000Y0036938D02*
X0094882Y0036938D01*
X0094882Y0036152D02*
X0000000Y0036152D01*
X0000000Y0035366D02*
X0094882Y0035366D01*
X0069953Y0034580D02*
X0000000Y0034580D01*
X0000000Y0033794D02*
X0068055Y0033794D01*
X0067019Y0033008D02*
X0000000Y0033008D01*
X0000000Y0032222D02*
X0066234Y0032222D01*
X0065448Y0031437D02*
X0000000Y0031437D01*
X0000000Y0030651D02*
X0064839Y0030651D01*
X0064514Y0029865D02*
X0000000Y0029865D01*
X0000000Y0029079D02*
X0064188Y0029079D01*
X0063863Y0028293D02*
X0000000Y0028293D01*
X0000000Y0027507D02*
X0063537Y0027507D01*
X0063524Y0026721D02*
X0000000Y0026721D01*
X0000000Y0025935D02*
X0063524Y0025935D01*
X0063524Y0025149D02*
X0000000Y0025149D01*
X0000000Y0024363D02*
X0063524Y0024363D01*
X0125591Y0024363D02*
X0354724Y0024363D01*
X0354724Y0023577D02*
X0125591Y0023577D01*
X0125591Y0022791D02*
X0354724Y0022791D01*
X0354724Y0022006D02*
X0125591Y0022006D01*
X0125591Y0021220D02*
X0354724Y0021220D01*
X0354724Y0020434D02*
X0125591Y0020434D01*
X0125591Y0019648D02*
X0354724Y0019648D01*
X0354724Y0018862D02*
X0125591Y0018862D01*
X0125591Y0018076D02*
X0354724Y0018076D01*
X0354724Y0017290D02*
X0125591Y0017290D01*
X0125591Y0016504D02*
X0354724Y0016504D01*
X0354724Y0015718D02*
X0125591Y0015718D01*
X0125591Y0014932D02*
X0354724Y0014932D01*
X0354724Y0014146D02*
X0125591Y0014146D01*
X0125591Y0013361D02*
X0354724Y0013361D01*
X0354724Y0012575D02*
X0125591Y0012575D01*
X0125591Y0011789D02*
X0354724Y0011789D01*
X0354724Y0011003D02*
X0125591Y0011003D01*
X0125591Y0010217D02*
X0354724Y0010217D01*
X0354724Y0009431D02*
X0125591Y0009431D01*
X0125591Y0008645D02*
X0354724Y0008645D01*
X0354724Y0007859D02*
X0125591Y0007859D01*
X0125591Y0007073D02*
X0354724Y0007073D01*
X0354724Y0006287D02*
X0125591Y0006287D01*
X0125214Y0005501D02*
X0355101Y0005501D01*
X0354724Y0025149D02*
X0125591Y0025149D01*
X0125591Y0025935D02*
X0354724Y0025935D01*
X0354724Y0026721D02*
X0125591Y0026721D01*
X0125591Y0027507D02*
X0354724Y0027507D01*
X0354724Y0028293D02*
X0125591Y0028293D01*
X0125591Y0029079D02*
X0354724Y0029079D01*
X0354724Y0029865D02*
X0125591Y0029865D01*
X0125591Y0030651D02*
X0354724Y0030651D01*
X0354724Y0031437D02*
X0125591Y0031437D01*
X0125591Y0032222D02*
X0354724Y0032222D01*
X0354724Y0033008D02*
X0125591Y0033008D01*
X0125591Y0033794D02*
X0354724Y0033794D01*
X0354724Y0034580D02*
X0125591Y0034580D01*
X0125591Y0035366D02*
X0354724Y0035366D01*
X0354724Y0036152D02*
X0125591Y0036152D01*
X0125591Y0036938D02*
X0354724Y0036938D01*
X0354724Y0037724D02*
X0125591Y0037724D01*
X0125591Y0038510D02*
X0354724Y0038510D01*
X0376616Y0057372D02*
X0264606Y0057372D01*
X0264415Y0057181D02*
X0265568Y0058335D01*
X0265568Y0067765D01*
X0264415Y0068918D01*
X0260668Y0068918D01*
X0260668Y0074331D01*
X0265630Y0074331D01*
X0266795Y0074814D01*
X0267686Y0075705D01*
X0268168Y0076870D01*
X0268168Y0095866D01*
X0270306Y0095866D01*
X0270263Y0095848D01*
X0269152Y0094737D01*
X0268550Y0093286D01*
X0268550Y0091714D01*
X0269152Y0090263D01*
X0269331Y0090083D01*
X0269331Y0089370D01*
X0269814Y0088205D01*
X0270705Y0087314D01*
X0271870Y0086831D01*
X0295630Y0086831D01*
X0296795Y0087314D01*
X0297686Y0088205D01*
X0298168Y0089370D01*
X0298168Y0096831D01*
X0305083Y0096831D01*
X0305263Y0096652D01*
X0306714Y0096050D01*
X0308286Y0096050D01*
X0309737Y0096652D01*
X0309917Y0096831D01*
X0313218Y0096831D01*
X0314235Y0095815D01*
X0316049Y0095063D01*
X0323951Y0095063D01*
X0325765Y0095815D01*
X0327154Y0097203D01*
X0327905Y0099018D01*
X0327905Y0100982D01*
X0327154Y0102797D01*
X0325765Y0104185D01*
X0323951Y0104937D01*
X0316049Y0104937D01*
X0314235Y0104185D01*
X0313218Y0103168D01*
X0309917Y0103168D01*
X0309737Y0103348D01*
X0308286Y0103950D01*
X0306714Y0103950D01*
X0305263Y0103348D01*
X0305083Y0103168D01*
X0294370Y0103168D01*
X0293205Y0102686D01*
X0293168Y0102649D01*
X0293168Y0106831D01*
X0305083Y0106831D01*
X0305263Y0106652D01*
X0306714Y0106050D01*
X0308286Y0106050D01*
X0309737Y0106652D01*
X0309917Y0106831D01*
X0313218Y0106831D01*
X0314235Y0105815D01*
X0316049Y0105063D01*
X0323951Y0105063D01*
X0325765Y0105815D01*
X0327154Y0107203D01*
X0327905Y0109018D01*
X0327905Y0110982D01*
X0327154Y0112797D01*
X0325765Y0114185D01*
X0323951Y0114937D01*
X0316049Y0114937D01*
X0314235Y0114185D01*
X0313218Y0113168D01*
X0309917Y0113168D01*
X0309737Y0113348D01*
X0308286Y0113950D01*
X0306714Y0113950D01*
X0305263Y0113348D01*
X0305083Y0113168D01*
X0289370Y0113168D01*
X0288205Y0112686D01*
X0288168Y0112649D01*
X0288168Y0116831D01*
X0305083Y0116831D01*
X0305263Y0116652D01*
X0306714Y0116050D01*
X0308286Y0116050D01*
X0309737Y0116652D01*
X0309917Y0116831D01*
X0313218Y0116831D01*
X0314235Y0115815D01*
X0316049Y0115063D01*
X0323951Y0115063D01*
X0325765Y0115815D01*
X0327154Y0117203D01*
X0327905Y0119018D01*
X0327905Y0120982D01*
X0327154Y0122797D01*
X0325765Y0124185D01*
X0323951Y0124937D01*
X0316049Y0124937D01*
X0314235Y0124185D01*
X0313218Y0123168D01*
X0309917Y0123168D01*
X0309737Y0123348D01*
X0308286Y0123950D01*
X0306714Y0123950D01*
X0305263Y0123348D01*
X0305083Y0123168D01*
X0284370Y0123168D01*
X0283205Y0122686D01*
X0282314Y0121795D01*
X0281831Y0120630D01*
X0281831Y0106496D01*
X0277905Y0106496D01*
X0277500Y0106091D01*
X0277095Y0106496D01*
X0272905Y0106496D01*
X0272500Y0106091D01*
X0272095Y0106496D01*
X0267905Y0106496D01*
X0267500Y0106091D01*
X0267095Y0106496D01*
X0262905Y0106496D01*
X0262500Y0106091D01*
X0262095Y0106496D01*
X0257905Y0106496D01*
X0257500Y0106091D01*
X0257095Y0106496D01*
X0252905Y0106496D01*
X0252500Y0106091D01*
X0252095Y0106496D01*
X0248168Y0106496D01*
X0248168Y0110630D01*
X0247686Y0111795D01*
X0246795Y0112686D01*
X0245630Y0113168D01*
X0189370Y0113168D01*
X0188205Y0112686D01*
X0187314Y0111795D01*
X0186831Y0110630D01*
X0186831Y0090668D01*
X0160668Y0090668D01*
X0160668Y0110394D01*
X0160650Y0110440D01*
X0160650Y0114910D01*
X0159496Y0116063D01*
X0155504Y0116063D01*
X0154350Y0114910D01*
X0154350Y0110440D01*
X0154331Y0110394D01*
X0154331Y0102943D01*
X0153832Y0102943D01*
X0153288Y0103168D01*
X0089917Y0103168D01*
X0089737Y0103348D01*
X0088286Y0103950D01*
X0086714Y0103950D01*
X0085263Y0103348D01*
X0085083Y0103168D01*
X0076145Y0103168D01*
X0075841Y0103903D01*
X0073903Y0105841D01*
X0071370Y0106890D01*
X0068630Y0106890D01*
X0066097Y0105841D01*
X0064159Y0103903D01*
X0063110Y0101370D01*
X0063110Y0098630D01*
X0064159Y0096097D01*
X0066097Y0094159D01*
X0068630Y0093110D01*
X0071370Y0093110D01*
X0073903Y0094159D01*
X0075841Y0096097D01*
X0076145Y0096831D01*
X0085083Y0096831D01*
X0085263Y0096652D01*
X0086714Y0096050D01*
X0088286Y0096050D01*
X0089737Y0096652D01*
X0089917Y0096831D01*
X0145965Y0096831D01*
X0145965Y0090710D01*
X0147118Y0089557D01*
X0154331Y0089557D01*
X0154331Y0086870D01*
X0154814Y0085705D01*
X0155705Y0084814D01*
X0156870Y0084331D01*
X0190630Y0084331D01*
X0191795Y0084814D01*
X0192686Y0085705D01*
X0193168Y0086870D01*
X0193168Y0106831D01*
X0241831Y0106831D01*
X0241831Y0105422D01*
X0241752Y0105343D01*
X0241752Y0097019D01*
X0241831Y0096940D01*
X0241831Y0096387D01*
X0241713Y0096268D01*
X0241713Y0088732D01*
X0242866Y0087579D01*
X0249615Y0087579D01*
X0250768Y0088732D01*
X0250768Y0089331D01*
X0255083Y0089331D01*
X0255263Y0089152D01*
X0256714Y0088550D01*
X0258286Y0088550D01*
X0259737Y0089152D01*
X0260848Y0090263D01*
X0261450Y0091714D01*
X0261450Y0093286D01*
X0260848Y0094737D01*
X0259737Y0095848D01*
X0259694Y0095866D01*
X0261831Y0095866D01*
X0261831Y0080668D01*
X0256870Y0080668D01*
X0255705Y0080186D01*
X0254814Y0079295D01*
X0254331Y0078130D01*
X0254331Y0062420D01*
X0254431Y0062178D01*
X0254431Y0058335D01*
X0255585Y0057181D01*
X0259415Y0057181D01*
X0260000Y0057766D01*
X0260585Y0057181D01*
X0264415Y0057181D01*
X0265391Y0058158D02*
X0376142Y0058158D01*
X0376142Y0058943D02*
X0265568Y0058943D01*
X0265568Y0059729D02*
X0376142Y0059729D01*
X0376142Y0060515D02*
X0265568Y0060515D01*
X0265568Y0061301D02*
X0376142Y0061301D01*
X0376142Y0062087D02*
X0265568Y0062087D01*
X0265568Y0062873D02*
X0376142Y0062873D01*
X0376142Y0063659D02*
X0265568Y0063659D01*
X0265568Y0064445D02*
X0376142Y0064445D01*
X0376142Y0065231D02*
X0265568Y0065231D01*
X0265568Y0066017D02*
X0376142Y0066017D01*
X0376142Y0066803D02*
X0265568Y0066803D01*
X0265568Y0067589D02*
X0376142Y0067589D01*
X0376142Y0068374D02*
X0264959Y0068374D01*
X0260668Y0069160D02*
X0376142Y0069160D01*
X0376142Y0069946D02*
X0260668Y0069946D01*
X0260668Y0070732D02*
X0376142Y0070732D01*
X0376142Y0071518D02*
X0260668Y0071518D01*
X0260668Y0072304D02*
X0376142Y0072304D01*
X0376369Y0073090D02*
X0260668Y0073090D01*
X0260668Y0073876D02*
X0377155Y0073876D01*
X0383003Y0073876D02*
X0480315Y0073876D01*
X0480315Y0074662D02*
X0266427Y0074662D01*
X0267429Y0075448D02*
X0480315Y0075448D01*
X0480315Y0076234D02*
X0267905Y0076234D01*
X0268168Y0077019D02*
X0480315Y0077019D01*
X0480315Y0077805D02*
X0268168Y0077805D01*
X0268168Y0078591D02*
X0480315Y0078591D01*
X0480315Y0079377D02*
X0268168Y0079377D01*
X0268168Y0080163D02*
X0480315Y0080163D01*
X0480315Y0080949D02*
X0268168Y0080949D01*
X0268168Y0081735D02*
X0480315Y0081735D01*
X0480315Y0082521D02*
X0268168Y0082521D01*
X0268168Y0083307D02*
X0480315Y0083307D01*
X0480315Y0084093D02*
X0268168Y0084093D01*
X0268168Y0084879D02*
X0480315Y0084879D01*
X0480315Y0085665D02*
X0268168Y0085665D01*
X0268168Y0086450D02*
X0480315Y0086450D01*
X0480315Y0087236D02*
X0296608Y0087236D01*
X0297503Y0088022D02*
X0480315Y0088022D01*
X0480315Y0088808D02*
X0297936Y0088808D01*
X0298168Y0089594D02*
X0480315Y0089594D01*
X0480315Y0090380D02*
X0298168Y0090380D01*
X0298168Y0091166D02*
X0480315Y0091166D01*
X0480315Y0091952D02*
X0298168Y0091952D01*
X0298168Y0092738D02*
X0480315Y0092738D01*
X0480315Y0093524D02*
X0298168Y0093524D01*
X0298168Y0094310D02*
X0480315Y0094310D01*
X0480315Y0095095D02*
X0324029Y0095095D01*
X0325832Y0095881D02*
X0480315Y0095881D01*
X0480315Y0096667D02*
X0326618Y0096667D01*
X0327257Y0097453D02*
X0480315Y0097453D01*
X0480315Y0098239D02*
X0327583Y0098239D01*
X0327905Y0099025D02*
X0480315Y0099025D01*
X0480315Y0099811D02*
X0327905Y0099811D01*
X0327905Y0100597D02*
X0480315Y0100597D01*
X0480315Y0101383D02*
X0327740Y0101383D01*
X0327414Y0102169D02*
X0480315Y0102169D01*
X0480315Y0102955D02*
X0326996Y0102955D01*
X0326210Y0103741D02*
X0480315Y0103741D01*
X0480315Y0104526D02*
X0324942Y0104526D01*
X0324552Y0105312D02*
X0480315Y0105312D01*
X0480315Y0106098D02*
X0326049Y0106098D01*
X0326835Y0106884D02*
X0480315Y0106884D01*
X0480315Y0107670D02*
X0327347Y0107670D01*
X0327673Y0108456D02*
X0480315Y0108456D01*
X0480315Y0109242D02*
X0327905Y0109242D01*
X0327905Y0110028D02*
X0480315Y0110028D01*
X0480315Y0110814D02*
X0327905Y0110814D01*
X0327650Y0111600D02*
X0480315Y0111600D01*
X0480315Y0112386D02*
X0327324Y0112386D01*
X0326779Y0113171D02*
X0480315Y0113171D01*
X0480315Y0113957D02*
X0325993Y0113957D01*
X0324418Y0114743D02*
X0480315Y0114743D01*
X0480315Y0115529D02*
X0325076Y0115529D01*
X0326266Y0116315D02*
X0480315Y0116315D01*
X0480315Y0117101D02*
X0327052Y0117101D01*
X0327437Y0117887D02*
X0480315Y0117887D01*
X0480315Y0118673D02*
X0327763Y0118673D01*
X0327905Y0119459D02*
X0480315Y0119459D01*
X0480315Y0120245D02*
X0327905Y0120245D01*
X0327885Y0121031D02*
X0480315Y0121031D01*
X0480315Y0121816D02*
X0327560Y0121816D01*
X0327234Y0122602D02*
X0480315Y0122602D01*
X0480315Y0123388D02*
X0326562Y0123388D01*
X0325776Y0124174D02*
X0480315Y0124174D01*
X0480315Y0124960D02*
X0268168Y0124960D01*
X0268168Y0124174D02*
X0314224Y0124174D01*
X0313438Y0123388D02*
X0309641Y0123388D01*
X0309448Y0126532D02*
X0313518Y0126532D01*
X0314400Y0125746D02*
X0268168Y0125746D01*
X0268168Y0126532D02*
X0305552Y0126532D01*
X0305359Y0123388D02*
X0268168Y0123388D01*
X0268168Y0122602D02*
X0283121Y0122602D01*
X0282336Y0121816D02*
X0268168Y0121816D01*
X0268168Y0121031D02*
X0281997Y0121031D01*
X0281831Y0120245D02*
X0268168Y0120245D01*
X0268168Y0119459D02*
X0281831Y0119459D01*
X0281831Y0118673D02*
X0267880Y0118673D01*
X0267368Y0117887D02*
X0281831Y0117887D01*
X0281831Y0117101D02*
X0266281Y0117101D01*
X0261831Y0123388D02*
X0089641Y0123388D01*
X0085359Y0123388D02*
X0076054Y0123388D01*
X0075569Y0124174D02*
X0155266Y0124174D01*
X0154480Y0124960D02*
X0074783Y0124960D01*
X0073998Y0125746D02*
X0154350Y0125746D01*
X0154350Y0126532D02*
X0072234Y0126532D01*
X0067766Y0126532D02*
X0000000Y0126532D01*
X0000000Y0127318D02*
X0154350Y0127318D01*
X0154350Y0128104D02*
X0000000Y0128104D01*
X0000000Y0128890D02*
X0154350Y0128890D01*
X0154331Y0129676D02*
X0000000Y0129676D01*
X0000000Y0130462D02*
X0154331Y0130462D01*
X0154331Y0131247D02*
X0000000Y0131247D01*
X0000000Y0132033D02*
X0154331Y0132033D01*
X0154331Y0132819D02*
X0000000Y0132819D01*
X0000000Y0133605D02*
X0027435Y0133605D01*
X0028630Y0133110D02*
X0031370Y0133110D01*
X0033903Y0134159D01*
X0035841Y0136097D01*
X0036890Y0138630D01*
X0036890Y0141370D01*
X0035841Y0143903D01*
X0033903Y0145841D01*
X0031370Y0146890D01*
X0028630Y0146890D01*
X0026097Y0145841D01*
X0024159Y0143903D01*
X0023110Y0141370D01*
X0023110Y0138630D01*
X0024159Y0136097D01*
X0026097Y0134159D01*
X0028630Y0133110D01*
X0025865Y0134391D02*
X0000000Y0134391D01*
X0000000Y0135177D02*
X0025079Y0135177D01*
X0024293Y0135963D02*
X0000000Y0135963D01*
X0000000Y0136749D02*
X0023889Y0136749D01*
X0023564Y0137535D02*
X0000000Y0137535D01*
X0000000Y0138321D02*
X0023238Y0138321D01*
X0023110Y0139107D02*
X0000000Y0139107D01*
X0000000Y0139892D02*
X0023110Y0139892D01*
X0023110Y0140678D02*
X0000000Y0140678D01*
X0000000Y0141464D02*
X0023149Y0141464D01*
X0023475Y0142250D02*
X0000000Y0142250D01*
X0000000Y0143036D02*
X0023800Y0143036D01*
X0024126Y0143822D02*
X0000000Y0143822D01*
X0000000Y0144608D02*
X0024864Y0144608D01*
X0025650Y0145394D02*
X0000000Y0145394D01*
X0000000Y0146180D02*
X0026916Y0146180D01*
X0033084Y0146180D02*
X0046916Y0146180D01*
X0046097Y0145841D02*
X0044159Y0143903D01*
X0043110Y0141370D01*
X0043110Y0138630D01*
X0044159Y0136097D01*
X0046097Y0134159D01*
X0048630Y0133110D01*
X0051370Y0133110D01*
X0053903Y0134159D01*
X0055841Y0136097D01*
X0056890Y0138630D01*
X0056890Y0141370D01*
X0055841Y0143903D01*
X0053903Y0145841D01*
X0051370Y0146890D01*
X0048630Y0146890D01*
X0046097Y0145841D01*
X0045650Y0145394D02*
X0034350Y0145394D01*
X0035136Y0144608D02*
X0044864Y0144608D01*
X0044126Y0143822D02*
X0035874Y0143822D01*
X0036200Y0143036D02*
X0043800Y0143036D01*
X0043475Y0142250D02*
X0036525Y0142250D01*
X0036851Y0141464D02*
X0043149Y0141464D01*
X0043110Y0140678D02*
X0036890Y0140678D01*
X0036890Y0139892D02*
X0043110Y0139892D01*
X0043110Y0139107D02*
X0036890Y0139107D01*
X0036762Y0138321D02*
X0043238Y0138321D01*
X0043564Y0137535D02*
X0036436Y0137535D01*
X0036111Y0136749D02*
X0043889Y0136749D01*
X0044293Y0135963D02*
X0035707Y0135963D01*
X0034921Y0135177D02*
X0045079Y0135177D01*
X0045865Y0134391D02*
X0034135Y0134391D01*
X0032565Y0133605D02*
X0047435Y0133605D01*
X0052565Y0133605D02*
X0154331Y0133605D01*
X0154331Y0134391D02*
X0054135Y0134391D01*
X0054921Y0135177D02*
X0154331Y0135177D01*
X0154331Y0135963D02*
X0055707Y0135963D01*
X0056111Y0136749D02*
X0154331Y0136749D01*
X0160668Y0136749D02*
X0216752Y0136749D01*
X0216752Y0137535D02*
X0160668Y0137535D01*
X0160668Y0138321D02*
X0216752Y0138321D01*
X0216752Y0139107D02*
X0160668Y0139107D01*
X0160668Y0139892D02*
X0216752Y0139892D01*
X0216752Y0140678D02*
X0160668Y0140678D01*
X0160668Y0141464D02*
X0216752Y0141464D01*
X0216752Y0142250D02*
X0160668Y0142250D01*
X0160668Y0143036D02*
X0216807Y0143036D01*
X0216752Y0142981D02*
X0217905Y0144134D01*
X0222095Y0144134D01*
X0222500Y0143729D01*
X0222905Y0144134D01*
X0227095Y0144134D01*
X0227500Y0143729D01*
X0227905Y0144134D01*
X0232095Y0144134D01*
X0232500Y0143729D01*
X0232905Y0144134D01*
X0237095Y0144134D01*
X0237500Y0143729D01*
X0237905Y0144134D01*
X0242095Y0144134D01*
X0242500Y0143729D01*
X0242905Y0144134D01*
X0247095Y0144134D01*
X0248248Y0142981D01*
X0248248Y0134657D01*
X0247095Y0133504D01*
X0242905Y0133504D01*
X0242500Y0133909D01*
X0242095Y0133504D01*
X0237905Y0133504D01*
X0237500Y0133909D01*
X0237095Y0133504D01*
X0232905Y0133504D01*
X0232500Y0133909D01*
X0232095Y0133504D01*
X0227905Y0133504D01*
X0227500Y0133909D01*
X0227095Y0133504D01*
X0222905Y0133504D01*
X0222500Y0133909D01*
X0222095Y0133504D01*
X0217905Y0133504D01*
X0216752Y0134657D01*
X0216752Y0142981D01*
X0217593Y0143822D02*
X0160668Y0143822D01*
X0160574Y0144608D02*
X0251713Y0144608D01*
X0251713Y0145394D02*
X0160249Y0145394D01*
X0159551Y0146180D02*
X0251713Y0146180D01*
X0251713Y0146966D02*
X0159350Y0146966D01*
X0159350Y0147752D02*
X0251713Y0147752D01*
X0251713Y0148538D02*
X0159350Y0148538D01*
X0159317Y0149323D02*
X0251713Y0149323D01*
X0251713Y0150109D02*
X0158531Y0150109D01*
X0157893Y0150895D02*
X0251713Y0150895D01*
X0252126Y0151681D02*
X0157893Y0151681D01*
X0157893Y0152467D02*
X0265497Y0152467D01*
X0265482Y0153253D02*
X0157893Y0153253D01*
X0157893Y0154039D02*
X0265482Y0154039D01*
X0265482Y0154825D02*
X0157893Y0154825D01*
X0157893Y0155611D02*
X0265482Y0155611D01*
X0265482Y0156397D02*
X0157893Y0156397D01*
X0157893Y0157183D02*
X0265482Y0157183D01*
X0265482Y0157968D02*
X0157893Y0157968D01*
X0157893Y0158754D02*
X0265482Y0158754D01*
X0265482Y0159540D02*
X0157893Y0159540D01*
X0157893Y0160326D02*
X0265790Y0160326D01*
X0266576Y0161112D02*
X0157893Y0161112D01*
X0157893Y0161898D02*
X0274331Y0161898D01*
X0274331Y0162684D02*
X0157893Y0162684D01*
X0157893Y0163470D02*
X0274331Y0163470D01*
X0274331Y0164256D02*
X0157893Y0164256D01*
X0157893Y0165042D02*
X0272702Y0165042D01*
X0271988Y0165828D02*
X0157893Y0165828D01*
X0157893Y0166614D02*
X0271662Y0166614D01*
X0271556Y0167399D02*
X0157893Y0167399D01*
X0157893Y0168185D02*
X0271556Y0168185D01*
X0271556Y0168971D02*
X0157893Y0168971D01*
X0157893Y0169757D02*
X0271556Y0169757D01*
X0271556Y0170543D02*
X0236911Y0170543D01*
X0238809Y0171329D02*
X0271191Y0171329D01*
X0269495Y0172115D02*
X0240505Y0172115D01*
X0241291Y0172901D02*
X0268709Y0172901D01*
X0267923Y0173687D02*
X0242077Y0173687D01*
X0242863Y0174473D02*
X0267137Y0174473D01*
X0266715Y0175259D02*
X0243285Y0175259D01*
X0243610Y0176044D02*
X0266390Y0176044D01*
X0266064Y0176830D02*
X0243936Y0176830D01*
X0244261Y0177616D02*
X0265739Y0177616D01*
X0265531Y0178402D02*
X0244468Y0178402D01*
X0244468Y0179188D02*
X0265531Y0179188D01*
X0265531Y0179974D02*
X0244468Y0179974D01*
X0244468Y0180760D02*
X0265531Y0180760D01*
X0265531Y0181546D02*
X0244468Y0181546D01*
X0244468Y0182332D02*
X0265531Y0182332D01*
X0265531Y0183118D02*
X0244468Y0183118D01*
X0244468Y0183904D02*
X0265531Y0183904D01*
X0265531Y0184690D02*
X0244468Y0184690D01*
X0244468Y0185475D02*
X0265531Y0185475D01*
X0265531Y0186261D02*
X0244468Y0186261D01*
X0244468Y0187047D02*
X0265531Y0187047D01*
X0265531Y0187833D02*
X0244468Y0187833D01*
X0244468Y0188619D02*
X0265531Y0188619D01*
X0265531Y0189405D02*
X0244468Y0189405D01*
X0244468Y0190191D02*
X0265531Y0190191D01*
X0284468Y0190191D02*
X0480315Y0190191D01*
X0480315Y0190977D02*
X0284468Y0190977D01*
X0284468Y0191763D02*
X0480315Y0191763D01*
X0480315Y0192549D02*
X0284468Y0192549D01*
X0284468Y0193335D02*
X0480315Y0193335D01*
X0480315Y0194120D02*
X0284468Y0194120D01*
X0284468Y0194906D02*
X0480315Y0194906D01*
X0480315Y0195692D02*
X0284468Y0195692D01*
X0284468Y0196478D02*
X0480315Y0196478D01*
X0480315Y0197264D02*
X0284468Y0197264D01*
X0284468Y0198050D02*
X0480315Y0198050D01*
X0480315Y0198836D02*
X0284468Y0198836D01*
X0284468Y0199622D02*
X0480315Y0199622D01*
X0480315Y0200408D02*
X0284468Y0200408D01*
X0284468Y0201194D02*
X0480283Y0201194D01*
X0480221Y0201980D02*
X0284429Y0201980D01*
X0284103Y0202766D02*
X0480039Y0202766D01*
X0479793Y0203551D02*
X0283778Y0203551D01*
X0283452Y0204337D02*
X0479467Y0204337D01*
X0478990Y0205123D02*
X0283127Y0205123D01*
X0282481Y0205909D02*
X0478390Y0205909D01*
X0477611Y0206695D02*
X0281695Y0206695D01*
X0280909Y0207481D02*
X0476541Y0207481D01*
X0474896Y0208267D02*
X0279784Y0208267D01*
X0284468Y0189405D02*
X0480315Y0189405D01*
X0480315Y0188619D02*
X0284468Y0188619D01*
X0284468Y0187833D02*
X0480315Y0187833D01*
X0480315Y0187047D02*
X0284468Y0187047D01*
X0284468Y0186261D02*
X0480315Y0186261D01*
X0480315Y0185475D02*
X0284468Y0185475D01*
X0284468Y0184690D02*
X0480315Y0184690D01*
X0480315Y0183904D02*
X0284468Y0183904D01*
X0284468Y0183118D02*
X0480315Y0183118D01*
X0480315Y0182332D02*
X0284468Y0182332D01*
X0284468Y0181546D02*
X0480315Y0181546D01*
X0480315Y0180760D02*
X0284468Y0180760D01*
X0284468Y0179974D02*
X0480315Y0179974D01*
X0480315Y0179188D02*
X0284468Y0179188D01*
X0284468Y0178402D02*
X0480315Y0178402D01*
X0480315Y0177616D02*
X0284261Y0177616D01*
X0283936Y0176830D02*
X0480315Y0176830D01*
X0480315Y0176044D02*
X0283610Y0176044D01*
X0283285Y0175259D02*
X0480315Y0175259D01*
X0480315Y0174473D02*
X0282863Y0174473D01*
X0282077Y0173687D02*
X0480315Y0173687D01*
X0480315Y0172901D02*
X0281291Y0172901D01*
X0280505Y0172115D02*
X0480315Y0172115D01*
X0480315Y0171329D02*
X0278809Y0171329D01*
X0278433Y0170543D02*
X0480315Y0170543D01*
X0480315Y0169757D02*
X0279724Y0169757D01*
X0280320Y0168971D02*
X0480315Y0168971D01*
X0480315Y0168185D02*
X0280646Y0168185D01*
X0280668Y0167399D02*
X0480315Y0167399D01*
X0480315Y0166614D02*
X0280668Y0166614D01*
X0280668Y0165828D02*
X0480315Y0165828D01*
X0480315Y0165042D02*
X0280668Y0165042D01*
X0280668Y0164256D02*
X0480315Y0164256D01*
X0480315Y0163470D02*
X0280668Y0163470D01*
X0280668Y0162684D02*
X0480315Y0162684D01*
X0480315Y0161898D02*
X0280668Y0161898D01*
X0280924Y0161112D02*
X0480315Y0161112D01*
X0480315Y0160326D02*
X0281710Y0160326D01*
X0282018Y0159540D02*
X0480315Y0159540D01*
X0480315Y0158754D02*
X0282018Y0158754D01*
X0282018Y0157968D02*
X0480315Y0157968D01*
X0480315Y0157183D02*
X0282018Y0157183D01*
X0282018Y0156397D02*
X0480315Y0156397D01*
X0480315Y0155611D02*
X0282018Y0155611D01*
X0282018Y0154825D02*
X0480315Y0154825D01*
X0480315Y0154039D02*
X0282018Y0154039D01*
X0282018Y0153253D02*
X0480315Y0153253D01*
X0480315Y0152467D02*
X0282003Y0152467D01*
X0281217Y0151681D02*
X0480315Y0151681D01*
X0480315Y0150895D02*
X0274537Y0150895D01*
X0274537Y0150109D02*
X0480315Y0150109D01*
X0480315Y0149323D02*
X0274537Y0149323D01*
X0274537Y0148538D02*
X0480315Y0148538D01*
X0480315Y0147752D02*
X0274537Y0147752D01*
X0274537Y0146966D02*
X0480315Y0146966D01*
X0480315Y0146180D02*
X0274537Y0146180D01*
X0274537Y0145394D02*
X0480315Y0145394D01*
X0480315Y0144608D02*
X0274537Y0144608D01*
X0277407Y0143822D02*
X0277593Y0143822D01*
X0282407Y0143822D02*
X0282593Y0143822D01*
X0287407Y0143822D02*
X0480315Y0143822D01*
X0480315Y0143036D02*
X0288193Y0143036D01*
X0288248Y0142250D02*
X0480315Y0142250D01*
X0480315Y0141464D02*
X0288248Y0141464D01*
X0288248Y0140678D02*
X0480315Y0140678D01*
X0480315Y0139892D02*
X0288248Y0139892D01*
X0288248Y0139107D02*
X0480315Y0139107D01*
X0480315Y0138321D02*
X0288248Y0138321D01*
X0288248Y0137535D02*
X0480315Y0137535D01*
X0480315Y0136749D02*
X0288248Y0136749D01*
X0288248Y0135963D02*
X0480315Y0135963D01*
X0480315Y0135177D02*
X0288248Y0135177D01*
X0288168Y0134391D02*
X0314732Y0134391D01*
X0313655Y0133605D02*
X0309117Y0133605D01*
X0305883Y0133605D02*
X0288168Y0133605D01*
X0281831Y0132819D02*
X0268168Y0132819D01*
X0268168Y0132033D02*
X0281831Y0132033D01*
X0281831Y0131247D02*
X0268168Y0131247D01*
X0268168Y0130462D02*
X0281831Y0130462D01*
X0281831Y0129676D02*
X0268168Y0129676D01*
X0268168Y0128890D02*
X0282030Y0128890D01*
X0282415Y0128104D02*
X0268168Y0128104D01*
X0268168Y0127318D02*
X0283201Y0127318D01*
X0277804Y0133605D02*
X0277196Y0133605D01*
X0272804Y0133605D02*
X0272196Y0133605D01*
X0261831Y0132819D02*
X0175650Y0132819D01*
X0175650Y0132033D02*
X0261831Y0132033D01*
X0261831Y0131247D02*
X0175650Y0131247D01*
X0175650Y0130462D02*
X0261831Y0130462D01*
X0261831Y0129676D02*
X0175650Y0129676D01*
X0175650Y0128890D02*
X0261831Y0128890D01*
X0261831Y0128104D02*
X0175650Y0128104D01*
X0175650Y0127318D02*
X0261831Y0127318D01*
X0261831Y0126532D02*
X0175650Y0126532D01*
X0175650Y0125746D02*
X0261831Y0125746D01*
X0261831Y0124960D02*
X0175520Y0124960D01*
X0175650Y0125090D02*
X0174496Y0123937D01*
X0170504Y0123937D01*
X0169350Y0125090D01*
X0169350Y0135382D01*
X0170504Y0136535D01*
X0174496Y0136535D01*
X0175650Y0135382D01*
X0175650Y0125090D01*
X0174734Y0124174D02*
X0261831Y0124174D01*
X0257804Y0133605D02*
X0257196Y0133605D01*
X0252804Y0133605D02*
X0247196Y0133605D01*
X0247982Y0134391D02*
X0252018Y0134391D01*
X0251752Y0135177D02*
X0248248Y0135177D01*
X0248248Y0135963D02*
X0251752Y0135963D01*
X0251752Y0136749D02*
X0248248Y0136749D01*
X0248248Y0137535D02*
X0251752Y0137535D01*
X0251752Y0138321D02*
X0248248Y0138321D01*
X0248248Y0139107D02*
X0251752Y0139107D01*
X0251752Y0139892D02*
X0248248Y0139892D01*
X0248248Y0140678D02*
X0251752Y0140678D01*
X0251752Y0141464D02*
X0248248Y0141464D01*
X0248248Y0142250D02*
X0251752Y0142250D01*
X0251807Y0143036D02*
X0248193Y0143036D01*
X0247407Y0143822D02*
X0251713Y0143822D01*
X0260768Y0144608D02*
X0265482Y0144608D01*
X0265482Y0145394D02*
X0260768Y0145394D01*
X0260768Y0146180D02*
X0265482Y0146180D01*
X0265482Y0146966D02*
X0260768Y0146966D01*
X0260768Y0147752D02*
X0265482Y0147752D01*
X0265482Y0148538D02*
X0260768Y0148538D01*
X0260768Y0149323D02*
X0265482Y0149323D01*
X0265482Y0150109D02*
X0260768Y0150109D01*
X0260768Y0150895D02*
X0265482Y0150895D01*
X0265895Y0151681D02*
X0260355Y0151681D01*
X0262407Y0143822D02*
X0262593Y0143822D01*
X0242593Y0143822D02*
X0242407Y0143822D01*
X0237593Y0143822D02*
X0237407Y0143822D01*
X0232593Y0143822D02*
X0232407Y0143822D01*
X0227593Y0143822D02*
X0227407Y0143822D01*
X0222593Y0143822D02*
X0222407Y0143822D01*
X0216752Y0135963D02*
X0175069Y0135963D01*
X0175650Y0135177D02*
X0216752Y0135177D01*
X0217018Y0134391D02*
X0175650Y0134391D01*
X0175650Y0133605D02*
X0217804Y0133605D01*
X0222196Y0133605D02*
X0222804Y0133605D01*
X0227196Y0133605D02*
X0227804Y0133605D01*
X0232196Y0133605D02*
X0232804Y0133605D01*
X0237196Y0133605D02*
X0237804Y0133605D01*
X0242196Y0133605D02*
X0242804Y0133605D01*
X0281831Y0116315D02*
X0088925Y0116315D01*
X0086075Y0116315D02*
X0075931Y0116315D01*
X0075273Y0115529D02*
X0154970Y0115529D01*
X0154350Y0114743D02*
X0074487Y0114743D01*
X0073416Y0113957D02*
X0154350Y0113957D01*
X0154350Y0113171D02*
X0071518Y0113171D01*
X0068482Y0113171D02*
X0000000Y0113171D01*
X0000000Y0112386D02*
X0154350Y0112386D01*
X0154350Y0111600D02*
X0000000Y0111600D01*
X0000000Y0110814D02*
X0154350Y0110814D01*
X0154331Y0110028D02*
X0000000Y0110028D01*
X0000000Y0109242D02*
X0154331Y0109242D01*
X0154331Y0108456D02*
X0000000Y0108456D01*
X0000000Y0107670D02*
X0154331Y0107670D01*
X0154331Y0106884D02*
X0071384Y0106884D01*
X0073281Y0106098D02*
X0154331Y0106098D01*
X0154331Y0105312D02*
X0074431Y0105312D01*
X0075217Y0104526D02*
X0154331Y0104526D01*
X0154331Y0103741D02*
X0088790Y0103741D01*
X0086210Y0103741D02*
X0075908Y0103741D01*
X0066719Y0106098D02*
X0053281Y0106098D01*
X0053903Y0105841D02*
X0051370Y0106890D01*
X0048630Y0106890D01*
X0046097Y0105841D01*
X0044159Y0103903D01*
X0043110Y0101370D01*
X0043110Y0098630D01*
X0044159Y0096097D01*
X0046097Y0094159D01*
X0048630Y0093110D01*
X0051370Y0093110D01*
X0053903Y0094159D01*
X0055841Y0096097D01*
X0056890Y0098630D01*
X0056890Y0101370D01*
X0055841Y0103903D01*
X0053903Y0105841D01*
X0054431Y0105312D02*
X0065569Y0105312D01*
X0064783Y0104526D02*
X0055217Y0104526D01*
X0055908Y0103741D02*
X0064092Y0103741D01*
X0063766Y0102955D02*
X0056234Y0102955D01*
X0056559Y0102169D02*
X0063441Y0102169D01*
X0063115Y0101383D02*
X0056885Y0101383D01*
X0056890Y0100597D02*
X0063110Y0100597D01*
X0063110Y0099811D02*
X0056890Y0099811D01*
X0056890Y0099025D02*
X0063110Y0099025D01*
X0063272Y0098239D02*
X0056728Y0098239D01*
X0056402Y0097453D02*
X0063597Y0097453D01*
X0063923Y0096667D02*
X0056077Y0096667D01*
X0055625Y0095881D02*
X0064375Y0095881D01*
X0065161Y0095095D02*
X0054839Y0095095D01*
X0054053Y0094310D02*
X0065947Y0094310D01*
X0067631Y0093524D02*
X0052368Y0093524D01*
X0047631Y0093524D02*
X0032368Y0093524D01*
X0031370Y0093110D02*
X0033903Y0094159D01*
X0035841Y0096097D01*
X0036890Y0098630D01*
X0036890Y0101370D01*
X0035841Y0103903D01*
X0033903Y0105841D01*
X0031370Y0106890D01*
X0028630Y0106890D01*
X0026097Y0105841D01*
X0024159Y0103903D01*
X0023110Y0101370D01*
X0023110Y0098630D01*
X0024159Y0096097D01*
X0026097Y0094159D01*
X0028630Y0093110D01*
X0031370Y0093110D01*
X0034053Y0094310D02*
X0045947Y0094310D01*
X0045161Y0095095D02*
X0034839Y0095095D01*
X0035625Y0095881D02*
X0044375Y0095881D01*
X0043923Y0096667D02*
X0036077Y0096667D01*
X0036402Y0097453D02*
X0043597Y0097453D01*
X0043272Y0098239D02*
X0036728Y0098239D01*
X0036890Y0099025D02*
X0043110Y0099025D01*
X0043110Y0099811D02*
X0036890Y0099811D01*
X0036890Y0100597D02*
X0043110Y0100597D01*
X0043115Y0101383D02*
X0036885Y0101383D01*
X0036559Y0102169D02*
X0043441Y0102169D01*
X0043766Y0102955D02*
X0036234Y0102955D01*
X0035908Y0103741D02*
X0044092Y0103741D01*
X0044783Y0104526D02*
X0035217Y0104526D01*
X0034431Y0105312D02*
X0045569Y0105312D01*
X0046719Y0106098D02*
X0033281Y0106098D01*
X0031384Y0106884D02*
X0048616Y0106884D01*
X0051384Y0106884D02*
X0068616Y0106884D01*
X0066584Y0113957D02*
X0000000Y0113957D01*
X0000000Y0114743D02*
X0065513Y0114743D01*
X0064727Y0115529D02*
X0000000Y0115529D01*
X0000000Y0116315D02*
X0064069Y0116315D01*
X0063743Y0117101D02*
X0000000Y0117101D01*
X0000000Y0117887D02*
X0063418Y0117887D01*
X0063110Y0118673D02*
X0000000Y0118673D01*
X0000000Y0119459D02*
X0063110Y0119459D01*
X0063110Y0120245D02*
X0000000Y0120245D01*
X0000000Y0121031D02*
X0063110Y0121031D01*
X0063295Y0121816D02*
X0000000Y0121816D01*
X0000000Y0122602D02*
X0063621Y0122602D01*
X0063946Y0123388D02*
X0000000Y0123388D01*
X0000000Y0124174D02*
X0064431Y0124174D01*
X0065217Y0124960D02*
X0000000Y0124960D01*
X0000000Y0125746D02*
X0066002Y0125746D01*
X0056436Y0137535D02*
X0146640Y0137535D01*
X0145965Y0138321D02*
X0056762Y0138321D01*
X0056890Y0139107D02*
X0145965Y0139107D01*
X0145965Y0139892D02*
X0056890Y0139892D01*
X0056890Y0140678D02*
X0145965Y0140678D01*
X0145965Y0141464D02*
X0056851Y0141464D01*
X0056525Y0142250D02*
X0145965Y0142250D01*
X0145965Y0143036D02*
X0056200Y0143036D01*
X0055874Y0143822D02*
X0145965Y0143822D01*
X0145965Y0144608D02*
X0055136Y0144608D01*
X0054350Y0145394D02*
X0145965Y0145394D01*
X0145965Y0146180D02*
X0053084Y0146180D01*
X0000000Y0146966D02*
X0145965Y0146966D01*
X0145965Y0147752D02*
X0000000Y0147752D01*
X0000000Y0148538D02*
X0145965Y0148538D01*
X0145998Y0149323D02*
X0000000Y0149323D01*
X0000000Y0150109D02*
X0146784Y0150109D01*
X0151556Y0150895D02*
X0000000Y0150895D01*
X0000000Y0151681D02*
X0151556Y0151681D01*
X0151556Y0152467D02*
X0000000Y0152467D01*
X0000000Y0153253D02*
X0151556Y0153253D01*
X0151556Y0154039D02*
X0000000Y0154039D01*
X0000000Y0154825D02*
X0151556Y0154825D01*
X0151556Y0155611D02*
X0000000Y0155611D01*
X0000000Y0156397D02*
X0151556Y0156397D01*
X0151556Y0157183D02*
X0000000Y0157183D01*
X0000000Y0157968D02*
X0151556Y0157968D01*
X0151556Y0158754D02*
X0000000Y0158754D01*
X0000000Y0159540D02*
X0151556Y0159540D01*
X0151556Y0160326D02*
X0000000Y0160326D01*
X0000000Y0161112D02*
X0151556Y0161112D01*
X0151556Y0161898D02*
X0000000Y0161898D01*
X0000000Y0162684D02*
X0151556Y0162684D01*
X0151556Y0163470D02*
X0000000Y0163470D01*
X0000000Y0164256D02*
X0151556Y0164256D01*
X0151556Y0165042D02*
X0000000Y0165042D01*
X0000000Y0165828D02*
X0151556Y0165828D01*
X0151556Y0166614D02*
X0000000Y0166614D01*
X0000000Y0167399D02*
X0151556Y0167399D01*
X0151556Y0168185D02*
X0000000Y0168185D01*
X0000000Y0168971D02*
X0151556Y0168971D01*
X0151556Y0169757D02*
X0000000Y0169757D01*
X0000000Y0170543D02*
X0151556Y0170543D01*
X0151191Y0171329D02*
X0000000Y0171329D01*
X0000000Y0172115D02*
X0149495Y0172115D01*
X0148709Y0172901D02*
X0000000Y0172901D01*
X0000000Y0173687D02*
X0147923Y0173687D01*
X0147137Y0174473D02*
X0000000Y0174473D01*
X0000000Y0175259D02*
X0146715Y0175259D01*
X0146390Y0176044D02*
X0000000Y0176044D01*
X0000000Y0176830D02*
X0146064Y0176830D01*
X0145739Y0177616D02*
X0000000Y0177616D01*
X0000000Y0178402D02*
X0145531Y0178402D01*
X0145531Y0179188D02*
X0000000Y0179188D01*
X0000000Y0179974D02*
X0145531Y0179974D01*
X0145531Y0180760D02*
X0000000Y0180760D01*
X0000000Y0181546D02*
X0145531Y0181546D01*
X0145531Y0182332D02*
X0000000Y0182332D01*
X0000000Y0183118D02*
X0145531Y0183118D01*
X0145531Y0183904D02*
X0000000Y0183904D01*
X0000000Y0184690D02*
X0145531Y0184690D01*
X0145531Y0185475D02*
X0000000Y0185475D01*
X0000000Y0186261D02*
X0145531Y0186261D01*
X0145531Y0187047D02*
X0000000Y0187047D01*
X0000000Y0187833D02*
X0145531Y0187833D01*
X0145531Y0188619D02*
X0000000Y0188619D01*
X0000000Y0189405D02*
X0145531Y0189405D01*
X0145531Y0190191D02*
X0000000Y0190191D01*
X0000000Y0190977D02*
X0145531Y0190977D01*
X0145531Y0191763D02*
X0000000Y0191763D01*
X0000000Y0192549D02*
X0145531Y0192549D01*
X0145531Y0193335D02*
X0000000Y0193335D01*
X0000000Y0194120D02*
X0145531Y0194120D01*
X0145531Y0194906D02*
X0000000Y0194906D01*
X0000000Y0195692D02*
X0145531Y0195692D01*
X0145531Y0196478D02*
X0000000Y0196478D01*
X0000000Y0197264D02*
X0145531Y0197264D01*
X0145531Y0198050D02*
X0000000Y0198050D01*
X0000000Y0198836D02*
X0145531Y0198836D01*
X0145531Y0199622D02*
X0000000Y0199622D01*
X0000000Y0200408D02*
X0145531Y0200408D01*
X0145531Y0201194D02*
X0000032Y0201194D01*
X0000094Y0201980D02*
X0145571Y0201980D01*
X0145897Y0202766D02*
X0000276Y0202766D01*
X0000522Y0203551D02*
X0146222Y0203551D01*
X0146548Y0204337D02*
X0000848Y0204337D01*
X0001325Y0205123D02*
X0146873Y0205123D01*
X0147519Y0205909D02*
X0001925Y0205909D01*
X0002704Y0206695D02*
X0148305Y0206695D01*
X0149091Y0207481D02*
X0003773Y0207481D01*
X0005419Y0208267D02*
X0150216Y0208267D01*
X0164468Y0190191D02*
X0185531Y0190191D01*
X0185531Y0189405D02*
X0164468Y0189405D01*
X0164468Y0188619D02*
X0185531Y0188619D01*
X0185531Y0187833D02*
X0164468Y0187833D01*
X0164468Y0187047D02*
X0185531Y0187047D01*
X0185531Y0186261D02*
X0164468Y0186261D01*
X0164468Y0185475D02*
X0185531Y0185475D01*
X0185531Y0184690D02*
X0164468Y0184690D01*
X0164468Y0183904D02*
X0185531Y0183904D01*
X0185531Y0183118D02*
X0164468Y0183118D01*
X0164468Y0182332D02*
X0185531Y0182332D01*
X0185531Y0181546D02*
X0164468Y0181546D01*
X0164468Y0180760D02*
X0185531Y0180760D01*
X0185531Y0179974D02*
X0164468Y0179974D01*
X0164468Y0179188D02*
X0185531Y0179188D01*
X0185531Y0178402D02*
X0164468Y0178402D01*
X0164261Y0177616D02*
X0185739Y0177616D01*
X0186064Y0176830D02*
X0163936Y0176830D01*
X0163610Y0176044D02*
X0186390Y0176044D01*
X0186715Y0175259D02*
X0163285Y0175259D01*
X0162863Y0174473D02*
X0187137Y0174473D01*
X0187923Y0173687D02*
X0162077Y0173687D01*
X0161291Y0172901D02*
X0188709Y0172901D01*
X0189495Y0172115D02*
X0160505Y0172115D01*
X0158809Y0171329D02*
X0191191Y0171329D01*
X0193089Y0170543D02*
X0157893Y0170543D01*
X0196911Y0170543D02*
X0233089Y0170543D01*
X0231191Y0171329D02*
X0198809Y0171329D01*
X0200505Y0172115D02*
X0229495Y0172115D01*
X0228709Y0172901D02*
X0201291Y0172901D01*
X0202077Y0173687D02*
X0227923Y0173687D01*
X0227137Y0174473D02*
X0202863Y0174473D01*
X0203285Y0175259D02*
X0226715Y0175259D01*
X0226390Y0176044D02*
X0203610Y0176044D01*
X0203936Y0176830D02*
X0226064Y0176830D01*
X0225739Y0177616D02*
X0204261Y0177616D01*
X0204468Y0178402D02*
X0225531Y0178402D01*
X0225531Y0179188D02*
X0204468Y0179188D01*
X0204468Y0179974D02*
X0225531Y0179974D01*
X0225531Y0180760D02*
X0204468Y0180760D01*
X0204468Y0181546D02*
X0225531Y0181546D01*
X0225531Y0182332D02*
X0204468Y0182332D01*
X0204468Y0183118D02*
X0225531Y0183118D01*
X0225531Y0183904D02*
X0204468Y0183904D01*
X0204468Y0184690D02*
X0225531Y0184690D01*
X0225531Y0185475D02*
X0204468Y0185475D01*
X0204468Y0186261D02*
X0225531Y0186261D01*
X0225531Y0187047D02*
X0204468Y0187047D01*
X0204468Y0187833D02*
X0225531Y0187833D01*
X0225531Y0188619D02*
X0204468Y0188619D01*
X0204468Y0189405D02*
X0225531Y0189405D01*
X0225531Y0190191D02*
X0204468Y0190191D01*
X0273443Y0161112D02*
X0274057Y0161112D01*
X0325268Y0134391D02*
X0480315Y0134391D01*
X0480315Y0133605D02*
X0326345Y0133605D01*
X0327131Y0132819D02*
X0480315Y0132819D01*
X0480315Y0132033D02*
X0327470Y0132033D01*
X0327796Y0131247D02*
X0480315Y0131247D01*
X0480315Y0130462D02*
X0327905Y0130462D01*
X0327905Y0129676D02*
X0480315Y0129676D01*
X0480315Y0128890D02*
X0327852Y0128890D01*
X0327527Y0128104D02*
X0480315Y0128104D01*
X0480315Y0127318D02*
X0327201Y0127318D01*
X0326482Y0126532D02*
X0480315Y0126532D01*
X0480315Y0125746D02*
X0325600Y0125746D01*
X0313734Y0116315D02*
X0308925Y0116315D01*
X0306075Y0116315D02*
X0288168Y0116315D01*
X0288168Y0115529D02*
X0314924Y0115529D01*
X0315582Y0114743D02*
X0288168Y0114743D01*
X0288168Y0113957D02*
X0314007Y0113957D01*
X0313221Y0113171D02*
X0309914Y0113171D01*
X0305086Y0113171D02*
X0288168Y0113171D01*
X0281831Y0113171D02*
X0175650Y0113171D01*
X0175650Y0112386D02*
X0187905Y0112386D01*
X0187233Y0111600D02*
X0175650Y0111600D01*
X0175650Y0110814D02*
X0186907Y0110814D01*
X0186831Y0110028D02*
X0175650Y0110028D01*
X0175650Y0109242D02*
X0186831Y0109242D01*
X0186831Y0108456D02*
X0175650Y0108456D01*
X0175650Y0107670D02*
X0186831Y0107670D01*
X0186831Y0106884D02*
X0175650Y0106884D01*
X0175650Y0106098D02*
X0186831Y0106098D01*
X0186831Y0105312D02*
X0175650Y0105312D01*
X0175650Y0104618D02*
X0174496Y0103465D01*
X0170504Y0103465D01*
X0169350Y0104618D01*
X0169350Y0114910D01*
X0170504Y0116063D01*
X0174496Y0116063D01*
X0175650Y0114910D01*
X0175650Y0104618D01*
X0175558Y0104526D02*
X0186831Y0104526D01*
X0186831Y0103741D02*
X0174772Y0103741D01*
X0170228Y0103741D02*
X0160668Y0103741D01*
X0160668Y0104526D02*
X0169442Y0104526D01*
X0169350Y0105312D02*
X0160668Y0105312D01*
X0160668Y0106098D02*
X0169350Y0106098D01*
X0169350Y0106884D02*
X0160668Y0106884D01*
X0160668Y0107670D02*
X0169350Y0107670D01*
X0169350Y0108456D02*
X0160668Y0108456D01*
X0160668Y0109242D02*
X0169350Y0109242D01*
X0169350Y0110028D02*
X0160668Y0110028D01*
X0160650Y0110814D02*
X0169350Y0110814D01*
X0169350Y0111600D02*
X0160650Y0111600D01*
X0160650Y0112386D02*
X0169350Y0112386D01*
X0169350Y0113171D02*
X0160650Y0113171D01*
X0160650Y0113957D02*
X0169350Y0113957D01*
X0169350Y0114743D02*
X0160650Y0114743D01*
X0160030Y0115529D02*
X0169970Y0115529D01*
X0175030Y0115529D02*
X0281831Y0115529D01*
X0281831Y0114743D02*
X0175650Y0114743D01*
X0175650Y0113957D02*
X0281831Y0113957D01*
X0281831Y0112386D02*
X0247095Y0112386D01*
X0247767Y0111600D02*
X0281831Y0111600D01*
X0281831Y0110814D02*
X0248093Y0110814D01*
X0248168Y0110028D02*
X0281831Y0110028D01*
X0281831Y0109242D02*
X0248168Y0109242D01*
X0248168Y0108456D02*
X0281831Y0108456D01*
X0281831Y0107670D02*
X0248168Y0107670D01*
X0248168Y0106884D02*
X0281831Y0106884D01*
X0277507Y0106098D02*
X0277493Y0106098D01*
X0272507Y0106098D02*
X0272493Y0106098D01*
X0267507Y0106098D02*
X0267493Y0106098D01*
X0262507Y0106098D02*
X0262493Y0106098D01*
X0257507Y0106098D02*
X0257493Y0106098D01*
X0252507Y0106098D02*
X0252493Y0106098D01*
X0241831Y0106098D02*
X0237493Y0106098D01*
X0238248Y0105312D02*
X0241752Y0105312D01*
X0241752Y0104526D02*
X0238248Y0104526D01*
X0238248Y0103741D02*
X0241752Y0103741D01*
X0241752Y0102955D02*
X0238248Y0102955D01*
X0238248Y0102169D02*
X0241752Y0102169D01*
X0241752Y0101383D02*
X0238248Y0101383D01*
X0238248Y0100597D02*
X0241752Y0100597D01*
X0241752Y0099811D02*
X0238248Y0099811D01*
X0238248Y0099025D02*
X0241752Y0099025D01*
X0241752Y0098239D02*
X0238248Y0098239D01*
X0238248Y0097453D02*
X0241752Y0097453D01*
X0241831Y0096667D02*
X0237896Y0096667D01*
X0237110Y0095881D02*
X0241713Y0095881D01*
X0241713Y0095095D02*
X0233168Y0095095D01*
X0233168Y0094310D02*
X0241713Y0094310D01*
X0241713Y0093524D02*
X0233168Y0093524D01*
X0233168Y0092738D02*
X0241713Y0092738D01*
X0241713Y0091952D02*
X0233168Y0091952D01*
X0233168Y0091166D02*
X0241713Y0091166D01*
X0241713Y0090380D02*
X0233168Y0090380D01*
X0233168Y0089594D02*
X0241713Y0089594D01*
X0241713Y0088808D02*
X0233168Y0088808D01*
X0233168Y0088022D02*
X0242422Y0088022D01*
X0250058Y0088022D02*
X0261831Y0088022D01*
X0261831Y0087236D02*
X0233168Y0087236D01*
X0233168Y0086450D02*
X0261831Y0086450D01*
X0261831Y0085665D02*
X0233168Y0085665D01*
X0233168Y0084879D02*
X0261831Y0084879D01*
X0261831Y0084093D02*
X0233168Y0084093D01*
X0233168Y0083307D02*
X0261831Y0083307D01*
X0261831Y0082521D02*
X0233168Y0082521D01*
X0233168Y0081735D02*
X0261831Y0081735D01*
X0261831Y0080949D02*
X0233168Y0080949D01*
X0233168Y0080163D02*
X0255682Y0080163D01*
X0254896Y0079377D02*
X0233168Y0079377D01*
X0233168Y0078591D02*
X0254522Y0078591D01*
X0254331Y0077805D02*
X0233168Y0077805D01*
X0233168Y0077019D02*
X0254331Y0077019D01*
X0254331Y0076234D02*
X0233168Y0076234D01*
X0226831Y0080949D02*
X0000000Y0080949D01*
X0000000Y0081735D02*
X0226831Y0081735D01*
X0226831Y0082521D02*
X0000000Y0082521D01*
X0000000Y0083307D02*
X0226831Y0083307D01*
X0226831Y0084093D02*
X0000000Y0084093D01*
X0000000Y0084879D02*
X0155640Y0084879D01*
X0154855Y0085665D02*
X0000000Y0085665D01*
X0000000Y0086450D02*
X0154505Y0086450D01*
X0154331Y0087236D02*
X0000000Y0087236D01*
X0000000Y0088022D02*
X0154331Y0088022D01*
X0154331Y0088808D02*
X0000000Y0088808D01*
X0000000Y0089594D02*
X0147081Y0089594D01*
X0146295Y0090380D02*
X0000000Y0090380D01*
X0000000Y0091166D02*
X0145965Y0091166D01*
X0145965Y0091952D02*
X0000000Y0091952D01*
X0000000Y0092738D02*
X0145965Y0092738D01*
X0145965Y0093524D02*
X0072368Y0093524D01*
X0074053Y0094310D02*
X0145965Y0094310D01*
X0145965Y0095095D02*
X0074839Y0095095D01*
X0075625Y0095881D02*
X0145965Y0095881D01*
X0145965Y0096667D02*
X0089753Y0096667D01*
X0085247Y0096667D02*
X0076077Y0096667D01*
X0027631Y0093524D02*
X0000000Y0093524D01*
X0000000Y0094310D02*
X0025947Y0094310D01*
X0025161Y0095095D02*
X0000000Y0095095D01*
X0000000Y0095881D02*
X0024375Y0095881D01*
X0023923Y0096667D02*
X0000000Y0096667D01*
X0000000Y0097453D02*
X0023597Y0097453D01*
X0023272Y0098239D02*
X0000000Y0098239D01*
X0000000Y0099025D02*
X0023110Y0099025D01*
X0023110Y0099811D02*
X0000000Y0099811D01*
X0000000Y0100597D02*
X0023110Y0100597D01*
X0023115Y0101383D02*
X0000000Y0101383D01*
X0000000Y0102169D02*
X0023441Y0102169D01*
X0023766Y0102955D02*
X0000000Y0102955D01*
X0000000Y0103741D02*
X0024092Y0103741D01*
X0024783Y0104526D02*
X0000000Y0104526D01*
X0000000Y0105312D02*
X0025569Y0105312D01*
X0026719Y0106098D02*
X0000000Y0106098D01*
X0000000Y0106884D02*
X0028616Y0106884D01*
X0000000Y0073876D02*
X0117312Y0073876D01*
X0116526Y0073090D02*
X0000000Y0073090D01*
X0000000Y0072304D02*
X0116299Y0072304D01*
X0116299Y0071518D02*
X0000000Y0071518D01*
X0000000Y0070732D02*
X0116299Y0070732D01*
X0116299Y0069946D02*
X0000000Y0069946D01*
X0000000Y0069160D02*
X0116299Y0069160D01*
X0116299Y0068374D02*
X0000000Y0068374D01*
X0000000Y0067589D02*
X0116299Y0067589D01*
X0116299Y0066803D02*
X0000000Y0066803D01*
X0000000Y0066017D02*
X0116299Y0066017D01*
X0116299Y0065231D02*
X0000000Y0065231D01*
X0000000Y0064445D02*
X0116299Y0064445D01*
X0116299Y0063659D02*
X0000000Y0063659D01*
X0000000Y0062873D02*
X0116299Y0062873D01*
X0116299Y0062087D02*
X0000000Y0062087D01*
X0125311Y0045583D02*
X0218081Y0045583D01*
X0218081Y0044797D02*
X0125591Y0044797D01*
X0125591Y0044011D02*
X0218230Y0044011D01*
X0218556Y0043225D02*
X0125591Y0043225D01*
X0125591Y0042439D02*
X0219330Y0042439D01*
X0228168Y0053442D02*
X0235137Y0053442D01*
X0235922Y0054228D02*
X0228168Y0054228D01*
X0249606Y0057372D02*
X0255394Y0057372D01*
X0254609Y0058158D02*
X0250391Y0058158D01*
X0250568Y0058943D02*
X0254431Y0058943D01*
X0254431Y0059729D02*
X0250568Y0059729D01*
X0250568Y0060515D02*
X0254431Y0060515D01*
X0254431Y0061301D02*
X0250568Y0061301D01*
X0250568Y0062087D02*
X0254431Y0062087D01*
X0254331Y0062873D02*
X0250668Y0062873D01*
X0250668Y0063659D02*
X0254331Y0063659D01*
X0254331Y0064445D02*
X0250668Y0064445D01*
X0250668Y0065231D02*
X0254331Y0065231D01*
X0254331Y0066017D02*
X0250668Y0066017D01*
X0250668Y0066803D02*
X0254331Y0066803D01*
X0254331Y0067589D02*
X0250668Y0067589D01*
X0250668Y0068374D02*
X0254331Y0068374D01*
X0254331Y0069160D02*
X0250668Y0069160D01*
X0250668Y0069946D02*
X0254331Y0069946D01*
X0254331Y0070732D02*
X0250668Y0070732D01*
X0250668Y0071518D02*
X0254331Y0071518D01*
X0254331Y0072304D02*
X0250668Y0072304D01*
X0250668Y0073090D02*
X0254331Y0073090D01*
X0254331Y0073876D02*
X0250360Y0073876D01*
X0249819Y0074662D02*
X0254331Y0074662D01*
X0254331Y0075448D02*
X0248663Y0075448D01*
X0226831Y0084879D02*
X0191860Y0084879D01*
X0192645Y0085665D02*
X0226831Y0085665D01*
X0226831Y0086450D02*
X0192995Y0086450D01*
X0193168Y0087236D02*
X0226831Y0087236D01*
X0226831Y0088022D02*
X0193168Y0088022D01*
X0193168Y0088808D02*
X0226831Y0088808D01*
X0226831Y0089594D02*
X0193168Y0089594D01*
X0193168Y0090380D02*
X0226831Y0090380D01*
X0226831Y0091166D02*
X0193168Y0091166D01*
X0193168Y0091952D02*
X0226831Y0091952D01*
X0226831Y0092738D02*
X0193168Y0092738D01*
X0193168Y0093524D02*
X0226831Y0093524D01*
X0226831Y0094310D02*
X0193168Y0094310D01*
X0193168Y0095095D02*
X0226831Y0095095D01*
X0222890Y0095881D02*
X0222110Y0095881D01*
X0217890Y0095881D02*
X0193168Y0095881D01*
X0193168Y0096667D02*
X0217104Y0096667D01*
X0216752Y0097453D02*
X0193168Y0097453D01*
X0193168Y0098239D02*
X0216752Y0098239D01*
X0216752Y0099025D02*
X0193168Y0099025D01*
X0193168Y0099811D02*
X0216752Y0099811D01*
X0216752Y0100597D02*
X0193168Y0100597D01*
X0193168Y0101383D02*
X0216752Y0101383D01*
X0216752Y0102169D02*
X0193168Y0102169D01*
X0193168Y0102955D02*
X0216752Y0102955D01*
X0216752Y0103741D02*
X0193168Y0103741D01*
X0193168Y0104526D02*
X0216752Y0104526D01*
X0216752Y0105312D02*
X0193168Y0105312D01*
X0193168Y0106098D02*
X0217507Y0106098D01*
X0222493Y0106098D02*
X0222507Y0106098D01*
X0227493Y0106098D02*
X0227507Y0106098D01*
X0232493Y0106098D02*
X0232507Y0106098D01*
X0260490Y0095095D02*
X0261831Y0095095D01*
X0261831Y0094310D02*
X0261025Y0094310D01*
X0261351Y0093524D02*
X0261831Y0093524D01*
X0261831Y0092738D02*
X0261450Y0092738D01*
X0261450Y0091952D02*
X0261831Y0091952D01*
X0261831Y0091166D02*
X0261222Y0091166D01*
X0260897Y0090380D02*
X0261831Y0090380D01*
X0261831Y0089594D02*
X0260180Y0089594D01*
X0258908Y0088808D02*
X0261831Y0088808D01*
X0256092Y0088808D02*
X0250768Y0088808D01*
X0268168Y0088808D02*
X0269564Y0088808D01*
X0269331Y0089594D02*
X0268168Y0089594D01*
X0268168Y0090380D02*
X0269103Y0090380D01*
X0268778Y0091166D02*
X0268168Y0091166D01*
X0268168Y0091952D02*
X0268550Y0091952D01*
X0268550Y0092738D02*
X0268168Y0092738D01*
X0268168Y0093524D02*
X0268649Y0093524D01*
X0268975Y0094310D02*
X0268168Y0094310D01*
X0268168Y0095095D02*
X0269510Y0095095D01*
X0269997Y0088022D02*
X0268168Y0088022D01*
X0268168Y0087236D02*
X0270892Y0087236D01*
X0298168Y0095095D02*
X0315971Y0095095D01*
X0314168Y0095881D02*
X0298168Y0095881D01*
X0298168Y0096667D02*
X0305247Y0096667D01*
X0309753Y0096667D02*
X0313382Y0096667D01*
X0313790Y0103741D02*
X0308790Y0103741D01*
X0308401Y0106098D02*
X0313951Y0106098D01*
X0315448Y0105312D02*
X0293168Y0105312D01*
X0293168Y0104526D02*
X0315058Y0104526D01*
X0306599Y0106098D02*
X0293168Y0106098D01*
X0293168Y0103741D02*
X0306210Y0103741D01*
X0293853Y0102955D02*
X0293168Y0102955D01*
X0383788Y0073090D02*
X0480315Y0073090D01*
X0480315Y0072304D02*
X0384016Y0072304D01*
X0384016Y0071518D02*
X0480315Y0071518D01*
X0480315Y0070732D02*
X0384016Y0070732D01*
X0384016Y0069946D02*
X0480315Y0069946D01*
X0480315Y0069160D02*
X0384016Y0069160D01*
X0384016Y0068374D02*
X0480315Y0068374D01*
X0480315Y0067589D02*
X0384016Y0067589D01*
X0384016Y0066803D02*
X0480315Y0066803D01*
X0480315Y0066017D02*
X0384016Y0066017D01*
X0384016Y0065231D02*
X0480315Y0065231D01*
X0480315Y0064445D02*
X0384016Y0064445D01*
X0384016Y0063659D02*
X0480315Y0063659D01*
X0480315Y0062873D02*
X0384016Y0062873D01*
X0260394Y0057372D02*
X0259606Y0057372D01*
X0244431Y0041653D02*
X0125591Y0041653D01*
X0125591Y0040867D02*
X0244431Y0040867D01*
X0244431Y0040082D02*
X0125591Y0040082D01*
X0125591Y0039296D02*
X0244870Y0039296D01*
X0186831Y0091166D02*
X0160668Y0091166D01*
X0160668Y0091952D02*
X0186831Y0091952D01*
X0186831Y0092738D02*
X0160668Y0092738D01*
X0160668Y0093524D02*
X0186831Y0093524D01*
X0186831Y0094310D02*
X0160668Y0094310D01*
X0160668Y0095095D02*
X0186831Y0095095D01*
X0186831Y0095881D02*
X0160668Y0095881D01*
X0160668Y0096667D02*
X0186831Y0096667D01*
X0186831Y0097453D02*
X0160668Y0097453D01*
X0160668Y0098239D02*
X0186831Y0098239D01*
X0186831Y0099025D02*
X0160668Y0099025D01*
X0160668Y0099811D02*
X0186831Y0099811D01*
X0186831Y0100597D02*
X0160668Y0100597D01*
X0160668Y0101383D02*
X0186831Y0101383D01*
X0186831Y0102169D02*
X0160668Y0102169D01*
X0160668Y0102955D02*
X0186831Y0102955D01*
X0154331Y0102955D02*
X0153804Y0102955D01*
X0159734Y0124174D02*
X0170266Y0124174D01*
X0169480Y0124960D02*
X0160520Y0124960D01*
X0160650Y0125746D02*
X0169350Y0125746D01*
X0169350Y0126532D02*
X0160650Y0126532D01*
X0160650Y0127318D02*
X0169350Y0127318D01*
X0169350Y0128104D02*
X0160650Y0128104D01*
X0160650Y0128890D02*
X0169350Y0128890D01*
X0169350Y0129676D02*
X0160668Y0129676D01*
X0160668Y0130462D02*
X0169350Y0130462D01*
X0169350Y0131247D02*
X0160668Y0131247D01*
X0160668Y0132033D02*
X0169350Y0132033D01*
X0169350Y0132819D02*
X0160668Y0132819D01*
X0160668Y0133605D02*
X0169350Y0133605D01*
X0169350Y0134391D02*
X0160668Y0134391D01*
X0160668Y0135177D02*
X0169350Y0135177D01*
X0169931Y0135963D02*
X0160668Y0135963D01*
D27*
X0175000Y0160000D03*
X0135000Y0160000D03*
X0215000Y0160000D03*
X0255000Y0160000D03*
X0307500Y0130000D03*
X0307500Y0120000D03*
X0307500Y0110000D03*
X0307500Y0100000D03*
X0272500Y0092500D03*
X0257500Y0092500D03*
X0180000Y0102500D03*
X0155000Y0076063D03*
X0087500Y0060000D03*
X0087500Y0052500D03*
X0085000Y0027500D03*
X0085000Y0022500D03*
X0087500Y0100000D03*
X0087500Y0120000D03*
X0155000Y0202500D03*
X0195000Y0202500D03*
X0235000Y0202500D03*
X0275000Y0202500D03*
X0392500Y0060000D03*
X0392500Y0052500D03*
X0395000Y0027500D03*
X0395000Y0022500D03*
D28*
X0400000Y0025591D02*
X0407323Y0025591D01*
X0407323Y0015748D01*
X0400000Y0025591D02*
X0370079Y0025591D01*
X0110236Y0025591D02*
X0072992Y0025591D01*
X0072992Y0015748D01*
X0155000Y0180000D02*
X0155000Y0200000D01*
X0195000Y0200000D01*
X0195000Y0180000D01*
X0235000Y0180000D02*
X0235000Y0200000D01*
X0275000Y0200000D01*
X0275000Y0180000D01*
X0235000Y0200000D02*
X0195000Y0200000D01*
M02*
