%
M48
M72
T01C0.0236
T02C0.0394
T03C0.0400
T04C0.0433
T05C0.0512
T06C0.1654
%
T01
X8500Y2250
X8500Y2750
X8750Y5250
X8750Y6000
X15500Y7606
X18000Y10250
X25750Y9250
X27250Y9250
X30750Y10000
X30750Y11000
X30750Y12000
X30750Y13000
X25500Y16000
X21500Y16000
X17500Y16000
X13500Y16000
X8750Y12000
X8750Y10000
X15500Y20250
X19500Y20250
X23500Y20250
X27500Y20250
X39250Y6000
X39250Y5250
X39500Y2750
X39500Y2250
T02
X32000Y10000
X32000Y11000
X32000Y12000
X32000Y13000
X32000Y14000
T03
X40748Y5512
X42717Y5512
X7283Y5512
X5315Y5512
T04
X5299Y1575
X7299Y1575
X40732Y1575
X42732Y1575
X27472Y18110
X25472Y18110
X23472Y18110
X21472Y18110
X19472Y18110
X17472Y18110
X15472Y18110
X13472Y18110
T05
X7000Y14000
X5000Y14000
X3000Y14000
X7000Y12000
X7000Y10000
X5000Y10000
X3000Y10000
T06
X2362Y2362
X2362Y18504
X45669Y18504
X45669Y2362
M30
